# Blender 5.0.0
# www.blender.org
mtllib Circle.mtl
o Plane
v -0.882353 -0.176471 -0.485951
v -0.882353 -0.058824 -0.485951
v -0.882353 0.058824 -0.485951
v -0.882353 0.176471 -0.485951
v -0.882353 0.294118 -0.485951
v -0.882353 0.411765 -0.485951
v -0.882353 0.529412 -0.485951
v -0.882353 0.647059 -0.485951
v -0.411765 1.000000 -0.000000
v -0.294118 1.000000 -0.000000
v -0.176471 1.000000 -0.000000
v -0.058824 1.000000 -0.000000
v 0.058824 1.000000 -0.000000
v 0.176471 1.000000 -0.000000
v 0.294118 1.000000 -0.000000
v 0.411765 1.000000 -0.000000
v 1.000000 -0.411765 -0.485951
v 1.000000 -0.294118 -0.485951
v 1.000000 -0.176471 -0.485951
v 1.000000 -0.058824 -0.485951
v 1.000000 0.058824 -0.485951
v 1.000000 0.176471 -0.485951
v 1.000000 0.294118 -0.485951
v 1.000000 0.411765 -0.485951
v 0.411765 -1.000000 0.000000
v 0.294118 -1.000000 0.000000
v 0.176471 -1.000000 0.000000
v 0.058824 -1.000000 0.000000
v -0.058824 -1.000000 0.000000
v -0.176471 -1.000000 0.000000
v -0.294118 -1.000000 0.000000
v -0.411765 -1.000000 0.000000
v -1.000000 0.411765 -0.485951
v -1.000000 0.294118 -0.485951
v -1.000000 0.176471 -0.485951
v -1.000000 0.058823 -0.485951
v -1.000000 -0.058824 -0.485951
v -1.000000 -0.176471 -0.485951
v -1.000000 -0.294118 -0.485951
v -1.000000 -0.411765 -0.485951
v -1.000000 -0.411765 0.000000
v -1.000000 -0.294118 0.000000
v -1.000000 -0.176471 0.000000
v -1.000000 -0.058824 0.000000
v -1.000000 0.058824 -0.000000
v -1.000000 0.176471 -0.000000
v -1.000000 0.294118 -0.000000
v -1.000000 0.411765 -0.000000
v 0.411765 -0.882353 -0.485951
v 0.294118 -0.882353 -0.485951
v 0.176471 -0.882353 -0.485951
v 0.058824 -0.882353 -0.485951
v -0.058824 -0.882353 -0.485951
v -0.176471 -0.882353 -0.485951
v -0.294118 -0.882353 -0.485951
v -0.411765 -0.882353 -0.485951
v 1.000000 0.411765 -0.000000
v 1.000000 0.294118 -0.000000
v 1.000000 0.176471 -0.000000
v 1.000000 0.058824 -0.000000
v 1.000000 -0.058824 0.000000
v 1.000000 -0.176471 0.000000
v 1.000000 -0.294118 0.000000
v 1.000000 -0.411765 0.000000
v -0.411765 -1.000000 -0.485951
v -0.294118 -1.000000 -0.485951
v -0.176471 -1.000000 -0.485951
v -0.058824 -1.000000 -0.485951
v 0.058824 -1.000000 -0.485951
v 0.176471 -1.000000 -0.485951
v -0.882353 0.647059 -0.000000
v -0.882353 0.529412 -0.000000
v -0.882353 0.411765 -0.000000
v -0.882353 0.294118 -0.000000
v -0.882353 0.176471 -0.000000
v -0.882353 0.058824 -0.000000
v -0.882353 -0.058824 0.000000
v -0.882353 -0.176471 0.000000
v -0.882353 -0.294118 0.000000
v -0.882353 -0.411765 0.000000
v -0.882353 -0.529412 0.000000
v -0.882353 -0.647059 0.000000
v 0.294118 -1.000000 -0.485951
v 0.411765 -1.000000 -0.485951
v 0.411765 1.000000 -0.485951
v -0.764706 0.764706 -0.000000
v -0.764706 0.647059 -0.000000
v -0.764706 0.529412 -0.000000
v -0.764706 0.411765 -0.000000
v -0.764706 0.294118 -0.000000
v -0.764706 -0.294118 0.000000
v -0.764706 -0.411765 0.000000
v -0.764706 -0.529412 0.000000
v -0.764706 -0.647059 0.000000
v -0.764706 -0.764706 0.000000
v 0.294118 1.000000 -0.485951
v -0.647059 0.882353 -0.000000
v -0.647059 0.764706 -0.000000
v -0.647059 0.647059 -0.000000
v -0.647059 -0.882353 -0.485951
v -0.647059 -0.764706 -0.485951
v -0.647059 -0.647059 -0.485951
v -0.647059 0.647059 -0.485951
v -0.647059 -0.647059 0.000000
v -0.647059 -0.764706 0.000000
v -0.647059 -0.882353 0.000000
v -0.529412 0.882353 -0.000000
v -0.529412 0.764706 -0.000000
v -0.647059 0.764706 -0.485951
v -0.647059 0.882353 -0.485951
v -0.764706 -0.764706 -0.485951
v -0.764706 -0.647059 -0.485951
v -0.529412 -0.764706 0.000000
v -0.529412 -0.882353 0.000000
v -0.411765 0.882353 -0.000000
v -0.411765 0.764706 -0.000000
v -0.764706 -0.529412 -0.485951
v -0.764706 -0.411765 -0.485951
v -0.411765 -0.764706 0.000000
v -0.411765 -0.882353 0.000000
v -0.294118 0.882353 -0.000000
v -0.294118 0.764706 -0.000000
v -0.294118 -0.764706 0.000000
v -0.294118 -0.882353 0.000000
v -0.176471 0.882353 -0.000000
v -0.176471 -0.882353 0.000000
v -0.058824 0.882353 -0.000000
v -0.058824 -0.882353 0.000000
v 0.058824 0.882353 -0.000000
v 0.058824 -0.882353 0.000000
v 0.176471 0.882353 -0.000000
v 0.882353 -0.647059 -0.485951
v 0.882353 -0.529412 -0.485951
v 0.882353 -0.411765 -0.485951
v 0.882353 -0.294118 -0.485951
v 0.882353 -0.176471 -0.485951
v 0.882353 -0.058824 -0.485951
v 0.882353 0.058824 -0.485951
v 0.882353 0.176471 -0.485951
v 0.882353 0.294118 -0.485951
v 0.882353 0.411765 -0.485951
v 0.882353 0.529412 -0.485951
v 0.882353 0.647059 -0.485951
v 0.176471 -0.882353 0.000000
v 0.294118 0.882353 -0.000000
v 0.294118 0.764706 -0.000000
v 0.764706 -0.764706 -0.485951
v 0.764706 -0.647059 -0.485951
v 0.764706 -0.529412 -0.485951
v 0.764706 -0.411765 -0.485951
v 0.764706 -0.294118 -0.485951
v 0.764706 0.294118 -0.485951
v 0.764706 0.411765 -0.485951
v 0.764706 0.529412 -0.485951
v 0.764706 0.647059 -0.485951
v 0.764706 0.764706 -0.485951
v 0.647059 -0.882353 -0.485951
v 0.647059 -0.764706 -0.485951
v 0.294118 -0.764706 0.000000
v 0.294118 -0.882353 0.000000
v 0.411765 0.882353 -0.000000
v 0.411765 0.764706 -0.000000
v -0.764706 -0.294118 -0.485951
v 0.647059 -0.647059 -0.485951
v 0.647059 0.647059 -0.485951
v 0.647059 0.764706 -0.485951
v 0.647059 0.882353 -0.485951
v 0.529412 -0.882353 -0.485951
v 0.529412 -0.764706 -0.485951
v 0.529412 0.764706 -0.485951
v 0.529412 0.882353 -0.485951
v 0.411765 -0.764706 -0.485951
v 0.411765 0.764706 -0.485951
v -0.764706 0.294118 -0.485951
v 0.411765 -0.764706 0.000000
v 0.411765 -0.882353 0.000000
v 0.529412 0.882353 -0.000000
v 0.529412 0.764706 -0.000000
v -0.764706 0.411765 -0.485951
v -0.764706 0.529412 -0.485951
v 0.411765 0.882353 -0.485951
v 0.294118 -0.764706 -0.485951
v 0.294118 0.764706 -0.485951
v 0.294118 0.882353 -0.485951
v 0.176471 0.882353 -0.485951
v 0.058824 0.882353 -0.485951
v -0.058824 0.882353 -0.485951
v -0.176471 0.882353 -0.485951
v -0.764706 0.647059 -0.485951
v -0.764706 0.764706 -0.485951
v 0.529412 -0.764706 0.000000
v 0.529412 -0.882353 0.000000
v 0.647059 0.882353 -0.000000
v 0.647059 0.764706 -0.000000
v 0.647059 0.647059 -0.000000
v -0.882353 -0.647059 -0.485951
v -0.882353 -0.529412 -0.485951
v -0.294118 -0.764706 -0.485951
v -0.294118 0.764706 -0.485951
v -0.294118 0.882353 -0.485951
v -0.411765 -0.764706 -0.485951
v -0.411765 0.764706 -0.485951
v -0.411765 0.882353 -0.485951
v -0.882353 -0.411765 -0.485951
v -0.882353 -0.294118 -0.485951
v 0.647059 -0.647059 0.000000
v 0.647059 -0.764706 0.000000
v 0.647059 -0.882353 0.000000
v 0.176471 1.000000 -0.485951
v 0.764706 0.764706 -0.000000
v 0.764706 0.647059 -0.000000
v 0.764706 0.529412 -0.000000
v 0.764706 0.411765 -0.000000
v 0.764706 0.294118 -0.000000
v -0.529412 -0.882353 -0.485951
v -0.529412 -0.764706 -0.485951
v -0.529412 0.764706 -0.485951
v -0.529412 0.882353 -0.485951
v 0.764706 -0.294118 0.000000
v 0.764706 -0.411765 0.000000
v 0.764706 -0.529412 0.000000
v 0.764706 -0.647059 0.000000
v 0.764706 -0.764706 0.000000
v 0.058824 1.000000 -0.485951
v -0.058824 1.000000 -0.485951
v -0.176471 1.000000 -0.485951
v 0.882353 0.647059 -0.000000
v 0.882353 0.529412 -0.000000
v 0.882353 0.411765 -0.000000
v 0.882353 0.294118 -0.000000
v 0.882353 0.176471 -0.000000
v 0.882353 0.058824 -0.000000
v 0.882353 -0.058824 0.000000
v 0.882353 -0.176471 0.000000
v 0.882353 -0.294118 0.000000
v 0.882353 -0.411765 0.000000
v 0.882353 -0.529412 0.000000
v 0.882353 -0.647059 0.000000
v -0.294118 1.000000 -0.485951
v -0.411765 1.000000 -0.485951
v 0.000000 -1.000000 0.000000
v -0.195090 -0.980785 0.000000
v -0.382683 -0.923880 0.000000
v -0.555570 -0.831470 0.000000
v -0.707107 -0.707107 0.000000
v -0.831470 -0.555570 0.000000
v -0.923880 -0.382683 0.000000
v -0.980785 -0.195090 0.000000
v -1.000000 0.000000 0.000000
v -0.980785 0.195090 -0.000000
v -0.923880 0.382683 -0.000000
v -0.831470 0.555570 -0.000000
v -0.707107 0.707107 -0.000000
v -0.555570 0.831470 -0.000000
v -0.382683 0.923880 -0.000000
v -0.195090 0.980785 -0.000000
v 0.000000 1.000000 -0.000000
v 0.195090 0.980785 -0.000000
v 0.382683 0.923880 -0.000000
v 0.555570 0.831470 -0.000000
v 0.707107 0.707107 -0.000000
v 0.831470 0.555570 -0.000000
v 0.923880 0.382683 -0.000000
v 0.980785 0.195090 -0.000000
v 1.000000 0.000000 0.000000
v 0.980785 -0.195090 0.000000
v 0.923880 -0.382683 0.000000
v 0.831470 -0.555570 0.000000
v 0.707107 -0.707107 0.000000
v 0.555570 -0.831470 0.000000
v 0.382683 -0.923880 0.000000
v 0.195090 -0.980785 0.000000
vn -0.0000 -0.0000 -1.0000
vn -0.0000 -0.0000 1.0000
vn -0.0000 1.0000 -0.0000
vn -1.0000 -0.0000 -0.0000
vn 1.0000 -0.0000 -0.0000
vn -0.0000 -1.0000 -0.0000
vt 0.000000 0.588235
vt 0.058824 0.588235
vt 0.058824 0.647059
vt 0.000000 0.647059
vt 0.000000 0.529412
vt 0.058824 0.529412
vt 0.000000 0.470588
vt 0.058824 0.470588
vt 0.000000 0.411765
vt 0.058824 0.411765
vt 0.000000 0.352941
vt 0.058824 0.352941
vt 0.000000 0.294118
vt 0.058824 0.294118
vt 0.294118 0.941176
vt 0.294118 1.000000
vt 0.352941 1.000000
vt 0.352941 0.941176
vt 0.411765 1.000000
vt 0.411765 0.941176
vt 0.470588 1.000000
vt 0.470588 0.941176
vt 0.529412 1.000000
vt 0.529412 0.941176
vt 0.588235 1.000000
vt 0.588235 0.941176
vt 0.647059 1.000000
vt 0.647059 0.941176
vt 0.705882 1.000000
vt 0.705882 0.941176
vt 0.058824 0.764706
vt 0.117647 0.764706
vt 0.117647 0.823529
vt 0.058824 0.823529
vt 0.058824 0.705882
vt 0.117647 0.705882
vt 0.117647 0.647059
vt 0.117647 0.294118
vt 0.117647 0.352941
vt 0.058824 0.235294
vt 0.117647 0.235294
vt 0.058824 0.176471
vt 0.117647 0.176471
vt 0.176471 0.823529
vt 0.176471 0.882353
vt 0.117647 0.882353
vt 0.882353 0.176471
vt 0.882353 0.235294
vt 0.941176 0.235294
vt 0.941176 0.176471
vt 0.882353 0.294118
vt 0.941176 0.294118
vt 0.882353 0.352941
vt 0.941176 0.352941
vt 0.882353 0.647059
vt 0.882353 0.705882
vt 0.941176 0.705882
vt 0.941176 0.647059
vt 0.882353 0.764706
vt 0.941176 0.764706
vt 0.882353 0.823529
vt 0.941176 0.823529
vt 0.117647 0.117647
vt 0.176471 0.117647
vt 0.176471 0.176471
vt 0.235294 0.882353
vt 0.235294 0.941176
vt 0.176471 0.941176
vt 0.176471 0.058824
vt 0.235294 0.058824
vt 0.235294 0.117647
vt 0.294118 0.882353
vt 0.823529 0.117647
vt 0.823529 0.176471
vt 0.882353 0.117647
vt 0.647059 0.000000
vt 0.705882 0.000000
vt 0.588235 0.000000
vt 0.882353 0.882353
vt 0.823529 0.823529
vt 0.823529 0.882353
vt 0.294118 0.058824
vt 0.294118 0.117647
vt 0.352941 0.882353
vt 0.764706 0.058824
vt 0.764706 0.117647
vt 0.823529 0.058824
vt 0.529412 0.000000
vt 0.764706 0.882353
vt 0.764706 0.941176
vt 0.823529 0.941176
vt 0.352941 0.058824
vt 0.352941 0.117647
vt 0.705882 0.058824
vt 0.705882 0.117647
vt 0.470588 0.000000
vt 0.705882 0.882353
vt 0.647059 0.058824
vt 0.647059 0.117647
vt 0.647059 0.882353
vt 0.588235 0.058824
vt 0.411765 0.000000
vt 0.352941 0.000000
vt 0.529412 0.058824
vt 0.294118 0.000000
vt 0.000000 0.705882
vt 0.470588 0.058824
vt 0.411765 0.058824
vt 1.000000 0.705882
vt 1.000000 0.294118
vt 1.000000 0.647059
vt 1.000000 0.588235
vt 1.000000 0.529412
vt 0.941176 0.588235
vt 1.000000 0.470588
vt 0.941176 0.529412
vt 0.941176 0.470588
vt 1.000000 0.411765
vt 0.941176 0.411765
vt 1.000000 0.352941
s 0
f 38/1/1 1/2/1 205/3/1 39/4/1
f 37/5/1 2/6/1 1/2/1 38/1/1
f 36/7/1 3/8/1 2/6/1 37/5/1
f 35/9/1 4/10/1 3/8/1 36/7/1
f 34/11/1 5/12/1 4/10/1 35/9/1
f 33/13/1 6/14/1 5/12/1 34/11/1
f 120/15/2 32/16/2 31/17/2 124/18/2
f 124/18/2 31/17/2 30/19/2 126/20/2
f 126/20/2 30/19/2 29/21/2 128/22/2
f 128/22/2 29/21/2 28/23/2 130/24/2
f 130/24/2 28/23/2 27/25/2 144/26/2
f 144/26/2 27/25/2 26/27/2 160/28/2
f 160/28/2 26/27/2 25/29/2 176/30/2
f 197/31/1 117/32/1 112/33/1 196/34/1
f 204/35/1 118/36/1 117/32/1 197/31/1
f 205/3/1 163/37/1 118/36/1 204/35/1
f 6/14/1 179/38/1 174/39/1 5/12/1
f 7/40/1 180/41/1 179/38/1 6/14/1
f 8/42/1 189/43/1 180/41/1 7/40/1
f 112/33/1 102/44/1 101/45/1 111/46/1
f 211/47/2 212/48/2 228/49/2 227/50/2
f 212/48/2 213/51/2 229/52/2 228/49/2
f 213/51/2 214/53/2 230/54/2 229/52/2
f 219/55/2 220/56/2 236/57/2 235/58/2
f 220/56/2 221/59/2 237/60/2 236/57/2
f 221/59/2 222/61/2 238/62/2 237/60/2
f 190/63/1 109/64/1 103/65/1 189/43/1
f 101/45/1 216/66/1 215/67/1 100/68/1
f 110/69/1 218/70/1 217/71/1 109/64/1
f 216/66/1 201/72/1 56/15/1 215/67/1
f 194/73/2 195/74/2 211/47/2 210/75/2
f 15/76/3 16/77/3 85/77/3 96/76/3
f 98/64/4 97/69/4 110/69/4 109/64/4
f 14/78/3 15/76/3 96/76/3 209/78/3
f 222/61/5 223/79/5 147/79/5 148/61/5
f 206/80/2 207/81/2 223/79/2 222/61/2
f 218/70/1 203/82/1 202/83/1 217/71/1
f 201/72/1 198/84/1 55/18/1 56/15/1
f 177/85/2 178/86/2 194/73/2 193/87/2
f 194/73/6 178/86/6 170/86/6 166/73/6
f 13/88/3 14/78/3 209/78/3 224/88/3
f 222/61/4 221/59/4 149/59/4 148/61/4
f 177/85/3 193/87/3 167/87/3 171/85/3
f 191/89/2 192/90/2 208/91/2 207/81/2
f 203/82/1 200/92/1 199/93/1 202/83/1
f 161/94/2 162/95/2 178/86/2 177/85/2
f 12/96/3 13/88/3 224/88/3 225/96/3
f 221/59/4 220/56/4 150/56/4 149/59/4
f 175/97/2 176/30/2 192/90/2 191/89/2
f 15/76/2 145/98/2 161/94/2 16/77/2
f 145/98/2 146/99/2 162/95/2 161/94/2
f 159/100/2 160/28/2 176/30/2 175/97/2
f 14/78/2 131/101/2 145/98/2 15/76/2
f 95/46/4 94/33/4 112/33/4 111/46/4
f 11/102/3 12/96/3 225/96/3 226/102/3
f 121/92/5 122/93/5 199/93/5 200/92/5
f 220/56/4 219/55/4 151/55/4 150/56/4
f 46/9/4 47/11/4 34/11/4 35/9/4
f 223/79/6 207/81/6 158/81/6 147/79/6
f 93/32/5 94/33/5 112/33/5 117/32/5
f 10/103/3 11/102/3 226/102/3 239/103/3
f 45/7/4 46/9/4 35/9/4 36/7/4
f 206/80/3 222/61/3 148/61/3 164/80/3
f 92/36/5 93/32/5 117/32/5 118/36/5
f 13/88/2 129/104/2 131/101/2 14/78/2
f 9/105/3 10/103/3 239/103/3 240/105/3
f 145/98/6 131/101/6 185/101/6 184/98/6
f 44/5/4 45/7/4 36/7/4 37/5/4
f 79/3/3 91/37/3 163/37/3 205/3/3
f 91/37/5 92/36/5 118/36/5 163/37/5
f 43/1/4 44/5/4 37/5/4 38/1/4
f 159/100/3 175/97/3 172/97/3 182/100/3
f 42/4/4 43/1/4 38/1/4 39/4/4
f 41/106/4 42/4/4 39/4/4 40/106/4
f 127/107/6 125/108/6 188/108/6 187/107/6
f 214/53/4 213/51/4 153/51/4 152/53/4
f 128/22/3 130/24/3 52/24/3 53/22/3
f 213/51/4 212/48/4 154/48/4 153/51/4
f 90/39/6 74/12/6 5/12/6 174/39/6
f 16/77/5 161/94/5 181/94/5 85/77/5
f 12/96/2 127/107/2 129/104/2 13/88/2
f 116/83/6 108/71/6 217/71/6 202/83/6
f 212/48/4 211/47/4 155/47/4 154/48/4
f 89/38/5 90/39/5 174/39/5 179/38/5
f 160/28/4 159/100/4 182/100/4 50/28/4
f 107/70/3 115/82/3 203/82/3 218/70/3
f 210/75/5 211/47/5 155/47/5 156/75/5
f 88/41/5 89/38/5 179/38/5 180/41/5
f 71/42/3 87/43/3 189/43/3 8/42/3
f 87/43/5 88/41/5 180/41/5 189/43/5
f 119/72/3 123/84/3 198/84/3 201/72/3
f 87/43/4 86/63/4 190/63/4 189/43/4
f 207/81/5 208/91/5 157/91/5 158/81/5
f 211/47/6 195/74/6 165/74/6 155/47/6
f 207/81/4 206/80/4 164/80/4 158/81/4
f 194/73/3 210/75/3 156/75/3 166/73/3
f 11/102/2 125/108/2 127/107/2 12/96/2
f 105/45/6 95/46/6 111/46/6 101/45/6
f 176/30/5 25/29/5 84/29/5 49/30/5
f 94/33/3 104/44/3 102/44/3 112/33/3
f 82/34/4 81/31/4 197/31/4 196/34/4
f 162/95/6 146/99/6 183/99/6 173/95/6
f 115/82/4 9/105/4 240/105/4 203/82/4
f 238/62/6 222/61/6 148/61/6 132/62/6
f 81/31/4 80/35/4 204/35/4 197/31/4
f 192/90/6 176/30/6 49/30/6 168/90/6
f 78/2/5 79/3/5 205/3/5 1/2/5
f 175/97/3 191/89/3 169/89/3 172/97/3
f 219/55/3 235/58/3 135/58/3 151/55/3
f 77/6/5 78/2/5 1/2/5 2/6/5
f 64/109/6 236/57/6 134/57/6 17/109/6
f 129/104/6 127/107/6 187/107/6 186/104/6
f 10/103/2 121/92/2 125/108/2 11/102/2
f 76/8/5 77/6/5 2/6/5 3/8/5
f 32/16/4 120/15/4 56/15/4 65/16/4
f 130/24/3 144/26/3 51/26/3 52/24/3
f 75/10/5 76/8/5 3/8/5 4/10/5
f 146/99/4 145/98/4 184/98/4 183/99/4
f 74/12/5 75/10/5 4/10/5 5/12/5
f 122/93/6 116/83/6 202/83/6 199/93/6
f 195/74/4 194/73/4 166/73/4 165/74/4
f 230/54/6 214/53/6 152/53/6 140/54/6
f 73/14/4 72/40/4 7/40/4 6/14/4
f 124/18/3 126/20/3 54/20/3 55/18/3
f 193/87/5 194/73/5 166/73/5 167/87/5
f 99/65/6 87/43/6 189/43/6 103/65/6
f 72/40/4 71/42/4 8/42/4 7/40/4
f 86/63/3 98/64/3 109/64/3 190/63/3
f 9/105/2 115/82/2 121/92/2 10/103/2
f 115/82/2 116/83/2 122/93/2 121/92/2
f 229/52/3 57/110/3 24/110/3 141/52/3
f 211/47/3 227/50/3 143/50/3 155/47/3
f 114/67/6 106/68/6 100/68/6 215/67/6
f 105/45/3 113/66/3 216/66/3 101/45/3
f 31/17/6 32/16/6 65/16/6 66/17/6
f 30/19/6 31/17/6 66/17/6 67/19/6
f 178/86/6 162/95/6 173/95/6 170/86/6
f 29/21/6 30/19/6 67/19/6 68/21/6
f 237/60/5 238/62/5 132/62/5 133/60/5
f 106/68/4 105/45/4 101/45/4 100/68/4
f 161/94/3 177/85/3 171/85/3 181/94/3
f 28/23/6 29/21/6 68/21/6 69/23/6
f 63/111/5 64/109/5 17/109/5 18/111/5
f 119/72/2 120/15/2 124/18/2 123/84/2
f 240/105/1 239/103/1 200/92/1 203/82/1
f 107/70/2 108/71/2 116/83/2 115/82/2
f 47/11/4 48/13/4 33/13/4 34/11/4
f 236/57/5 237/60/5 133/60/5 134/57/5
f 104/44/5 105/45/5 101/45/5 102/44/5
f 208/91/6 192/90/6 168/90/6 157/91/6
f 27/25/6 28/23/6 69/23/6 70/25/6
f 62/112/5 63/111/5 18/111/5 19/112/5
f 191/89/3 207/81/3 158/81/3 169/89/3
f 26/27/6 27/25/6 70/25/6 83/27/6
f 61/113/5 62/112/5 19/112/5 20/113/5
f 235/58/4 234/114/4 136/114/4 135/58/4
f 80/35/6 41/106/6 40/106/6 204/35/6
f 25/29/6 26/27/6 83/27/6 84/29/6
f 94/33/6 82/34/6 196/34/6 112/33/6
f 113/66/2 114/67/2 120/15/2 119/72/2
f 239/103/1 226/102/1 188/108/1 200/92/1
f 97/69/2 98/64/2 108/71/2 107/70/2
f 135/58/1 18/111/1 17/109/1 134/57/1
f 136/114/1 19/112/1 18/111/1 135/58/1
f 131/101/6 129/104/6 186/104/6 185/101/6
f 123/84/5 124/18/5 55/18/5 198/84/5
f 60/115/5 61/113/5 20/113/5 21/115/5
f 234/114/4 233/116/4 137/116/4 136/114/4
f 144/26/3 160/28/3 50/28/3 51/26/3
f 233/116/4 232/117/4 138/117/4 137/116/4
f 59/118/5 60/115/5 21/115/5 22/118/5
f 232/117/4 231/119/4 139/119/4 138/117/4
f 58/120/5 59/118/5 22/118/5 23/120/5
f 137/116/1 20/113/1 19/112/1 136/114/1
f 138/117/1 21/115/1 20/113/1 137/116/1
f 105/45/2 106/68/2 114/67/2 113/66/2
f 226/102/1 225/96/1 187/107/1 188/108/1
f 225/96/1 224/88/1 186/104/1 187/107/1
f 86/63/2 87/43/2 99/65/2 98/64/2
f 139/119/1 22/118/1 21/115/1 138/117/1
f 140/54/1 23/120/1 22/118/1 139/119/1
f 231/119/4 230/54/4 140/54/4 139/119/4
f 57/110/5 58/120/5 23/120/5 24/110/5
f 125/108/6 121/92/6 200/92/6 188/108/6
f 126/20/3 128/22/3 53/22/3 54/20/3
f 228/49/5 229/52/5 141/52/5 142/49/5
f 108/71/6 98/64/6 109/64/6 217/71/6
f 227/50/5 228/49/5 142/49/5 143/50/5
f 141/52/1 24/110/1 23/120/1 140/54/1
f 39/4/1 205/3/1 204/35/1 40/106/1
f 94/33/2 95/46/2 105/45/2 104/44/2
f 224/88/1 209/78/1 185/101/1 186/104/1
f 209/78/1 96/76/1 184/98/1 185/101/1
f 182/100/1 172/97/1 49/30/1 50/28/1
f 184/98/1 181/94/1 173/95/1 183/99/1
f 71/42/2 72/40/2 88/41/2 87/43/2
f 72/40/2 73/14/2 89/38/2 88/41/2
f 73/14/2 74/12/2 90/39/2 89/38/2
f 48/13/3 73/14/3 6/14/3 33/13/3
f 97/69/3 107/70/3 218/70/3 110/69/3
f 120/15/6 114/67/6 215/67/6 56/15/6
f 113/66/3 119/72/3 201/72/3 216/66/3
f 98/64/5 99/65/5 103/65/5 109/64/5
f 79/3/2 80/35/2 92/36/2 91/37/2
f 80/35/2 81/31/2 93/32/2 92/36/2
f 81/31/2 82/34/2 94/33/2 93/32/2
f 96/76/1 85/77/1 181/94/1 184/98/1
f 172/97/1 169/89/1 168/90/1 49/30/1
f 181/94/1 171/85/1 170/86/1 173/95/1
f 169/89/1 158/81/1 157/91/1 168/90/1
f 171/85/1 167/87/1 166/73/1 170/86/1
f 164/80/1 148/61/1 147/79/1 158/81/1
f 166/73/1 156/75/1 155/47/1 165/74/1
f 48/13/2 47/11/2 74/12/2 73/14/2
f 47/11/2 46/9/2 75/10/2 74/12/2
f 46/9/2 45/7/2 76/8/2 75/10/2
f 45/7/2 44/5/2 77/6/2 76/8/2
f 44/5/2 43/1/2 78/2/2 77/6/2
f 43/1/2 42/4/2 79/3/2 78/2/2
f 42/4/2 41/106/2 80/35/2 79/3/2
f 149/59/1 133/60/1 132/62/1 148/61/1
f 150/56/1 134/57/1 133/60/1 149/59/1
f 151/55/1 135/58/1 134/57/1 150/56/1
f 153/51/1 141/52/1 140/54/1 152/53/1
f 154/48/1 142/49/1 141/52/1 153/51/1
f 155/47/1 143/50/1 142/49/1 154/48/1
f 50/28/1 49/30/1 84/29/1 83/27/1
f 51/26/1 50/28/1 83/27/1 70/25/1
f 52/24/1 51/26/1 70/25/1 69/23/1
f 229/52/2 230/54/2 58/120/2 57/110/2
f 230/54/2 231/119/2 59/118/2 58/120/2
f 231/119/2 232/117/2 60/115/2 59/118/2
f 232/117/2 233/116/2 61/113/2 60/115/2
f 233/116/2 234/114/2 62/112/2 61/113/2
f 234/114/2 235/58/2 63/111/2 62/112/2
f 235/58/2 236/57/2 64/109/2 63/111/2
f 53/22/1 52/24/1 69/23/1 68/21/1
f 54/20/1 53/22/1 68/21/1 67/19/1
f 55/18/1 54/20/1 67/19/1 66/17/1
f 56/15/1 55/18/1 66/17/1 65/16/1
l 242 241
l 243 242
l 244 243
l 245 244
l 246 245
l 247 246
l 248 247
l 249 248
l 250 249
l 251 250
l 252 251
l 253 252
l 254 253
l 255 254
l 256 255
l 257 256
l 258 257
l 259 258
l 260 259
l 261 260
l 262 261
l 263 262
l 264 263
l 265 264
l 266 265
l 267 266
l 268 267
l 269 268
l 270 269
l 271 270
l 272 271
l 241 272
