# Blender 5.0.0
# www.blender.org
mtllib RIGHTARROW.mtl
o Plane
v 1.000000 -0.111111 -0.000000
v 1.000000 0.111111 -0.000000
v -1.000000 0.111111 0.000000
v -1.000000 -0.111111 0.000000
v -0.333333 0.555556 0.500000
v -1.000000 -0.111111 0.500000
v -1.000000 0.111111 0.500000
v -0.333333 0.555556 0.000000
v -0.111111 0.555556 0.000000
v 1.000000 0.111111 0.500000
v 1.000000 -0.111111 0.500000
v 0.777778 -0.111111 0.500000
v -0.333333 0.333333 0.000000
v -0.111111 0.333333 0.000000
v 0.111111 0.333333 -0.000000
v 0.333333 0.333333 -0.000000
v 0.555556 0.333333 -0.000000
v 0.777778 0.111111 0.500000
v -0.777778 0.111111 0.000000
v -0.555556 0.111111 0.000000
v -0.333333 0.111111 0.000000
v -0.111111 0.111111 0.000000
v 0.111111 0.111111 -0.000000
v 0.333333 0.111111 -0.000000
v 0.555556 0.111111 -0.000000
v 0.777778 0.111111 -0.000000
v -0.777778 -0.111111 0.000000
v -0.555556 -0.111111 0.000000
v -0.333333 -0.111111 0.000000
v -0.111111 -0.111111 0.000000
v 0.111111 -0.111111 -0.000000
v 0.333333 -0.111111 -0.000000
v 0.555556 -0.111111 -0.000000
v 0.777778 -0.111111 -0.000000
v -0.333333 -0.333333 0.000000
v -0.111111 -0.333333 0.000000
v 0.111111 -0.333333 -0.000000
v 0.333333 -0.333333 -0.000000
v 0.555556 -0.333333 -0.000000
v 0.777778 -0.333333 -0.000000
v -0.333333 -0.555556 0.000000
v -0.111111 -0.555556 0.000000
v 0.111111 -0.555556 -0.000000
v -1.000000 -0.111111 0.000000
v -1.000000 0.111111 0.000000
v -1.888889 0.111111 0.000001
v -1.666667 0.111111 0.000001
v -1.444444 0.111111 0.000000
v -1.222222 0.111111 0.000000
v -1.888889 -0.111111 0.000001
v -1.666667 -0.111111 0.000001
v -1.444444 -0.111111 0.000000
v -1.222222 -0.111111 0.000000
v -0.111111 0.555556 0.500000
v -0.333333 0.333333 0.500000
v -0.111111 0.333333 0.500000
v 0.111111 0.333333 0.500000
v 0.333333 0.333333 0.500000
v 0.555556 0.333333 0.500000
v -0.777778 0.111111 0.500000
v -0.555555 0.111111 0.500000
v -0.333333 0.111111 0.500000
v -0.111111 0.111111 0.500000
v 0.111111 0.111111 0.500000
v 0.333333 0.111111 0.500000
v 0.555556 0.111111 0.500000
v -0.777778 -0.111111 0.500000
v -0.555555 -0.111111 0.500000
v -0.333333 -0.111111 0.500000
v -0.111111 -0.111111 0.500000
v 0.111111 -0.111111 0.500000
v 0.333333 -0.111111 0.500000
v 0.555556 -0.111111 0.500000
v -0.333333 -0.333333 0.500000
v -0.111111 -0.333333 0.500000
v 0.111111 -0.333333 0.500000
v 0.333333 -0.333333 0.500000
v 0.555556 -0.333333 0.500000
v 0.777778 -0.333333 0.500000
v -0.333333 -0.555556 0.500000
v -0.111111 -0.555556 0.500000
v 0.111111 -0.555556 0.500000
v -1.000000 -0.111111 0.500000
v -1.000000 0.111111 0.500000
v -1.222222 0.111111 0.500000
v -1.222222 -0.111111 0.500000
v -1.888889 0.111111 0.500001
v -1.666667 0.111111 0.500001
v -1.444444 0.111111 0.500000
v -1.888889 -0.111111 0.500001
v -1.666667 -0.111111 0.500001
v -1.444444 -0.111111 0.500000
vn -0.0000 -0.0000 -1.0000
vn -0.0000 -0.0000 1.0000
vn -0.0000 1.0000 -0.0000
vn -0.0000 -1.0000 -0.0000
vn 1.0000 -0.0000 -0.0000
vn -1.0000 -0.0000 -0.0000
vt 0.888889 0.444444
vt 0.888889 0.555556
vt 1.000000 0.555556
vt 1.000000 0.444444
vt 0.444444 0.666667
vt 0.444444 0.777778
vt 0.555556 0.777778
vt 0.555556 0.666667
vt 0.666667 0.777778
vt 0.666667 0.666667
vt 0.111111 0.555556
vt 0.111111 0.666667
vt 0.222222 0.666667
vt 0.222222 0.555556
vt 0.333333 0.666667
vt 0.333333 0.555556
vt 0.444444 0.555556
vt 0.555556 0.555556
vt 0.666667 0.555556
vt 0.000000 0.444444
vt 0.000000 0.555556
vt 0.111111 0.444444
vt 0.222222 0.444444
vt 0.333333 0.444444
vt 0.444444 0.444444
vt 0.555556 0.444444
vt 0.666667 0.444444
vt 0.777778 0.555556
vt 0.777778 0.444444
vt 0.222222 0.333333
vt 0.333333 0.333333
vt 0.444444 0.333333
vt 0.555556 0.333333
vt 0.666667 0.333333
vt 0.555556 0.222222
vt 0.666667 0.222222
s 0
f 19/1/1 27/2/1 4/3/1 3/4/1
f 37/5/1 43/6/1 42/7/1 36/8/1
f 36/8/1 42/7/1 41/9/1 35/10/1
f 34/11/1 40/12/1 39/13/1 33/14/1
f 33/14/1 39/13/1 38/15/1 32/16/1
f 32/16/1 38/15/1 37/5/1 31/17/1
f 31/17/1 37/5/1 36/8/1 30/18/1
f 30/18/1 36/8/1 35/10/1 29/19/1
f 2/20/1 1/21/1 34/11/1 26/22/1
f 26/22/1 34/11/1 33/14/1 25/23/1
f 25/23/1 33/14/1 32/16/1 24/24/1
f 24/24/1 32/16/1 31/17/1 23/25/1
f 23/25/1 31/17/1 30/18/1 22/26/1
f 22/26/1 30/18/1 29/19/1 21/27/1
f 21/27/1 29/19/1 28/28/1 20/29/1
f 20/29/1 28/28/1 27/2/1 19/1/1
f 72/16/2 71/17/2 76/5/2 77/15/2
f 17/30/1 25/23/1 24/24/1 16/31/1
f 16/31/1 24/24/1 23/25/1 15/32/1
f 15/32/1 23/25/1 22/26/1 14/33/1
f 14/33/1 22/26/1 21/27/1 13/34/1
f 73/14/2 72/16/2 77/15/2 78/13/2
f 76/5/2 75/8/2 81/7/2 82/6/2
f 12/11/2 73/14/2 78/13/2 79/12/2
f 9/35/1 14/33/1 13/34/1 8/36/1
f 60/1/2 7/4/2 6/3/2 67/2/2
f 75/8/2 74/10/2 80/9/2 81/7/2
f 45/20/1 44/21/1 53/11/1 49/22/1
f 49/22/1 53/11/1 52/14/1 48/23/1
f 48/23/1 52/14/1 51/16/1 47/24/1
f 47/24/1 51/16/1 50/17/1 46/25/1
f 71/17/2 70/18/2 75/8/2 76/5/2
f 70/18/2 69/19/2 74/10/2 75/8/2
f 10/20/2 18/22/2 12/11/2 11/21/2
f 18/22/2 66/23/2 73/14/2 12/11/2
f 66/23/2 65/24/2 72/16/2 73/14/2
f 65/24/2 64/25/2 71/17/2 72/16/2
f 64/25/2 63/26/2 70/18/2 71/17/2
f 63/26/2 62/27/2 69/19/2 70/18/2
f 62/27/2 61/29/2 68/28/2 69/19/2
f 61/29/2 60/1/2 67/2/2 68/28/2
f 59/30/2 58/31/2 65/24/2 66/23/2
f 58/31/2 57/32/2 64/25/2 65/24/2
f 57/32/2 56/33/2 63/26/2 64/25/2
f 56/33/2 55/34/2 62/27/2 63/26/2
f 54/35/2 5/36/2 55/34/2 56/33/2
f 84/20/2 85/22/2 86/11/2 83/21/2
f 85/22/2 89/23/2 92/14/2 86/11/2
f 89/23/2 88/24/2 91/16/2 92/14/2
f 88/24/2 87/25/2 90/17/2 91/16/2
f 49/22/3 48/23/3 89/23/3 85/22/3
f 38/15/4 39/13/4 78/13/4 77/15/4
f 50/17/4 51/16/4 91/16/4 90/17/4
f 39/13/4 40/12/4 79/12/4 78/13/4
f 26/22/3 25/23/3 66/23/3 18/22/3
f 51/16/4 52/14/4 92/14/4 91/16/4
f 41/9/4 42/7/4 81/7/4 80/9/4
f 4/3/4 27/2/4 67/2/4 6/3/4
f 52/14/4 53/11/4 86/11/4 92/14/4
f 42/7/4 43/6/4 82/6/4 81/7/4
f 14/33/5 9/35/5 54/35/5 56/33/5
f 27/2/4 28/28/4 68/28/4 67/2/4
f 15/32/3 14/33/3 56/33/3 57/32/3
f 43/6/5 37/5/5 76/5/5 82/6/5
f 8/36/6 13/34/6 55/34/6 5/36/6
f 28/28/4 29/19/4 69/19/4 68/28/4
f 16/31/3 15/32/3 57/32/3 58/31/3
f 17/30/3 16/31/3 58/31/3 59/30/3
f 35/10/6 41/9/6 80/9/6 74/10/6
f 1/21/5 2/20/5 10/20/5 11/21/5
f 46/25/6 50/17/6 90/17/6 87/25/6
f 40/12/5 34/11/5 12/11/5 79/12/5
f 3/4/6 4/3/6 6/3/6 7/4/6
f 19/1/3 3/4/3 7/4/3 60/1/3
f 44/21/5 45/20/5 84/20/5 83/21/5
f 2/20/3 26/22/3 18/22/3 10/20/3
f 25/23/5 17/30/5 59/30/5 66/23/5
f 20/29/3 19/1/3 60/1/3 61/29/3
f 45/20/3 49/22/3 85/22/3 84/20/3
f 34/11/4 1/21/4 11/21/4 12/11/4
f 21/27/3 20/29/3 61/29/3 62/27/3
f 53/11/4 44/21/4 83/21/4 86/11/4
f 47/24/3 46/25/3 87/25/3 88/24/3
f 29/19/6 35/10/6 74/10/6 69/19/6
f 48/23/3 47/24/3 88/24/3 89/23/3
f 9/35/3 8/36/3 5/36/3 54/35/3
f 37/5/4 38/15/4 77/15/4 76/5/4
f 13/34/6 21/27/6 62/27/6 55/34/6
