# Blender 5.1.2
# www.blender.org
mtllib Item.mtl
o 円錐.001
v 0.000000 2.191649 -1.000000
v -0.951056 2.191649 -0.309017
v -0.587785 2.191649 0.809017
v 0.587786 2.191649 0.809017
v 0.951057 2.191649 -0.309017
v -0.000000 0.191649 0.000000
v 0.000000 2.191649 -1.000000
v 0.951056 2.191649 -0.309017
v 0.587785 2.191649 0.809017
v -0.587785 2.191649 0.809017
v -0.951057 2.191649 -0.309017
v 0.000000 4.191649 0.000000
vn -0.5449 -0.3750 -0.7500
vn -0.8817 -0.3750 0.2865
vn -0.0000 -0.3750 0.9270
vn -0.0000 1.0000 -0.0000
vn 0.8817 -0.3750 0.2865
vn 0.5449 -0.3750 -0.7500
vn 0.5449 0.3750 -0.7500
vn 0.8817 0.3750 0.2865
vn -0.0000 0.3750 0.9270
vn -0.0000 -1.0000 -0.0000
vn -0.8817 0.3750 0.2865
vn -0.5449 0.3750 -0.7500
vt 0.250000 0.490000
vt 0.250000 0.250000
vt 0.478254 0.324164
vt 0.391068 0.055836
vt 0.108932 0.055836
vt 0.750000 0.490000
vt 0.978254 0.324164
vt 0.891068 0.055836
vt 0.608932 0.055836
vt 0.521746 0.324164
vt 0.021746 0.324164
s 0
f 1/1/1 6/2/1 2/3/1
f 2/3/2 6/2/2 3/4/2
f 3/4/3 6/2/3 4/5/3
f 1/6/4 2/7/4 3/8/4 4/9/4 5/10/4
f 4/5/5 6/2/5 5/11/5
f 5/11/6 6/2/6 1/1/6
f 7/1/7 12/2/7 8/3/7
f 8/3/8 12/2/8 9/4/8
f 9/4/9 12/2/9 10/5/9
f 7/6/10 8/7/10 9/8/10 10/9/10 11/10/10
f 10/5/11 12/2/11 11/11/11
f 11/11/12 12/2/12 7/1/12
