# Blender 5.0.0
# www.blender.org
mtllib 0.mtl
o Plane.026
v -0.555556 1.000000 -0.000000
v -0.333333 1.000000 -0.000000
v -0.111111 1.000000 -0.000000
v 0.111111 1.000000 -0.000000
v 0.333333 1.000000 -0.000000
v 0.555556 1.000000 -0.000000
v 0.555556 -1.000000 0.000000
v 0.333333 -1.000000 0.000000
v 0.111111 -1.000000 0.000000
v -0.111111 -1.000000 0.000000
v -0.333333 -1.000000 0.000000
v -0.555556 -1.000000 0.000000
v -0.777778 0.777778 -0.000000
v -0.777778 0.555556 -0.000000
v -0.777778 0.333333 -0.000000
v -0.777778 0.111111 -0.000000
v -0.777778 -0.111111 0.000000
v -0.777778 -0.333333 0.000000
v -0.777778 -0.555556 0.000000
v -0.777778 -0.777778 0.000000
v -0.555556 0.777778 -0.000000
v -0.555556 0.555556 -0.000000
v -0.555556 0.333333 -0.000000
v -0.555556 0.111111 -0.000000
v -0.555556 -0.111111 0.000000
v -0.555556 -0.333333 0.000000
v -0.555556 -0.555556 0.000000
v -0.555556 -0.777778 0.000000
v -0.333333 0.777778 -0.000000
v -0.333333 0.555556 -0.000000
v -0.333333 0.333333 -0.000000
v -0.333333 0.111111 -0.000000
v -0.333333 -0.111111 0.000000
v -0.333333 -0.333333 0.000000
v -0.333333 -0.555556 0.000000
v -0.333333 -0.777778 0.000000
v -0.111111 0.777778 -0.000000
v -0.111111 0.555556 -0.000000
v -0.111111 -0.555556 0.000000
v -0.111111 -0.777778 0.000000
v 0.111111 0.777778 -0.000000
v 0.111111 0.555556 -0.000000
v 0.111111 -0.555556 0.000000
v 0.111111 -0.777778 0.000000
v 0.333333 0.777778 -0.000000
v 0.333333 0.555556 -0.000000
v 0.333333 0.333333 -0.000000
v 0.333333 0.111111 -0.000000
v 0.333333 -0.111111 0.000000
v 0.333333 -0.333333 0.000000
v 0.333333 -0.555556 0.000000
v 0.333333 -0.777778 0.000000
v 0.555556 0.777778 -0.000000
v 0.555556 0.555556 -0.000000
v 0.555556 0.333333 -0.000000
v 0.555556 0.111111 -0.000000
v 0.555556 -0.111111 0.000000
v 0.555556 -0.333333 0.000000
v 0.555556 -0.555556 0.000000
v 0.555556 -0.777778 0.000000
v 0.777778 0.777778 -0.000000
v 0.777778 0.555556 -0.000000
v 0.777778 0.333333 -0.000000
v 0.777778 0.111111 -0.000000
v 0.777778 -0.111111 0.000000
v 0.777778 -0.333333 0.000000
v 0.777778 -0.555556 0.000000
v 0.777778 -0.777778 0.000000
v -0.555556 1.000000 -0.500000
v -0.333333 1.000000 -0.500000
v -0.111111 1.000000 -0.500000
v 0.111111 1.000000 -0.500000
v 0.333333 1.000000 -0.500000
v 0.555556 1.000000 -0.500000
v 0.555556 -1.000000 -0.500000
v 0.333333 -1.000000 -0.500000
v 0.111111 -1.000000 -0.500000
v -0.111111 -1.000000 -0.500000
v -0.333333 -1.000000 -0.500000
v -0.555556 -1.000000 -0.500000
v -0.555556 -0.777778 -0.500000
v -0.333333 -0.777778 -0.500000
v -0.111111 -0.777778 -0.500000
v 0.111111 -0.777778 -0.500000
v 0.333333 -0.777778 -0.500000
v 0.555556 -0.777778 -0.500000
v -0.777778 0.777778 -0.500000
v -0.777778 0.555556 -0.500000
v -0.777778 0.333333 -0.500000
v -0.777778 0.111111 -0.500000
v -0.777778 -0.111111 -0.500000
v -0.777778 -0.333333 -0.500000
v -0.777778 -0.555556 -0.500000
v -0.777778 -0.777778 -0.500000
v -0.555556 0.777778 -0.500000
v -0.555556 0.555556 -0.500000
v -0.555556 0.333333 -0.500000
v -0.555556 0.111111 -0.500000
v -0.555556 -0.111111 -0.500000
v -0.555556 -0.333333 -0.500000
v -0.555556 -0.555556 -0.500000
v -0.333333 0.777778 -0.500000
v -0.333333 0.555556 -0.500000
v -0.333333 0.333333 -0.500000
v -0.333333 0.111111 -0.500000
v -0.333333 -0.111111 -0.500000
v -0.333333 -0.333333 -0.500000
v -0.333333 -0.555556 -0.500000
v -0.111111 0.777778 -0.500000
v -0.111111 0.555556 -0.500000
v -0.111111 -0.555556 -0.500000
v 0.111111 0.777778 -0.500000
v 0.111111 0.555556 -0.500000
v 0.111111 -0.555556 -0.500000
v 0.333333 0.777778 -0.500000
v 0.333333 0.555556 -0.500000
v 0.333333 0.333333 -0.500000
v 0.333333 0.111111 -0.500000
v 0.333333 -0.111111 -0.500000
v 0.333333 -0.333333 -0.500000
v 0.333333 -0.555556 -0.500000
v 0.555556 0.777778 -0.500000
v 0.555556 0.555556 -0.500000
v 0.555556 0.333333 -0.500000
v 0.555556 0.111111 -0.500000
v 0.555556 -0.111111 -0.500000
v 0.555556 -0.333333 -0.500000
v 0.555556 -0.555556 -0.500000
v 0.777778 0.777778 -0.500000
v 0.777778 0.555556 -0.500000
v 0.777778 0.333333 -0.500000
v 0.777778 0.111111 -0.500000
v 0.777778 -0.111111 -0.500000
v 0.777778 -0.333333 -0.500000
v 0.777778 -0.555556 -0.500000
v 0.777778 -0.777778 -0.500000
vn -0.0000 -0.0000 1.0000
vn -0.0000 -0.0000 -1.0000
vn -1.0000 -0.0000 -0.0000
vn -0.0000 -1.0000 -0.0000
vn -0.0000 1.0000 -0.0000
vn 1.0000 -0.0000 -0.0000
vt 0.222222 0.888889
vt 0.222222 1.000000
vt 0.333333 1.000000
vt 0.333333 0.888889
vt 0.444444 1.000000
vt 0.444444 0.888889
vt 0.555556 1.000000
vt 0.555556 0.888889
vt 0.666667 1.000000
vt 0.666667 0.888889
vt 0.777778 1.000000
vt 0.777778 0.888889
vt 0.777778 0.111111
vt 0.777778 0.222222
vt 0.888889 0.222222
vt 0.888889 0.111111
vt 0.777778 0.333333
vt 0.888889 0.333333
vt 0.777778 0.444444
vt 0.888889 0.444444
vt 0.777778 0.555556
vt 0.888889 0.555556
vt 0.777778 0.666667
vt 0.888889 0.666667
vt 0.777778 0.777778
vt 0.888889 0.777778
vt 0.888889 0.888889
vt 0.666667 0.000000
vt 0.666667 0.111111
vt 0.777778 0.000000
vt 0.666667 0.222222
vt 0.666667 0.333333
vt 0.666667 0.444444
vt 0.666667 0.555556
vt 0.666667 0.666667
vt 0.666667 0.777778
vt 0.555556 0.000000
vt 0.555556 0.111111
vt 0.555556 0.222222
vt 0.555556 0.777778
vt 0.444444 0.000000
vt 0.444444 0.111111
vt 0.333333 0.000000
vt 0.333333 0.111111
vt 0.333333 0.222222
vt 0.444444 0.222222
vt 0.333333 0.777778
vt 0.444444 0.777778
vt 0.222222 0.000000
vt 0.222222 0.111111
vt 0.222222 0.222222
vt 0.222222 0.333333
vt 0.333333 0.333333
vt 0.222222 0.444444
vt 0.333333 0.444444
vt 0.222222 0.555556
vt 0.333333 0.555556
vt 0.222222 0.666667
vt 0.333333 0.666667
vt 0.222222 0.777778
vt 0.111111 0.111111
vt 0.111111 0.222222
vt 0.111111 0.333333
vt 0.111111 0.444444
vt 0.111111 0.555556
vt 0.111111 0.666667
vt 0.111111 0.777778
vt 0.111111 0.888889
s 0
f 28/1/1 12/2/1 11/3/1 36/4/1
f 36/4/1 11/3/1 10/5/1 40/6/1
f 40/6/1 10/5/1 9/7/1 44/8/1
f 44/8/1 9/7/1 8/9/1 52/10/1
f 52/10/1 8/9/1 7/11/1 60/12/1
f 53/13/1 54/14/1 62/15/1 61/16/1
f 54/14/1 55/17/1 63/18/1 62/15/1
f 55/17/1 56/19/1 64/20/1 63/18/1
f 56/19/1 57/21/1 65/22/1 64/20/1
f 57/21/1 58/23/1 66/24/1 65/22/1
f 58/23/1 59/25/1 67/26/1 66/24/1
f 59/25/1 60/12/1 68/27/1 67/26/1
f 5/28/1 45/29/1 53/13/1 6/30/1
f 45/29/1 46/31/1 54/14/1 53/13/1
f 46/31/1 47/32/1 55/17/1 54/14/1
f 47/32/1 48/33/1 56/19/1 55/17/1
f 48/33/1 49/34/1 57/21/1 56/19/1
f 49/34/1 50/35/1 58/23/1 57/21/1
f 50/35/1 51/36/1 59/25/1 58/23/1
f 51/36/1 52/10/1 60/12/1 59/25/1
f 4/37/1 41/38/1 45/29/1 5/28/1
f 41/38/1 42/39/1 46/31/1 45/29/1
f 43/40/1 44/8/1 52/10/1 51/36/1
f 3/41/1 37/42/1 41/38/1 4/37/1
f 2/43/1 29/44/1 37/42/1 3/41/1
f 29/44/1 30/45/1 38/46/1 37/42/1
f 35/47/1 36/4/1 40/6/1 39/48/1
f 1/49/1 21/50/1 29/44/1 2/43/1
f 21/50/1 22/51/1 30/45/1 29/44/1
f 22/51/1 23/52/1 31/53/1 30/45/1
f 23/52/1 24/54/1 32/55/1 31/53/1
f 24/54/1 25/56/1 33/57/1 32/55/1
f 25/56/1 26/58/1 34/59/1 33/57/1
f 26/58/1 27/60/1 35/47/1 34/59/1
f 27/60/1 28/1/1 36/4/1 35/47/1
f 13/61/1 14/62/1 22/51/1 21/50/1
f 14/62/1 15/63/1 23/52/1 22/51/1
f 15/63/1 16/64/1 24/54/1 23/52/1
f 16/64/1 17/65/1 25/56/1 24/54/1
f 17/65/1 18/66/1 26/58/1 25/56/1
f 18/66/1 19/67/1 27/60/1 26/58/1
f 19/67/1 20/68/1 28/1/1 27/60/1
f 81/1/2 82/4/2 79/3/2 80/2/2
f 82/4/2 83/6/2 78/5/2 79/3/2
f 83/6/2 84/8/2 77/7/2 78/5/2
f 84/8/2 85/10/2 76/9/2 77/7/2
f 85/10/2 86/12/2 75/11/2 76/9/2
f 122/13/2 129/16/2 130/15/2 123/14/2
f 123/14/2 130/15/2 131/18/2 124/17/2
f 124/17/2 131/18/2 132/20/2 125/19/2
f 125/19/2 132/20/2 133/22/2 126/21/2
f 126/21/2 133/22/2 134/24/2 127/23/2
f 127/23/2 134/24/2 135/26/2 128/25/2
f 128/25/2 135/26/2 136/27/2 86/12/2
f 73/28/2 74/30/2 122/13/2 115/29/2
f 115/29/2 122/13/2 123/14/2 116/31/2
f 116/31/2 123/14/2 124/17/2 117/32/2
f 117/32/2 124/17/2 125/19/2 118/33/2
f 118/33/2 125/19/2 126/21/2 119/34/2
f 119/34/2 126/21/2 127/23/2 120/35/2
f 120/35/2 127/23/2 128/25/2 121/36/2
f 121/36/2 128/25/2 86/12/2 85/10/2
f 72/37/2 73/28/2 115/29/2 112/38/2
f 112/38/2 115/29/2 116/31/2 113/39/2
f 114/40/2 121/36/2 85/10/2 84/8/2
f 71/41/2 72/37/2 112/38/2 109/42/2
f 70/43/2 71/41/2 109/42/2 102/44/2
f 102/44/2 109/42/2 110/46/2 103/45/2
f 108/47/2 111/48/2 83/6/2 82/4/2
f 69/49/2 70/43/2 102/44/2 95/50/2
f 95/50/2 102/44/2 103/45/2 96/51/2
f 96/51/2 103/45/2 104/53/2 97/52/2
f 97/52/2 104/53/2 105/55/2 98/54/2
f 98/54/2 105/55/2 106/57/2 99/56/2
f 99/56/2 106/57/2 107/59/2 100/58/2
f 100/58/2 107/59/2 108/47/2 101/60/2
f 101/60/2 108/47/2 82/4/2 81/1/2
f 87/61/2 95/50/2 96/51/2 88/62/2
f 88/62/2 96/51/2 97/52/2 89/63/2
f 89/63/2 97/52/2 98/54/2 90/64/2
f 90/64/2 98/54/2 99/56/2 91/65/2
f 91/65/2 99/56/2 100/58/2 92/66/2
f 92/66/2 100/58/2 101/60/2 93/67/2
f 93/67/2 101/60/2 81/1/2 94/68/2
f 44/8/3 43/40/3 114/40/3 84/8/3
f 16/64/3 15/63/3 89/63/3 90/64/3
f 17/65/3 16/64/3 90/64/3 91/65/3
f 18/66/3 17/65/3 91/65/3 92/66/3
f 47/32/3 46/31/3 116/31/3 117/32/3
f 19/67/3 18/66/3 92/66/3 93/67/3
f 48/33/3 47/32/3 117/32/3 118/33/3
f 20/68/3 19/67/3 93/67/3 94/68/3
f 68/27/4 60/12/4 86/12/4 136/27/4
f 49/34/3 48/33/3 118/33/3 119/34/3
f 21/50/3 1/49/3 69/49/3 95/50/3
f 13/61/5 21/50/5 95/50/5 87/61/5
f 50/35/3 49/34/3 119/34/3 120/35/3
f 51/36/3 50/35/3 120/35/3 121/36/3
f 1/49/5 2/43/5 70/43/5 69/49/5
f 6/30/6 53/13/6 122/13/6 74/30/6
f 2/43/5 3/41/5 71/41/5 70/43/5
f 3/41/5 4/37/5 72/37/5 71/41/5
f 4/37/5 5/28/5 73/28/5 72/37/5
f 5/28/5 6/30/5 74/30/5 73/28/5
f 28/1/4 20/68/4 94/68/4 81/1/4
f 7/11/4 8/9/4 76/9/4 75/11/4
f 8/9/4 9/7/4 77/7/4 76/9/4
f 46/31/4 42/39/4 113/39/4 116/31/4
f 30/45/6 31/53/6 104/53/6 103/45/6
f 9/7/4 10/5/4 78/5/4 77/7/4
f 43/40/5 51/36/5 121/36/5 114/40/5
f 31/53/6 32/55/6 105/55/6 104/53/6
f 10/5/4 11/3/4 79/3/4 78/5/4
f 61/16/6 62/15/6 130/15/6 129/16/6
f 32/55/6 33/57/6 106/57/6 105/55/6
f 11/3/4 12/2/4 80/2/4 79/3/4
f 41/38/4 37/42/4 109/42/4 112/38/4
f 62/15/6 63/18/6 131/18/6 130/15/6
f 33/57/6 34/59/6 107/59/6 106/57/6
f 12/2/3 28/1/3 81/1/3 80/2/3
f 40/6/5 44/8/5 84/8/5 83/6/5
f 63/18/6 64/20/6 132/20/6 131/18/6
f 34/59/6 35/47/6 108/47/6 107/59/6
f 64/20/6 65/22/6 133/22/6 132/20/6
f 38/46/4 30/45/4 103/45/4 110/46/4
f 65/22/6 66/24/6 134/24/6 133/22/6
f 35/47/5 39/48/5 111/48/5 108/47/5
f 66/24/6 67/26/6 135/26/6 134/24/6
f 37/42/6 38/46/6 110/46/6 109/42/6
f 67/26/6 68/27/6 136/27/6 135/26/6
f 39/48/6 40/6/6 83/6/6 111/48/6
f 60/12/6 7/11/6 75/11/6 86/12/6
f 53/13/5 61/16/5 129/16/5 122/13/5
f 14/62/3 13/61/3 87/61/3 88/62/3
f 42/39/3 41/38/3 112/38/3 113/39/3
f 15/63/3 14/62/3 88/62/3 89/63/3
