# Blender 5.0.0
# www.blender.org
mtllib 1.mtl
o Plane.027
v -0.333333 1.000000 -0.000000
v -0.111111 1.000000 -0.000000
v 0.111111 1.000000 -0.000000
v 0.333333 1.000000 -0.000000
v 0.333333 -1.000000 0.000000
v 0.111111 -1.000000 0.000000
v -0.111111 -1.000000 0.000000
v -0.333333 -1.000000 0.000000
v 0.555556 0.777778 -0.000000
v 0.333333 0.777778 -0.000000
v 0.111111 0.777778 -0.000000
v -0.111111 0.777778 -0.000000
v -0.333333 0.777778 -0.000000
v 0.555556 0.555556 -0.000000
v 0.333333 0.555556 -0.000000
v 0.111111 0.555556 -0.000000
v -0.111111 0.555556 -0.000000
v -0.333333 0.555556 -0.000000
v 0.555556 0.333333 -0.000000
v 0.333333 0.333333 -0.000000
v 0.111111 0.333333 -0.000000
v -0.111111 0.333333 -0.000000
v -0.333333 0.333333 -0.000000
v 0.333333 0.111111 -0.000000
v 0.111111 0.111111 -0.000000
v -0.111111 0.111111 -0.000000
v -0.333333 0.111111 -0.000000
v 0.333333 -0.111111 0.000000
v 0.111111 -0.111111 0.000000
v -0.111111 -0.111111 0.000000
v -0.333333 -0.111111 0.000000
v 0.333333 -0.333333 0.000000
v 0.111111 -0.333333 0.000000
v -0.111111 -0.333333 0.000000
v -0.333333 -0.333333 0.000000
v 0.333333 -0.555556 0.000000
v 0.111111 -0.555556 0.000000
v -0.111111 -0.555556 0.000000
v -0.333333 -0.555556 0.000000
v 0.333333 -0.777778 0.000000
v 0.111111 -0.777778 0.000000
v -0.111111 -0.777778 0.000000
v -0.333333 -0.777778 0.000000
v -0.333333 1.000000 -0.500000
v -0.111111 1.000000 -0.500000
v 0.111111 1.000000 -0.500000
v 0.333333 1.000000 -0.500000
v 0.333333 -1.000000 -0.500000
v 0.111111 -1.000000 -0.500000
v -0.111111 -1.000000 -0.500000
v -0.333333 -1.000000 -0.500000
v 0.555556 0.777778 -0.500000
v 0.333333 0.777778 -0.500000
v 0.111111 0.777778 -0.500000
v -0.111111 0.777778 -0.500000
v -0.333333 0.777778 -0.500000
v 0.555556 0.555556 -0.500000
v 0.333333 0.555556 -0.500000
v 0.111111 0.555556 -0.500000
v -0.111111 0.555556 -0.500000
v -0.333333 0.555556 -0.500000
v 0.555556 0.333333 -0.500000
v 0.333333 0.333333 -0.500000
v 0.111111 0.333333 -0.500000
v -0.111111 0.333333 -0.500000
v -0.333333 0.333333 -0.500000
v 0.333333 0.111111 -0.500000
v 0.111111 0.111111 -0.500000
v -0.111111 0.111111 -0.500000
v -0.333333 0.111111 -0.500000
v 0.333333 -0.111111 -0.500000
v 0.111111 -0.111111 -0.500000
v -0.111111 -0.111111 -0.500000
v -0.333333 -0.111111 -0.500000
v 0.333333 -0.333333 -0.500000
v 0.111111 -0.333333 -0.500000
v -0.111111 -0.333333 -0.500000
v -0.333333 -0.333333 -0.500000
v 0.333333 -0.555556 -0.500000
v 0.111111 -0.555556 -0.500000
v -0.111111 -0.555556 -0.500000
v -0.333333 -0.555556 -0.500000
v 0.333333 -0.777778 -0.500000
v 0.111111 -0.777778 -0.500000
v -0.111111 -0.777778 -0.500000
v -0.333333 -0.777778 -0.500000
vn -0.0000 -0.0000 1.0000
vn -0.0000 -0.0000 -1.0000
vn -0.0000 1.0000 -0.0000
vn -1.0000 -0.0000 -0.0000
vn 1.0000 -0.0000 -0.0000
vn -0.0000 -1.0000 -0.0000
vt 0.333333 0.777778
vt 0.333333 0.888889
vt 0.444444 0.888889
vt 0.444444 0.777778
vt 0.555556 0.888889
vt 0.555556 0.777778
vt 0.666667 0.888889
vt 0.666667 0.777778
vt 0.333333 0.666667
vt 0.444444 0.666667
vt 0.555556 0.666667
vt 0.666667 0.666667
vt 0.333333 0.555556
vt 0.444444 0.555556
vt 0.555556 0.555556
vt 0.666667 0.555556
vt 0.333333 0.444444
vt 0.444444 0.444444
vt 0.555556 0.444444
vt 0.666667 0.444444
vt 0.333333 0.333333
vt 0.444444 0.333333
vt 0.555556 0.333333
vt 0.666667 0.333333
vt 0.333333 0.222222
vt 0.444444 0.222222
vt 0.555556 0.222222
vt 0.666667 0.222222
vt 0.777778 0.333333
vt 0.777778 0.222222
vt 0.333333 0.111111
vt 0.444444 0.111111
vt 0.555556 0.111111
vt 0.666667 0.111111
vt 0.777778 0.111111
vt 0.333333 0.000000
vt 0.444444 0.000000
vt 0.555556 0.000000
vt 0.666667 0.000000
vt 0.333333 1.000000
vt 0.444444 1.000000
vt 0.555556 1.000000
vt 0.666667 1.000000
s 0
f 39/1/1 43/2/1 42/3/1 38/4/1
f 38/4/1 42/3/1 41/5/1 37/6/1
f 37/6/1 41/5/1 40/7/1 36/8/1
f 35/9/1 39/1/1 38/4/1 34/10/1
f 34/10/1 38/4/1 37/6/1 33/11/1
f 33/11/1 37/6/1 36/8/1 32/12/1
f 31/13/1 35/9/1 34/10/1 30/14/1
f 30/14/1 34/10/1 33/11/1 29/15/1
f 29/15/1 33/11/1 32/12/1 28/16/1
f 27/17/1 31/13/1 30/14/1 26/18/1
f 26/18/1 30/14/1 29/15/1 25/19/1
f 25/19/1 29/15/1 28/16/1 24/20/1
f 23/21/1 27/17/1 26/18/1 22/22/1
f 22/22/1 26/18/1 25/19/1 21/23/1
f 21/23/1 25/19/1 24/20/1 20/24/1
f 18/25/1 23/21/1 22/22/1 17/26/1
f 17/26/1 22/22/1 21/23/1 16/27/1
f 16/27/1 21/23/1 20/24/1 15/28/1
f 15/28/1 20/24/1 19/29/1 14/30/1
f 13/31/1 18/25/1 17/26/1 12/32/1
f 12/32/1 17/26/1 16/27/1 11/33/1
f 11/33/1 16/27/1 15/28/1 10/34/1
f 10/34/1 15/28/1 14/30/1 9/35/1
f 1/36/1 13/31/1 12/32/1 2/37/1
f 2/37/1 12/32/1 11/33/1 3/38/1
f 3/38/1 11/33/1 10/34/1 4/39/1
f 43/2/1 8/40/1 7/41/1 42/3/1
f 42/3/1 7/41/1 6/42/1 41/5/1
f 41/5/1 6/42/1 5/43/1 40/7/1
f 82/1/2 81/4/2 85/3/2 86/2/2
f 81/4/2 80/6/2 84/5/2 85/3/2
f 80/6/2 79/8/2 83/7/2 84/5/2
f 78/9/2 77/10/2 81/4/2 82/1/2
f 77/10/2 76/11/2 80/6/2 81/4/2
f 76/11/2 75/12/2 79/8/2 80/6/2
f 74/13/2 73/14/2 77/10/2 78/9/2
f 73/14/2 72/15/2 76/11/2 77/10/2
f 72/15/2 71/16/2 75/12/2 76/11/2
f 70/17/2 69/18/2 73/14/2 74/13/2
f 69/18/2 68/19/2 72/15/2 73/14/2
f 68/19/2 67/20/2 71/16/2 72/15/2
f 66/21/2 65/22/2 69/18/2 70/17/2
f 65/22/2 64/23/2 68/19/2 69/18/2
f 64/23/2 63/24/2 67/20/2 68/19/2
f 61/25/2 60/26/2 65/22/2 66/21/2
f 60/26/2 59/27/2 64/23/2 65/22/2
f 59/27/2 58/28/2 63/24/2 64/23/2
f 58/28/2 57/30/2 62/29/2 63/24/2
f 56/31/2 55/32/2 60/26/2 61/25/2
f 55/32/2 54/33/2 59/27/2 60/26/2
f 54/33/2 53/34/2 58/28/2 59/27/2
f 53/34/2 52/35/2 57/30/2 58/28/2
f 44/36/2 45/37/2 55/32/2 56/31/2
f 45/37/2 46/38/2 54/33/2 55/32/2
f 46/38/2 47/39/2 53/34/2 54/33/2
f 86/2/2 85/3/2 50/41/2 51/40/2
f 85/3/2 84/5/2 49/42/2 50/41/2
f 84/5/2 83/7/2 48/43/2 49/42/2
f 2/37/3 3/38/3 46/38/3 45/37/3
f 23/21/4 18/25/4 61/25/4 66/21/4
f 3/38/3 4/39/3 47/39/3 46/38/3
f 9/35/5 14/30/5 57/30/5 52/35/5
f 5/43/6 6/42/6 49/42/6 48/43/6
f 32/12/5 36/8/5 79/8/5 75/12/5
f 40/7/5 5/43/5 48/43/5 83/7/5
f 43/2/4 39/1/4 82/1/4 86/2/4
f 24/20/5 28/16/5 71/16/5 67/20/5
f 13/31/4 1/36/4 44/36/4 56/31/4
f 6/42/6 7/41/6 50/41/6 49/42/6
f 35/9/4 31/13/4 74/13/4 78/9/4
f 27/17/4 23/21/4 66/21/4 70/17/4
f 7/41/6 8/40/6 51/40/6 50/41/6
f 14/30/5 19/29/5 62/29/5 57/30/5
f 10/34/3 9/35/3 52/35/3 53/34/3
f 18/25/4 13/31/4 56/31/4 61/25/4
f 36/8/5 40/7/5 83/7/5 79/8/5
f 19/29/6 20/24/6 63/24/6 62/29/6
f 4/39/5 10/34/5 53/34/5 47/39/5
f 28/16/5 32/12/5 75/12/5 71/16/5
f 1/36/3 2/37/3 45/37/3 44/36/3
f 39/1/4 35/9/4 78/9/4 82/1/4
f 20/24/5 24/20/5 67/20/5 63/24/5
f 8/40/4 43/2/4 86/2/4 51/40/4
f 31/13/4 27/17/4 70/17/4 74/13/4
