# Blender 5.0.0
# www.blender.org
mtllib 2.mtl
o Plane.028
v -0.333333 1.000000 -0.000000
v -0.111111 1.000000 -0.000000
v 0.111111 1.000000 -0.000000
v 0.333333 1.000000 -0.000000
v 0.555556 1.000000 -0.000000
v 0.777778 -1.000000 0.000000
v 0.555556 -1.000000 0.000000
v 0.333333 -1.000000 0.000000
v 0.111111 -1.000000 0.000000
v -0.111111 -1.000000 0.000000
v -0.333333 -1.000000 0.000000
v -0.555556 -1.000000 0.000000
v -0.777778 -1.000000 0.000000
v 0.777778 0.777778 -0.000000
v 0.555556 0.777778 -0.000000
v 0.333333 0.777778 -0.000000
v 0.111111 0.777778 -0.000000
v -0.111111 0.777778 -0.000000
v -0.333333 0.777778 -0.000000
v -0.555556 0.777778 -0.000000
v 0.777778 0.555556 -0.000000
v 0.555556 0.555556 -0.000000
v 0.333333 0.555556 -0.000000
v 0.111111 0.555556 -0.000000
v -0.111111 0.555556 -0.000000
v -0.333333 0.555556 -0.000000
v -0.555556 0.555556 -0.000000
v 0.777778 0.333333 -0.000000
v 0.555556 0.333333 -0.000000
v 0.333333 0.333333 -0.000000
v -0.111111 0.333333 -0.000000
v -0.333333 0.333333 -0.000000
v -0.555556 0.333333 -0.000000
v 0.111111 0.111111 -0.000000
v -0.111111 0.111111 -0.000000
v -0.333333 0.111111 -0.000000
v -0.555556 0.111111 -0.000000
v 0.333333 -0.111111 0.000000
v 0.111111 -0.111111 0.000000
v -0.111111 -0.111111 0.000000
v -0.333333 -0.111111 0.000000
v 0.555556 -0.333333 0.000000
v 0.333333 -0.333333 0.000000
v 0.111111 -0.333333 0.000000
v -0.111111 -0.333333 0.000000
v -0.333333 -0.333333 0.000000
v 0.777778 -0.555556 0.000000
v 0.555556 -0.555556 0.000000
v 0.333333 -0.555556 0.000000
v 0.111111 -0.555556 0.000000
v 0.777778 -0.777778 0.000000
v 0.555556 -0.777778 0.000000
v 0.333333 -0.777778 0.000000
v 0.111111 -0.777778 0.000000
v -0.111111 -0.777778 0.000000
v -0.333333 -0.777778 0.000000
v -0.555556 -0.777778 0.000000
v -0.777778 -0.777778 0.000000
v -0.333333 1.000000 -0.500000
v -0.111111 1.000000 -0.500000
v 0.111111 1.000000 -0.500000
v 0.333333 1.000000 -0.500000
v 0.555556 1.000000 -0.500000
v 0.777778 -1.000000 -0.500000
v 0.555556 -1.000000 -0.500000
v 0.333333 -1.000000 -0.500000
v 0.111111 -1.000000 -0.500000
v -0.111111 -1.000000 -0.500000
v -0.333333 -1.000000 -0.500000
v -0.555556 -1.000000 -0.500000
v -0.777778 -1.000000 -0.500000
v 0.777778 0.777778 -0.500000
v 0.555556 0.777778 -0.500000
v 0.333333 0.777778 -0.500000
v 0.111111 0.777778 -0.500000
v -0.111111 0.777778 -0.500000
v -0.333333 0.777778 -0.500000
v -0.555556 0.777778 -0.500000
v 0.777778 0.555556 -0.500000
v 0.555556 0.555556 -0.500000
v 0.333333 0.555556 -0.500000
v 0.111111 0.555556 -0.500000
v -0.111111 0.555556 -0.500000
v -0.333333 0.555556 -0.500000
v -0.555556 0.555556 -0.500000
v 0.777778 0.333333 -0.500000
v 0.555556 0.333333 -0.500000
v 0.333333 0.333333 -0.500000
v -0.111111 0.333333 -0.500000
v -0.333333 0.333333 -0.500000
v -0.555556 0.333333 -0.500000
v 0.111111 0.111111 -0.500000
v -0.111111 0.111111 -0.500000
v -0.333333 0.111111 -0.500000
v -0.555556 0.111111 -0.500000
v 0.333333 -0.111111 -0.500000
v 0.111111 -0.111111 -0.500000
v -0.111111 -0.111111 -0.500000
v -0.333333 -0.111111 -0.500000
v 0.555556 -0.333333 -0.500000
v 0.333333 -0.333333 -0.500000
v 0.111111 -0.333333 -0.500000
v -0.111111 -0.333333 -0.500000
v -0.333333 -0.333333 -0.500000
v 0.777778 -0.555556 -0.500000
v 0.555556 -0.555556 -0.500000
v 0.333333 -0.555556 -0.500000
v 0.111111 -0.555556 -0.500000
v 0.777778 -0.777778 -0.500000
v 0.555556 -0.777778 -0.500000
v 0.333333 -0.777778 -0.500000
v 0.111111 -0.777778 -0.500000
v -0.111111 -0.777778 -0.500000
v -0.333333 -0.777778 -0.500000
v -0.555556 -0.777778 -0.500000
v -0.777778 -0.777778 -0.500000
vn -0.0000 -0.0000 1.0000
vn -0.0000 -0.0000 -1.0000
vn 1.0000 -0.0000 -0.0000
vn -0.0000 1.0000 -0.0000
vn -0.0000 -1.0000 -0.0000
vn -1.0000 -0.0000 -0.0000
vt 0.555556 0.777778
vt 0.555556 0.888889
vt 0.666667 0.888889
vt 0.666667 0.777778
vt 0.777778 0.888889
vt 0.777778 0.777778
vt 0.888889 0.888889
vt 0.888889 0.777778
vt 0.555556 0.666667
vt 0.666667 0.666667
vt 0.777778 0.666667
vt 0.333333 0.555556
vt 0.333333 0.666667
vt 0.444444 0.666667
vt 0.444444 0.555556
vt 0.555556 0.555556
vt 0.666667 0.555556
vt 0.333333 0.444444
vt 0.444444 0.444444
vt 0.555556 0.444444
vt 0.222222 0.333333
vt 0.222222 0.444444
vt 0.333333 0.333333
vt 0.444444 0.333333
vt 0.222222 0.222222
vt 0.333333 0.222222
vt 0.444444 0.222222
vt 0.666667 0.222222
vt 0.666667 0.333333
vt 0.777778 0.333333
vt 0.777778 0.222222
vt 0.888889 0.333333
vt 0.888889 0.222222
vt 0.222222 0.111111
vt 0.333333 0.111111
vt 0.444444 0.111111
vt 0.555556 0.222222
vt 0.555556 0.111111
vt 0.666667 0.111111
vt 0.777778 0.111111
vt 0.888889 0.111111
vt 0.333333 0.000000
vt 0.444444 0.000000
vt 0.555556 0.000000
vt 0.666667 0.000000
vt 0.777778 0.000000
vt 0.111111 0.888889
vt 0.111111 1.000000
vt 0.222222 1.000000
vt 0.222222 0.888889
vt 0.333333 1.000000
vt 0.333333 0.888889
vt 0.444444 1.000000
vt 0.444444 0.888889
vt 0.555556 1.000000
vt 0.666667 1.000000
vt 0.777778 1.000000
vt 0.888889 1.000000
s 0
f 50/1/1 54/2/1 53/3/1 49/4/1
f 49/4/1 53/3/1 52/5/1 48/6/1
f 48/6/1 52/5/1 51/7/1 47/8/1
f 44/9/1 50/1/1 49/4/1 43/10/1
f 43/10/1 49/4/1 48/6/1 42/11/1
f 41/12/1 46/13/1 45/14/1 40/15/1
f 40/15/1 45/14/1 44/9/1 39/16/1
f 39/16/1 44/9/1 43/10/1 38/17/1
f 36/18/1 41/12/1 40/15/1 35/19/1
f 35/19/1 40/15/1 39/16/1 34/20/1
f 33/21/1 37/22/1 36/18/1 32/23/1
f 32/23/1 36/18/1 35/19/1 31/24/1
f 27/25/1 33/21/1 32/23/1 26/26/1
f 26/26/1 32/23/1 31/24/1 25/27/1
f 23/28/1 30/29/1 29/30/1 22/31/1
f 22/31/1 29/30/1 28/32/1 21/33/1
f 20/34/1 27/25/1 26/26/1 19/35/1
f 19/35/1 26/26/1 25/27/1 18/36/1
f 18/36/1 25/27/1 24/37/1 17/38/1
f 17/38/1 24/37/1 23/28/1 16/39/1
f 16/39/1 23/28/1 22/31/1 15/40/1
f 15/40/1 22/31/1 21/33/1 14/41/1
f 1/42/1 19/35/1 18/36/1 2/43/1
f 2/43/1 18/36/1 17/38/1 3/44/1
f 3/44/1 17/38/1 16/39/1 4/45/1
f 4/45/1 16/39/1 15/40/1 5/46/1
f 58/47/1 13/48/1 12/49/1 57/50/1
f 57/50/1 12/49/1 11/51/1 56/52/1
f 56/52/1 11/51/1 10/53/1 55/54/1
f 55/54/1 10/53/1 9/55/1 54/2/1
f 54/2/1 9/55/1 8/56/1 53/3/1
f 53/3/1 8/56/1 7/57/1 52/5/1
f 52/5/1 7/57/1 6/58/1 51/7/1
f 108/1/2 107/4/2 111/3/2 112/2/2
f 107/4/2 106/6/2 110/5/2 111/3/2
f 106/6/2 105/8/2 109/7/2 110/5/2
f 102/9/2 101/10/2 107/4/2 108/1/2
f 101/10/2 100/11/2 106/6/2 107/4/2
f 99/12/2 98/15/2 103/14/2 104/13/2
f 98/15/2 97/16/2 102/9/2 103/14/2
f 97/16/2 96/17/2 101/10/2 102/9/2
f 94/18/2 93/19/2 98/15/2 99/12/2
f 93/19/2 92/20/2 97/16/2 98/15/2
f 91/21/2 90/23/2 94/18/2 95/22/2
f 90/23/2 89/24/2 93/19/2 94/18/2
f 85/25/2 84/26/2 90/23/2 91/21/2
f 84/26/2 83/27/2 89/24/2 90/23/2
f 81/28/2 80/31/2 87/30/2 88/29/2
f 80/31/2 79/33/2 86/32/2 87/30/2
f 78/34/2 77/35/2 84/26/2 85/25/2
f 77/35/2 76/36/2 83/27/2 84/26/2
f 76/36/2 75/38/2 82/37/2 83/27/2
f 75/38/2 74/39/2 81/28/2 82/37/2
f 74/39/2 73/40/2 80/31/2 81/28/2
f 73/40/2 72/41/2 79/33/2 80/31/2
f 59/42/2 60/43/2 76/36/2 77/35/2
f 60/43/2 61/44/2 75/38/2 76/36/2
f 61/44/2 62/45/2 74/39/2 75/38/2
f 62/45/2 63/46/2 73/40/2 74/39/2
f 116/47/2 115/50/2 70/49/2 71/48/2
f 115/50/2 114/52/2 69/51/2 70/49/2
f 114/52/2 113/54/2 68/53/2 69/51/2
f 113/54/2 112/2/2 67/55/2 68/53/2
f 112/2/2 111/3/2 66/56/2 67/55/2
f 111/3/2 110/5/2 65/57/2 66/56/2
f 110/5/2 109/7/2 64/58/2 65/57/2
f 38/17/3 43/10/3 101/10/3 96/17/3
f 56/52/4 55/54/4 113/54/4 114/52/4
f 6/58/5 7/57/5 65/57/5 64/58/5
f 41/12/6 36/18/6 94/18/6 99/12/6
f 57/50/4 56/52/4 114/52/4 115/50/4
f 7/57/5 8/56/5 66/56/5 65/57/5
f 23/28/5 24/37/5 82/37/5 81/28/5
f 58/47/4 57/50/4 115/50/4 116/47/4
f 8/56/5 9/55/5 67/55/5 66/56/5
f 43/10/4 42/11/4 100/11/4 101/10/4
f 34/20/3 39/16/3 97/16/3 92/20/3
f 24/37/5 25/27/5 83/27/5 82/37/5
f 54/2/6 50/1/6 108/1/6 112/2/6
f 9/55/5 10/53/5 68/53/5 67/55/5
f 37/22/6 33/21/6 91/21/6 95/22/6
f 10/53/5 11/51/5 69/51/5 68/53/5
f 44/9/5 45/14/5 103/14/5 102/9/5
f 51/7/3 6/58/3 64/58/3 109/7/3
f 14/41/3 21/33/3 79/33/3 72/41/3
f 11/51/5 12/49/5 70/49/5 69/51/5
f 45/14/5 46/13/5 104/13/5 103/14/5
f 31/24/3 35/19/3 93/19/3 89/24/3
f 28/32/5 29/30/5 87/30/5 86/32/5
f 47/8/3 51/7/3 109/7/3 105/8/3
f 19/35/6 1/42/6 59/42/6 77/35/6
f 12/49/5 13/48/5 71/48/5 70/49/5
f 48/6/4 47/8/4 105/8/4 106/6/4
f 33/21/6 27/25/6 85/25/6 91/21/6
f 29/30/5 30/29/5 88/29/5 87/30/5
f 50/1/6 44/9/6 102/9/6 108/1/6
f 15/40/4 14/41/4 72/41/4 73/40/4
f 25/27/3 31/24/3 89/24/3 83/27/3
f 42/11/3 48/6/3 106/6/3 100/11/3
f 30/29/6 23/28/6 81/28/6 88/29/6
f 1/42/4 2/43/4 60/43/4 59/42/4
f 35/19/4 34/20/4 92/20/4 93/19/4
f 46/13/6 41/12/6 99/12/6 104/13/6
f 5/46/3 15/40/3 73/40/3 63/46/3
f 2/43/4 3/44/4 61/44/4 60/43/4
f 13/48/6 58/47/6 116/47/6 71/48/6
f 21/33/3 28/32/3 86/32/3 79/33/3
f 3/44/4 4/45/4 62/45/4 61/44/4
f 36/18/5 37/22/5 95/22/5 94/18/5
f 20/34/4 19/35/4 77/35/4 78/34/4
f 55/54/4 54/2/4 112/2/4 113/54/4
f 27/25/6 20/34/6 78/34/6 85/25/6
f 4/45/4 5/46/4 63/46/4 62/45/4
f 39/16/4 38/17/4 96/17/4 97/16/4
