# Blender 5.0.0
# www.blender.org
mtllib 3.mtl
o Plane.029
v -0.555556 1.000000 -0.000000
v -0.333333 1.000000 -0.000000
v -0.111111 1.000000 -0.000000
v 0.111111 1.000000 -0.000000
v 0.333333 1.000000 -0.000000
v 0.555556 1.000000 -0.000000
v 0.555556 -1.000000 0.000000
v 0.333333 -1.000000 0.000000
v 0.111111 -1.000000 0.000000
v -0.111111 -1.000000 0.000000
v -0.333333 -1.000000 0.000000
v -0.555556 -1.000000 0.000000
v -0.777778 0.777778 -0.000000
v -0.777778 0.555556 -0.000000
v -0.777778 0.333333 -0.000000
v -0.777778 0.111111 -0.000000
v -0.777778 -0.111111 0.000000
v -0.777778 -0.333333 0.000000
v -0.777778 -0.555556 0.000000
v -0.777778 -0.777778 0.000000
v -0.555556 0.777778 -0.000000
v -0.555556 0.555556 -0.000000
v -0.555556 0.333333 -0.000000
v -0.555556 0.111111 -0.000000
v -0.555556 -0.111111 0.000000
v -0.555556 -0.333333 0.000000
v -0.555556 -0.555556 0.000000
v -0.555556 -0.777778 0.000000
v -0.333333 0.777778 -0.000000
v -0.333333 0.555556 -0.000000
v -0.333333 0.333333 -0.000000
v -0.333333 0.111111 -0.000000
v -0.333333 -0.111111 0.000000
v -0.333333 -0.333333 0.000000
v -0.333333 -0.555556 0.000000
v -0.333333 -0.777778 0.000000
v -0.111111 0.777778 -0.000000
v -0.111111 0.555556 -0.000000
v -0.111111 0.111111 -0.000000
v -0.111111 -0.111111 0.000000
v -0.111111 -0.555556 0.000000
v -0.111111 -0.777778 0.000000
v 0.111111 0.777778 -0.000000
v 0.111111 0.555556 -0.000000
v 0.111111 0.111111 -0.000000
v 0.111111 -0.111111 0.000000
v 0.111111 -0.555556 0.000000
v 0.111111 -0.777778 0.000000
v 0.333333 0.777778 -0.000000
v 0.333333 0.555556 -0.000000
v 0.333333 0.111111 -0.000000
v 0.333333 -0.111111 0.000000
v 0.333333 -0.555556 0.000000
v 0.333333 -0.777778 0.000000
v 0.555556 0.777778 -0.000000
v 0.555556 0.555556 -0.000000
v 0.555556 0.333333 -0.000000
v 0.555556 0.111111 -0.000000
v 0.555556 -0.111111 0.000000
v 0.555556 -0.333333 0.000000
v 0.555556 -0.555556 0.000000
v 0.555556 -0.777778 0.000000
v 0.777778 0.777778 -0.000000
v 0.777778 0.555556 -0.000000
v 0.777778 0.333333 -0.000000
v 0.777778 -0.333333 0.000000
v 0.777778 -0.555556 0.000000
v 0.777778 -0.777778 0.000000
v -0.555556 1.000000 -0.500000
v -0.333333 1.000000 -0.500000
v -0.111111 1.000000 -0.500000
v 0.111111 1.000000 -0.500000
v 0.333333 1.000000 -0.500000
v 0.555556 1.000000 -0.500000
v 0.555556 -1.000000 -0.500000
v 0.333333 -1.000000 -0.500000
v 0.111111 -1.000000 -0.500000
v -0.111111 -1.000000 -0.500000
v -0.333333 -1.000000 -0.500000
v -0.555556 -1.000000 -0.500000
v -0.555556 -0.777778 -0.500000
v -0.333333 -0.777778 -0.500000
v -0.111111 -0.777778 -0.500000
v 0.111111 -0.777778 -0.500000
v 0.333333 -0.777778 -0.500000
v 0.555556 -0.777778 -0.500000
v -0.777778 0.777778 -0.500000
v -0.777778 0.555556 -0.500000
v -0.777778 0.333333 -0.500000
v -0.777778 0.111111 -0.500000
v -0.777778 -0.111111 -0.500000
v -0.777778 -0.333333 -0.500000
v -0.777778 -0.555556 -0.500000
v -0.777778 -0.777778 -0.500000
v -0.555556 0.777778 -0.500000
v -0.555556 0.555556 -0.500000
v -0.555556 0.333333 -0.500000
v -0.555556 0.111111 -0.500000
v -0.555556 -0.111111 -0.500000
v -0.555556 -0.333333 -0.500000
v -0.555556 -0.555556 -0.500000
v -0.333333 0.777778 -0.500000
v -0.333333 0.555556 -0.500000
v -0.333333 0.333333 -0.500000
v -0.333333 0.111111 -0.500000
v -0.333333 -0.111111 -0.500000
v -0.333333 -0.333333 -0.500000
v -0.333333 -0.555556 -0.500000
v -0.111111 0.777778 -0.500000
v -0.111111 0.555556 -0.500000
v -0.111111 0.111111 -0.500000
v -0.111111 -0.111111 -0.500000
v -0.111111 -0.555556 -0.500000
v 0.111111 0.777778 -0.500000
v 0.111111 0.555556 -0.500000
v 0.111111 0.111111 -0.500000
v 0.111111 -0.111111 -0.500000
v 0.111111 -0.555556 -0.500000
v 0.333333 0.777778 -0.500000
v 0.333333 0.555556 -0.500000
v 0.333333 0.111111 -0.500000
v 0.333333 -0.111111 -0.500000
v 0.333333 -0.555556 -0.500000
v 0.555556 0.777778 -0.500000
v 0.555556 0.555556 -0.500000
v 0.555556 0.333333 -0.500000
v 0.555556 0.111111 -0.500000
v 0.555556 -0.111111 -0.500000
v 0.555556 -0.333333 -0.500000
v 0.555556 -0.555556 -0.500000
v 0.777778 0.777778 -0.500000
v 0.777778 0.555556 -0.500000
v 0.777778 0.333333 -0.500000
v 0.777778 -0.333333 -0.500000
v 0.777778 -0.555556 -0.500000
v 0.777778 -0.777778 -0.500000
vn -0.0000 -0.0000 1.0000
vn -0.0000 -0.0000 -1.0000
vn -0.0000 1.0000 -0.0000
vn -0.0000 -1.0000 -0.0000
vn 1.0000 -0.0000 -0.0000
vn -1.0000 -0.0000 -0.0000
vt 0.222222 0.888889
vt 0.222222 1.000000
vt 0.333333 1.000000
vt 0.333333 0.888889
vt 0.444444 1.000000
vt 0.444444 0.888889
vt 0.555556 1.000000
vt 0.555556 0.888889
vt 0.666667 1.000000
vt 0.666667 0.888889
vt 0.777778 1.000000
vt 0.777778 0.888889
vt 0.777778 0.111111
vt 0.777778 0.222222
vt 0.888889 0.222222
vt 0.888889 0.111111
vt 0.777778 0.333333
vt 0.888889 0.333333
vt 0.777778 0.666667
vt 0.777778 0.777778
vt 0.888889 0.777778
vt 0.888889 0.666667
vt 0.888889 0.888889
vt 0.666667 0.000000
vt 0.666667 0.111111
vt 0.777778 0.000000
vt 0.666667 0.222222
vt 0.666667 0.444444
vt 0.666667 0.555556
vt 0.777778 0.555556
vt 0.777778 0.444444
vt 0.666667 0.777778
vt 0.555556 0.000000
vt 0.555556 0.111111
vt 0.555556 0.222222
vt 0.555556 0.444444
vt 0.555556 0.555556
vt 0.555556 0.777778
vt 0.444444 0.000000
vt 0.444444 0.111111
vt 0.444444 0.222222
vt 0.444444 0.444444
vt 0.444444 0.555556
vt 0.444444 0.777778
vt 0.333333 0.000000
vt 0.333333 0.111111
vt 0.333333 0.222222
vt 0.333333 0.444444
vt 0.333333 0.555556
vt 0.333333 0.777778
vt 0.222222 0.000000
vt 0.222222 0.111111
vt 0.222222 0.222222
vt 0.222222 0.333333
vt 0.333333 0.333333
vt 0.222222 0.444444
vt 0.222222 0.555556
vt 0.222222 0.666667
vt 0.333333 0.666667
vt 0.222222 0.777778
vt 0.111111 0.111111
vt 0.111111 0.222222
vt 0.111111 0.333333
vt 0.111111 0.444444
vt 0.111111 0.555556
vt 0.111111 0.666667
vt 0.111111 0.777778
vt 0.111111 0.888889
s 0
f 28/1/1 12/2/1 11/3/1 36/4/1
f 36/4/1 11/3/1 10/5/1 42/6/1
f 42/6/1 10/5/1 9/7/1 48/8/1
f 48/8/1 9/7/1 8/9/1 54/10/1
f 54/10/1 8/9/1 7/11/1 62/12/1
f 55/13/1 56/14/1 64/15/1 63/16/1
f 56/14/1 57/17/1 65/18/1 64/15/1
f 60/19/1 61/20/1 67/21/1 66/22/1
f 61/20/1 62/12/1 68/23/1 67/21/1
f 5/24/1 49/25/1 55/13/1 6/26/1
f 49/25/1 50/27/1 56/14/1 55/13/1
f 51/28/1 52/29/1 59/30/1 58/31/1
f 53/32/1 54/10/1 62/12/1 61/20/1
f 4/33/1 43/34/1 49/25/1 5/24/1
f 43/34/1 44/35/1 50/27/1 49/25/1
f 45/36/1 46/37/1 52/29/1 51/28/1
f 47/38/1 48/8/1 54/10/1 53/32/1
f 3/39/1 37/40/1 43/34/1 4/33/1
f 37/40/1 38/41/1 44/35/1 43/34/1
f 39/42/1 40/43/1 46/37/1 45/36/1
f 41/44/1 42/6/1 48/8/1 47/38/1
f 2/45/1 29/46/1 37/40/1 3/39/1
f 29/46/1 30/47/1 38/41/1 37/40/1
f 32/48/1 33/49/1 40/43/1 39/42/1
f 35/50/1 36/4/1 42/6/1 41/44/1
f 1/51/1 21/52/1 29/46/1 2/45/1
f 21/52/1 22/53/1 30/47/1 29/46/1
f 22/53/1 23/54/1 31/55/1 30/47/1
f 23/54/1 24/56/1 32/48/1 31/55/1
f 24/56/1 25/57/1 33/49/1 32/48/1
f 25/57/1 26/58/1 34/59/1 33/49/1
f 26/58/1 27/60/1 35/50/1 34/59/1
f 27/60/1 28/1/1 36/4/1 35/50/1
f 13/61/1 14/62/1 22/53/1 21/52/1
f 14/62/1 15/63/1 23/54/1 22/53/1
f 15/63/1 16/64/1 24/56/1 23/54/1
f 17/65/1 18/66/1 26/58/1 25/57/1
f 18/66/1 19/67/1 27/60/1 26/58/1
f 19/67/1 20/68/1 28/1/1 27/60/1
f 81/1/2 82/4/2 79/3/2 80/2/2
f 82/4/2 83/6/2 78/5/2 79/3/2
f 83/6/2 84/8/2 77/7/2 78/5/2
f 84/8/2 85/10/2 76/9/2 77/7/2
f 85/10/2 86/12/2 75/11/2 76/9/2
f 124/13/2 131/16/2 132/15/2 125/14/2
f 125/14/2 132/15/2 133/18/2 126/17/2
f 129/19/2 134/22/2 135/21/2 130/20/2
f 130/20/2 135/21/2 136/23/2 86/12/2
f 73/24/2 74/26/2 124/13/2 119/25/2
f 119/25/2 124/13/2 125/14/2 120/27/2
f 121/28/2 127/31/2 128/30/2 122/29/2
f 123/32/2 130/20/2 86/12/2 85/10/2
f 72/33/2 73/24/2 119/25/2 114/34/2
f 114/34/2 119/25/2 120/27/2 115/35/2
f 116/36/2 121/28/2 122/29/2 117/37/2
f 118/38/2 123/32/2 85/10/2 84/8/2
f 71/39/2 72/33/2 114/34/2 109/40/2
f 109/40/2 114/34/2 115/35/2 110/41/2
f 111/42/2 116/36/2 117/37/2 112/43/2
f 113/44/2 118/38/2 84/8/2 83/6/2
f 70/45/2 71/39/2 109/40/2 102/46/2
f 102/46/2 109/40/2 110/41/2 103/47/2
f 105/48/2 111/42/2 112/43/2 106/49/2
f 108/50/2 113/44/2 83/6/2 82/4/2
f 69/51/2 70/45/2 102/46/2 95/52/2
f 95/52/2 102/46/2 103/47/2 96/53/2
f 96/53/2 103/47/2 104/55/2 97/54/2
f 97/54/2 104/55/2 105/48/2 98/56/2
f 98/56/2 105/48/2 106/49/2 99/57/2
f 99/57/2 106/49/2 107/59/2 100/58/2
f 100/58/2 107/59/2 108/50/2 101/60/2
f 101/60/2 108/50/2 82/4/2 81/1/2
f 87/61/2 95/52/2 96/53/2 88/62/2
f 88/62/2 96/53/2 97/54/2 89/63/2
f 89/63/2 97/54/2 98/56/2 90/64/2
f 91/65/2 99/57/2 100/58/2 92/66/2
f 92/66/2 100/58/2 101/60/2 93/67/2
f 93/67/2 101/60/2 81/1/2 94/68/2
f 32/48/3 39/42/3 111/42/3 105/48/3
f 55/13/3 63/16/3 131/16/3 124/13/3
f 10/5/4 11/3/4 79/3/4 78/5/4
f 40/43/4 33/49/4 106/49/4 112/43/4
f 33/49/5 34/59/5 107/59/5 106/49/5
f 11/3/4 12/2/4 80/2/4 79/3/4
f 35/50/3 41/44/3 113/44/3 108/50/3
f 65/18/4 57/17/4 126/17/4 133/18/4
f 34/59/5 35/50/5 108/50/5 107/59/5
f 12/2/6 28/1/6 81/1/6 80/2/6
f 60/19/3 66/22/3 134/22/3 129/19/3
f 68/23/4 62/12/4 86/12/4 136/23/4
f 56/14/4 50/27/4 120/27/4 125/14/4
f 62/12/5 7/11/5 75/11/5 86/12/5
f 51/28/3 58/31/3 127/31/3 121/28/3
f 14/62/6 13/61/6 87/61/6 88/62/6
f 59/30/4 52/29/4 122/29/4 128/30/4
f 15/63/6 14/62/6 88/62/6 89/63/6
f 53/32/3 61/20/3 130/20/3 123/32/3
f 16/64/6 15/63/6 89/63/6 90/64/6
f 18/66/6 17/65/6 91/65/6 92/66/6
f 13/61/3 21/52/3 95/52/3 87/61/3
f 19/67/6 18/66/6 92/66/6 93/67/6
f 50/27/4 44/35/4 115/35/4 120/27/4
f 20/68/6 19/67/6 93/67/6 94/68/6
f 45/36/3 51/28/3 121/28/3 116/36/3
f 21/52/6 1/51/6 69/51/6 95/52/6
f 24/56/4 16/64/4 90/64/4 98/56/4
f 52/29/4 46/37/4 117/37/4 122/29/4
f 17/65/3 25/57/3 99/57/3 91/65/3
f 47/38/3 53/32/3 123/32/3 118/38/3
f 6/26/5 55/13/5 124/13/5 74/26/5
f 57/17/6 56/14/6 125/14/6 126/17/6
f 25/57/6 24/56/6 98/56/6 99/57/6
f 1/51/3 2/45/3 70/45/3 69/51/3
f 28/1/4 20/68/4 94/68/4 81/1/4
f 44/35/4 38/41/4 110/41/4 115/35/4
f 58/31/5 59/30/5 128/30/5 127/31/5
f 2/45/3 3/39/3 71/39/3 70/45/3
f 39/42/3 45/36/3 116/36/3 111/42/3
f 61/20/6 60/19/6 129/19/6 130/20/6
f 3/39/3 4/33/3 72/33/3 71/39/3
f 46/37/4 40/43/4 112/43/4 117/37/4
f 4/33/3 5/24/3 73/24/3 72/33/3
f 41/44/3 47/38/3 118/38/3 113/44/3
f 63/16/5 64/15/5 132/15/5 131/16/5
f 5/24/3 6/26/3 74/26/3 73/24/3
f 64/15/5 65/18/5 133/18/5 132/15/5
f 7/11/4 8/9/4 76/9/4 75/11/4
f 66/22/5 67/21/5 135/21/5 134/22/5
f 30/47/5 31/55/5 104/55/5 103/47/5
f 8/9/4 9/7/4 77/7/4 76/9/4
f 38/41/4 30/47/4 103/47/4 110/41/4
f 67/21/5 68/23/5 136/23/5 135/21/5
f 31/55/5 32/48/5 105/48/5 104/55/5
f 9/7/4 10/5/4 78/5/4 77/7/4
