# Blender 5.0.0
# www.blender.org
mtllib 4.mtl
o Plane.030
v 0.333333 1.000000 -0.000000
v 0.555556 1.000000 -0.000000
v 0.777778 1.000000 -0.000000
v 0.111111 -1.000000 0.000000
v -0.111111 -1.000000 0.000000
v -0.333333 -1.000000 0.000000
v -0.777778 -0.333333 0.000000
v -0.777778 -0.555556 0.000000
v -0.555556 -0.333333 0.000000
v -0.555556 -0.555556 0.000000
v -0.333333 0.333333 -0.000000
v -0.333333 0.111111 -0.000000
v -0.333333 -0.111111 0.000000
v -0.333333 -0.333333 0.000000
v -0.333333 -0.555556 0.000000
v -0.333333 -0.777778 0.000000
v -0.111111 0.333333 -0.000000
v -0.111111 0.111111 -0.000000
v -0.111111 -0.111111 0.000000
v -0.111111 -0.333333 0.000000
v -0.111111 -0.555556 0.000000
v -0.111111 -0.777778 0.000000
v 0.111111 0.333333 -0.000000
v 0.111111 0.111111 -0.000000
v 0.111111 -0.111111 0.000000
v 0.111111 -0.333333 0.000000
v 0.111111 -0.555556 0.000000
v 0.111111 -0.777778 0.000000
v 0.333333 0.777778 -0.000000
v 0.333333 0.555556 -0.000000
v 0.333333 0.333333 -0.000000
v 0.333333 0.111111 -0.000000
v 0.333333 -0.111111 0.000000
v 0.333333 -0.333333 0.000000
v 0.333333 -0.555556 0.000000
v 0.555556 0.777778 -0.000000
v 0.555556 0.555556 -0.000000
v 0.555556 0.333333 -0.000000
v 0.555556 0.111111 -0.000000
v 0.555556 -0.111111 0.000000
v 0.555556 -0.333333 0.000000
v 0.555556 -0.555556 0.000000
v 0.777778 0.777778 -0.000000
v 0.777778 0.555556 -0.000000
v 0.777778 0.333333 -0.000000
v 0.777778 0.111111 -0.000000
v 0.777778 -0.111111 0.000000
v 0.777778 -0.333333 0.000000
v 0.777778 -0.555556 0.000000
v 0.333333 1.000000 -0.500000
v 0.555556 1.000000 -0.500000
v 0.777778 1.000000 -0.500000
v 0.111111 -1.000000 -0.500000
v -0.111111 -1.000000 -0.500000
v -0.333333 -1.000000 -0.500000
v -0.333333 -0.777778 -0.500000
v -0.111111 -0.777778 -0.500000
v 0.111111 -0.777778 -0.500000
v -0.777778 -0.333333 -0.500000
v -0.777778 -0.555556 -0.500000
v -0.555556 -0.333333 -0.500000
v -0.555556 -0.555556 -0.500000
v -0.333333 0.333333 -0.500000
v -0.333333 0.111111 -0.500000
v -0.333333 -0.111111 -0.500000
v -0.333333 -0.333333 -0.500000
v -0.333333 -0.555556 -0.500000
v -0.111111 0.333333 -0.500000
v -0.111111 0.111111 -0.500000
v -0.111111 -0.111111 -0.500000
v -0.111111 -0.333333 -0.500000
v -0.111111 -0.555556 -0.500000
v 0.111111 0.333333 -0.500000
v 0.111111 0.111111 -0.500000
v 0.111111 -0.111111 -0.500000
v 0.111111 -0.333333 -0.500000
v 0.111111 -0.555556 -0.500000
v 0.333333 0.777778 -0.500000
v 0.333333 0.555556 -0.500000
v 0.333333 0.333333 -0.500000
v 0.333333 0.111111 -0.500000
v 0.333333 -0.111111 -0.500000
v 0.333333 -0.333333 -0.500000
v 0.333333 -0.555556 -0.500000
v 0.555556 0.777778 -0.500000
v 0.555556 0.555556 -0.500000
v 0.555556 0.333333 -0.500000
v 0.555556 0.111111 -0.500000
v 0.555556 -0.111111 -0.500000
v 0.555556 -0.333333 -0.500000
v 0.555556 -0.555556 -0.500000
v 0.777778 0.777778 -0.500000
v 0.777778 0.555556 -0.500000
v 0.777778 0.333333 -0.500000
v 0.777778 0.111111 -0.500000
v 0.777778 -0.111111 -0.500000
v 0.777778 -0.333333 -0.500000
v 0.777778 -0.555556 -0.500000
vn -0.0000 -0.0000 1.0000
vn -0.0000 -0.0000 -1.0000
vn -1.0000 -0.0000 -0.0000
vn 1.0000 -0.0000 -0.0000
vn -0.0000 1.0000 -0.0000
vn -0.0000 -1.0000 -0.0000
vt 0.333333 0.888889
vt 0.333333 1.000000
vt 0.444444 1.000000
vt 0.444444 0.888889
vt 0.555556 1.000000
vt 0.555556 0.888889
vt 0.777778 0.000000
vt 0.777778 0.111111
vt 0.888889 0.111111
vt 0.888889 0.000000
vt 0.777778 0.222222
vt 0.888889 0.222222
vt 0.777778 0.333333
vt 0.888889 0.333333
vt 0.777778 0.444444
vt 0.888889 0.444444
vt 0.777778 0.555556
vt 0.888889 0.555556
vt 0.777778 0.666667
vt 0.888889 0.666667
vt 0.777778 0.777778
vt 0.888889 0.777778
vt 0.666667 0.000000
vt 0.666667 0.111111
vt 0.666667 0.222222
vt 0.666667 0.333333
vt 0.666667 0.444444
vt 0.666667 0.555556
vt 0.666667 0.666667
vt 0.666667 0.777778
vt 0.555556 0.666667
vt 0.555556 0.777778
vt 0.444444 0.333333
vt 0.444444 0.444444
vt 0.555556 0.444444
vt 0.555556 0.333333
vt 0.444444 0.555556
vt 0.555556 0.555556
vt 0.444444 0.666667
vt 0.444444 0.777778
vt 0.333333 0.333333
vt 0.333333 0.444444
vt 0.333333 0.555556
vt 0.333333 0.666667
vt 0.333333 0.777778
vt 0.222222 0.666667
vt 0.222222 0.777778
vt 0.111111 0.666667
vt 0.111111 0.777778
s 0
f 16/1/1 6/2/1 5/3/1 22/4/1
f 22/4/1 5/3/1 4/5/1 28/6/1
f 2/7/1 36/8/1 43/9/1 3/10/1
f 36/8/1 37/11/1 44/12/1 43/9/1
f 37/11/1 38/13/1 45/14/1 44/12/1
f 38/13/1 39/15/1 46/16/1 45/14/1
f 39/15/1 40/17/1 47/18/1 46/16/1
f 40/17/1 41/19/1 48/20/1 47/18/1
f 41/19/1 42/21/1 49/22/1 48/20/1
f 1/23/1 29/24/1 36/8/1 2/7/1
f 29/24/1 30/25/1 37/11/1 36/8/1
f 30/25/1 31/26/1 38/13/1 37/11/1
f 31/26/1 32/27/1 39/15/1 38/13/1
f 32/27/1 33/28/1 40/17/1 39/15/1
f 33/28/1 34/29/1 41/19/1 40/17/1
f 34/29/1 35/30/1 42/21/1 41/19/1
f 26/31/1 27/32/1 35/30/1 34/29/1
f 17/33/1 18/34/1 24/35/1 23/36/1
f 18/34/1 19/37/1 25/38/1 24/35/1
f 19/37/1 20/39/1 26/31/1 25/38/1
f 20/39/1 21/40/1 27/32/1 26/31/1
f 21/40/1 22/4/1 28/6/1 27/32/1
f 11/41/1 12/42/1 18/34/1 17/33/1
f 12/42/1 13/43/1 19/37/1 18/34/1
f 13/43/1 14/44/1 20/39/1 19/37/1
f 14/44/1 15/45/1 21/40/1 20/39/1
f 15/45/1 16/1/1 22/4/1 21/40/1
f 9/46/1 10/47/1 15/45/1 14/44/1
f 7/48/1 8/49/1 10/47/1 9/46/1
f 56/1/2 57/4/2 54/3/2 55/2/2
f 57/4/2 58/6/2 53/5/2 54/3/2
f 51/7/2 52/10/2 92/9/2 85/8/2
f 85/8/2 92/9/2 93/12/2 86/11/2
f 86/11/2 93/12/2 94/14/2 87/13/2
f 87/13/2 94/14/2 95/16/2 88/15/2
f 88/15/2 95/16/2 96/18/2 89/17/2
f 89/17/2 96/18/2 97/20/2 90/19/2
f 90/19/2 97/20/2 98/22/2 91/21/2
f 50/23/2 51/7/2 85/8/2 78/24/2
f 78/24/2 85/8/2 86/11/2 79/25/2
f 79/25/2 86/11/2 87/13/2 80/26/2
f 80/26/2 87/13/2 88/15/2 81/27/2
f 81/27/2 88/15/2 89/17/2 82/28/2
f 82/28/2 89/17/2 90/19/2 83/29/2
f 83/29/2 90/19/2 91/21/2 84/30/2
f 76/31/2 83/29/2 84/30/2 77/32/2
f 68/33/2 73/36/2 74/35/2 69/34/2
f 69/34/2 74/35/2 75/38/2 70/37/2
f 70/37/2 75/38/2 76/31/2 71/39/2
f 71/39/2 76/31/2 77/32/2 72/40/2
f 72/40/2 77/32/2 58/6/2 57/4/2
f 63/41/2 68/33/2 69/34/2 64/42/2
f 64/42/2 69/34/2 70/37/2 65/43/2
f 65/43/2 70/37/2 71/39/2 66/44/2
f 66/44/2 71/39/2 72/40/2 67/45/2
f 67/45/2 72/40/2 57/4/2 56/1/2
f 61/46/2 66/44/2 67/45/2 62/47/2
f 59/48/2 61/46/2 62/47/2 60/49/2
f 31/26/3 30/25/3 79/25/3 80/26/3
f 16/1/3 15/45/3 67/45/3 56/1/3
f 44/12/4 45/14/4 94/14/4 93/12/4
f 11/41/5 17/33/5 68/33/5 63/41/5
f 1/23/5 2/7/5 51/7/5 50/23/5
f 32/27/3 31/26/3 80/26/3 81/27/3
f 45/14/4 46/16/4 95/16/4 94/14/4
f 2/7/5 3/10/5 52/10/5 51/7/5
f 33/28/3 32/27/3 81/27/3 82/28/3
f 46/16/4 47/18/4 96/18/4 95/16/4
f 4/5/6 5/3/6 54/3/6 53/5/6
f 34/29/3 33/28/3 82/28/3 83/29/3
f 47/18/4 48/20/4 97/20/4 96/18/4
f 5/3/6 6/2/6 55/2/6 54/3/6
f 48/20/4 49/22/4 98/22/4 97/20/4
f 6/2/3 16/1/3 56/1/3 55/2/3
f 42/21/6 35/30/6 84/30/6 91/21/6
f 26/31/5 34/29/5 83/29/5 76/31/5
f 23/36/4 24/35/4 74/35/4 73/36/4
f 9/46/5 14/44/5 66/44/5 61/46/5
f 28/6/4 4/5/4 53/5/4 58/6/4
f 35/30/6 27/32/6 77/32/6 84/30/6
f 24/35/4 25/38/4 75/38/4 74/35/4
f 15/45/6 10/47/6 62/47/6 67/45/6
f 8/49/3 7/48/3 59/48/3 60/49/3
f 17/33/5 23/36/5 73/36/5 68/33/5
f 25/38/4 26/31/4 76/31/4 75/38/4
f 7/48/5 9/46/5 61/46/5 59/48/5
f 10/47/6 8/49/6 60/49/6 62/47/6
f 12/42/3 11/41/3 63/41/3 64/42/3
f 27/32/4 28/6/4 58/6/4 77/32/4
f 13/43/3 12/42/3 64/42/3 65/43/3
f 29/24/3 1/23/3 50/23/3 78/24/3
f 49/22/6 42/21/6 91/21/6 98/22/6
f 14/44/3 13/43/3 65/43/3 66/44/3
f 3/10/4 43/9/4 92/9/4 52/10/4
f 30/25/3 29/24/3 78/24/3 79/25/3
f 43/9/4 44/12/4 93/12/4 92/9/4
