# Blender 5.0.0
# www.blender.org
mtllib 5.mtl
o Plane.031
v -0.777778 1.000000 -0.000000
v -0.555556 1.000000 -0.000000
v -0.333333 1.000000 -0.000000
v -0.111111 1.000000 -0.000000
v 0.111111 1.000000 -0.000000
v 0.333333 1.000000 -0.000000
v 0.555556 1.000000 -0.000000
v 0.777778 1.000000 -0.000000
v 0.777778 -1.000000 0.000000
v 0.555556 -1.000000 0.000000
v 0.333333 -1.000000 0.000000
v 0.111111 -1.000000 0.000000
v -0.111111 -1.000000 0.000000
v -0.333333 -1.000000 0.000000
v -0.555556 -1.000000 0.000000
v -0.777778 0.777778 -0.000000
v -0.777778 0.555556 -0.000000
v -0.777778 0.111111 -0.000000
v -0.777778 -0.111111 0.000000
v -0.777778 -0.333333 0.000000
v -0.777778 -0.555556 0.000000
v -0.777778 -0.777778 0.000000
v -0.555556 0.777778 -0.000000
v -0.555556 0.555556 -0.000000
v -0.555556 0.333333 -0.000000
v -0.555556 0.111111 -0.000000
v -0.555556 -0.111111 0.000000
v -0.555556 -0.333333 0.000000
v -0.555556 -0.555556 0.000000
v -0.555556 -0.777778 0.000000
v -0.333333 0.777778 -0.000000
v -0.333333 0.555556 -0.000000
v -0.333333 0.333333 -0.000000
v -0.333333 0.111111 -0.000000
v -0.333333 -0.111111 0.000000
v -0.333333 -0.333333 0.000000
v -0.333333 -0.555556 0.000000
v -0.333333 -0.777778 0.000000
v -0.111111 0.777778 -0.000000
v -0.111111 0.555556 -0.000000
v -0.111111 0.333333 -0.000000
v -0.111111 0.111111 -0.000000
v -0.111111 -0.111111 0.000000
v -0.111111 -0.555556 0.000000
v -0.111111 -0.777778 0.000000
v 0.111111 0.777778 -0.000000
v 0.111111 0.555556 -0.000000
v 0.111111 0.333333 -0.000000
v 0.111111 0.111111 -0.000000
v 0.111111 -0.111111 0.000000
v 0.111111 -0.555556 0.000000
v 0.111111 -0.777778 0.000000
v 0.333333 0.777778 -0.000000
v 0.333333 0.555556 -0.000000
v 0.333333 0.333333 -0.000000
v 0.333333 0.111111 -0.000000
v 0.333333 -0.111111 0.000000
v 0.333333 -0.555556 0.000000
v 0.333333 -0.777778 0.000000
v 0.555556 0.777778 -0.000000
v 0.555556 0.555556 -0.000000
v 0.555556 0.333333 -0.000000
v 0.555556 0.111111 -0.000000
v 0.555556 -0.111111 0.000000
v 0.555556 -0.555556 0.000000
v 0.555556 -0.777778 0.000000
v 0.777778 0.777778 -0.000000
v 0.777778 0.555556 -0.000000
v 0.777778 0.333333 -0.000000
v 0.777778 0.111111 -0.000000
v 0.777778 -0.111111 0.000000
v 0.777778 -0.555556 0.000000
v 0.777778 -0.777778 0.000000
v -0.777778 1.000000 -0.500000
v -0.555556 1.000000 -0.500000
v -0.333333 1.000000 -0.500000
v -0.111111 1.000000 -0.500000
v 0.111111 1.000000 -0.500000
v 0.333333 1.000000 -0.500000
v 0.555556 1.000000 -0.500000
v 0.777778 1.000000 -0.500000
v 0.777778 -1.000000 -0.500000
v 0.555556 -1.000000 -0.500000
v 0.333333 -1.000000 -0.500000
v 0.111111 -1.000000 -0.500000
v -0.111111 -1.000000 -0.500000
v -0.333333 -1.000000 -0.500000
v -0.555556 -1.000000 -0.500000
v -0.555556 -0.777778 -0.500000
v -0.333333 -0.777778 -0.500000
v -0.111111 -0.777778 -0.500000
v 0.111111 -0.777778 -0.500000
v 0.333333 -0.777778 -0.500000
v 0.555556 -0.777778 -0.500000
v 0.777778 -0.777778 -0.500000
v -0.777778 0.777778 -0.500000
v -0.777778 0.555556 -0.500000
v -0.777778 0.111111 -0.500000
v -0.777778 -0.111111 -0.500000
v -0.777778 -0.333333 -0.500000
v -0.777778 -0.555556 -0.500000
v -0.777778 -0.777778 -0.500000
v -0.555556 0.777778 -0.500000
v -0.555556 0.555556 -0.500000
v -0.555556 0.333333 -0.500000
v -0.555556 0.111111 -0.500000
v -0.555556 -0.111111 -0.500000
v -0.555556 -0.333333 -0.500000
v -0.555556 -0.555556 -0.500000
v -0.333333 0.777778 -0.500000
v -0.333333 0.555556 -0.500000
v -0.333333 0.333333 -0.500000
v -0.333333 0.111111 -0.500000
v -0.333333 -0.111111 -0.500000
v -0.333333 -0.333333 -0.500000
v -0.333333 -0.555556 -0.500000
v -0.111111 0.777778 -0.500000
v -0.111111 0.555556 -0.500000
v -0.111111 0.333333 -0.500000
v -0.111111 0.111111 -0.500000
v -0.111111 -0.111111 -0.500000
v -0.111111 -0.555556 -0.500000
v 0.111111 0.777778 -0.500000
v 0.111111 0.555556 -0.500000
v 0.111111 0.333333 -0.500000
v 0.111111 0.111111 -0.500000
v 0.111111 -0.111111 -0.500000
v 0.111111 -0.555556 -0.500000
v 0.333333 0.777778 -0.500000
v 0.333333 0.555556 -0.500000
v 0.333333 0.333333 -0.500000
v 0.333333 0.111111 -0.500000
v 0.333333 -0.111111 -0.500000
v 0.333333 -0.555556 -0.500000
v 0.555556 0.777778 -0.500000
v 0.555556 0.555556 -0.500000
v 0.555556 0.333333 -0.500000
v 0.555556 0.111111 -0.500000
v 0.555556 -0.111111 -0.500000
v 0.555556 -0.555556 -0.500000
v 0.777778 0.777778 -0.500000
v 0.777778 0.555556 -0.500000
v 0.777778 0.333333 -0.500000
v 0.777778 0.111111 -0.500000
v 0.777778 -0.111111 -0.500000
v 0.777778 -0.555556 -0.500000
vn -0.0000 -0.0000 1.0000
vn -0.0000 -0.0000 -1.0000
vn -1.0000 -0.0000 -0.0000
vn -0.0000 -1.0000 -0.0000
vn -0.0000 1.0000 -0.0000
vn 1.0000 -0.0000 -0.0000
vt 0.222222 0.888889
vt 0.222222 1.000000
vt 0.333333 1.000000
vt 0.333333 0.888889
vt 0.444444 1.000000
vt 0.444444 0.888889
vt 0.555556 1.000000
vt 0.555556 0.888889
vt 0.666667 1.000000
vt 0.666667 0.888889
vt 0.777778 1.000000
vt 0.777778 0.888889
vt 0.888889 1.000000
vt 0.888889 0.888889
vt 0.777778 0.000000
vt 0.777778 0.111111
vt 0.888889 0.111111
vt 0.888889 0.000000
vt 0.777778 0.222222
vt 0.888889 0.222222
vt 0.777778 0.333333
vt 0.888889 0.333333
vt 0.777778 0.444444
vt 0.888889 0.444444
vt 0.777778 0.555556
vt 0.888889 0.555556
vt 0.777778 0.777778
vt 0.888889 0.777778
vt 0.666667 0.000000
vt 0.666667 0.111111
vt 0.666667 0.222222
vt 0.666667 0.333333
vt 0.666667 0.444444
vt 0.666667 0.555556
vt 0.666667 0.777778
vt 0.555556 0.000000
vt 0.555556 0.111111
vt 0.555556 0.222222
vt 0.555556 0.333333
vt 0.555556 0.444444
vt 0.555556 0.555556
vt 0.555556 0.777778
vt 0.444444 0.000000
vt 0.444444 0.111111
vt 0.444444 0.222222
vt 0.444444 0.333333
vt 0.444444 0.444444
vt 0.444444 0.555556
vt 0.444444 0.777778
vt 0.333333 0.000000
vt 0.333333 0.111111
vt 0.333333 0.222222
vt 0.333333 0.333333
vt 0.333333 0.444444
vt 0.333333 0.555556
vt 0.333333 0.777778
vt 0.222222 0.000000
vt 0.222222 0.111111
vt 0.222222 0.222222
vt 0.222222 0.333333
vt 0.222222 0.444444
vt 0.222222 0.555556
vt 0.222222 0.666667
vt 0.333333 0.666667
vt 0.222222 0.777778
vt 0.111111 0.000000
vt 0.111111 0.111111
vt 0.111111 0.222222
vt 0.111111 0.444444
vt 0.111111 0.555556
vt 0.111111 0.666667
vt 0.111111 0.777778
vt 0.111111 0.888889
s 0
f 30/1/1 15/2/1 14/3/1 38/4/1
f 38/4/1 14/3/1 13/5/1 45/6/1
f 45/6/1 13/5/1 12/7/1 52/8/1
f 52/8/1 12/7/1 11/9/1 59/10/1
f 59/10/1 11/9/1 10/11/1 66/12/1
f 66/12/1 10/11/1 9/13/1 73/14/1
f 7/15/1 60/16/1 67/17/1 8/18/1
f 60/16/1 61/19/1 68/20/1 67/17/1
f 61/19/1 62/21/1 69/22/1 68/20/1
f 62/21/1 63/23/1 70/24/1 69/22/1
f 63/23/1 64/25/1 71/26/1 70/24/1
f 65/27/1 66/12/1 73/14/1 72/28/1
f 6/29/1 53/30/1 60/16/1 7/15/1
f 53/30/1 54/31/1 61/19/1 60/16/1
f 54/31/1 55/32/1 62/21/1 61/19/1
f 55/32/1 56/33/1 63/23/1 62/21/1
f 56/33/1 57/34/1 64/25/1 63/23/1
f 58/35/1 59/10/1 66/12/1 65/27/1
f 5/36/1 46/37/1 53/30/1 6/29/1
f 46/37/1 47/38/1 54/31/1 53/30/1
f 48/39/1 49/40/1 56/33/1 55/32/1
f 49/40/1 50/41/1 57/34/1 56/33/1
f 51/42/1 52/8/1 59/10/1 58/35/1
f 4/43/1 39/44/1 46/37/1 5/36/1
f 39/44/1 40/45/1 47/38/1 46/37/1
f 41/46/1 42/47/1 49/40/1 48/39/1
f 42/47/1 43/48/1 50/41/1 49/40/1
f 44/49/1 45/6/1 52/8/1 51/42/1
f 3/50/1 31/51/1 39/44/1 4/43/1
f 31/51/1 32/52/1 40/45/1 39/44/1
f 33/53/1 34/54/1 42/47/1 41/46/1
f 34/54/1 35/55/1 43/48/1 42/47/1
f 37/56/1 38/4/1 45/6/1 44/49/1
f 2/57/1 23/58/1 31/51/1 3/50/1
f 23/58/1 24/59/1 32/52/1 31/51/1
f 25/60/1 26/61/1 34/54/1 33/53/1
f 26/61/1 27/62/1 35/55/1 34/54/1
f 27/62/1 28/63/1 36/64/1 35/55/1
f 28/63/1 29/65/1 37/56/1 36/64/1
f 29/65/1 30/1/1 38/4/1 37/56/1
f 1/66/1 16/67/1 23/58/1 2/57/1
f 16/67/1 17/68/1 24/59/1 23/58/1
f 18/69/1 19/70/1 27/62/1 26/61/1
f 19/70/1 20/71/1 28/63/1 27/62/1
f 20/71/1 21/72/1 29/65/1 28/63/1
f 21/72/1 22/73/1 30/1/1 29/65/1
f 89/1/2 90/4/2 87/3/2 88/2/2
f 90/4/2 91/6/2 86/5/2 87/3/2
f 91/6/2 92/8/2 85/7/2 86/5/2
f 92/8/2 93/10/2 84/9/2 85/7/2
f 93/10/2 94/12/2 83/11/2 84/9/2
f 94/12/2 95/14/2 82/13/2 83/11/2
f 80/15/2 81/18/2 141/17/2 135/16/2
f 135/16/2 141/17/2 142/20/2 136/19/2
f 136/19/2 142/20/2 143/22/2 137/21/2
f 137/21/2 143/22/2 144/24/2 138/23/2
f 138/23/2 144/24/2 145/26/2 139/25/2
f 140/27/2 146/28/2 95/14/2 94/12/2
f 79/29/2 80/15/2 135/16/2 129/30/2
f 129/30/2 135/16/2 136/19/2 130/31/2
f 130/31/2 136/19/2 137/21/2 131/32/2
f 131/32/2 137/21/2 138/23/2 132/33/2
f 132/33/2 138/23/2 139/25/2 133/34/2
f 134/35/2 140/27/2 94/12/2 93/10/2
f 78/36/2 79/29/2 129/30/2 123/37/2
f 123/37/2 129/30/2 130/31/2 124/38/2
f 125/39/2 131/32/2 132/33/2 126/40/2
f 126/40/2 132/33/2 133/34/2 127/41/2
f 128/42/2 134/35/2 93/10/2 92/8/2
f 77/43/2 78/36/2 123/37/2 117/44/2
f 117/44/2 123/37/2 124/38/2 118/45/2
f 119/46/2 125/39/2 126/40/2 120/47/2
f 120/47/2 126/40/2 127/41/2 121/48/2
f 122/49/2 128/42/2 92/8/2 91/6/2
f 76/50/2 77/43/2 117/44/2 110/51/2
f 110/51/2 117/44/2 118/45/2 111/52/2
f 112/53/2 119/46/2 120/47/2 113/54/2
f 113/54/2 120/47/2 121/48/2 114/55/2
f 116/56/2 122/49/2 91/6/2 90/4/2
f 75/57/2 76/50/2 110/51/2 103/58/2
f 103/58/2 110/51/2 111/52/2 104/59/2
f 105/60/2 112/53/2 113/54/2 106/61/2
f 106/61/2 113/54/2 114/55/2 107/62/2
f 107/62/2 114/55/2 115/64/2 108/63/2
f 108/63/2 115/64/2 116/56/2 109/65/2
f 109/65/2 116/56/2 90/4/2 89/1/2
f 74/66/2 75/57/2 103/58/2 96/67/2
f 96/67/2 103/58/2 104/59/2 97/68/2
f 98/69/2 106/61/2 107/62/2 99/70/2
f 99/70/2 107/62/2 108/63/2 100/71/2
f 100/71/2 108/63/2 109/65/2 101/72/2
f 101/72/2 109/65/2 89/1/2 102/73/2
f 21/72/3 20/71/3 100/71/3 101/72/3
f 22/73/3 21/72/3 101/72/3 102/73/3
f 32/52/4 24/59/4 104/59/4 111/52/4
f 55/32/3 54/31/3 130/31/3 131/32/3
f 1/66/5 2/57/5 75/57/5 74/66/5
f 25/60/5 33/53/5 112/53/5 105/60/5
f 64/25/4 57/34/4 133/34/4 139/25/4
f 2/57/5 3/50/5 76/50/5 75/57/5
f 58/35/5 65/27/5 140/27/5 134/35/5
f 26/61/3 25/60/3 105/60/3 106/61/3
f 3/50/5 4/43/5 77/43/5 76/50/5
f 4/43/5 5/36/5 78/36/5 77/43/5
f 5/36/5 6/29/5 79/29/5 78/36/5
f 54/31/4 47/38/4 124/38/4 130/31/4
f 6/29/5 7/15/5 80/15/5 79/29/5
f 48/39/5 55/32/5 131/32/5 125/39/5
f 7/15/5 8/18/5 81/18/5 80/15/5
f 9/13/4 10/11/4 83/11/4 82/13/4
f 24/59/4 17/68/4 97/68/4 104/59/4
f 57/34/4 50/41/4 127/41/4 133/34/4
f 10/11/4 11/9/4 84/9/4 83/11/4
f 18/69/5 26/61/5 106/61/5 98/69/5
f 51/42/5 58/35/5 134/35/5 128/42/5
f 11/9/4 12/7/4 85/7/4 84/9/4
f 8/18/6 67/17/6 141/17/6 81/18/6
f 12/7/4 13/5/4 86/5/4 85/7/4
f 67/17/6 68/20/6 142/20/6 141/17/6
f 35/55/6 36/64/6 115/64/6 114/55/6
f 13/5/4 14/3/4 87/3/4 86/5/4
f 47/38/4 40/45/4 118/45/4 124/38/4
f 68/20/6 69/22/6 143/22/6 142/20/6
f 36/64/6 37/56/6 116/56/6 115/64/6
f 14/3/4 15/2/4 88/2/4 87/3/4
f 30/1/4 22/73/4 102/73/4 89/1/4
f 41/46/5 48/39/5 125/39/5 119/46/5
f 69/22/6 70/24/6 144/24/6 143/22/6
f 15/2/3 30/1/3 89/1/3 88/2/3
f 70/24/6 71/26/6 145/26/6 144/24/6
f 50/41/4 43/48/4 121/48/4 127/41/4
f 72/28/6 73/14/6 95/14/6 146/28/6
f 44/49/5 51/42/5 128/42/5 122/49/5
f 40/45/4 32/52/4 111/52/4 118/45/4
f 73/14/6 9/13/6 82/13/6 95/14/6
f 33/53/5 41/46/5 119/46/5 112/53/5
f 71/26/4 64/25/4 139/25/4 145/26/4
f 16/67/3 1/66/3 74/66/3 96/67/3
f 65/27/5 72/28/5 146/28/5 140/27/5
f 17/68/3 16/67/3 96/67/3 97/68/3
f 43/48/4 35/55/4 114/55/4 121/48/4
f 19/70/3 18/69/3 98/69/3 99/70/3
f 37/56/5 44/49/5 122/49/5 116/56/5
f 20/71/3 19/70/3 99/70/3 100/71/3
