# Blender 5.0.0
# www.blender.org
mtllib 7.mtl
o Plane.034
v -0.777778 1.000000 -0.000000
v -0.555556 1.000000 -0.000000
v -0.333333 1.000000 -0.000000
v -0.111111 1.000000 -0.000000
v 0.111111 1.000000 -0.000000
v 0.333333 1.000000 -0.000000
v 0.555556 1.000000 -0.000000
v 0.777778 1.000000 -0.000000
v 0.555556 -1.000000 0.000000
v 0.333333 -1.000000 0.000000
v 0.111111 -1.000000 0.000000
v 0.777778 0.777778 -0.000000
v 0.555556 0.777778 -0.000000
v 0.333333 0.777778 -0.000000
v 0.111111 0.777778 -0.000000
v -0.111111 0.777778 -0.000000
v -0.333333 0.777778 -0.000000
v -0.555556 0.777778 -0.000000
v -0.777778 0.777778 -0.000000
v 0.777778 0.555556 -0.000000
v 0.555556 0.555556 -0.000000
v 0.333333 0.555556 -0.000000
v 0.111111 0.555556 -0.000000
v -0.111111 0.555556 -0.000000
v -0.333333 0.555556 -0.000000
v -0.555556 0.555556 -0.000000
v -0.777778 0.555556 -0.000000
v 0.111111 0.333333 -0.000000
v -0.111111 0.333333 -0.000000
v -0.333333 0.333333 -0.000000
v -0.555556 0.333333 -0.000000
v -0.777778 0.333333 -0.000000
v 0.111111 0.111111 -0.000000
v -0.111111 0.111111 -0.000000
v -0.333333 0.111111 -0.000000
v -0.555556 0.111111 -0.000000
v 0.333333 -0.111111 0.000000
v 0.111111 -0.111111 0.000000
v -0.111111 -0.111111 0.000000
v -0.333333 -0.111111 0.000000
v 0.555556 -0.333333 0.000000
v 0.333333 -0.333333 0.000000
v 0.111111 -0.333333 0.000000
v -0.111111 -0.333333 0.000000
v 0.555556 -0.555556 0.000000
v 0.333333 -0.555556 0.000000
v 0.111111 -0.555556 0.000000
v -0.111111 -0.555556 0.000000
v 0.555556 -0.777778 0.000000
v 0.333333 -0.777778 0.000000
v 0.111111 -0.777778 0.000000
v -0.777778 1.000000 -0.500000
v -0.555556 1.000000 -0.500000
v -0.333333 1.000000 -0.500000
v -0.111111 1.000000 -0.500000
v 0.111111 1.000000 -0.500000
v 0.333333 1.000000 -0.500000
v 0.555556 1.000000 -0.500000
v 0.777778 1.000000 -0.500000
v 0.555556 -1.000000 -0.500000
v 0.333333 -1.000000 -0.500000
v 0.111111 -1.000000 -0.500000
v 0.777778 0.777778 -0.500000
v 0.555556 0.777778 -0.500000
v 0.333333 0.777778 -0.500000
v 0.111111 0.777778 -0.500000
v -0.111111 0.777778 -0.500000
v -0.333333 0.777778 -0.500000
v -0.555556 0.777778 -0.500000
v -0.777778 0.777778 -0.500000
v 0.777778 0.555556 -0.500000
v 0.555556 0.555556 -0.500000
v 0.333333 0.555556 -0.500000
v 0.111111 0.555556 -0.500000
v -0.111111 0.555556 -0.500000
v -0.333333 0.555556 -0.500000
v -0.555556 0.555556 -0.500000
v -0.777778 0.555556 -0.500000
v 0.111111 0.333333 -0.500000
v -0.111111 0.333333 -0.500000
v -0.333333 0.333333 -0.500000
v -0.555556 0.333333 -0.500000
v -0.777778 0.333333 -0.500000
v 0.111111 0.111111 -0.500000
v -0.111111 0.111111 -0.500000
v -0.333333 0.111111 -0.500000
v -0.555556 0.111111 -0.500000
v 0.333333 -0.111111 -0.500000
v 0.111111 -0.111111 -0.500000
v -0.111111 -0.111111 -0.500000
v -0.333333 -0.111111 -0.500000
v 0.555556 -0.333333 -0.500000
v 0.333333 -0.333333 -0.500000
v 0.111111 -0.333333 -0.500000
v -0.111111 -0.333333 -0.500000
v 0.555556 -0.555556 -0.500000
v 0.333333 -0.555556 -0.500000
v 0.111111 -0.555556 -0.500000
v -0.111111 -0.555556 -0.500000
v 0.555556 -0.777778 -0.500000
v 0.333333 -0.777778 -0.500000
v 0.111111 -0.777778 -0.500000
vn -0.0000 -0.0000 1.0000
vn -0.0000 -0.0000 -1.0000
vn -0.0000 1.0000 -0.0000
vn -0.0000 -1.0000 -0.0000
vn 1.0000 -0.0000 -0.0000
vn -1.0000 -0.0000 -0.0000
vt 0.555556 0.777778
vt 0.555556 0.888889
vt 0.666667 0.888889
vt 0.666667 0.777778
vt 0.777778 0.888889
vt 0.777778 0.777778
vt 0.444444 0.666667
vt 0.444444 0.777778
vt 0.555556 0.666667
vt 0.666667 0.666667
vt 0.777778 0.666667
vt 0.444444 0.555556
vt 0.555556 0.555556
vt 0.666667 0.555556
vt 0.333333 0.444444
vt 0.333333 0.555556
vt 0.444444 0.444444
vt 0.555556 0.444444
vt 0.222222 0.333333
vt 0.222222 0.444444
vt 0.333333 0.333333
vt 0.444444 0.333333
vt 0.555556 0.333333
vt 0.111111 0.222222
vt 0.111111 0.333333
vt 0.222222 0.222222
vt 0.333333 0.222222
vt 0.111111 0.111111
vt 0.222222 0.111111
vt 0.333333 0.111111
vt 0.444444 0.222222
vt 0.444444 0.111111
vt 0.555556 0.222222
vt 0.555556 0.111111
vt 0.666667 0.222222
vt 0.666667 0.111111
vt 0.777778 0.222222
vt 0.777778 0.111111
vt 0.888889 0.222222
vt 0.888889 0.111111
vt 0.111111 0.000000
vt 0.222222 0.000000
vt 0.333333 0.000000
vt 0.444444 0.000000
vt 0.555556 0.000000
vt 0.666667 0.000000
vt 0.777778 0.000000
vt 0.888889 0.000000
vt 0.555556 1.000000
vt 0.666667 1.000000
vt 0.777778 1.000000
s 0
f 47/1/1 51/2/1 50/3/1 46/4/1
f 46/4/1 50/3/1 49/5/1 45/6/1
f 44/7/1 48/8/1 47/1/1 43/9/1
f 43/9/1 47/1/1 46/4/1 42/10/1
f 42/10/1 46/4/1 45/6/1 41/11/1
f 39/12/1 44/7/1 43/9/1 38/13/1
f 38/13/1 43/9/1 42/10/1 37/14/1
f 35/15/1 40/16/1 39/12/1 34/17/1
f 34/17/1 39/12/1 38/13/1 33/18/1
f 31/19/1 36/20/1 35/15/1 30/21/1
f 30/21/1 35/15/1 34/17/1 29/22/1
f 29/22/1 34/17/1 33/18/1 28/23/1
f 27/24/1 32/25/1 31/19/1 26/26/1
f 26/26/1 31/19/1 30/21/1 25/27/1
f 19/28/1 27/24/1 26/26/1 18/29/1
f 18/29/1 26/26/1 25/27/1 17/30/1
f 17/30/1 25/27/1 24/31/1 16/32/1
f 16/32/1 24/31/1 23/33/1 15/34/1
f 15/34/1 23/33/1 22/35/1 14/36/1
f 14/36/1 22/35/1 21/37/1 13/38/1
f 13/38/1 21/37/1 20/39/1 12/40/1
f 1/41/1 19/28/1 18/29/1 2/42/1
f 2/42/1 18/29/1 17/30/1 3/43/1
f 3/43/1 17/30/1 16/32/1 4/44/1
f 4/44/1 16/32/1 15/34/1 5/45/1
f 5/45/1 15/34/1 14/36/1 6/46/1
f 6/46/1 14/36/1 13/38/1 7/47/1
f 7/47/1 13/38/1 12/40/1 8/48/1
f 51/2/1 11/49/1 10/50/1 50/3/1
f 50/3/1 10/50/1 9/51/1 49/5/1
f 98/1/2 97/4/2 101/3/2 102/2/2
f 97/4/2 96/6/2 100/5/2 101/3/2
f 95/7/2 94/9/2 98/1/2 99/8/2
f 94/9/2 93/10/2 97/4/2 98/1/2
f 93/10/2 92/11/2 96/6/2 97/4/2
f 90/12/2 89/13/2 94/9/2 95/7/2
f 89/13/2 88/14/2 93/10/2 94/9/2
f 86/15/2 85/17/2 90/12/2 91/16/2
f 85/17/2 84/18/2 89/13/2 90/12/2
f 82/19/2 81/21/2 86/15/2 87/20/2
f 81/21/2 80/22/2 85/17/2 86/15/2
f 80/22/2 79/23/2 84/18/2 85/17/2
f 78/24/2 77/26/2 82/19/2 83/25/2
f 77/26/2 76/27/2 81/21/2 82/19/2
f 70/28/2 69/29/2 77/26/2 78/24/2
f 69/29/2 68/30/2 76/27/2 77/26/2
f 68/30/2 67/32/2 75/31/2 76/27/2
f 67/32/2 66/34/2 74/33/2 75/31/2
f 66/34/2 65/36/2 73/35/2 74/33/2
f 65/36/2 64/38/2 72/37/2 73/35/2
f 64/38/2 63/40/2 71/39/2 72/37/2
f 52/41/2 53/42/2 69/29/2 70/28/2
f 53/42/2 54/43/2 68/30/2 69/29/2
f 54/43/2 55/44/2 67/32/2 68/30/2
f 55/44/2 56/45/2 66/34/2 67/32/2
f 56/45/2 57/46/2 65/36/2 66/34/2
f 57/46/2 58/47/2 64/38/2 65/36/2
f 58/47/2 59/48/2 63/40/2 64/38/2
f 102/2/2 101/3/2 61/50/2 62/49/2
f 101/3/2 100/5/2 60/51/2 61/50/2
f 6/46/3 7/47/3 58/47/3 57/46/3
f 39/12/4 40/16/4 91/16/4 90/12/4
f 23/33/4 24/31/4 75/31/4 74/33/4
f 7/47/3 8/48/3 59/48/3 58/47/3
f 42/10/3 41/11/3 92/11/3 93/10/3
f 25/27/5 30/21/5 81/21/5 76/27/5
f 24/31/4 25/27/4 76/27/4 75/31/4
f 41/11/5 45/6/5 96/6/5 92/11/5
f 9/51/4 10/50/4 61/50/4 60/51/4
f 27/24/6 19/28/6 70/28/6 78/24/6
f 44/7/6 39/12/6 90/12/6 95/7/6
f 10/50/4 11/49/4 62/49/4 61/50/4
f 8/48/5 12/40/5 63/40/5 59/48/5
f 29/22/3 28/23/3 79/23/3 80/22/3
f 37/14/5 42/10/5 93/10/5 88/14/5
f 11/49/6 51/2/6 102/2/6 62/49/6
f 30/21/3 29/22/3 80/22/3 81/21/3
f 40/16/6 35/15/6 86/15/6 91/16/6
f 47/1/4 48/8/4 99/8/4 98/1/4
f 49/5/5 9/51/5 60/51/5 100/5/5
f 31/19/4 32/25/4 83/25/4 82/19/4
f 33/18/5 38/13/5 89/13/5 84/18/5
f 1/41/3 2/42/3 53/42/3 52/41/3
f 36/20/6 31/19/6 82/19/6 87/20/6
f 51/2/6 47/1/6 98/1/6 102/2/6
f 12/40/5 20/39/5 71/39/5 63/40/5
f 2/42/3 3/43/3 54/43/3 53/42/3
f 19/28/6 1/41/6 52/41/6 70/28/6
f 3/43/3 4/44/3 55/44/3 54/43/3
f 35/15/4 36/20/4 87/20/4 86/15/4
f 20/39/4 21/37/4 72/37/4 71/39/4
f 45/6/5 49/5/5 100/5/5 96/6/5
f 4/44/3 5/45/3 56/45/3 55/44/3
f 38/13/3 37/14/3 88/14/3 89/13/3
f 28/23/5 33/18/5 84/18/5 79/23/5
f 21/37/4 22/35/4 73/35/4 72/37/4
f 48/8/6 44/7/6 95/7/6 99/8/6
f 5/45/3 6/46/3 57/46/3 56/45/3
f 32/25/6 27/24/6 78/24/6 83/25/6
f 22/35/4 23/33/4 74/33/4 73/35/4
