# Blender 5.0.0
# www.blender.org
mtllib 8.mtl
o Plane.032
v -0.555556 1.000000 -0.000000
v -0.333333 1.000000 -0.000000
v -0.111111 1.000000 -0.000000
v 0.111111 1.000000 -0.000000
v 0.333333 1.000000 -0.000000
v 0.555556 1.000000 -0.000000
v 0.555556 -1.000000 0.000000
v 0.333333 -1.000000 0.000000
v 0.111111 -1.000000 0.000000
v -0.111111 -1.000000 0.000000
v -0.333333 -1.000000 0.000000
v -0.555556 -1.000000 0.000000
v -0.777778 0.777778 -0.000000
v -0.777778 0.555556 -0.000000
v -0.777778 0.333333 -0.000000
v -0.777778 0.111111 -0.000000
v -0.777778 -0.111111 0.000000
v -0.777778 -0.333333 0.000000
v -0.777778 -0.555556 0.000000
v -0.777778 -0.777778 0.000000
v -0.555556 0.777778 -0.000000
v -0.555556 0.555556 -0.000000
v -0.555556 0.333333 -0.000000
v -0.555556 0.111111 -0.000000
v -0.555556 -0.111111 0.000000
v -0.555556 -0.333333 0.000000
v -0.555556 -0.555556 0.000000
v -0.555556 -0.777778 0.000000
v -0.333333 0.777778 -0.000000
v -0.333333 0.555556 -0.000000
v -0.333333 0.333333 -0.000000
v -0.333333 0.111111 -0.000000
v -0.333333 -0.111111 0.000000
v -0.333333 -0.333333 0.000000
v -0.333333 -0.555556 0.000000
v -0.333333 -0.777778 0.000000
v -0.111111 0.777778 -0.000000
v -0.111111 0.555556 -0.000000
v -0.111111 0.111111 -0.000000
v -0.111111 -0.111111 0.000000
v -0.111111 -0.555556 0.000000
v -0.111111 -0.777778 0.000000
v 0.111111 0.777778 -0.000000
v 0.111111 0.555556 -0.000000
v 0.111111 0.111111 -0.000000
v 0.111111 -0.111111 0.000000
v 0.111111 -0.555556 0.000000
v 0.111111 -0.777778 0.000000
v 0.333333 0.777778 -0.000000
v 0.333333 0.555556 -0.000000
v 0.333333 0.333333 -0.000000
v 0.333333 0.111111 -0.000000
v 0.333333 -0.111111 0.000000
v 0.333333 -0.333333 0.000000
v 0.333333 -0.555556 0.000000
v 0.333333 -0.777778 0.000000
v 0.555556 0.777778 -0.000000
v 0.555556 0.555556 -0.000000
v 0.555556 0.333333 -0.000000
v 0.555556 0.111111 -0.000000
v 0.555556 -0.111111 0.000000
v 0.555556 -0.333333 0.000000
v 0.555556 -0.555556 0.000000
v 0.555556 -0.777778 0.000000
v 0.777778 0.777778 -0.000000
v 0.777778 0.555556 -0.000000
v 0.777778 0.333333 -0.000000
v 0.777778 0.111111 -0.000000
v 0.777778 -0.111111 0.000000
v 0.777778 -0.333333 0.000000
v 0.777778 -0.555556 0.000000
v 0.777778 -0.777778 0.000000
v -0.555556 1.000000 -0.500000
v -0.333333 1.000000 -0.500000
v -0.111111 1.000000 -0.500000
v 0.111111 1.000000 -0.500000
v 0.333333 1.000000 -0.500000
v 0.555556 1.000000 -0.500000
v 0.555556 -1.000000 -0.500000
v 0.333333 -1.000000 -0.500000
v 0.111111 -1.000000 -0.500000
v -0.111111 -1.000000 -0.500000
v -0.333333 -1.000000 -0.500000
v -0.555556 -1.000000 -0.500000
v -0.555556 -0.777778 -0.500000
v -0.333333 -0.777778 -0.500000
v -0.111111 -0.777778 -0.500000
v 0.111111 -0.777778 -0.500000
v 0.333333 -0.777778 -0.500000
v 0.555556 -0.777778 -0.500000
v -0.777778 0.777778 -0.500000
v -0.777778 0.555556 -0.500000
v -0.777778 0.333333 -0.500000
v -0.777778 0.111111 -0.500000
v -0.777778 -0.111111 -0.500000
v -0.777778 -0.333333 -0.500000
v -0.777778 -0.555556 -0.500000
v -0.777778 -0.777778 -0.500000
v -0.555556 0.777778 -0.500000
v -0.555556 0.555556 -0.500000
v -0.555556 0.333333 -0.500000
v -0.555556 0.111111 -0.500000
v -0.555556 -0.111111 -0.500000
v -0.555556 -0.333333 -0.500000
v -0.555556 -0.555556 -0.500000
v -0.333333 0.777778 -0.500000
v -0.333333 0.555556 -0.500000
v -0.333333 0.333333 -0.500000
v -0.333333 0.111111 -0.500000
v -0.333333 -0.111111 -0.500000
v -0.333333 -0.333333 -0.500000
v -0.333333 -0.555556 -0.500000
v -0.111111 0.777778 -0.500000
v -0.111111 0.555556 -0.500000
v -0.111111 0.111111 -0.500000
v -0.111111 -0.111111 -0.500000
v -0.111111 -0.555556 -0.500000
v 0.111111 0.777778 -0.500000
v 0.111111 0.555556 -0.500000
v 0.111111 0.111111 -0.500000
v 0.111111 -0.111111 -0.500000
v 0.111111 -0.555556 -0.500000
v 0.333333 0.777778 -0.500000
v 0.333333 0.555556 -0.500000
v 0.333333 0.333333 -0.500000
v 0.333333 0.111111 -0.500000
v 0.333333 -0.111111 -0.500000
v 0.333333 -0.333333 -0.500000
v 0.333333 -0.555556 -0.500000
v 0.555556 0.777778 -0.500000
v 0.555556 0.555556 -0.500000
v 0.555556 0.333333 -0.500000
v 0.555556 0.111111 -0.500000
v 0.555556 -0.111111 -0.500000
v 0.555556 -0.333333 -0.500000
v 0.555556 -0.555556 -0.500000
v 0.777778 0.777778 -0.500000
v 0.777778 0.555556 -0.500000
v 0.777778 0.333333 -0.500000
v 0.777778 0.111111 -0.500000
v 0.777778 -0.111111 -0.500000
v 0.777778 -0.333333 -0.500000
v 0.777778 -0.555556 -0.500000
v 0.777778 -0.777778 -0.500000
vn -0.0000 -0.0000 1.0000
vn -0.0000 -0.0000 -1.0000
vn -0.0000 1.0000 -0.0000
vn 1.0000 -0.0000 -0.0000
vn -0.0000 -1.0000 -0.0000
vn -1.0000 -0.0000 -0.0000
vt 0.222222 0.888889
vt 0.222222 1.000000
vt 0.333333 1.000000
vt 0.333333 0.888889
vt 0.444444 1.000000
vt 0.444444 0.888889
vt 0.555556 1.000000
vt 0.555556 0.888889
vt 0.666667 1.000000
vt 0.666667 0.888889
vt 0.777778 1.000000
vt 0.777778 0.888889
vt 0.777778 0.111111
vt 0.777778 0.222222
vt 0.888889 0.222222
vt 0.888889 0.111111
vt 0.777778 0.333333
vt 0.888889 0.333333
vt 0.777778 0.444444
vt 0.888889 0.444444
vt 0.777778 0.555556
vt 0.777778 0.666667
vt 0.888889 0.666667
vt 0.888889 0.555556
vt 0.777778 0.777778
vt 0.888889 0.777778
vt 0.888889 0.888889
vt 0.666667 0.000000
vt 0.666667 0.111111
vt 0.777778 0.000000
vt 0.666667 0.222222
vt 0.666667 0.333333
vt 0.666667 0.444444
vt 0.666667 0.555556
vt 0.666667 0.666667
vt 0.666667 0.777778
vt 0.555556 0.000000
vt 0.555556 0.111111
vt 0.555556 0.222222
vt 0.555556 0.444444
vt 0.555556 0.555556
vt 0.555556 0.777778
vt 0.444444 0.000000
vt 0.444444 0.111111
vt 0.444444 0.222222
vt 0.444444 0.444444
vt 0.444444 0.555556
vt 0.444444 0.777778
vt 0.333333 0.000000
vt 0.333333 0.111111
vt 0.333333 0.222222
vt 0.333333 0.444444
vt 0.333333 0.555556
vt 0.333333 0.777778
vt 0.222222 0.000000
vt 0.222222 0.111111
vt 0.222222 0.222222
vt 0.222222 0.333333
vt 0.333333 0.333333
vt 0.222222 0.444444
vt 0.222222 0.555556
vt 0.222222 0.666667
vt 0.333333 0.666667
vt 0.222222 0.777778
vt 0.111111 0.111111
vt 0.111111 0.222222
vt 0.111111 0.333333
vt 0.111111 0.444444
vt 0.111111 0.555556
vt 0.111111 0.666667
vt 0.111111 0.777778
vt 0.111111 0.888889
s 0
f 28/1/1 12/2/1 11/3/1 36/4/1
f 36/4/1 11/3/1 10/5/1 42/6/1
f 42/6/1 10/5/1 9/7/1 48/8/1
f 48/8/1 9/7/1 8/9/1 56/10/1
f 56/10/1 8/9/1 7/11/1 64/12/1
f 57/13/1 58/14/1 66/15/1 65/16/1
f 58/14/1 59/17/1 67/18/1 66/15/1
f 59/17/1 60/19/1 68/20/1 67/18/1
f 61/21/1 62/22/1 70/23/1 69/24/1
f 62/22/1 63/25/1 71/26/1 70/23/1
f 63/25/1 64/12/1 72/27/1 71/26/1
f 5/28/1 49/29/1 57/13/1 6/30/1
f 49/29/1 50/31/1 58/14/1 57/13/1
f 50/31/1 51/32/1 59/17/1 58/14/1
f 51/32/1 52/33/1 60/19/1 59/17/1
f 52/33/1 53/34/1 61/21/1 60/19/1
f 53/34/1 54/35/1 62/22/1 61/21/1
f 54/35/1 55/36/1 63/25/1 62/22/1
f 55/36/1 56/10/1 64/12/1 63/25/1
f 4/37/1 43/38/1 49/29/1 5/28/1
f 43/38/1 44/39/1 50/31/1 49/29/1
f 45/40/1 46/41/1 53/34/1 52/33/1
f 47/42/1 48/8/1 56/10/1 55/36/1
f 3/43/1 37/44/1 43/38/1 4/37/1
f 37/44/1 38/45/1 44/39/1 43/38/1
f 39/46/1 40/47/1 46/41/1 45/40/1
f 41/48/1 42/6/1 48/8/1 47/42/1
f 2/49/1 29/50/1 37/44/1 3/43/1
f 29/50/1 30/51/1 38/45/1 37/44/1
f 32/52/1 33/53/1 40/47/1 39/46/1
f 35/54/1 36/4/1 42/6/1 41/48/1
f 1/55/1 21/56/1 29/50/1 2/49/1
f 21/56/1 22/57/1 30/51/1 29/50/1
f 22/57/1 23/58/1 31/59/1 30/51/1
f 23/58/1 24/60/1 32/52/1 31/59/1
f 24/60/1 25/61/1 33/53/1 32/52/1
f 25/61/1 26/62/1 34/63/1 33/53/1
f 26/62/1 27/64/1 35/54/1 34/63/1
f 27/64/1 28/1/1 36/4/1 35/54/1
f 13/65/1 14/66/1 22/57/1 21/56/1
f 14/66/1 15/67/1 23/58/1 22/57/1
f 15/67/1 16/68/1 24/60/1 23/58/1
f 17/69/1 18/70/1 26/62/1 25/61/1
f 18/70/1 19/71/1 27/64/1 26/62/1
f 19/71/1 20/72/1 28/1/1 27/64/1
f 85/1/2 86/4/2 83/3/2 84/2/2
f 86/4/2 87/6/2 82/5/2 83/3/2
f 87/6/2 88/8/2 81/7/2 82/5/2
f 88/8/2 89/10/2 80/9/2 81/7/2
f 89/10/2 90/12/2 79/11/2 80/9/2
f 130/13/2 137/16/2 138/15/2 131/14/2
f 131/14/2 138/15/2 139/18/2 132/17/2
f 132/17/2 139/18/2 140/20/2 133/19/2
f 134/21/2 141/24/2 142/23/2 135/22/2
f 135/22/2 142/23/2 143/26/2 136/25/2
f 136/25/2 143/26/2 144/27/2 90/12/2
f 77/28/2 78/30/2 130/13/2 123/29/2
f 123/29/2 130/13/2 131/14/2 124/31/2
f 124/31/2 131/14/2 132/17/2 125/32/2
f 125/32/2 132/17/2 133/19/2 126/33/2
f 126/33/2 133/19/2 134/21/2 127/34/2
f 127/34/2 134/21/2 135/22/2 128/35/2
f 128/35/2 135/22/2 136/25/2 129/36/2
f 129/36/2 136/25/2 90/12/2 89/10/2
f 76/37/2 77/28/2 123/29/2 118/38/2
f 118/38/2 123/29/2 124/31/2 119/39/2
f 120/40/2 126/33/2 127/34/2 121/41/2
f 122/42/2 129/36/2 89/10/2 88/8/2
f 75/43/2 76/37/2 118/38/2 113/44/2
f 113/44/2 118/38/2 119/39/2 114/45/2
f 115/46/2 120/40/2 121/41/2 116/47/2
f 117/48/2 122/42/2 88/8/2 87/6/2
f 74/49/2 75/43/2 113/44/2 106/50/2
f 106/50/2 113/44/2 114/45/2 107/51/2
f 109/52/2 115/46/2 116/47/2 110/53/2
f 112/54/2 117/48/2 87/6/2 86/4/2
f 73/55/2 74/49/2 106/50/2 99/56/2
f 99/56/2 106/50/2 107/51/2 100/57/2
f 100/57/2 107/51/2 108/59/2 101/58/2
f 101/58/2 108/59/2 109/52/2 102/60/2
f 102/60/2 109/52/2 110/53/2 103/61/2
f 103/61/2 110/53/2 111/63/2 104/62/2
f 104/62/2 111/63/2 112/54/2 105/64/2
f 105/64/2 112/54/2 86/4/2 85/1/2
f 91/65/2 99/56/2 100/57/2 92/66/2
f 92/66/2 100/57/2 101/58/2 93/67/2
f 93/67/2 101/58/2 102/60/2 94/68/2
f 95/69/2 103/61/2 104/62/2 96/70/2
f 96/70/2 104/62/2 105/64/2 97/71/2
f 97/71/2 105/64/2 85/1/2 98/72/2
f 1/55/3 2/49/3 74/49/3 73/55/3
f 2/49/3 3/43/3 75/43/3 74/49/3
f 6/30/4 57/13/4 130/13/4 78/30/4
f 3/43/3 4/37/3 76/37/3 75/43/3
f 4/37/3 5/28/3 77/28/3 76/37/3
f 5/28/3 6/30/3 78/30/3 77/28/3
f 7/11/5 8/9/5 80/9/5 79/11/5
f 13/65/3 21/56/3 99/56/3 91/65/3
f 60/19/4 61/21/4 134/21/4 133/19/4
f 30/51/4 31/59/4 108/59/4 107/51/4
f 8/9/5 9/7/5 81/7/5 80/9/5
f 50/31/5 44/39/5 119/39/5 124/31/5
f 31/59/4 32/52/4 109/52/4 108/59/4
f 9/7/5 10/5/5 82/5/5 81/7/5
f 45/40/3 52/33/3 126/33/3 120/40/3
f 10/5/5 11/3/5 83/3/5 82/5/5
f 24/60/5 16/68/5 94/68/5 102/60/5
f 53/34/5 46/41/5 121/41/5 127/34/5
f 33/53/4 34/63/4 111/63/4 110/53/4
f 11/3/5 12/2/5 84/2/5 83/3/5
f 17/69/3 25/61/3 103/61/3 95/69/3
f 47/42/3 55/36/3 129/36/3 122/42/3
f 65/16/4 66/15/4 138/15/4 137/16/4
f 34/63/4 35/54/4 112/54/4 111/63/4
f 12/2/6 28/1/6 85/1/6 84/2/6
f 66/15/4 67/18/4 139/18/4 138/15/4
f 67/18/4 68/20/4 140/20/4 139/18/4
f 28/1/5 20/72/5 98/72/5 85/1/5
f 44/39/5 38/45/5 114/45/5 119/39/5
f 69/24/4 70/23/4 142/23/4 141/24/4
f 39/46/3 45/40/3 120/40/3 115/46/3
f 70/23/4 71/26/4 143/26/4 142/23/4
f 46/41/5 40/47/5 116/47/5 121/41/5
f 71/26/4 72/27/4 144/27/4 143/26/4
f 64/12/4 7/11/4 79/11/4 90/12/4
f 41/48/3 47/42/3 122/42/3 117/48/3
f 57/13/3 65/16/3 137/16/3 130/13/3
f 14/66/6 13/65/6 91/65/6 92/66/6
f 15/67/6 14/66/6 92/66/6 93/67/6
f 16/68/6 15/67/6 93/67/6 94/68/6
f 38/45/5 30/51/5 107/51/5 114/45/5
f 68/20/5 60/19/5 133/19/5 140/20/5
f 18/70/6 17/69/6 95/69/6 96/70/6
f 32/52/3 39/46/3 115/46/3 109/52/3
f 61/21/3 69/24/3 141/24/3 134/21/3
f 19/71/6 18/70/6 96/70/6 97/71/6
f 40/47/5 33/53/5 110/53/5 116/47/5
f 20/72/6 19/71/6 97/71/6 98/72/6
f 35/54/3 41/48/3 117/48/3 112/54/3
f 51/32/6 50/31/6 124/31/6 125/32/6
f 21/56/6 1/55/6 73/55/6 99/56/6
f 72/27/5 64/12/5 90/12/5 144/27/5
f 52/33/6 51/32/6 125/32/6 126/33/6
f 54/35/6 53/34/6 127/34/6 128/35/6
f 55/36/6 54/35/6 128/35/6 129/36/6
f 25/61/6 24/60/6 102/60/6 103/61/6
