# Blender 5.0.0
# www.blender.org
mtllib 9.mtl
o Plane.035
v 0.555555 -1.000000 -0.000000
v 0.333333 -1.000000 0.000000
v 0.111111 -1.000000 0.000000
v -0.111111 -1.000000 0.000000
v -0.333334 -1.000000 0.000000
v -0.555556 -1.000000 0.000000
v -0.555555 1.000000 0.000000
v -0.333333 1.000000 -0.000000
v -0.111111 1.000000 -0.000000
v 0.111111 1.000000 -0.000000
v 0.333334 1.000000 -0.000000
v 0.555556 1.000000 -0.000000
v -0.777778 -0.777778 0.000000
v -0.555556 -0.777778 0.000000
v -0.333334 -0.777778 0.000000
v -0.111111 -0.777778 0.000000
v 0.111111 -0.777778 0.000000
v 0.333333 -0.777778 0.000000
v 0.555555 -0.777778 -0.000000
v 0.777778 -0.777778 -0.000000
v -0.777778 -0.555555 0.000000
v -0.555556 -0.555555 0.000000
v -0.333334 -0.555555 0.000000
v -0.111111 -0.555556 0.000000
v 0.111111 -0.555556 0.000000
v 0.333333 -0.555556 -0.000000
v 0.555555 -0.555556 -0.000000
v 0.777778 -0.555556 -0.000000
v -0.777778 -0.333333 0.000000
v -0.555556 -0.333333 0.000000
v -0.333333 -0.333333 0.000000
v 0.333333 -0.333333 -0.000000
v 0.555555 -0.333334 -0.000000
v 0.777778 -0.333334 -0.000000
v -0.777778 -0.111111 0.000000
v -0.555556 -0.111111 0.000000
v -0.333333 -0.111111 0.000000
v -0.111111 -0.111111 0.000000
v 0.111111 -0.111111 -0.000000
v 0.333333 -0.111111 -0.000000
v 0.555556 -0.111111 -0.000000
v -0.777778 0.111111 0.000000
v -0.555556 0.111111 0.000000
v -0.333333 0.111111 0.000000
v -0.111111 0.111111 0.000000
v 0.111111 0.111111 -0.000000
v 0.333333 0.111111 -0.000000
v 0.555556 0.111111 -0.000000
v 0.777778 0.111111 -0.000000
v -0.777778 0.333334 0.000000
v -0.555555 0.333334 0.000000
v -0.333333 0.333333 0.000000
v 0.333333 0.333333 -0.000000
v 0.555556 0.333333 -0.000000
v 0.777778 0.333333 -0.000000
v -0.777778 0.555556 0.000000
v -0.555555 0.555556 0.000000
v -0.333333 0.555556 0.000000
v -0.111111 0.555556 -0.000000
v 0.111111 0.555556 -0.000000
v 0.333334 0.555555 -0.000000
v 0.555556 0.555555 -0.000000
v 0.777778 0.555555 -0.000000
v -0.777778 0.777778 0.000000
v -0.555555 0.777778 0.000000
v -0.333333 0.777778 -0.000000
v -0.111111 0.777778 -0.000000
v 0.111111 0.777778 -0.000000
v 0.333334 0.777778 -0.000000
v 0.555556 0.777778 -0.000000
v 0.777778 0.777778 -0.000000
v 0.555555 -1.000000 -0.500000
v 0.333333 -1.000000 -0.500000
v 0.111111 -1.000000 -0.500000
v -0.111112 -1.000000 -0.500000
v -0.333334 -1.000000 -0.500000
v -0.555556 -1.000000 -0.500000
v -0.555555 1.000000 -0.500000
v -0.333333 1.000000 -0.500000
v -0.111111 1.000000 -0.500000
v 0.111111 1.000000 -0.500000
v 0.333334 1.000000 -0.500000
v 0.555556 1.000000 -0.500000
v -0.777778 -0.777778 -0.500000
v -0.555556 -0.777778 -0.500000
v -0.333334 -0.777778 -0.500000
v -0.111111 -0.777778 -0.500000
v 0.111111 -0.777778 -0.500000
v 0.333333 -0.777778 -0.500000
v 0.555555 -0.777778 -0.500000
v 0.777777 -0.777778 -0.500000
v -0.777778 -0.555555 -0.500000
v -0.555556 -0.555555 -0.500000
v -0.333334 -0.555555 -0.500000
v -0.111111 -0.555556 -0.500000
v 0.111111 -0.555556 -0.500000
v 0.333333 -0.555556 -0.500000
v 0.555555 -0.555556 -0.500000
v 0.777778 -0.555556 -0.500000
v -0.777778 -0.333333 -0.500000
v -0.555556 -0.333333 -0.500000
v -0.333333 -0.333333 -0.500000
v 0.333333 -0.333333 -0.500000
v 0.555555 -0.333334 -0.500000
v 0.777778 -0.333334 -0.500000
v -0.777778 -0.111111 -0.500000
v -0.555556 -0.111111 -0.500000
v -0.333333 -0.111111 -0.500000
v -0.111111 -0.111111 -0.500000
v 0.111111 -0.111111 -0.500000
v 0.333333 -0.111111 -0.500000
v 0.555555 -0.111111 -0.500000
v -0.777778 0.111111 -0.500000
v -0.555556 0.111111 -0.500000
v -0.333333 0.111111 -0.500000
v -0.111111 0.111111 -0.500000
v 0.111111 0.111111 -0.500000
v 0.333333 0.111111 -0.500000
v 0.555556 0.111111 -0.500000
v 0.777778 0.111111 -0.500000
v -0.777778 0.333334 -0.500000
v -0.555556 0.333333 -0.500000
v -0.333333 0.333333 -0.500000
v 0.333333 0.333333 -0.500000
v 0.555556 0.333333 -0.500000
v 0.777778 0.333333 -0.500000
v -0.777778 0.555556 -0.500000
v -0.555555 0.555556 -0.500000
v -0.333333 0.555556 -0.500000
v -0.111111 0.555556 -0.500000
v 0.111111 0.555556 -0.500000
v 0.333333 0.555555 -0.500000
v 0.555556 0.555555 -0.500000
v 0.777778 0.555555 -0.500000
v -0.777778 0.777778 -0.500000
v -0.555555 0.777778 -0.500000
v -0.333333 0.777778 -0.500000
v -0.111111 0.777778 -0.500000
v 0.111111 0.777778 -0.500000
v 0.333334 0.777778 -0.500000
v 0.555556 0.777778 -0.500000
v 0.777778 0.777778 -0.500000
vn -0.0000 -0.0000 1.0000
vn -0.0000 -0.0000 -1.0000
vn 1.0000 -0.0000 -0.0000
vn -0.0000 -1.0000 -0.0000
vn -0.0000 1.0000 -0.0000
vn -1.0000 -0.0000 -0.0000
vt 0.111111 0.777778
vt 0.111111 0.888889
vt 0.222222 0.888889
vt 0.222222 0.777778
vt 0.333333 0.888889
vt 0.333333 0.777778
vt 0.444444 0.888889
vt 0.444444 0.777778
vt 0.555556 0.888889
vt 0.555556 0.777778
vt 0.666667 0.888889
vt 0.666667 0.777778
vt 0.777778 0.888889
vt 0.777778 0.777778
vt 0.888889 0.888889
vt 0.888889 0.777778
vt 0.111111 0.666667
vt 0.222222 0.666667
vt 0.333333 0.666667
vt 0.666667 0.666667
vt 0.777778 0.666667
vt 0.888889 0.666667
vt 0.111111 0.555556
vt 0.222222 0.555556
vt 0.333333 0.555556
vt 0.666667 0.555556
vt 0.777778 0.555556
vt 0.888889 0.555556
vt 0.222222 0.444444
vt 0.333333 0.444444
vt 0.444444 0.555556
vt 0.444444 0.444444
vt 0.555556 0.555556
vt 0.555556 0.444444
vt 0.666667 0.444444
vt 0.777778 0.444444
vt 0.888889 0.444444
vt 0.666667 0.333333
vt 0.777778 0.333333
vt 0.888889 0.333333
vt 0.111111 0.222222
vt 0.111111 0.333333
vt 0.222222 0.333333
vt 0.222222 0.222222
vt 0.333333 0.333333
vt 0.333333 0.222222
vt 0.666667 0.222222
vt 0.777778 0.222222
vt 0.888889 0.222222
vt 0.111111 0.111111
vt 0.222222 0.111111
vt 0.333333 0.111111
vt 0.444444 0.222222
vt 0.444444 0.111111
vt 0.555556 0.222222
vt 0.555556 0.111111
vt 0.666667 0.111111
vt 0.777778 0.111111
vt 0.888889 0.111111
vt 0.222222 0.000000
vt 0.333333 0.000000
vt 0.444444 0.000000
vt 0.555556 0.000000
vt 0.666667 0.000000
vt 0.777778 0.000000
vt 0.222222 1.000000
vt 0.333333 1.000000
vt 0.444444 1.000000
vt 0.555556 1.000000
vt 0.666667 1.000000
vt 0.777778 1.000000
s 0
f 63/1/1 71/2/1 70/3/1 62/4/1
f 62/4/1 70/3/1 69/5/1 61/6/1
f 61/6/1 69/5/1 68/7/1 60/8/1
f 60/8/1 68/7/1 67/9/1 59/10/1
f 59/10/1 67/9/1 66/11/1 58/12/1
f 58/12/1 66/11/1 65/13/1 57/14/1
f 57/14/1 65/13/1 64/15/1 56/16/1
f 55/17/1 63/1/1 62/4/1 54/18/1
f 54/18/1 62/4/1 61/6/1 53/19/1
f 52/20/1 58/12/1 57/14/1 51/21/1
f 51/21/1 57/14/1 56/16/1 50/22/1
f 49/23/1 55/17/1 54/18/1 48/24/1
f 48/24/1 54/18/1 53/19/1 47/25/1
f 44/26/1 52/20/1 51/21/1 43/27/1
f 43/27/1 51/21/1 50/22/1 42/28/1
f 41/29/1 48/24/1 47/25/1 40/30/1
f 40/30/1 47/25/1 46/31/1 39/32/1
f 39/32/1 46/31/1 45/33/1 38/34/1
f 38/34/1 45/33/1 44/26/1 37/35/1
f 37/35/1 44/26/1 43/27/1 36/36/1
f 36/36/1 43/27/1 42/28/1 35/37/1
f 31/38/1 37/35/1 36/36/1 30/39/1
f 30/39/1 36/36/1 35/37/1 29/40/1
f 28/41/1 34/42/1 33/43/1 27/44/1
f 27/44/1 33/43/1 32/45/1 26/46/1
f 23/47/1 31/38/1 30/39/1 22/48/1
f 22/48/1 30/39/1 29/40/1 21/49/1
f 20/50/1 28/41/1 27/44/1 19/51/1
f 19/51/1 27/44/1 26/46/1 18/52/1
f 18/52/1 26/46/1 25/53/1 17/54/1
f 17/54/1 25/53/1 24/55/1 16/56/1
f 16/56/1 24/55/1 23/47/1 15/57/1
f 15/57/1 23/47/1 22/48/1 14/58/1
f 14/58/1 22/48/1 21/49/1 13/59/1
f 1/60/1 19/51/1 18/52/1 2/61/1
f 2/61/1 18/52/1 17/54/1 3/62/1
f 3/62/1 17/54/1 16/56/1 4/63/1
f 4/63/1 16/56/1 15/57/1 5/64/1
f 5/64/1 15/57/1 14/58/1 6/65/1
f 70/3/1 12/66/1 11/67/1 69/5/1
f 69/5/1 11/67/1 10/68/1 68/7/1
f 68/7/1 10/68/1 9/69/1 67/9/1
f 67/9/1 9/69/1 8/70/1 66/11/1
f 66/11/1 8/70/1 7/71/1 65/13/1
f 134/1/2 133/4/2 141/3/2 142/2/2
f 133/4/2 132/6/2 140/5/2 141/3/2
f 132/6/2 131/8/2 139/7/2 140/5/2
f 131/8/2 130/10/2 138/9/2 139/7/2
f 130/10/2 129/12/2 137/11/2 138/9/2
f 129/12/2 128/14/2 136/13/2 137/11/2
f 128/14/2 127/16/2 135/15/2 136/13/2
f 126/17/2 125/18/2 133/4/2 134/1/2
f 125/18/2 124/19/2 132/6/2 133/4/2
f 123/20/2 122/21/2 128/14/2 129/12/2
f 122/21/2 121/22/2 127/16/2 128/14/2
f 120/23/2 119/24/2 125/18/2 126/17/2
f 119/24/2 118/25/2 124/19/2 125/18/2
f 115/26/2 114/27/2 122/21/2 123/20/2
f 114/27/2 113/28/2 121/22/2 122/21/2
f 112/29/2 111/30/2 118/25/2 119/24/2
f 111/30/2 110/32/2 117/31/2 118/25/2
f 110/32/2 109/34/2 116/33/2 117/31/2
f 109/34/2 108/35/2 115/26/2 116/33/2
f 108/35/2 107/36/2 114/27/2 115/26/2
f 107/36/2 106/37/2 113/28/2 114/27/2
f 102/38/2 101/39/2 107/36/2 108/35/2
f 101/39/2 100/40/2 106/37/2 107/36/2
f 99/41/2 98/44/2 104/43/2 105/42/2
f 98/44/2 97/46/2 103/45/2 104/43/2
f 94/47/2 93/48/2 101/39/2 102/38/2
f 93/48/2 92/49/2 100/40/2 101/39/2
f 91/50/2 90/51/2 98/44/2 99/41/2
f 90/51/2 89/52/2 97/46/2 98/44/2
f 89/52/2 88/54/2 96/53/2 97/46/2
f 88/54/2 87/56/2 95/55/2 96/53/2
f 87/56/2 86/57/2 94/47/2 95/55/2
f 86/57/2 85/58/2 93/48/2 94/47/2
f 85/58/2 84/59/2 92/49/2 93/48/2
f 72/60/2 73/61/2 89/52/2 90/51/2
f 73/61/2 74/62/2 88/54/2 89/52/2
f 74/62/2 75/63/2 87/56/2 88/54/2
f 75/63/2 76/64/2 86/57/2 87/56/2
f 76/64/2 77/65/2 85/58/2 86/57/2
f 141/3/2 140/5/2 82/67/2 83/66/2
f 140/5/2 139/7/2 81/68/2 82/67/2
f 139/7/2 138/9/2 80/69/2 81/68/2
f 138/9/2 137/11/2 79/70/2 80/69/2
f 137/11/2 136/13/2 78/71/2 79/70/2
f 55/17/3 49/23/3 120/23/3 126/17/3
f 59/10/4 58/12/4 129/12/4 130/10/4
f 25/53/5 26/46/5 97/46/5 96/53/5
f 60/8/4 59/10/4 130/10/4 131/8/4
f 47/25/6 53/19/6 124/19/6 118/25/6
f 61/6/4 60/8/4 131/8/4 132/6/4
f 13/59/6 21/49/6 92/49/6 84/59/6
f 52/20/3 44/26/3 115/26/3 123/20/3
f 19/51/3 1/60/3 72/60/3 90/51/3
f 42/28/6 50/22/6 121/22/6 113/28/6
f 64/15/5 65/13/5 136/13/5 135/15/5
f 32/45/5 33/43/5 104/43/5 103/45/5
f 1/60/4 2/61/4 73/61/4 72/60/4
f 48/24/3 41/29/3 112/29/3 119/24/3
f 33/43/5 34/42/5 105/42/5 104/43/5
f 2/61/4 3/62/4 74/62/4 73/61/4
f 3/62/4 4/63/4 75/63/4 74/62/4
f 4/63/4 5/64/4 76/64/4 75/63/4
f 6/65/6 14/58/6 85/58/6 77/65/6
f 38/34/4 37/35/4 108/35/4 109/34/4
f 5/64/4 6/65/4 77/65/4 76/64/4
f 12/66/3 70/3/3 141/3/3 83/66/3
f 39/32/4 38/34/4 109/34/4 110/32/4
f 7/71/5 8/70/5 79/70/5 78/71/5
f 70/3/5 71/2/5 142/2/5 141/3/5
f 40/30/4 39/32/4 110/32/4 111/30/4
f 8/70/5 9/69/5 80/69/5 79/70/5
f 35/37/6 42/28/6 113/28/6 106/37/6
f 71/2/3 63/1/3 134/1/3 142/2/3
f 41/29/4 40/30/4 111/30/4 112/29/4
f 9/69/5 10/68/5 81/68/5 80/69/5
f 37/35/3 31/38/3 102/38/3 108/35/3
f 10/68/5 11/67/5 82/67/5 81/68/5
f 11/67/5 12/66/5 83/66/5 82/67/5
f 65/13/6 7/71/6 78/71/6 136/13/6
f 29/40/6 35/37/6 106/37/6 100/40/6
f 44/26/5 45/33/5 116/33/5 115/26/5
f 14/58/4 13/59/4 84/59/4 85/58/4
f 34/42/3 28/41/3 99/41/3 105/42/3
f 45/33/5 46/31/5 117/31/5 116/33/5
f 46/31/5 47/25/5 118/25/5 117/31/5
f 26/46/6 32/45/6 103/45/6 97/46/6
f 31/38/3 23/47/3 94/47/3 102/38/3
f 56/16/6 64/15/6 135/15/6 127/16/6
f 49/23/4 48/24/4 119/24/4 120/23/4
f 63/1/3 55/17/3 126/17/3 134/1/3
f 21/49/6 29/40/6 100/40/6 92/49/6
f 20/50/4 19/51/4 90/51/4 91/50/4
f 28/41/3 20/50/3 91/50/3 99/41/3
f 53/19/6 61/6/6 132/6/6 124/19/6
f 58/12/3 52/20/3 123/20/3 129/12/3
f 23/47/5 24/55/5 95/55/5 94/47/5
f 50/22/6 56/16/6 127/16/6 121/22/6
f 24/55/5 25/53/5 96/53/5 95/55/5
