# Blender 5.0.0
# www.blender.org
mtllib A.mtl
o Plane
v -0.555555 1.000000 0.000000
v -0.333333 1.000000 0.000000
v -0.111110 1.000000 -0.000000
v 0.111112 1.000000 -0.000000
v 0.333334 1.000000 -0.000000
v 0.555556 1.000000 -0.000000
v 0.777777 -1.000000 -0.000000
v 0.555555 -1.000000 -0.000000
v 0.333333 -1.000000 -0.000000
v -0.333334 -1.000000 0.000000
v -0.555556 -1.000000 0.000000
v -0.777778 -0.999999 0.000000
v -0.777777 0.777778 0.000000
v -0.777777 0.555556 0.000000
v -0.777778 0.333334 0.000000
v -0.777778 0.111112 0.000000
v -0.777778 -0.111111 0.000000
v -0.777778 -0.333333 0.000000
v -0.777778 -0.555555 0.000000
v -0.777778 -0.777777 0.000000
v -0.555555 0.777778 0.000000
v -0.555555 0.555556 0.000000
v -0.555555 0.333334 0.000000
v -0.555556 0.111111 0.000000
v -0.555556 -0.111111 0.000000
v -0.555556 -0.333333 0.000000
v -0.555556 -0.555555 0.000000
v -0.555556 -0.777777 0.000000
v -0.333333 0.777778 0.000000
v -0.333333 0.555556 0.000000
v -0.333333 0.333334 0.000000
v -0.333333 0.111111 0.000000
v -0.333333 -0.111111 0.000000
v -0.333334 -0.333333 0.000000
v -0.333334 -0.555555 0.000000
v -0.333334 -0.777778 0.000000
v -0.111111 0.777778 -0.000000
v -0.111111 0.555556 -0.000000
v -0.111111 0.111111 0.000000
v -0.111111 -0.111111 0.000000
v 0.111112 0.777778 -0.000000
v 0.111111 0.555556 -0.000000
v 0.111111 0.111111 -0.000000
v 0.111111 -0.111111 -0.000000
v 0.333334 0.777778 -0.000000
v 0.333334 0.555555 -0.000000
v 0.333334 0.333333 -0.000000
v 0.333333 0.111111 -0.000000
v 0.333333 -0.111111 -0.000000
v 0.333333 -0.333334 -0.000000
v 0.333333 -0.555556 -0.000000
v 0.333333 -0.777778 -0.000000
v 0.555556 0.777777 -0.000000
v 0.555556 0.555555 -0.000000
v 0.555556 0.333333 -0.000000
v 0.555556 0.111111 -0.000000
v 0.555556 -0.111111 -0.000000
v 0.555555 -0.333334 -0.000000
v 0.555555 -0.555556 -0.000000
v 0.555555 -0.777778 -0.000000
v 0.777778 0.777777 -0.000000
v 0.777778 0.555555 -0.000000
v 0.777778 0.333333 -0.000000
v 0.777778 0.111111 -0.000000
v 0.777778 -0.111112 -0.000000
v 0.777778 -0.333334 -0.000000
v 0.777777 -0.555556 -0.000000
v 0.777777 -0.777778 -0.000000
v -0.555555 1.000000 -0.500000
v -0.333333 1.000000 -0.500000
v -0.111111 1.000000 -0.500000
v 0.111112 1.000000 -0.500000
v 0.333334 1.000000 -0.500000
v 0.555556 1.000000 -0.500000
v 0.777777 -1.000000 -0.500000
v 0.555555 -1.000000 -0.500000
v 0.333333 -1.000000 -0.500000
v -0.333334 -1.000000 -0.500000
v -0.555556 -1.000000 -0.500000
v -0.777779 -0.999999 -0.500000
v -0.777778 -0.777777 -0.500000
v -0.555556 -0.777777 -0.500000
v -0.333334 -0.777778 -0.500000
v 0.333333 -0.777778 -0.500000
v 0.555555 -0.777778 -0.500000
v 0.777777 -0.777778 -0.500000
v -0.777777 0.777778 -0.500000
v -0.777777 0.555556 -0.500000
v -0.777778 0.333334 -0.500000
v -0.777778 0.111112 -0.500000
v -0.777778 -0.111111 -0.500000
v -0.777778 -0.333333 -0.500000
v -0.777778 -0.555555 -0.500000
v -0.555555 0.777778 -0.500000
v -0.555555 0.555556 -0.500000
v -0.555555 0.333334 -0.500000
v -0.555556 0.111111 -0.500000
v -0.555556 -0.111111 -0.500000
v -0.555556 -0.333333 -0.500000
v -0.555556 -0.555555 -0.500000
v -0.333333 0.777778 -0.500000
v -0.333333 0.555556 -0.500000
v -0.333333 0.333334 -0.500000
v -0.333333 0.111111 -0.500000
v -0.333333 -0.111111 -0.500000
v -0.333334 -0.333333 -0.500000
v -0.333334 -0.555555 -0.500000
v -0.111111 0.777778 -0.500000
v -0.111111 0.555556 -0.500000
v -0.111111 0.111111 -0.500000
v -0.111111 -0.111111 -0.500000
v 0.111112 0.777778 -0.500000
v 0.111111 0.555556 -0.500000
v 0.111111 0.111111 -0.500000
v 0.111111 -0.111111 -0.500000
v 0.333334 0.777778 -0.500000
v 0.333334 0.555555 -0.500000
v 0.333333 0.333333 -0.500000
v 0.333333 0.111111 -0.500000
v 0.333333 -0.111111 -0.500000
v 0.333333 -0.333334 -0.500000
v 0.333333 -0.555556 -0.500000
v 0.555556 0.777777 -0.500000
v 0.555556 0.555555 -0.500000
v 0.555556 0.333333 -0.500000
v 0.555556 0.111111 -0.500000
v 0.555555 -0.111112 -0.500000
v 0.555555 -0.333334 -0.500000
v 0.555555 -0.555556 -0.500000
v 0.777778 0.777777 -0.500000
v 0.777778 0.555555 -0.500000
v 0.777778 0.333333 -0.500000
v 0.777778 0.111111 -0.500000
v 0.777778 -0.111112 -0.500000
v 0.777777 -0.333334 -0.500000
v 0.777777 -0.555556 -0.500000
vn -0.0000 -0.0000 1.0000
vn -0.0000 -0.0000 -1.0000
vn -1.0000 -0.0000 -0.0000
vn -0.0000 1.0000 -0.0000
vn 1.0000 -0.0000 -0.0000
vn -0.0000 -1.0000 -0.0000
vt 0.111111 0.888889
vt 0.111111 1.000000
vt 0.222222 1.000000
vt 0.222222 0.888889
vt 0.333333 1.000000
vt 0.333333 0.888889
vt 0.666667 0.888889
vt 0.666667 1.000000
vt 0.777778 1.000000
vt 0.777778 0.888889
vt 0.888889 1.000000
vt 0.888889 0.888889
vt 0.777778 0.111111
vt 0.777778 0.222222
vt 0.888889 0.222222
vt 0.888889 0.111111
vt 0.777778 0.333333
vt 0.888889 0.333333
vt 0.777778 0.444444
vt 0.888889 0.444444
vt 0.777778 0.555556
vt 0.888889 0.555556
vt 0.777778 0.666667
vt 0.888889 0.666667
vt 0.777778 0.777778
vt 0.888889 0.777778
vt 0.666667 0.000000
vt 0.666667 0.111111
vt 0.777778 0.000000
vt 0.666667 0.222222
vt 0.666667 0.333333
vt 0.666667 0.444444
vt 0.666667 0.555556
vt 0.666667 0.666667
vt 0.666667 0.777778
vt 0.555556 0.000000
vt 0.555556 0.111111
vt 0.555556 0.222222
vt 0.555556 0.444444
vt 0.555556 0.555556
vt 0.444444 0.000000
vt 0.444444 0.111111
vt 0.444444 0.444444
vt 0.444444 0.555556
vt 0.333333 0.000000
vt 0.333333 0.111111
vt 0.333333 0.222222
vt 0.444444 0.222222
vt 0.333333 0.444444
vt 0.333333 0.555556
vt 0.222222 0.000000
vt 0.222222 0.111111
vt 0.222222 0.222222
vt 0.222222 0.333333
vt 0.333333 0.333333
vt 0.222222 0.444444
vt 0.222222 0.555556
vt 0.222222 0.666667
vt 0.333333 0.666667
vt 0.222222 0.777778
vt 0.333333 0.777778
vt 0.111111 0.111111
vt 0.111111 0.222222
vt 0.111111 0.333333
vt 0.111111 0.444444
vt 0.111111 0.555556
vt 0.111111 0.666667
vt 0.111111 0.777778
s 0
f 20/1/1 12/2/1 11/3/1 28/4/1
f 28/4/1 11/3/1 10/5/1 36/6/1
f 52/7/1 9/8/1 8/9/1 60/10/1
f 60/10/1 8/9/1 7/11/1 68/12/1
f 53/13/1 54/14/1 62/15/1 61/16/1
f 54/14/1 55/17/1 63/18/1 62/15/1
f 55/17/1 56/19/1 64/20/1 63/18/1
f 56/19/1 57/21/1 65/22/1 64/20/1
f 57/21/1 58/23/1 66/24/1 65/22/1
f 58/23/1 59/25/1 67/26/1 66/24/1
f 59/25/1 60/10/1 68/12/1 67/26/1
f 5/27/1 45/28/1 53/13/1 6/29/1
f 45/28/1 46/30/1 54/14/1 53/13/1
f 46/30/1 47/31/1 55/17/1 54/14/1
f 47/31/1 48/32/1 56/19/1 55/17/1
f 48/32/1 49/33/1 57/21/1 56/19/1
f 49/33/1 50/34/1 58/23/1 57/21/1
f 50/34/1 51/35/1 59/25/1 58/23/1
f 51/35/1 52/7/1 60/10/1 59/25/1
f 4/36/1 41/37/1 45/28/1 5/27/1
f 41/37/1 42/38/1 46/30/1 45/28/1
f 43/39/1 44/40/1 49/33/1 48/32/1
f 3/41/1 37/42/1 41/37/1 4/36/1
f 39/43/1 40/44/1 44/40/1 43/39/1
f 2/45/1 29/46/1 37/42/1 3/41/1
f 29/46/1 30/47/1 38/48/1 37/42/1
f 32/49/1 33/50/1 40/44/1 39/43/1
f 1/51/1 21/52/1 29/46/1 2/45/1
f 21/52/1 22/53/1 30/47/1 29/46/1
f 22/53/1 23/54/1 31/55/1 30/47/1
f 23/54/1 24/56/1 32/49/1 31/55/1
f 24/56/1 25/57/1 33/50/1 32/49/1
f 25/57/1 26/58/1 34/59/1 33/50/1
f 26/58/1 27/60/1 35/61/1 34/59/1
f 27/60/1 28/4/1 36/6/1 35/61/1
f 13/62/1 14/63/1 22/53/1 21/52/1
f 14/63/1 15/64/1 23/54/1 22/53/1
f 15/64/1 16/65/1 24/56/1 23/54/1
f 16/65/1 17/66/1 25/57/1 24/56/1
f 17/66/1 18/67/1 26/58/1 25/57/1
f 18/67/1 19/68/1 27/60/1 26/58/1
f 19/68/1 20/1/1 28/4/1 27/60/1
f 81/1/2 82/4/2 79/3/2 80/2/2
f 82/4/2 83/6/2 78/5/2 79/3/2
f 84/7/2 85/10/2 76/9/2 77/8/2
f 85/10/2 86/12/2 75/11/2 76/9/2
f 123/13/2 130/16/2 131/15/2 124/14/2
f 124/14/2 131/15/2 132/18/2 125/17/2
f 125/17/2 132/18/2 133/20/2 126/19/2
f 126/19/2 133/20/2 134/22/2 127/21/2
f 127/21/2 134/22/2 135/24/2 128/23/2
f 128/23/2 135/24/2 136/26/2 129/25/2
f 129/25/2 136/26/2 86/12/2 85/10/2
f 73/27/2 74/29/2 123/13/2 116/28/2
f 116/28/2 123/13/2 124/14/2 117/30/2
f 117/30/2 124/14/2 125/17/2 118/31/2
f 118/31/2 125/17/2 126/19/2 119/32/2
f 119/32/2 126/19/2 127/21/2 120/33/2
f 120/33/2 127/21/2 128/23/2 121/34/2
f 121/34/2 128/23/2 129/25/2 122/35/2
f 122/35/2 129/25/2 85/10/2 84/7/2
f 72/36/2 73/27/2 116/28/2 112/37/2
f 112/37/2 116/28/2 117/30/2 113/38/2
f 114/39/2 119/32/2 120/33/2 115/40/2
f 71/41/2 72/36/2 112/37/2 108/42/2
f 110/43/2 114/39/2 115/40/2 111/44/2
f 70/45/2 71/41/2 108/42/2 101/46/2
f 101/46/2 108/42/2 109/48/2 102/47/2
f 104/49/2 110/43/2 111/44/2 105/50/2
f 69/51/2 70/45/2 101/46/2 94/52/2
f 94/52/2 101/46/2 102/47/2 95/53/2
f 95/53/2 102/47/2 103/55/2 96/54/2
f 96/54/2 103/55/2 104/49/2 97/56/2
f 97/56/2 104/49/2 105/50/2 98/57/2
f 98/57/2 105/50/2 106/59/2 99/58/2
f 99/58/2 106/59/2 107/61/2 100/60/2
f 100/60/2 107/61/2 83/6/2 82/4/2
f 87/62/2 94/52/2 95/53/2 88/63/2
f 88/63/2 95/53/2 96/54/2 89/64/2
f 89/64/2 96/54/2 97/56/2 90/65/2
f 90/65/2 97/56/2 98/57/2 91/66/2
f 91/66/2 98/57/2 99/58/2 92/67/2
f 92/67/2 99/58/2 100/60/2 93/68/2
f 93/68/2 100/60/2 82/4/2 81/1/2
f 50/34/3 49/33/3 120/33/3 121/34/3
f 13/62/4 21/52/4 94/52/4 87/62/4
f 51/35/3 50/34/3 121/34/3 122/35/3
f 52/7/3 51/35/3 122/35/3 84/7/3
f 6/29/5 53/13/5 123/13/5 74/29/5
f 1/51/4 2/45/4 70/45/4 69/51/4
f 2/45/4 3/41/4 71/41/4 70/45/4
f 3/41/4 4/36/4 72/36/4 71/41/4
f 4/36/4 5/27/4 73/27/4 72/36/4
f 5/27/4 6/29/4 74/29/4 73/27/4
f 7/11/6 8/9/6 76/9/6 75/11/6
f 46/30/6 42/38/6 113/38/6 117/30/6
f 30/47/5 31/55/5 103/55/5 102/47/5
f 8/9/6 9/8/6 77/8/6 76/9/6
f 43/39/4 48/32/4 119/32/4 114/39/4
f 31/55/5 32/49/5 104/49/5 103/55/5
f 10/5/6 11/3/6 79/3/6 78/5/6
f 49/33/6 44/40/6 115/40/6 120/33/6
f 61/16/5 62/15/5 131/15/5 130/16/5
f 11/3/6 12/2/6 80/2/6 79/3/6
f 41/37/6 37/42/6 108/42/6 112/37/6
f 62/15/5 63/18/5 132/18/5 131/15/5
f 33/50/5 34/59/5 106/59/5 105/50/5
f 12/2/3 20/1/3 81/1/3 80/2/3
f 39/43/4 43/39/4 114/39/4 110/43/4
f 63/18/5 64/20/5 133/20/5 132/18/5
f 34/59/5 35/61/5 107/61/5 106/59/5
f 44/40/6 40/44/6 111/44/6 115/40/6
f 64/20/5 65/22/5 134/22/5 133/20/5
f 35/61/5 36/6/5 83/6/5 107/61/5
f 36/6/5 10/5/5 78/5/5 83/6/5
f 65/22/5 66/24/5 135/24/5 134/22/5
f 9/8/3 52/7/3 84/7/3 77/8/3
f 38/48/6 30/47/6 102/47/6 109/48/6
f 66/24/5 67/26/5 136/26/5 135/24/5
f 37/42/5 38/48/5 109/48/5 108/42/5
f 32/49/4 39/43/4 110/43/4 104/49/4
f 67/26/5 68/12/5 86/12/5 136/26/5
f 68/12/5 7/11/5 75/11/5 86/12/5
f 40/44/6 33/50/6 105/50/6 111/44/6
f 53/13/4 61/16/4 130/16/4 123/13/4
f 14/63/3 13/62/3 87/62/3 88/63/3
f 42/38/3 41/37/3 112/37/3 113/38/3
f 15/64/3 14/63/3 88/63/3 89/64/3
f 16/65/3 15/64/3 89/64/3 90/65/3
f 17/66/3 16/65/3 90/65/3 91/66/3
f 18/67/3 17/66/3 91/66/3 92/67/3
f 47/31/3 46/30/3 117/30/3 118/31/3
f 19/68/3 18/67/3 92/67/3 93/68/3
f 48/32/3 47/31/3 118/31/3 119/32/3
f 20/1/3 19/68/3 93/68/3 81/1/3
f 21/52/3 1/51/3 69/51/3 94/52/3
