# Blender 5.0.0
# www.blender.org
mtllib B.mtl
o Plane.001
v -0.555555 1.000000 0.000000
v -0.333333 1.000000 0.000000
v -0.111110 1.000000 -0.000000
v 0.111112 1.000000 -0.000000
v 0.333334 1.000000 -0.000000
v 0.555556 1.000000 -0.000000
v 0.777778 0.999999 -0.000000
v 0.777777 -1.000000 -0.000000
v 0.555555 -1.000000 -0.000000
v 0.333333 -1.000000 -0.000000
v 0.111110 -1.000000 0.000000
v -0.111112 -1.000000 0.000000
v -0.333334 -1.000000 0.000000
v -0.555556 -1.000000 0.000000
v -0.777777 0.777778 0.000000
v -0.777777 0.555556 0.000000
v -0.777778 0.333334 0.000000
v -0.777778 0.111112 0.000000
v -0.777778 -0.111111 0.000000
v -0.777778 -0.333333 0.000000
v -0.777778 -0.555555 0.000000
v -0.777778 -0.777777 0.000000
v -0.555555 0.777778 0.000000
v -0.555555 0.555556 0.000000
v -0.555555 0.333334 0.000000
v -0.555556 0.111111 0.000000
v -0.555556 -0.111111 0.000000
v -0.555556 -0.333333 0.000000
v -0.555556 -0.555555 0.000000
v -0.555556 -0.777777 0.000000
v -0.333333 0.777778 0.000000
v -0.333333 0.555556 0.000000
v -0.333333 0.333334 0.000000
v -0.333333 0.111111 0.000000
v -0.333333 -0.111111 0.000000
v -0.333334 -0.333333 0.000000
v -0.333334 -0.555555 0.000000
v -0.333334 -0.777778 0.000000
v -0.111111 0.777778 -0.000000
v -0.111111 0.333333 0.000000
v -0.111111 0.111111 0.000000
v -0.111111 -0.555556 0.000000
v -0.111112 -0.777778 0.000000
v 0.111112 0.777778 -0.000000
v 0.111111 0.333333 -0.000000
v 0.111111 0.111111 -0.000000
v 0.111111 -0.555556 0.000000
v 0.111111 -0.777778 0.000000
v 0.333334 0.777778 -0.000000
v 0.333334 0.555555 -0.000000
v 0.333334 0.333333 -0.000000
v 0.333333 0.111111 -0.000000
v 0.333333 -0.111111 -0.000000
v 0.333333 -0.333334 -0.000000
v 0.333333 -0.555556 -0.000000
v 0.333333 -0.777778 -0.000000
v 0.555556 0.777777 -0.000000
v 0.555556 0.555555 -0.000000
v 0.555556 0.333333 -0.000000
v 0.555556 0.111111 -0.000000
v 0.555556 -0.111111 -0.000000
v 0.555555 -0.333334 -0.000000
v 0.555555 -0.555556 -0.000000
v 0.555555 -0.777778 -0.000000
v 0.777778 0.777777 -0.000000
v 0.777778 0.555555 -0.000000
v 0.777778 0.333333 -0.000000
v 0.777778 0.111111 -0.000000
v 0.777778 -0.111112 -0.000000
v 0.777778 -0.333334 -0.000000
v 0.777777 -0.555556 -0.000000
v 0.777777 -0.777778 -0.000000
v -0.555555 1.000000 -0.504286
v -0.333333 1.000000 -0.504286
v -0.111111 1.000000 -0.504286
v 0.111112 1.000000 -0.504286
v 0.333334 1.000000 -0.504286
v 0.555556 1.000000 -0.504286
v 0.777778 0.999999 -0.504286
v 0.777777 -1.000000 -0.504286
v 0.555555 -1.000000 -0.504286
v 0.333333 -1.000000 -0.504286
v 0.111110 -1.000000 -0.504286
v -0.111112 -1.000000 -0.504286
v -0.333334 -1.000000 -0.504285
v -0.555556 -1.000000 -0.504285
v -0.555556 -0.777777 -0.504285
v -0.333334 -0.777778 -0.504285
v -0.111112 -0.777778 -0.504286
v 0.111111 -0.777778 -0.504286
v 0.333333 -0.777778 -0.504286
v 0.555555 -0.777778 -0.504286
v 0.777777 -0.777778 -0.504286
v -0.777777 0.777778 -0.504285
v -0.777777 0.555556 -0.504285
v -0.777778 0.333334 -0.504285
v -0.777778 0.111112 -0.504285
v -0.777778 -0.111111 -0.504285
v -0.777778 -0.333333 -0.504285
v -0.777778 -0.555555 -0.504285
v -0.777778 -0.777777 -0.504285
v -0.555555 0.777778 -0.504286
v -0.555555 0.555556 -0.504286
v -0.555555 0.333334 -0.504286
v -0.555556 0.111111 -0.504285
v -0.555556 -0.111111 -0.504285
v -0.555556 -0.333333 -0.504285
v -0.555556 -0.555555 -0.504285
v -0.333333 0.777778 -0.504286
v -0.333333 0.555556 -0.504286
v -0.333333 0.333334 -0.504286
v -0.333333 0.111111 -0.504286
v -0.333333 -0.111111 -0.504286
v -0.333334 -0.333333 -0.504286
v -0.333334 -0.555555 -0.504286
v -0.111111 0.777778 -0.504286
v -0.111111 0.333333 -0.504286
v -0.111111 0.111111 -0.504286
v -0.111112 -0.555556 -0.504286
v 0.111112 0.777778 -0.504286
v 0.111111 0.333333 -0.504286
v 0.111111 0.111111 -0.504286
v 0.111111 -0.555556 -0.504286
v 0.333334 0.777778 -0.504286
v 0.333334 0.555555 -0.504286
v 0.333333 0.333333 -0.504286
v 0.333333 0.111111 -0.504286
v 0.333333 -0.111111 -0.504286
v 0.333333 -0.333334 -0.504286
v 0.333333 -0.555556 -0.504286
v 0.555556 0.777777 -0.504286
v 0.555556 0.555555 -0.504286
v 0.555556 0.333333 -0.504286
v 0.555556 0.111111 -0.504286
v 0.555555 -0.111112 -0.504286
v 0.555555 -0.333334 -0.504286
v 0.555555 -0.555556 -0.504286
v 0.777778 0.777777 -0.504286
v 0.777778 0.555555 -0.504286
v 0.777778 0.333333 -0.504286
v 0.777778 0.111111 -0.504286
v 0.777778 -0.111112 -0.504286
v 0.777777 -0.333334 -0.504286
v 0.777777 -0.555556 -0.504286
vn -0.0000 -0.0000 1.0000
vn -0.0000 -0.0000 -1.0000
vn -1.0000 -0.0000 -0.0000
vn -0.0000 1.0000 -0.0000
vn -0.0000 -1.0000 -0.0000
vn 1.0000 -0.0000 -0.0000
vt 0.222222 0.888889
vt 0.222222 1.000000
vt 0.333333 1.000000
vt 0.333333 0.888889
vt 0.444444 1.000000
vt 0.444444 0.888889
vt 0.555556 1.000000
vt 0.555556 0.888889
vt 0.666667 1.000000
vt 0.666667 0.888889
vt 0.777778 1.000000
vt 0.777778 0.888889
vt 0.888889 1.000000
vt 0.888889 0.888889
vt 0.777778 0.000000
vt 0.777778 0.111111
vt 0.888889 0.111111
vt 0.888889 0.000000
vt 0.777778 0.222222
vt 0.888889 0.222222
vt 0.777778 0.333333
vt 0.888889 0.333333
vt 0.777778 0.444444
vt 0.888889 0.444444
vt 0.777778 0.555556
vt 0.888889 0.555556
vt 0.777778 0.666667
vt 0.888889 0.666667
vt 0.777778 0.777778
vt 0.888889 0.777778
vt 0.666667 0.000000
vt 0.666667 0.111111
vt 0.666667 0.222222
vt 0.666667 0.333333
vt 0.666667 0.444444
vt 0.666667 0.555556
vt 0.666667 0.666667
vt 0.666667 0.777778
vt 0.555556 0.000000
vt 0.555556 0.111111
vt 0.555556 0.333333
vt 0.555556 0.444444
vt 0.555556 0.777778
vt 0.444444 0.000000
vt 0.444444 0.111111
vt 0.444444 0.333333
vt 0.444444 0.444444
vt 0.444444 0.777778
vt 0.333333 0.000000
vt 0.333333 0.111111
vt 0.333333 0.333333
vt 0.333333 0.444444
vt 0.333333 0.777778
vt 0.222222 0.000000
vt 0.222222 0.111111
vt 0.222222 0.222222
vt 0.333333 0.222222
vt 0.222222 0.333333
vt 0.222222 0.444444
vt 0.222222 0.555556
vt 0.333333 0.555556
vt 0.222222 0.666667
vt 0.333333 0.666667
vt 0.222222 0.777778
vt 0.111111 0.111111
vt 0.111111 0.222222
vt 0.111111 0.333333
vt 0.111111 0.444444
vt 0.111111 0.555556
vt 0.111111 0.666667
vt 0.111111 0.777778
vt 0.111111 0.888889
s 0
f 30/1/1 14/2/1 13/3/1 38/4/1
f 38/4/1 13/3/1 12/5/1 43/6/1
f 43/6/1 12/5/1 11/7/1 48/8/1
f 48/8/1 11/7/1 10/9/1 56/10/1
f 56/10/1 10/9/1 9/11/1 64/12/1
f 64/12/1 9/11/1 8/13/1 72/14/1
f 6/15/1 57/16/1 65/17/1 7/18/1
f 57/16/1 58/19/1 66/20/1 65/17/1
f 58/19/1 59/21/1 67/22/1 66/20/1
f 59/21/1 60/23/1 68/24/1 67/22/1
f 60/23/1 61/25/1 69/26/1 68/24/1
f 61/25/1 62/27/1 70/28/1 69/26/1
f 62/27/1 63/29/1 71/30/1 70/28/1
f 63/29/1 64/12/1 72/14/1 71/30/1
f 5/31/1 49/32/1 57/16/1 6/15/1
f 49/32/1 50/33/1 58/19/1 57/16/1
f 50/33/1 51/34/1 59/21/1 58/19/1
f 51/34/1 52/35/1 60/23/1 59/21/1
f 52/35/1 53/36/1 61/25/1 60/23/1
f 53/36/1 54/37/1 62/27/1 61/25/1
f 54/37/1 55/38/1 63/29/1 62/27/1
f 55/38/1 56/10/1 64/12/1 63/29/1
f 4/39/1 44/40/1 49/32/1 5/31/1
f 45/41/1 46/42/1 52/35/1 51/34/1
f 47/43/1 48/8/1 56/10/1 55/38/1
f 3/44/1 39/45/1 44/40/1 4/39/1
f 40/46/1 41/47/1 46/42/1 45/41/1
f 42/48/1 43/6/1 48/8/1 47/43/1
f 2/49/1 31/50/1 39/45/1 3/44/1
f 33/51/1 34/52/1 41/47/1 40/46/1
f 37/53/1 38/4/1 43/6/1 42/48/1
f 1/54/1 23/55/1 31/50/1 2/49/1
f 23/55/1 24/56/1 32/57/1 31/50/1
f 24/56/1 25/58/1 33/51/1 32/57/1
f 25/58/1 26/59/1 34/52/1 33/51/1
f 26/59/1 27/60/1 35/61/1 34/52/1
f 27/60/1 28/62/1 36/63/1 35/61/1
f 28/62/1 29/64/1 37/53/1 36/63/1
f 29/64/1 30/1/1 38/4/1 37/53/1
f 15/65/1 16/66/1 24/56/1 23/55/1
f 16/66/1 17/67/1 25/58/1 24/56/1
f 18/68/1 19/69/1 27/60/1 26/59/1
f 19/69/1 20/70/1 28/62/1 27/60/1
f 20/70/1 21/71/1 29/64/1 28/62/1
f 21/71/1 22/72/1 30/1/1 29/64/1
f 87/1/2 88/4/2 85/3/2 86/2/2
f 88/4/2 89/6/2 84/5/2 85/3/2
f 89/6/2 90/8/2 83/7/2 84/5/2
f 90/8/2 91/10/2 82/9/2 83/7/2
f 91/10/2 92/12/2 81/11/2 82/9/2
f 92/12/2 93/14/2 80/13/2 81/11/2
f 78/15/2 79/18/2 138/17/2 131/16/2
f 131/16/2 138/17/2 139/20/2 132/19/2
f 132/19/2 139/20/2 140/22/2 133/21/2
f 133/21/2 140/22/2 141/24/2 134/23/2
f 134/23/2 141/24/2 142/26/2 135/25/2
f 135/25/2 142/26/2 143/28/2 136/27/2
f 136/27/2 143/28/2 144/30/2 137/29/2
f 137/29/2 144/30/2 93/14/2 92/12/2
f 77/31/2 78/15/2 131/16/2 124/32/2
f 124/32/2 131/16/2 132/19/2 125/33/2
f 125/33/2 132/19/2 133/21/2 126/34/2
f 126/34/2 133/21/2 134/23/2 127/35/2
f 127/35/2 134/23/2 135/25/2 128/36/2
f 128/36/2 135/25/2 136/27/2 129/37/2
f 129/37/2 136/27/2 137/29/2 130/38/2
f 130/38/2 137/29/2 92/12/2 91/10/2
f 76/39/2 77/31/2 124/32/2 120/40/2
f 121/41/2 126/34/2 127/35/2 122/42/2
f 123/43/2 130/38/2 91/10/2 90/8/2
f 75/44/2 76/39/2 120/40/2 116/45/2
f 117/46/2 121/41/2 122/42/2 118/47/2
f 119/48/2 123/43/2 90/8/2 89/6/2
f 74/49/2 75/44/2 116/45/2 109/50/2
f 111/51/2 117/46/2 118/47/2 112/52/2
f 115/53/2 119/48/2 89/6/2 88/4/2
f 73/54/2 74/49/2 109/50/2 102/55/2
f 102/55/2 109/50/2 110/57/2 103/56/2
f 103/56/2 110/57/2 111/51/2 104/58/2
f 104/58/2 111/51/2 112/52/2 105/59/2
f 105/59/2 112/52/2 113/61/2 106/60/2
f 106/60/2 113/61/2 114/63/2 107/62/2
f 107/62/2 114/63/2 115/53/2 108/64/2
f 108/64/2 115/53/2 88/4/2 87/1/2
f 94/65/2 102/55/2 103/56/2 95/66/2
f 95/66/2 103/56/2 104/58/2 96/67/2
f 97/68/2 105/59/2 106/60/2 98/69/2
f 98/69/2 106/60/2 107/62/2 99/70/2
f 99/70/2 107/62/2 108/64/2 100/71/2
f 100/71/2 108/64/2 87/1/2 101/72/2
f 51/34/3 50/33/3 125/33/3 126/34/3
f 21/71/3 20/70/3 99/70/3 100/71/3
f 22/72/3 21/71/3 100/71/3 101/72/3
f 53/36/3 52/35/3 127/35/3 128/36/3
f 23/55/3 1/54/3 73/54/3 102/55/3
f 54/37/3 53/36/3 128/36/3 129/37/3
f 1/54/4 2/49/4 74/49/4 73/54/4
f 55/38/3 54/37/3 129/37/3 130/38/3
f 2/49/4 3/44/4 75/44/4 74/49/4
f 26/59/3 25/58/3 104/58/3 105/59/3
f 3/44/4 4/39/4 76/39/4 75/44/4
f 4/39/4 5/31/4 77/31/4 76/39/4
f 5/31/4 6/15/4 78/15/4 77/31/4
f 6/15/4 7/18/4 79/18/4 78/15/4
f 15/65/4 23/55/4 102/55/4 94/65/4
f 8/13/5 9/11/5 81/11/5 80/13/5
f 9/11/5 10/9/5 82/9/5 81/11/5
f 25/58/5 17/67/5 96/67/5 104/58/5
f 31/50/6 32/57/6 110/57/6 109/50/6
f 10/9/5 11/7/5 83/7/5 82/9/5
f 18/68/4 26/59/4 105/59/4 97/68/4
f 49/32/5 44/40/5 120/40/5 124/32/5
f 32/57/6 33/51/6 111/51/6 110/57/6
f 11/7/5 12/5/5 84/5/5 83/7/5
f 45/41/4 51/34/4 126/34/4 121/41/4
f 12/5/5 13/3/5 85/3/5 84/5/5
f 52/35/5 46/42/5 122/42/5 127/35/5
f 7/18/6 65/17/6 138/17/6 79/18/6
f 34/52/6 35/61/6 113/61/6 112/52/6
f 13/3/5 14/2/5 86/2/5 85/3/5
f 47/43/4 55/38/4 130/38/4 123/43/4
f 65/17/6 66/20/6 139/20/6 138/17/6
f 35/61/6 36/63/6 114/63/6 113/61/6
f 14/2/3 30/1/3 87/1/3 86/2/3
f 30/1/5 22/72/5 101/72/5 87/1/5
f 66/20/6 67/22/6 140/22/6 139/20/6
f 36/63/6 37/53/6 115/53/6 114/63/6
f 44/40/5 39/45/5 116/45/5 120/40/5
f 67/22/6 68/24/6 141/24/6 140/22/6
f 40/46/4 45/41/4 121/41/4 117/46/4
f 68/24/6 69/26/6 142/26/6 141/24/6
f 46/42/5 41/47/5 118/47/5 122/42/5
f 69/26/6 70/28/6 143/28/6 142/26/6
f 42/48/4 47/43/4 123/43/4 119/48/4
f 70/28/6 71/30/6 144/30/6 143/28/6
f 71/30/6 72/14/6 93/14/6 144/30/6
f 72/14/6 8/13/6 80/13/6 93/14/6
f 39/45/5 31/50/5 109/50/5 116/45/5
f 16/66/3 15/65/3 94/65/3 95/66/3
f 33/51/4 40/46/4 117/46/4 111/51/4
f 17/67/3 16/66/3 95/66/3 96/67/3
f 41/47/5 34/52/5 112/52/5 118/47/5
f 19/69/3 18/68/3 97/68/3 98/69/3
f 37/53/4 42/48/4 119/48/4 115/53/4
f 50/33/3 49/32/3 124/32/3 125/33/3
f 20/70/3 19/69/3 98/69/3 99/70/3
