# Blender 5.0.0
# www.blender.org
mtllib C.mtl
o Plane.002
v 0.555555 -1.000000 -0.000000
v 0.333333 -1.000000 0.000000
v 0.111111 -1.000000 0.000000
v -0.111111 -1.000000 0.000000
v -0.333334 -1.000000 0.000000
v -0.555556 -1.000000 0.000000
v -0.555555 1.000000 0.000000
v -0.333333 1.000000 -0.000000
v -0.111111 1.000000 -0.000000
v 0.111111 1.000000 -0.000000
v 0.333334 1.000000 -0.000000
v 0.555556 1.000000 -0.000000
v 0.777778 -0.777778 -0.000000
v 0.777778 -0.555556 -0.000000
v 0.777778 -0.333334 -0.000000
v 0.777778 -0.111111 -0.000000
v 0.777778 0.111111 -0.000000
v 0.777778 0.333333 -0.000000
v 0.777778 0.555555 -0.000000
v 0.777778 0.777778 -0.000000
v 0.555555 -0.777778 -0.000000
v 0.555555 -0.555556 -0.000000
v 0.555555 -0.333334 -0.000000
v 0.555556 -0.111111 -0.000000
v 0.555556 0.111111 -0.000000
v 0.555556 0.333333 -0.000000
v 0.555556 0.555555 -0.000000
v 0.555556 0.777778 -0.000000
v 0.333333 -0.777778 0.000000
v 0.333333 -0.555556 -0.000000
v 0.333333 -0.333333 -0.000000
v 0.333333 -0.111111 -0.000000
v 0.333333 0.111111 -0.000000
v 0.333333 0.333333 -0.000000
v 0.333334 0.555555 -0.000000
v 0.333334 0.777778 -0.000000
v 0.111111 -0.777778 0.000000
v 0.111111 0.777778 -0.000000
v -0.111111 -0.777778 0.000000
v -0.111111 0.777778 -0.000000
v -0.333334 -0.777778 0.000000
v -0.333334 -0.555555 0.000000
v -0.333333 -0.333333 0.000000
v -0.333333 0.333333 0.000000
v -0.333333 0.555556 0.000000
v -0.333333 0.777778 -0.000000
v -0.555556 -0.777778 0.000000
v -0.555556 -0.555555 0.000000
v -0.555556 -0.333333 0.000000
v -0.555555 0.333334 0.000000
v -0.555555 0.555556 0.000000
v -0.555555 0.777778 0.000000
v -0.777778 -0.777778 0.000000
v -0.777778 -0.555555 0.000000
v -0.777778 -0.333333 0.000000
v -0.777778 0.333334 0.000000
v -0.777778 0.555556 0.000000
v -0.777778 0.777778 0.000000
v 0.555555 -1.000000 -0.504286
v 0.333333 -1.000000 -0.504286
v 0.111111 -1.000000 -0.504286
v -0.111112 -1.000000 -0.504286
v -0.333334 -1.000000 -0.504286
v -0.555556 -1.000000 -0.504285
v -0.555555 1.000000 -0.504286
v -0.333333 1.000000 -0.504286
v -0.111111 1.000000 -0.504286
v 0.111111 1.000000 -0.504286
v 0.333334 1.000000 -0.504286
v 0.555556 1.000000 -0.504286
v 0.555556 0.777778 -0.504286
v 0.333334 0.777778 -0.504286
v 0.111111 0.777778 -0.504286
v -0.111111 0.777778 -0.504286
v -0.333333 0.777778 -0.504286
v -0.555555 0.777778 -0.504286
v 0.777777 -0.777778 -0.504286
v 0.777778 -0.555556 -0.504286
v 0.777778 -0.333334 -0.504286
v 0.777778 -0.111111 -0.504286
v 0.777778 0.111111 -0.504286
v 0.777778 0.333333 -0.504286
v 0.777778 0.555555 -0.504286
v 0.777778 0.777778 -0.504286
v 0.555555 -0.777778 -0.504286
v 0.555555 -0.555556 -0.504286
v 0.555555 -0.333334 -0.504286
v 0.555555 -0.111111 -0.504286
v 0.555556 0.111111 -0.504286
v 0.555556 0.333333 -0.504286
v 0.555556 0.555555 -0.504286
v 0.333333 -0.777778 -0.504286
v 0.333333 -0.555556 -0.504286
v 0.333333 -0.333333 -0.504286
v 0.333333 -0.111111 -0.504286
v 0.333333 0.111111 -0.504286
v 0.333333 0.333333 -0.504286
v 0.333333 0.555555 -0.504286
v 0.111111 -0.777778 -0.504286
v -0.111111 -0.777778 -0.504286
v -0.333334 -0.777778 -0.504286
v -0.333334 -0.555555 -0.504286
v -0.333333 -0.333333 -0.504286
v -0.333333 0.333333 -0.504286
v -0.333333 0.555556 -0.504286
v -0.555556 -0.777778 -0.504286
v -0.555556 -0.555555 -0.504286
v -0.555556 -0.333333 -0.504286
v -0.555556 0.333333 -0.504286
v -0.555555 0.555556 -0.504286
v -0.777778 -0.777778 -0.504285
v -0.777778 -0.555555 -0.504285
v -0.777778 -0.333333 -0.504286
v -0.777778 0.333334 -0.504286
v -0.777778 0.555556 -0.504286
v -0.777778 0.777778 -0.504286
vn -0.0000 -0.0000 1.0000
vn -0.0000 -0.0000 -1.0000
vn -0.0000 -1.0000 -0.0000
vn -0.0000 1.0000 -0.0000
vn -1.0000 -0.0000 -0.0000
vn 1.0000 -0.0000 -0.0000
vt 0.222222 0.888889
vt 0.222222 1.000000
vt 0.333333 1.000000
vt 0.333333 0.888889
vt 0.444444 1.000000
vt 0.444444 0.888889
vt 0.555556 1.000000
vt 0.555556 0.888889
vt 0.666667 1.000000
vt 0.666667 0.888889
vt 0.777778 1.000000
vt 0.777778 0.888889
vt 0.777778 0.111111
vt 0.777778 0.222222
vt 0.888889 0.222222
vt 0.888889 0.111111
vt 0.777778 0.333333
vt 0.888889 0.333333
vt 0.777778 0.666667
vt 0.777778 0.777778
vt 0.888889 0.777778
vt 0.888889 0.666667
vt 0.888889 0.888889
vt 0.666667 0.000000
vt 0.666667 0.111111
vt 0.777778 0.000000
vt 0.666667 0.222222
vt 0.666667 0.333333
vt 0.666667 0.666667
vt 0.666667 0.777778
vt 0.555556 0.000000
vt 0.555556 0.111111
vt 0.444444 0.000000
vt 0.444444 0.111111
vt 0.333333 0.000000
vt 0.333333 0.111111
vt 0.222222 0.000000
vt 0.222222 0.111111
vt 0.222222 0.222222
vt 0.333333 0.222222
vt 0.222222 0.333333
vt 0.333333 0.333333
vt 0.222222 0.444444
vt 0.333333 0.444444
vt 0.222222 0.555556
vt 0.333333 0.555556
vt 0.222222 0.666667
vt 0.333333 0.666667
vt 0.222222 0.777778
vt 0.333333 0.777778
vt 0.111111 0.111111
vt 0.111111 0.222222
vt 0.111111 0.333333
vt 0.111111 0.444444
vt 0.111111 0.555556
vt 0.111111 0.666667
vt 0.111111 0.777778
vt 0.111111 0.888889
s 0
f 28/1/1 12/2/1 11/3/1 36/4/1
f 36/4/1 11/3/1 10/5/1 38/6/1
f 38/6/1 10/5/1 9/7/1 40/8/1
f 40/8/1 9/7/1 8/9/1 46/10/1
f 46/10/1 8/9/1 7/11/1 52/12/1
f 47/13/1 48/14/1 54/15/1 53/16/1
f 48/14/1 49/17/1 55/18/1 54/15/1
f 50/19/1 51/20/1 57/21/1 56/22/1
f 51/20/1 52/12/1 58/23/1 57/21/1
f 5/24/1 41/25/1 47/13/1 6/26/1
f 41/25/1 42/27/1 48/14/1 47/13/1
f 42/27/1 43/28/1 49/17/1 48/14/1
f 44/29/1 45/30/1 51/20/1 50/19/1
f 45/30/1 46/10/1 52/12/1 51/20/1
f 4/31/1 39/32/1 41/25/1 5/24/1
f 3/33/1 37/34/1 39/32/1 4/31/1
f 2/35/1 29/36/1 37/34/1 3/33/1
f 1/37/1 21/38/1 29/36/1 2/35/1
f 21/38/1 22/39/1 30/40/1 29/36/1
f 22/39/1 23/41/1 31/42/1 30/40/1
f 23/41/1 24/43/1 32/44/1 31/42/1
f 24/43/1 25/45/1 33/46/1 32/44/1
f 25/45/1 26/47/1 34/48/1 33/46/1
f 26/47/1 27/49/1 35/50/1 34/48/1
f 27/49/1 28/1/1 36/4/1 35/50/1
f 13/51/1 14/52/1 22/39/1 21/38/1
f 14/52/1 15/53/1 23/41/1 22/39/1
f 15/53/1 16/54/1 24/43/1 23/41/1
f 16/54/1 17/55/1 25/45/1 24/43/1
f 17/55/1 18/56/1 26/47/1 25/45/1
f 18/56/1 19/57/1 27/49/1 26/47/1
f 19/57/1 20/58/1 28/1/1 27/49/1
f 71/1/2 72/4/2 69/3/2 70/2/2
f 72/4/2 73/6/2 68/5/2 69/3/2
f 73/6/2 74/8/2 67/7/2 68/5/2
f 74/8/2 75/10/2 66/9/2 67/7/2
f 75/10/2 76/12/2 65/11/2 66/9/2
f 106/13/2 111/16/2 112/15/2 107/14/2
f 107/14/2 112/15/2 113/18/2 108/17/2
f 109/19/2 114/22/2 115/21/2 110/20/2
f 110/20/2 115/21/2 116/23/2 76/12/2
f 63/24/2 64/26/2 106/13/2 101/25/2
f 101/25/2 106/13/2 107/14/2 102/27/2
f 102/27/2 107/14/2 108/17/2 103/28/2
f 104/29/2 109/19/2 110/20/2 105/30/2
f 105/30/2 110/20/2 76/12/2 75/10/2
f 62/31/2 63/24/2 101/25/2 100/32/2
f 61/33/2 62/31/2 100/32/2 99/34/2
f 60/35/2 61/33/2 99/34/2 92/36/2
f 59/37/2 60/35/2 92/36/2 85/38/2
f 85/38/2 92/36/2 93/40/2 86/39/2
f 86/39/2 93/40/2 94/42/2 87/41/2
f 87/41/2 94/42/2 95/44/2 88/43/2
f 88/43/2 95/44/2 96/46/2 89/45/2
f 89/45/2 96/46/2 97/48/2 90/47/2
f 90/47/2 97/48/2 98/50/2 91/49/2
f 91/49/2 98/50/2 72/4/2 71/1/2
f 77/51/2 85/38/2 86/39/2 78/52/2
f 78/52/2 86/39/2 87/41/2 79/53/2
f 79/53/2 87/41/2 88/43/2 80/54/2
f 80/54/2 88/43/2 89/45/2 81/55/2
f 81/55/2 89/45/2 90/47/2 82/56/2
f 82/56/2 90/47/2 91/49/2 83/57/2
f 83/57/2 91/49/2 71/1/2 84/58/2
f 36/4/3 38/6/3 73/6/3 72/4/3
f 7/11/4 8/9/4 66/9/4 65/11/4
f 29/36/5 30/40/5 93/40/5 92/36/5
f 17/55/6 16/54/6 80/54/6 81/55/6
f 6/26/5 47/13/5 106/13/5 64/26/5
f 8/9/4 9/7/4 67/7/4 66/9/4
f 30/40/5 31/42/5 94/42/5 93/40/5
f 58/23/4 52/12/4 76/12/4 116/23/4
f 18/56/6 17/55/6 81/55/6 82/56/6
f 9/7/4 10/5/4 68/5/4 67/7/4
f 31/42/5 32/44/5 95/44/5 94/42/5
f 28/1/4 20/58/4 84/58/4 71/1/4
f 19/57/6 18/56/6 82/56/6 83/57/6
f 10/5/4 11/3/4 69/3/4 68/5/4
f 32/44/5 33/46/5 96/46/5 95/44/5
f 20/58/6 19/57/6 83/57/6 84/58/6
f 11/3/4 12/2/4 70/2/4 69/3/4
f 33/46/5 34/48/5 97/48/5 96/46/5
f 49/17/4 43/28/4 103/28/4 108/17/4
f 21/38/6 1/37/6 59/37/6 85/38/6
f 12/2/6 28/1/6 71/1/6 70/2/6
f 34/48/5 35/50/5 98/50/5 97/48/5
f 44/29/3 50/19/3 109/19/3 104/29/3
f 53/16/5 54/15/5 112/15/5 111/16/5
f 35/50/5 36/4/5 72/4/5 98/50/5
f 54/15/5 55/18/5 113/18/5 112/15/5
f 56/22/5 57/21/5 115/21/5 114/22/5
f 41/25/4 39/32/4 100/32/4 101/25/4
f 1/37/3 2/35/3 60/35/3 59/37/3
f 57/21/5 58/23/5 116/23/5 115/21/5
f 13/51/3 21/38/3 85/38/3 77/51/3
f 40/8/3 46/10/3 75/10/3 74/8/3
f 2/35/3 3/33/3 61/33/3 60/35/3
f 47/13/3 53/16/3 111/16/3 106/13/3
f 52/12/5 7/11/5 65/11/5 76/12/5
f 42/27/6 41/25/6 101/25/6 102/27/6
f 39/32/4 37/34/4 99/34/4 100/32/4
f 3/33/3 4/31/3 62/31/3 61/33/3
f 14/52/6 13/51/6 77/51/6 78/52/6
f 43/28/6 42/27/6 102/27/6 103/28/6
f 38/6/3 40/8/3 74/8/3 73/6/3
f 4/31/3 5/24/3 63/24/3 62/31/3
f 55/18/4 49/17/4 108/17/4 113/18/4
f 15/53/6 14/52/6 78/52/6 79/53/6
f 45/30/6 44/29/6 104/29/6 105/30/6
f 37/34/4 29/36/4 92/36/4 99/34/4
f 5/24/3 6/26/3 64/26/3 63/24/3
f 50/19/3 56/22/3 114/22/3 109/19/3
f 16/54/6 15/53/6 79/53/6 80/54/6
f 46/10/6 45/30/6 105/30/6 75/10/6
