# Blender 5.0.0
# www.blender.org
mtllib D.mtl
o Plane.003
v 0.777777 -1.000000 -0.000000
v 0.555555 -1.000000 -0.000000
v 0.333333 -1.000000 0.000000
v 0.111111 -1.000000 0.000000
v -0.111111 -1.000000 0.000000
v -0.333334 -1.000000 0.000000
v -0.555556 -1.000000 0.000000
v -0.555555 1.000000 0.000000
v -0.333333 1.000000 -0.000000
v -0.111111 1.000000 -0.000000
v 0.111111 1.000000 -0.000000
v 0.333334 1.000000 -0.000000
v 0.555556 1.000000 -0.000000
v 0.777778 1.000000 -0.000000
v 0.777778 -0.777778 -0.000000
v 0.777778 -0.555556 -0.000000
v 0.777778 -0.333334 -0.000000
v 0.777778 -0.111111 -0.000000
v 0.777778 0.111111 -0.000000
v 0.777778 0.333333 -0.000000
v 0.777778 0.555555 -0.000000
v 0.777778 0.777778 -0.000000
v 0.555555 -0.777778 -0.000000
v 0.555555 -0.555556 -0.000000
v 0.555555 -0.333334 -0.000000
v 0.555556 -0.111111 -0.000000
v 0.555556 0.111111 -0.000000
v 0.555556 0.333333 -0.000000
v 0.555556 0.555555 -0.000000
v 0.555556 0.777778 -0.000000
v 0.333333 -0.777778 0.000000
v 0.333333 -0.555556 -0.000000
v 0.333333 -0.333333 -0.000000
v 0.333333 -0.111111 -0.000000
v 0.333333 0.111111 -0.000000
v 0.333333 0.333333 -0.000000
v 0.333334 0.555555 -0.000000
v 0.333334 0.777778 -0.000000
v 0.111111 -0.777778 0.000000
v 0.111111 0.777778 -0.000000
v -0.111111 -0.777778 0.000000
v -0.111111 -0.555556 0.000000
v -0.111111 0.555556 -0.000000
v -0.111111 0.777778 -0.000000
v -0.333334 -0.777778 0.000000
v -0.333334 -0.555555 0.000000
v -0.333333 -0.333333 0.000000
v -0.333333 -0.111111 0.000000
v -0.333333 0.111111 0.000000
v -0.333333 0.333333 0.000000
v -0.333333 0.555556 0.000000
v -0.333333 0.777778 -0.000000
v -0.555556 -0.777778 0.000000
v -0.555556 -0.555555 0.000000
v -0.555556 -0.333333 0.000000
v -0.555556 -0.111111 0.000000
v -0.555556 0.111111 0.000000
v -0.555555 0.333334 0.000000
v -0.555555 0.555556 0.000000
v -0.555555 0.777778 0.000000
v -0.777778 -0.777778 0.000000
v -0.777778 -0.555555 0.000000
v -0.777778 -0.333333 0.000000
v -0.777778 -0.111111 0.000000
v -0.777778 0.111111 0.000000
v -0.777778 0.333334 0.000000
v -0.777778 0.555556 0.000000
v -0.777778 0.777778 0.000000
v 0.777777 -1.000000 -0.504286
v 0.555555 -1.000000 -0.504286
v 0.333333 -1.000000 -0.504286
v 0.111111 -1.000000 -0.504286
v -0.111112 -1.000000 -0.504286
v -0.333334 -1.000000 -0.504286
v -0.555556 -1.000000 -0.504285
v -0.555555 1.000000 -0.504286
v -0.333333 1.000000 -0.504286
v -0.111111 1.000000 -0.504286
v 0.111111 1.000000 -0.504286
v 0.333334 1.000000 -0.504286
v 0.555556 1.000000 -0.504286
v 0.777778 1.000000 -0.504286
v 0.777778 0.777778 -0.504286
v 0.555556 0.777778 -0.504286
v 0.333334 0.777778 -0.504286
v 0.111111 0.777778 -0.504286
v -0.111111 0.777778 -0.504286
v -0.333333 0.777778 -0.504286
v -0.555555 0.777778 -0.504286
v 0.777777 -0.777778 -0.504286
v 0.777778 -0.555556 -0.504286
v 0.777778 -0.333334 -0.504286
v 0.777778 -0.111111 -0.504286
v 0.777778 0.111111 -0.504286
v 0.777778 0.333333 -0.504286
v 0.777778 0.555555 -0.504286
v 0.555555 -0.777778 -0.504286
v 0.555555 -0.555556 -0.504286
v 0.555555 -0.333334 -0.504286
v 0.555555 -0.111111 -0.504286
v 0.555556 0.111111 -0.504286
v 0.555556 0.333333 -0.504286
v 0.555556 0.555555 -0.504286
v 0.333333 -0.777778 -0.504286
v 0.333333 -0.555556 -0.504286
v 0.333333 -0.333333 -0.504286
v 0.333333 -0.111111 -0.504286
v 0.333333 0.111111 -0.504286
v 0.333333 0.333333 -0.504286
v 0.333333 0.555555 -0.504286
v 0.111111 -0.777778 -0.504286
v -0.111111 -0.777778 -0.504286
v -0.111111 -0.555556 -0.504286
v -0.111111 0.555556 -0.504286
v -0.333334 -0.777778 -0.504286
v -0.333334 -0.555555 -0.504286
v -0.333333 -0.333333 -0.504286
v -0.333333 -0.111111 -0.504286
v -0.333333 0.111111 -0.504286
v -0.333333 0.333333 -0.504286
v -0.333333 0.555556 -0.504286
v -0.555556 -0.777778 -0.504286
v -0.555556 -0.555555 -0.504286
v -0.555556 -0.333333 -0.504286
v -0.555556 -0.111111 -0.504286
v -0.555556 0.111111 -0.504286
v -0.555556 0.333333 -0.504286
v -0.555555 0.555556 -0.504286
v -0.777778 -0.777778 -0.504285
v -0.777778 -0.555555 -0.504285
v -0.777778 -0.333333 -0.504286
v -0.777778 -0.111111 -0.504286
v -0.777778 0.111111 -0.504286
v -0.777778 0.333334 -0.504286
v -0.777778 0.555556 -0.504286
v -0.777778 0.777778 -0.504286
vn -0.0000 -0.0000 1.0000
vn -0.0000 -0.0000 -1.0000
vn -1.0000 -0.0000 -0.0000
vn 1.0000 -0.0000 -0.0000
vn -0.0000 -1.0000 -0.0000
vn -0.0000 1.0000 -0.0000
vt 0.111111 0.888889
vt 0.111111 1.000000
vt 0.222222 1.000000
vt 0.222222 0.888889
vt 0.333333 1.000000
vt 0.333333 0.888889
vt 0.444444 1.000000
vt 0.444444 0.888889
vt 0.555556 1.000000
vt 0.555556 0.888889
vt 0.666667 1.000000
vt 0.666667 0.888889
vt 0.777778 1.000000
vt 0.777778 0.888889
vt 0.777778 0.111111
vt 0.777778 0.222222
vt 0.888889 0.222222
vt 0.888889 0.111111
vt 0.777778 0.333333
vt 0.888889 0.333333
vt 0.777778 0.444444
vt 0.888889 0.444444
vt 0.777778 0.555556
vt 0.888889 0.555556
vt 0.777778 0.666667
vt 0.888889 0.666667
vt 0.777778 0.777778
vt 0.888889 0.777778
vt 0.888889 0.888889
vt 0.666667 0.000000
vt 0.666667 0.111111
vt 0.777778 0.000000
vt 0.666667 0.222222
vt 0.666667 0.333333
vt 0.666667 0.444444
vt 0.666667 0.555556
vt 0.666667 0.666667
vt 0.666667 0.777778
vt 0.555556 0.000000
vt 0.555556 0.111111
vt 0.555556 0.222222
vt 0.555556 0.777778
vt 0.444444 0.000000
vt 0.444444 0.111111
vt 0.333333 0.000000
vt 0.333333 0.111111
vt 0.222222 0.000000
vt 0.222222 0.111111
vt 0.222222 0.222222
vt 0.333333 0.222222
vt 0.222222 0.333333
vt 0.333333 0.333333
vt 0.222222 0.444444
vt 0.333333 0.444444
vt 0.222222 0.555556
vt 0.333333 0.555556
vt 0.222222 0.666667
vt 0.333333 0.666667
vt 0.222222 0.777778
vt 0.333333 0.777778
vt 0.111111 0.000000
vt 0.111111 0.111111
vt 0.111111 0.222222
vt 0.111111 0.333333
vt 0.111111 0.444444
vt 0.111111 0.555556
vt 0.111111 0.666667
vt 0.111111 0.777778
s 0
f 22/1/1 14/2/1 13/3/1 30/4/1
f 30/4/1 13/3/1 12/5/1 38/6/1
f 38/6/1 12/5/1 11/7/1 40/8/1
f 40/8/1 11/7/1 10/9/1 44/10/1
f 44/10/1 10/9/1 9/11/1 52/12/1
f 52/12/1 9/11/1 8/13/1 60/14/1
f 53/15/1 54/16/1 62/17/1 61/18/1
f 54/16/1 55/19/1 63/20/1 62/17/1
f 55/19/1 56/21/1 64/22/1 63/20/1
f 56/21/1 57/23/1 65/24/1 64/22/1
f 57/23/1 58/25/1 66/26/1 65/24/1
f 58/25/1 59/27/1 67/28/1 66/26/1
f 59/27/1 60/14/1 68/29/1 67/28/1
f 6/30/1 45/31/1 53/15/1 7/32/1
f 45/31/1 46/33/1 54/16/1 53/15/1
f 46/33/1 47/34/1 55/19/1 54/16/1
f 47/34/1 48/35/1 56/21/1 55/19/1
f 48/35/1 49/36/1 57/23/1 56/21/1
f 49/36/1 50/37/1 58/25/1 57/23/1
f 50/37/1 51/38/1 59/27/1 58/25/1
f 51/38/1 52/12/1 60/14/1 59/27/1
f 5/39/1 41/40/1 45/31/1 6/30/1
f 41/40/1 42/41/1 46/33/1 45/31/1
f 43/42/1 44/10/1 52/12/1 51/38/1
f 4/43/1 39/44/1 41/40/1 5/39/1
f 3/45/1 31/46/1 39/44/1 4/43/1
f 2/47/1 23/48/1 31/46/1 3/45/1
f 23/48/1 24/49/1 32/50/1 31/46/1
f 24/49/1 25/51/1 33/52/1 32/50/1
f 25/51/1 26/53/1 34/54/1 33/52/1
f 26/53/1 27/55/1 35/56/1 34/54/1
f 27/55/1 28/57/1 36/58/1 35/56/1
f 28/57/1 29/59/1 37/60/1 36/58/1
f 29/59/1 30/4/1 38/6/1 37/60/1
f 1/61/1 15/62/1 23/48/1 2/47/1
f 15/62/1 16/63/1 24/49/1 23/48/1
f 16/63/1 17/64/1 25/51/1 24/49/1
f 17/64/1 18/65/1 26/53/1 25/51/1
f 18/65/1 19/66/1 27/55/1 26/53/1
f 19/66/1 20/67/1 28/57/1 27/55/1
f 20/67/1 21/68/1 29/59/1 28/57/1
f 21/68/1 22/1/1 30/4/1 29/59/1
f 83/1/2 84/4/2 81/3/2 82/2/2
f 84/4/2 85/6/2 80/5/2 81/3/2
f 85/6/2 86/8/2 79/7/2 80/5/2
f 86/8/2 87/10/2 78/9/2 79/7/2
f 87/10/2 88/12/2 77/11/2 78/9/2
f 88/12/2 89/14/2 76/13/2 77/11/2
f 122/15/2 129/18/2 130/17/2 123/16/2
f 123/16/2 130/17/2 131/20/2 124/19/2
f 124/19/2 131/20/2 132/22/2 125/21/2
f 125/21/2 132/22/2 133/24/2 126/23/2
f 126/23/2 133/24/2 134/26/2 127/25/2
f 127/25/2 134/26/2 135/28/2 128/27/2
f 128/27/2 135/28/2 136/29/2 89/14/2
f 74/30/2 75/32/2 122/15/2 115/31/2
f 115/31/2 122/15/2 123/16/2 116/33/2
f 116/33/2 123/16/2 124/19/2 117/34/2
f 117/34/2 124/19/2 125/21/2 118/35/2
f 118/35/2 125/21/2 126/23/2 119/36/2
f 119/36/2 126/23/2 127/25/2 120/37/2
f 120/37/2 127/25/2 128/27/2 121/38/2
f 121/38/2 128/27/2 89/14/2 88/12/2
f 73/39/2 74/30/2 115/31/2 112/40/2
f 112/40/2 115/31/2 116/33/2 113/41/2
f 114/42/2 121/38/2 88/12/2 87/10/2
f 72/43/2 73/39/2 112/40/2 111/44/2
f 71/45/2 72/43/2 111/44/2 104/46/2
f 70/47/2 71/45/2 104/46/2 97/48/2
f 97/48/2 104/46/2 105/50/2 98/49/2
f 98/49/2 105/50/2 106/52/2 99/51/2
f 99/51/2 106/52/2 107/54/2 100/53/2
f 100/53/2 107/54/2 108/56/2 101/55/2
f 101/55/2 108/56/2 109/58/2 102/57/2
f 102/57/2 109/58/2 110/60/2 103/59/2
f 103/59/2 110/60/2 85/6/2 84/4/2
f 69/61/2 70/47/2 97/48/2 90/62/2
f 90/62/2 97/48/2 98/49/2 91/63/2
f 91/63/2 98/49/2 99/51/2 92/64/2
f 92/64/2 99/51/2 100/53/2 93/65/2
f 93/65/2 100/53/2 101/55/2 94/66/2
f 94/66/2 101/55/2 102/57/2 95/67/2
f 95/67/2 102/57/2 103/59/2 96/68/2
f 96/68/2 103/59/2 84/4/2 83/1/2
f 62/17/3 63/20/3 131/20/3 130/17/3
f 33/52/3 34/54/3 107/54/3 106/52/3
f 14/2/4 22/1/4 83/1/4 82/2/4
f 40/8/5 44/10/5 87/10/5 86/8/5
f 63/20/3 64/22/3 132/22/3 131/20/3
f 34/54/3 35/56/3 108/56/3 107/54/3
f 39/44/6 31/46/6 104/46/6 111/44/6
f 64/22/3 65/24/3 133/24/3 132/22/3
f 35/56/3 36/58/3 109/58/3 108/56/3
f 38/6/5 40/8/5 86/8/5 85/6/5
f 65/24/3 66/26/3 134/26/3 133/24/3
f 36/58/3 37/60/3 110/60/3 109/58/3
f 66/26/3 67/28/3 135/28/3 134/26/3
f 37/60/3 38/6/3 85/6/3 110/60/3
f 67/28/3 68/29/3 136/29/3 135/28/3
f 53/15/5 61/18/5 129/18/5 122/15/5
f 60/14/3 8/13/3 76/13/3 89/14/3
f 42/41/4 41/40/4 112/40/4 113/41/4
f 15/62/4 1/61/4 69/61/4 90/62/4
f 44/10/4 43/42/4 114/42/4 87/10/4
f 16/63/4 15/62/4 90/62/4 91/63/4
f 17/64/4 16/63/4 91/63/4 92/64/4
f 18/65/4 17/64/4 92/64/4 93/65/4
f 47/34/4 46/33/4 116/33/4 117/34/4
f 19/66/4 18/65/4 93/65/4 94/66/4
f 48/35/4 47/34/4 117/34/4 118/35/4
f 20/67/4 19/66/4 94/66/4 95/67/4
f 68/29/6 60/14/6 89/14/6 136/29/6
f 49/36/4 48/35/4 118/35/4 119/36/4
f 21/68/4 20/67/4 95/67/4 96/68/4
f 50/37/4 49/36/4 119/36/4 120/37/4
f 22/1/4 21/68/4 96/68/4 83/1/4
f 1/61/5 2/47/5 70/47/5 69/61/5
f 51/38/4 50/37/4 120/37/4 121/38/4
f 2/47/5 3/45/5 71/45/5 70/47/5
f 3/45/5 4/43/5 72/43/5 71/45/5
f 7/32/3 53/15/3 122/15/3 75/32/3
f 4/43/5 5/39/5 73/39/5 72/43/5
f 5/39/5 6/30/5 74/30/5 73/39/5
f 6/30/5 7/32/5 75/32/5 74/30/5
f 8/13/6 9/11/6 77/11/6 76/13/6
f 9/11/6 10/9/6 78/9/6 77/11/6
f 10/9/6 11/7/6 79/7/6 78/9/6
f 46/33/6 42/41/6 113/41/6 116/33/6
f 11/7/6 12/5/6 80/5/6 79/7/6
f 43/42/5 51/38/5 121/38/5 114/42/5
f 31/46/3 32/50/3 105/50/3 104/46/3
f 12/5/6 13/3/6 81/3/6 80/5/6
f 61/18/3 62/17/3 130/17/3 129/18/3
f 32/50/3 33/52/3 106/52/3 105/50/3
f 13/3/6 14/2/6 82/2/6 81/3/6
f 41/40/6 39/44/6 111/44/6 112/40/6
