# Blender 5.0.0
# www.blender.org
mtllib E.mtl
o Plane.004
v 0.777777 -1.000000 -0.000000
v 0.555555 -1.000000 -0.000000
v 0.333333 -1.000000 0.000000
v 0.111111 -1.000000 0.000000
v -0.111111 -1.000000 0.000000
v -0.333334 -1.000000 0.000000
v -0.555556 -1.000000 0.000000
v -0.777778 -1.000000 0.000000
v -0.777777 1.000000 0.000000
v -0.555555 1.000000 0.000000
v -0.333333 1.000000 -0.000000
v -0.111111 1.000000 -0.000000
v 0.111111 1.000000 -0.000000
v 0.333334 1.000000 -0.000000
v 0.555556 1.000000 -0.000000
v 0.777778 1.000000 -0.000000
v 0.777778 -0.777778 -0.000000
v 0.777778 -0.555556 -0.000000
v 0.777778 -0.333334 -0.000000
v 0.777778 -0.111111 -0.000000
v 0.777778 0.111111 -0.000000
v 0.777778 0.333333 -0.000000
v 0.777778 0.555555 -0.000000
v 0.777778 0.777778 -0.000000
v 0.555555 -0.777778 -0.000000
v 0.555555 -0.555556 -0.000000
v 0.555555 -0.333334 -0.000000
v 0.555556 -0.111111 -0.000000
v 0.555556 0.111111 -0.000000
v 0.555556 0.333333 -0.000000
v 0.555556 0.555555 -0.000000
v 0.555556 0.777778 -0.000000
v 0.333333 -0.777778 0.000000
v 0.333333 -0.555556 -0.000000
v 0.333333 -0.333333 -0.000000
v 0.333333 -0.111111 -0.000000
v 0.333333 0.111111 -0.000000
v 0.333333 0.333333 -0.000000
v 0.333334 0.555555 -0.000000
v 0.333334 0.777778 -0.000000
v 0.111111 -0.777778 0.000000
v 0.111111 -0.111111 -0.000000
v 0.111111 0.111111 -0.000000
v 0.111111 0.777778 -0.000000
v -0.111111 -0.777778 0.000000
v -0.111111 -0.111111 0.000000
v -0.111111 0.111111 0.000000
v -0.111111 0.777778 -0.000000
v -0.333334 -0.777778 0.000000
v -0.333333 -0.111111 0.000000
v -0.333333 0.111111 0.000000
v -0.333333 0.777778 -0.000000
v -0.555556 -0.777778 0.000000
v -0.555556 -0.111111 0.000000
v -0.555556 0.111111 0.000000
v -0.555555 0.777778 0.000000
v -0.777778 -0.777778 0.000000
v -0.777778 0.777778 0.000000
v 0.777777 -1.000000 -0.504286
v 0.555555 -1.000000 -0.504286
v 0.333333 -1.000000 -0.504286
v 0.111111 -1.000000 -0.504286
v -0.111112 -1.000000 -0.504286
v -0.333334 -1.000000 -0.504286
v -0.555556 -1.000000 -0.504285
v -0.777778 -1.000000 -0.504285
v -0.777778 1.000000 -0.504286
v -0.555555 1.000000 -0.504286
v -0.333333 1.000000 -0.504286
v -0.111111 1.000000 -0.504286
v 0.111111 1.000000 -0.504286
v 0.333334 1.000000 -0.504286
v 0.555556 1.000000 -0.504286
v 0.777778 1.000000 -0.504286
v 0.777778 0.777778 -0.504286
v 0.555556 0.777778 -0.504286
v 0.333334 0.777778 -0.504286
v 0.111111 0.777778 -0.504286
v -0.111111 0.777778 -0.504286
v -0.333333 0.777778 -0.504286
v -0.555555 0.777778 -0.504286
v -0.777778 0.777778 -0.504286
v 0.777777 -0.777778 -0.504286
v 0.777778 -0.555556 -0.504286
v 0.777778 -0.333334 -0.504286
v 0.777778 -0.111111 -0.504286
v 0.777778 0.111111 -0.504286
v 0.777778 0.333333 -0.504286
v 0.777778 0.555555 -0.504286
v 0.555555 -0.777778 -0.504286
v 0.555555 -0.555556 -0.504286
v 0.555555 -0.333334 -0.504286
v 0.555555 -0.111111 -0.504286
v 0.555556 0.111111 -0.504286
v 0.555556 0.333333 -0.504286
v 0.555556 0.555555 -0.504286
v 0.333333 -0.777778 -0.504286
v 0.333333 -0.555556 -0.504286
v 0.333333 -0.333333 -0.504286
v 0.333333 -0.111111 -0.504286
v 0.333333 0.111111 -0.504286
v 0.333333 0.333333 -0.504286
v 0.333333 0.555555 -0.504286
v 0.111111 -0.777778 -0.504286
v 0.111111 -0.111111 -0.504286
v 0.111111 0.111111 -0.504286
v -0.111111 -0.777778 -0.504286
v -0.111111 -0.111111 -0.504286
v -0.111111 0.111111 -0.504286
v -0.333334 -0.777778 -0.504286
v -0.333333 -0.111111 -0.504286
v -0.333333 0.111111 -0.504286
v -0.555556 -0.777778 -0.504286
v -0.555556 -0.111111 -0.504286
v -0.555556 0.111111 -0.504286
v -0.777778 -0.777778 -0.504285
vn -0.0000 -0.0000 1.0000
vn -0.0000 -0.0000 -1.0000
vn -1.0000 -0.0000 -0.0000
vn -0.0000 -1.0000 -0.0000
vn -0.0000 1.0000 -0.0000
vn 1.0000 -0.0000 -0.0000
vt 0.111111 0.888889
vt 0.111111 1.000000
vt 0.222222 1.000000
vt 0.222222 0.888889
vt 0.333333 1.000000
vt 0.333333 0.888889
vt 0.444444 1.000000
vt 0.444444 0.888889
vt 0.555556 1.000000
vt 0.555556 0.888889
vt 0.666667 1.000000
vt 0.666667 0.888889
vt 0.777778 1.000000
vt 0.777778 0.888889
vt 0.888889 1.000000
vt 0.888889 0.888889
vt 0.777778 0.000000
vt 0.777778 0.111111
vt 0.888889 0.111111
vt 0.888889 0.000000
vt 0.666667 0.000000
vt 0.666667 0.111111
vt 0.666667 0.444444
vt 0.666667 0.555556
vt 0.777778 0.555556
vt 0.777778 0.444444
vt 0.555556 0.000000
vt 0.555556 0.111111
vt 0.555556 0.444444
vt 0.555556 0.555556
vt 0.444444 0.000000
vt 0.444444 0.111111
vt 0.444444 0.444444
vt 0.444444 0.555556
vt 0.333333 0.000000
vt 0.333333 0.111111
vt 0.333333 0.444444
vt 0.333333 0.555556
vt 0.222222 0.000000
vt 0.222222 0.111111
vt 0.222222 0.222222
vt 0.333333 0.222222
vt 0.222222 0.333333
vt 0.333333 0.333333
vt 0.222222 0.444444
vt 0.222222 0.555556
vt 0.222222 0.666667
vt 0.333333 0.666667
vt 0.222222 0.777778
vt 0.333333 0.777778
vt 0.111111 0.000000
vt 0.111111 0.111111
vt 0.111111 0.222222
vt 0.111111 0.333333
vt 0.111111 0.444444
vt 0.111111 0.555556
vt 0.111111 0.666667
vt 0.111111 0.777778
s 0
f 24/1/1 16/2/1 15/3/1 32/4/1
f 32/4/1 15/3/1 14/5/1 40/6/1
f 40/6/1 14/5/1 13/7/1 44/8/1
f 44/8/1 13/7/1 12/9/1 48/10/1
f 48/10/1 12/9/1 11/11/1 52/12/1
f 52/12/1 11/11/1 10/13/1 56/14/1
f 56/14/1 10/13/1 9/15/1 58/16/1
f 7/17/1 53/18/1 57/19/1 8/20/1
f 6/21/1 49/22/1 53/18/1 7/17/1
f 50/23/1 51/24/1 55/25/1 54/26/1
f 5/27/1 45/28/1 49/22/1 6/21/1
f 46/29/1 47/30/1 51/24/1 50/23/1
f 4/31/1 41/32/1 45/28/1 5/27/1
f 42/33/1 43/34/1 47/30/1 46/29/1
f 3/35/1 33/36/1 41/32/1 4/31/1
f 36/37/1 37/38/1 43/34/1 42/33/1
f 2/39/1 25/40/1 33/36/1 3/35/1
f 25/40/1 26/41/1 34/42/1 33/36/1
f 26/41/1 27/43/1 35/44/1 34/42/1
f 27/43/1 28/45/1 36/37/1 35/44/1
f 28/45/1 29/46/1 37/38/1 36/37/1
f 29/46/1 30/47/1 38/48/1 37/38/1
f 30/47/1 31/49/1 39/50/1 38/48/1
f 31/49/1 32/4/1 40/6/1 39/50/1
f 1/51/1 17/52/1 25/40/1 2/39/1
f 17/52/1 18/53/1 26/41/1 25/40/1
f 18/53/1 19/54/1 27/43/1 26/41/1
f 19/54/1 20/55/1 28/45/1 27/43/1
f 20/55/1 21/56/1 29/46/1 28/45/1
f 21/56/1 22/57/1 30/47/1 29/46/1
f 22/57/1 23/58/1 31/49/1 30/47/1
f 23/58/1 24/1/1 32/4/1 31/49/1
f 75/1/2 76/4/2 73/3/2 74/2/2
f 76/4/2 77/6/2 72/5/2 73/3/2
f 77/6/2 78/8/2 71/7/2 72/5/2
f 78/8/2 79/10/2 70/9/2 71/7/2
f 79/10/2 80/12/2 69/11/2 70/9/2
f 80/12/2 81/14/2 68/13/2 69/11/2
f 81/14/2 82/16/2 67/15/2 68/13/2
f 65/17/2 66/20/2 116/19/2 113/18/2
f 64/21/2 65/17/2 113/18/2 110/22/2
f 111/23/2 114/26/2 115/25/2 112/24/2
f 63/27/2 64/21/2 110/22/2 107/28/2
f 108/29/2 111/23/2 112/24/2 109/30/2
f 62/31/2 63/27/2 107/28/2 104/32/2
f 105/33/2 108/29/2 109/30/2 106/34/2
f 61/35/2 62/31/2 104/32/2 97/36/2
f 100/37/2 105/33/2 106/34/2 101/38/2
f 60/39/2 61/35/2 97/36/2 90/40/2
f 90/40/2 97/36/2 98/42/2 91/41/2
f 91/41/2 98/42/2 99/44/2 92/43/2
f 92/43/2 99/44/2 100/37/2 93/45/2
f 93/45/2 100/37/2 101/38/2 94/46/2
f 94/46/2 101/38/2 102/48/2 95/47/2
f 95/47/2 102/48/2 103/50/2 96/49/2
f 96/49/2 103/50/2 77/6/2 76/4/2
f 59/51/2 60/39/2 90/40/2 83/52/2
f 83/52/2 90/40/2 91/41/2 84/53/2
f 84/53/2 91/41/2 92/43/2 85/54/2
f 85/54/2 92/43/2 93/45/2 86/55/2
f 86/55/2 93/45/2 94/46/2 87/56/2
f 87/56/2 94/46/2 95/47/2 88/57/2
f 88/57/2 95/47/2 96/49/2 89/58/2
f 89/58/2 96/49/2 76/4/2 75/1/2
f 39/50/3 40/6/3 77/6/3 103/50/3
f 40/6/4 44/8/4 78/8/4 77/6/4
f 6/21/4 7/17/4 65/17/4 64/21/4
f 55/25/5 51/24/5 112/24/5 115/25/5
f 7/17/4 8/20/4 66/20/4 65/17/4
f 52/12/4 56/14/4 81/14/4 80/12/4
f 9/15/5 10/13/5 68/13/5 67/15/5
f 49/22/5 45/28/5 107/28/5 110/22/5
f 58/16/3 9/15/3 67/15/3 82/16/3
f 10/13/5 11/11/5 69/11/5 68/13/5
f 46/29/4 50/23/4 111/23/4 108/29/4
f 17/52/6 1/51/6 59/51/6 83/52/6
f 11/11/5 12/9/5 70/9/5 69/11/5
f 51/24/5 47/30/5 109/30/5 112/24/5
f 18/53/6 17/52/6 83/52/6 84/53/6
f 12/9/5 13/7/5 71/7/5 70/9/5
f 48/10/4 52/12/4 80/12/4 79/10/4
f 19/54/6 18/53/6 84/53/6 85/54/6
f 13/7/5 14/5/5 72/5/5 71/7/5
f 45/28/5 41/32/5 104/32/5 107/28/5
f 20/55/6 19/54/6 85/54/6 86/55/6
f 14/5/5 15/3/5 73/3/5 72/5/5
f 33/36/3 34/42/3 98/42/3 97/36/3
f 42/33/4 46/29/4 108/29/4 105/33/4
f 21/56/6 20/55/6 86/55/6 87/56/6
f 54/26/3 55/25/3 115/25/3 114/26/3
f 15/3/5 16/2/5 74/2/5 73/3/5
f 34/42/3 35/44/3 99/44/3 98/42/3
f 47/30/5 43/34/5 106/34/5 109/30/5
f 1/51/4 2/39/4 60/39/4 59/51/4
f 22/57/6 21/56/6 87/56/6 88/57/6
f 8/20/3 57/19/3 116/19/3 66/20/3
f 16/2/6 24/1/6 75/1/6 74/2/6
f 35/44/3 36/37/3 100/37/3 99/44/3
f 44/8/4 48/10/4 79/10/4 78/8/4
f 2/39/4 3/35/4 61/35/4 60/39/4
f 23/58/6 22/57/6 88/57/6 89/58/6
f 57/19/5 53/18/5 113/18/5 116/19/5
f 41/32/5 33/36/5 97/36/5 104/32/5
f 3/35/4 4/31/4 62/31/4 61/35/4
f 24/1/6 23/58/6 89/58/6 75/1/6
f 56/14/4 58/16/4 82/16/4 81/14/4
f 37/38/3 38/48/3 102/48/3 101/38/3
f 36/37/4 42/33/4 105/33/4 100/37/4
f 4/31/4 5/27/4 63/27/4 62/31/4
f 53/18/5 49/22/5 110/22/5 113/18/5
f 38/48/3 39/50/3 103/50/3 102/48/3
f 43/34/5 37/38/5 101/38/5 106/34/5
f 5/27/4 6/21/4 64/21/4 63/27/4
f 50/23/4 54/26/4 114/26/4 111/23/4
