# Blender 5.0.0
# www.blender.org
mtllib F.mtl
o Plane.005
v 0.777777 -1.000000 -0.000000
v 0.555555 -1.000000 -0.000000
v 0.333333 -1.000000 0.000000
v -0.777777 1.000000 0.000000
v -0.555555 1.000000 0.000000
v -0.333333 1.000000 -0.000000
v -0.111111 1.000000 -0.000000
v 0.111111 1.000000 -0.000000
v 0.333334 1.000000 -0.000000
v 0.555556 1.000000 -0.000000
v 0.777778 1.000000 -0.000000
v 0.777778 -0.777778 -0.000000
v 0.777778 -0.555556 -0.000000
v 0.777778 -0.333334 -0.000000
v 0.777778 -0.111111 -0.000000
v 0.777778 0.111111 -0.000000
v 0.777778 0.333333 -0.000000
v 0.777778 0.555555 -0.000000
v 0.777778 0.777778 -0.000000
v 0.555555 -0.777778 -0.000000
v 0.555555 -0.555556 -0.000000
v 0.555555 -0.333334 -0.000000
v 0.555556 -0.111111 -0.000000
v 0.555556 0.111111 -0.000000
v 0.555556 0.333333 -0.000000
v 0.555556 0.555555 -0.000000
v 0.555556 0.777778 -0.000000
v 0.333333 -0.777778 0.000000
v 0.333333 -0.555556 -0.000000
v 0.333333 -0.333333 -0.000000
v 0.333333 -0.111111 -0.000000
v 0.333333 0.111111 -0.000000
v 0.333333 0.333333 -0.000000
v 0.333334 0.555555 -0.000000
v 0.333334 0.777778 -0.000000
v 0.111111 -0.111111 -0.000000
v 0.111111 0.111111 -0.000000
v 0.111111 0.777778 -0.000000
v -0.111111 -0.111111 0.000000
v -0.111111 0.111111 0.000000
v -0.111111 0.777778 -0.000000
v -0.333333 -0.111111 0.000000
v -0.333333 0.111111 0.000000
v -0.333333 0.777778 -0.000000
v -0.555556 -0.111111 0.000000
v -0.555556 0.111111 0.000000
v -0.555555 0.777778 0.000000
v -0.777778 0.777778 0.000000
v 0.777777 -1.000000 -0.504286
v 0.555555 -1.000000 -0.504286
v 0.333333 -1.000000 -0.504286
v -0.777778 1.000000 -0.504286
v -0.555555 1.000000 -0.504286
v -0.333333 1.000000 -0.504286
v -0.111111 1.000000 -0.504286
v 0.111111 1.000000 -0.504286
v 0.333334 1.000000 -0.504286
v 0.555556 1.000000 -0.504286
v 0.777778 1.000000 -0.504286
v 0.777778 0.777778 -0.504286
v 0.555556 0.777778 -0.504286
v 0.333334 0.777778 -0.504286
v 0.111111 0.777778 -0.504286
v -0.111111 0.777778 -0.504286
v -0.333333 0.777778 -0.504286
v -0.555555 0.777778 -0.504286
v -0.777778 0.777778 -0.504286
v 0.777777 -0.777778 -0.504286
v 0.777778 -0.555556 -0.504286
v 0.777778 -0.333334 -0.504286
v 0.777778 -0.111111 -0.504286
v 0.777778 0.111111 -0.504286
v 0.777778 0.333333 -0.504286
v 0.777778 0.555555 -0.504286
v 0.555555 -0.777778 -0.504286
v 0.555555 -0.555556 -0.504286
v 0.555555 -0.333334 -0.504286
v 0.555555 -0.111111 -0.504286
v 0.555556 0.111111 -0.504286
v 0.555556 0.333333 -0.504286
v 0.555556 0.555555 -0.504286
v 0.333333 -0.777778 -0.504286
v 0.333333 -0.555556 -0.504286
v 0.333333 -0.333333 -0.504286
v 0.333333 -0.111111 -0.504286
v 0.333333 0.111111 -0.504286
v 0.333333 0.333333 -0.504286
v 0.333333 0.555555 -0.504286
v 0.111111 -0.111111 -0.504286
v 0.111111 0.111111 -0.504286
v -0.111111 -0.111111 -0.504286
v -0.111111 0.111111 -0.504286
v -0.333333 -0.111111 -0.504286
v -0.333333 0.111111 -0.504286
v -0.555556 -0.111111 -0.504286
v -0.555556 0.111111 -0.504286
vn -0.0000 -0.0000 1.0000
vn -0.0000 -0.0000 -1.0000
vn 1.0000 -0.0000 -0.0000
vn -0.0000 -1.0000 -0.0000
vn -1.0000 -0.0000 -0.0000
vn -0.0000 1.0000 -0.0000
vt 0.111111 0.888889
vt 0.111111 1.000000
vt 0.222222 1.000000
vt 0.222222 0.888889
vt 0.333333 1.000000
vt 0.333333 0.888889
vt 0.444444 1.000000
vt 0.444444 0.888889
vt 0.555556 1.000000
vt 0.555556 0.888889
vt 0.666667 1.000000
vt 0.666667 0.888889
vt 0.777778 1.000000
vt 0.777778 0.888889
vt 0.888889 1.000000
vt 0.888889 0.888889
vt 0.666667 0.444444
vt 0.666667 0.555556
vt 0.777778 0.555556
vt 0.777778 0.444444
vt 0.555556 0.444444
vt 0.555556 0.555556
vt 0.444444 0.444444
vt 0.444444 0.555556
vt 0.333333 0.444444
vt 0.333333 0.555556
vt 0.222222 0.000000
vt 0.222222 0.111111
vt 0.333333 0.111111
vt 0.333333 0.000000
vt 0.222222 0.222222
vt 0.333333 0.222222
vt 0.222222 0.333333
vt 0.333333 0.333333
vt 0.222222 0.444444
vt 0.222222 0.555556
vt 0.222222 0.666667
vt 0.333333 0.666667
vt 0.222222 0.777778
vt 0.333333 0.777778
vt 0.111111 0.000000
vt 0.111111 0.111111
vt 0.111111 0.222222
vt 0.111111 0.333333
vt 0.111111 0.444444
vt 0.111111 0.555556
vt 0.111111 0.666667
vt 0.111111 0.777778
s 0
f 19/1/1 11/2/1 10/3/1 27/4/1
f 27/4/1 10/3/1 9/5/1 35/6/1
f 35/6/1 9/5/1 8/7/1 38/8/1
f 38/8/1 8/7/1 7/9/1 41/10/1
f 41/10/1 7/9/1 6/11/1 44/12/1
f 44/12/1 6/11/1 5/13/1 47/14/1
f 47/14/1 5/13/1 4/15/1 48/16/1
f 42/17/1 43/18/1 46/19/1 45/20/1
f 39/21/1 40/22/1 43/18/1 42/17/1
f 36/23/1 37/24/1 40/22/1 39/21/1
f 31/25/1 32/26/1 37/24/1 36/23/1
f 2/27/1 20/28/1 28/29/1 3/30/1
f 20/28/1 21/31/1 29/32/1 28/29/1
f 21/31/1 22/33/1 30/34/1 29/32/1
f 22/33/1 23/35/1 31/25/1 30/34/1
f 23/35/1 24/36/1 32/26/1 31/25/1
f 24/36/1 25/37/1 33/38/1 32/26/1
f 25/37/1 26/39/1 34/40/1 33/38/1
f 26/39/1 27/4/1 35/6/1 34/40/1
f 1/41/1 12/42/1 20/28/1 2/27/1
f 12/42/1 13/43/1 21/31/1 20/28/1
f 13/43/1 14/44/1 22/33/1 21/31/1
f 14/44/1 15/45/1 23/35/1 22/33/1
f 15/45/1 16/46/1 24/36/1 23/35/1
f 16/46/1 17/47/1 25/37/1 24/36/1
f 17/47/1 18/48/1 26/39/1 25/37/1
f 18/48/1 19/1/1 27/4/1 26/39/1
f 60/1/2 61/4/2 58/3/2 59/2/2
f 61/4/2 62/6/2 57/5/2 58/3/2
f 62/6/2 63/8/2 56/7/2 57/5/2
f 63/8/2 64/10/2 55/9/2 56/7/2
f 64/10/2 65/12/2 54/11/2 55/9/2
f 65/12/2 66/14/2 53/13/2 54/11/2
f 66/14/2 67/16/2 52/15/2 53/13/2
f 93/17/2 95/20/2 96/19/2 94/18/2
f 91/21/2 93/17/2 94/18/2 92/22/2
f 89/23/2 91/21/2 92/22/2 90/24/2
f 85/25/2 89/23/2 90/24/2 86/26/2
f 50/27/2 51/30/2 82/29/2 75/28/2
f 75/28/2 82/29/2 83/32/2 76/31/2
f 76/31/2 83/32/2 84/34/2 77/33/2
f 77/33/2 84/34/2 85/25/2 78/35/2
f 78/35/2 85/25/2 86/26/2 79/36/2
f 79/36/2 86/26/2 87/38/2 80/37/2
f 80/37/2 87/38/2 88/40/2 81/39/2
f 81/39/2 88/40/2 62/6/2 61/4/2
f 49/41/2 50/27/2 75/28/2 68/42/2
f 68/42/2 75/28/2 76/31/2 69/43/2
f 69/43/2 76/31/2 77/33/2 70/44/2
f 70/44/2 77/33/2 78/35/2 71/45/2
f 71/45/2 78/35/2 79/36/2 72/46/2
f 72/46/2 79/36/2 80/37/2 73/47/2
f 73/47/2 80/37/2 81/39/2 74/48/2
f 74/48/2 81/39/2 61/4/2 60/1/2
f 19/1/3 18/48/3 74/48/3 60/1/3
f 41/10/4 44/12/4 65/12/4 64/10/4
f 32/26/5 33/38/5 87/38/5 86/26/5
f 36/23/4 39/21/4 91/21/4 89/23/4
f 33/38/5 34/40/5 88/40/5 87/38/5
f 40/22/6 37/24/6 90/24/6 92/22/6
f 34/40/5 35/6/5 62/6/5 88/40/5
f 1/41/4 2/27/4 50/27/4 49/41/4
f 38/8/4 41/10/4 64/10/4 63/8/4
f 2/27/4 3/30/4 51/30/4 50/27/4
f 31/25/4 36/23/4 89/23/4 85/25/4
f 4/15/6 5/13/6 53/13/6 52/15/6
f 37/24/6 32/26/6 86/26/6 90/24/6
f 48/16/5 4/15/5 52/15/5 67/16/5
f 5/13/6 6/11/6 54/11/6 53/13/6
f 35/6/4 38/8/4 63/8/4 62/6/4
f 12/42/3 1/41/3 49/41/3 68/42/3
f 45/20/5 46/19/5 96/19/5 95/20/5
f 6/11/6 7/9/6 55/9/6 54/11/6
f 13/43/3 12/42/3 68/42/3 69/43/3
f 47/14/4 48/16/4 67/16/4 66/14/4
f 7/9/6 8/7/6 56/7/6 55/9/6
f 14/44/3 13/43/3 69/43/3 70/44/3
f 42/17/4 45/20/4 95/20/4 93/17/4
f 8/7/6 9/5/6 57/5/6 56/7/6
f 3/30/5 28/29/5 82/29/5 51/30/5
f 15/45/3 14/44/3 70/44/3 71/45/3
f 46/19/6 43/18/6 94/18/6 96/19/6
f 9/5/6 10/3/6 58/3/6 57/5/6
f 28/29/5 29/32/5 83/32/5 82/29/5
f 16/46/3 15/45/3 71/45/3 72/46/3
f 44/12/4 47/14/4 66/14/4 65/12/4
f 10/3/6 11/2/6 59/2/6 58/3/6
f 29/32/5 30/34/5 84/34/5 83/32/5
f 17/47/3 16/46/3 72/46/3 73/47/3
f 39/21/4 42/17/4 93/17/4 91/21/4
f 11/2/3 19/1/3 60/1/3 59/2/3
f 30/34/5 31/25/5 85/25/5 84/34/5
f 18/48/3 17/47/3 73/47/3 74/48/3
f 43/18/6 40/22/6 92/22/6 94/18/6
