# Blender 5.0.0
# www.blender.org
mtllib G.mtl
o Plane.006
v 0.555555 -1.000000 -0.000000
v 0.333333 -1.000000 0.000000
v 0.111111 -1.000000 0.000000
v -0.111111 -1.000000 0.000000
v -0.333334 -1.000000 0.000000
v -0.555556 -1.000000 0.000000
v -0.555555 1.000000 0.000000
v -0.333333 1.000000 -0.000000
v -0.111111 1.000000 -0.000000
v 0.111111 1.000000 -0.000000
v 0.333334 1.000000 -0.000000
v 0.555556 1.000000 -0.000000
v 0.777778 -0.777778 -0.000000
v 0.777778 -0.555556 -0.000000
v 0.777778 -0.333334 -0.000000
v 0.777778 -0.111111 -0.000000
v 0.777778 0.111111 -0.000000
v 0.777778 0.333333 -0.000000
v 0.777778 0.555555 -0.000000
v 0.777778 0.777778 -0.000000
v 0.555555 -0.777778 -0.000000
v 0.555555 -0.555556 -0.000000
v 0.555555 -0.333334 -0.000000
v 0.555556 -0.111111 -0.000000
v 0.555556 0.111111 -0.000000
v 0.555556 0.333333 -0.000000
v 0.555556 0.555555 -0.000000
v 0.555556 0.777778 -0.000000
v 0.333333 -0.777778 0.000000
v 0.333333 -0.555556 -0.000000
v 0.333333 -0.333333 -0.000000
v 0.333333 -0.111111 -0.000000
v 0.333333 0.111111 -0.000000
v 0.333333 0.333333 -0.000000
v 0.333334 0.555555 -0.000000
v 0.333334 0.777778 -0.000000
v 0.111111 -0.777778 0.000000
v 0.111111 0.555556 -0.000000
v 0.111111 0.777778 -0.000000
v -0.111111 -0.777778 0.000000
v -0.111111 -0.333333 0.000000
v -0.111111 -0.111111 0.000000
v -0.111111 0.555556 -0.000000
v -0.111111 0.777778 -0.000000
v -0.333334 -0.777778 0.000000
v -0.333334 -0.555555 0.000000
v -0.333333 -0.333333 0.000000
v -0.333333 -0.111111 0.000000
v -0.333333 0.333333 0.000000
v -0.333333 0.555556 0.000000
v -0.333333 0.777778 -0.000000
v -0.555556 -0.777778 0.000000
v -0.555556 -0.555555 0.000000
v -0.555556 -0.333333 0.000000
v -0.555556 -0.111111 0.000000
v -0.555555 0.333334 0.000000
v -0.555555 0.555556 0.000000
v -0.555555 0.777778 0.000000
v -0.777778 -0.777778 0.000000
v -0.777778 -0.555555 0.000000
v -0.777778 -0.333333 0.000000
v -0.777778 -0.111111 0.000000
v -0.777778 0.333334 0.000000
v -0.777778 0.555556 0.000000
v -0.777778 0.777778 0.000000
v 0.555555 -1.000000 -0.504286
v 0.333333 -1.000000 -0.504286
v 0.111111 -1.000000 -0.504286
v -0.111112 -1.000000 -0.504286
v -0.333334 -1.000000 -0.504286
v -0.555556 -1.000000 -0.504285
v -0.555555 1.000000 -0.504286
v -0.333333 1.000000 -0.504286
v -0.111111 1.000000 -0.504286
v 0.111111 1.000000 -0.504286
v 0.333334 1.000000 -0.504286
v 0.555556 1.000000 -0.504286
v 0.555556 0.777778 -0.504286
v 0.333334 0.777778 -0.504286
v 0.111111 0.777778 -0.504286
v -0.111111 0.777778 -0.504286
v -0.333333 0.777778 -0.504286
v -0.555555 0.777778 -0.504286
v 0.777777 -0.777778 -0.504286
v 0.777778 -0.555556 -0.504286
v 0.777778 -0.333334 -0.504286
v 0.777778 -0.111111 -0.504286
v 0.777778 0.111111 -0.504286
v 0.777778 0.333333 -0.504286
v 0.777778 0.555555 -0.504286
v 0.777778 0.777778 -0.504286
v 0.555555 -0.777778 -0.504286
v 0.555555 -0.555556 -0.504286
v 0.555555 -0.333334 -0.504286
v 0.555555 -0.111111 -0.504286
v 0.555556 0.111111 -0.504286
v 0.555556 0.333333 -0.504286
v 0.555556 0.555555 -0.504286
v 0.333333 -0.777778 -0.504286
v 0.333333 -0.555556 -0.504286
v 0.333333 -0.333333 -0.504286
v 0.333333 -0.111111 -0.504286
v 0.333333 0.111111 -0.504286
v 0.333333 0.333333 -0.504286
v 0.333333 0.555555 -0.504286
v 0.111111 -0.777778 -0.504286
v 0.111111 0.555556 -0.504286
v -0.111111 -0.777778 -0.504286
v -0.111111 -0.333333 -0.504286
v -0.111111 -0.111111 -0.504286
v -0.111111 0.555556 -0.504286
v -0.333334 -0.777778 -0.504286
v -0.333334 -0.555555 -0.504286
v -0.333333 -0.333333 -0.504286
v -0.333333 -0.111111 -0.504286
v -0.333333 0.333333 -0.504286
v -0.333333 0.555556 -0.504286
v -0.555556 -0.777778 -0.504286
v -0.555556 -0.555555 -0.504286
v -0.555556 -0.333333 -0.504286
v -0.555556 -0.111111 -0.504286
v -0.555556 0.333333 -0.504286
v -0.555555 0.555556 -0.504286
v -0.777778 -0.777778 -0.504285
v -0.777778 -0.555555 -0.504285
v -0.777778 -0.333333 -0.504286
v -0.777778 -0.111111 -0.504286
v -0.777778 0.333334 -0.504286
v -0.777778 0.555556 -0.504286
v -0.777778 0.777778 -0.504286
vn -0.0000 -0.0000 1.0000
vn -0.0000 -0.0000 -1.0000
vn -1.0000 -0.0000 -0.0000
vn -0.0000 1.0000 -0.0000
vn -0.0000 -1.0000 -0.0000
vn 1.0000 -0.0000 -0.0000
vt 0.222222 0.888889
vt 0.222222 1.000000
vt 0.333333 1.000000
vt 0.333333 0.888889
vt 0.444444 1.000000
vt 0.444444 0.888889
vt 0.555556 1.000000
vt 0.555556 0.888889
vt 0.666667 1.000000
vt 0.666667 0.888889
vt 0.777778 1.000000
vt 0.777778 0.888889
vt 0.777778 0.111111
vt 0.777778 0.222222
vt 0.888889 0.222222
vt 0.888889 0.111111
vt 0.777778 0.333333
vt 0.888889 0.333333
vt 0.777778 0.444444
vt 0.888889 0.444444
vt 0.777778 0.666667
vt 0.777778 0.777778
vt 0.888889 0.777778
vt 0.888889 0.666667
vt 0.888889 0.888889
vt 0.666667 0.000000
vt 0.666667 0.111111
vt 0.777778 0.000000
vt 0.666667 0.222222
vt 0.666667 0.333333
vt 0.666667 0.444444
vt 0.666667 0.666667
vt 0.666667 0.777778
vt 0.555556 0.000000
vt 0.555556 0.111111
vt 0.555556 0.333333
vt 0.555556 0.444444
vt 0.555556 0.777778
vt 0.444444 0.000000
vt 0.444444 0.111111
vt 0.444444 0.777778
vt 0.333333 0.000000
vt 0.333333 0.111111
vt 0.333333 0.777778
vt 0.222222 0.000000
vt 0.222222 0.111111
vt 0.222222 0.222222
vt 0.333333 0.222222
vt 0.222222 0.333333
vt 0.333333 0.333333
vt 0.222222 0.444444
vt 0.333333 0.444444
vt 0.222222 0.555556
vt 0.333333 0.555556
vt 0.222222 0.666667
vt 0.333333 0.666667
vt 0.222222 0.777778
vt 0.111111 0.111111
vt 0.111111 0.222222
vt 0.111111 0.333333
vt 0.111111 0.444444
vt 0.111111 0.555556
vt 0.111111 0.666667
vt 0.111111 0.777778
vt 0.111111 0.888889
s 0
f 28/1/1 12/2/1 11/3/1 36/4/1
f 36/4/1 11/3/1 10/5/1 39/6/1
f 39/6/1 10/5/1 9/7/1 44/8/1
f 44/8/1 9/7/1 8/9/1 51/10/1
f 51/10/1 8/9/1 7/11/1 58/12/1
f 52/13/1 53/14/1 60/15/1 59/16/1
f 53/14/1 54/17/1 61/18/1 60/15/1
f 54/17/1 55/19/1 62/20/1 61/18/1
f 56/21/1 57/22/1 64/23/1 63/24/1
f 57/22/1 58/12/1 65/25/1 64/23/1
f 5/26/1 45/27/1 52/13/1 6/28/1
f 45/27/1 46/29/1 53/14/1 52/13/1
f 46/29/1 47/30/1 54/17/1 53/14/1
f 47/30/1 48/31/1 55/19/1 54/17/1
f 49/32/1 50/33/1 57/22/1 56/21/1
f 50/33/1 51/10/1 58/12/1 57/22/1
f 4/34/1 40/35/1 45/27/1 5/26/1
f 41/36/1 42/37/1 48/31/1 47/30/1
f 43/38/1 44/8/1 51/10/1 50/33/1
f 3/39/1 37/40/1 40/35/1 4/34/1
f 38/41/1 39/6/1 44/8/1 43/38/1
f 2/42/1 29/43/1 37/40/1 3/39/1
f 35/44/1 36/4/1 39/6/1 38/41/1
f 1/45/1 21/46/1 29/43/1 2/42/1
f 21/46/1 22/47/1 30/48/1 29/43/1
f 22/47/1 23/49/1 31/50/1 30/48/1
f 23/49/1 24/51/1 32/52/1 31/50/1
f 24/51/1 25/53/1 33/54/1 32/52/1
f 25/53/1 26/55/1 34/56/1 33/54/1
f 26/55/1 27/57/1 35/44/1 34/56/1
f 27/57/1 28/1/1 36/4/1 35/44/1
f 13/58/1 14/59/1 22/47/1 21/46/1
f 14/59/1 15/60/1 23/49/1 22/47/1
f 15/60/1 16/61/1 24/51/1 23/49/1
f 16/61/1 17/62/1 25/53/1 24/51/1
f 17/62/1 18/63/1 26/55/1 25/53/1
f 18/63/1 19/64/1 27/57/1 26/55/1
f 19/64/1 20/65/1 28/1/1 27/57/1
f 78/1/2 79/4/2 76/3/2 77/2/2
f 79/4/2 80/6/2 75/5/2 76/3/2
f 80/6/2 81/8/2 74/7/2 75/5/2
f 81/8/2 82/10/2 73/9/2 74/7/2
f 82/10/2 83/12/2 72/11/2 73/9/2
f 118/13/2 124/16/2 125/15/2 119/14/2
f 119/14/2 125/15/2 126/18/2 120/17/2
f 120/17/2 126/18/2 127/20/2 121/19/2
f 122/21/2 128/24/2 129/23/2 123/22/2
f 123/22/2 129/23/2 130/25/2 83/12/2
f 70/26/2 71/28/2 118/13/2 112/27/2
f 112/27/2 118/13/2 119/14/2 113/29/2
f 113/29/2 119/14/2 120/17/2 114/30/2
f 114/30/2 120/17/2 121/19/2 115/31/2
f 116/32/2 122/21/2 123/22/2 117/33/2
f 117/33/2 123/22/2 83/12/2 82/10/2
f 69/34/2 70/26/2 112/27/2 108/35/2
f 109/36/2 114/30/2 115/31/2 110/37/2
f 111/38/2 117/33/2 82/10/2 81/8/2
f 68/39/2 69/34/2 108/35/2 106/40/2
f 107/41/2 111/38/2 81/8/2 80/6/2
f 67/42/2 68/39/2 106/40/2 99/43/2
f 105/44/2 107/41/2 80/6/2 79/4/2
f 66/45/2 67/42/2 99/43/2 92/46/2
f 92/46/2 99/43/2 100/48/2 93/47/2
f 93/47/2 100/48/2 101/50/2 94/49/2
f 94/49/2 101/50/2 102/52/2 95/51/2
f 95/51/2 102/52/2 103/54/2 96/53/2
f 96/53/2 103/54/2 104/56/2 97/55/2
f 97/55/2 104/56/2 105/44/2 98/57/2
f 98/57/2 105/44/2 79/4/2 78/1/2
f 84/58/2 92/46/2 93/47/2 85/59/2
f 85/59/2 93/47/2 94/49/2 86/60/2
f 86/60/2 94/49/2 95/51/2 87/61/2
f 87/61/2 95/51/2 96/53/2 88/62/2
f 88/62/2 96/53/2 97/55/2 89/63/2
f 89/63/2 97/55/2 98/57/2 90/64/2
f 90/64/2 98/57/2 78/1/2 91/65/2
f 61/18/3 62/20/3 127/20/3 126/18/3
f 29/43/3 30/48/3 100/48/3 99/43/3
f 8/9/4 9/7/4 74/7/4 73/9/4
f 63/24/3 64/23/3 129/23/3 128/24/3
f 30/48/3 31/50/3 101/50/3 100/48/3
f 9/7/4 10/5/4 75/5/4 74/7/4
f 64/23/3 65/25/3 130/25/3 129/23/3
f 31/50/3 32/52/3 102/52/3 101/50/3
f 10/5/4 11/3/4 76/3/4 75/5/4
f 52/13/5 59/16/5 124/16/5 118/13/5
f 32/52/3 33/54/3 103/54/3 102/52/3
f 11/3/4 12/2/4 77/2/4 76/3/4
f 33/54/3 34/56/3 104/56/3 103/54/3
f 12/2/6 28/1/6 78/1/6 77/2/6
f 34/56/3 35/44/3 105/44/3 104/56/3
f 62/20/4 55/19/4 121/19/4 127/20/4
f 56/21/5 63/24/5 128/24/5 122/21/5
f 65/25/4 58/12/4 83/12/4 130/25/4
f 58/12/3 7/11/3 72/11/3 83/12/3
f 13/58/5 21/46/5 92/46/5 84/58/5
f 42/37/6 41/36/6 109/36/6 110/37/6
f 14/59/6 13/58/6 84/58/6 85/59/6
f 15/60/6 14/59/6 85/59/6 86/60/6
f 16/61/6 15/60/6 86/60/6 87/61/6
f 55/19/4 48/31/4 115/31/4 121/19/4
f 46/29/6 45/27/6 112/27/6 113/29/6
f 17/62/6 16/61/6 87/61/6 88/62/6
f 49/32/5 56/21/5 122/21/5 116/32/5
f 47/30/6 46/29/6 113/29/6 114/30/6
f 18/63/6 17/62/6 88/62/6 89/63/6
f 19/64/6 18/63/6 89/63/6 90/64/6
f 50/33/6 49/32/6 116/32/6 117/33/6
f 20/65/6 19/64/6 90/64/6 91/65/6
f 28/1/4 20/65/4 91/65/4 78/1/4
f 45/27/4 40/35/4 108/35/4 112/27/4
f 21/46/6 1/45/6 66/45/6 92/46/6
f 41/36/5 47/30/5 114/30/5 109/36/5
f 6/28/3 52/13/3 118/13/3 71/28/3
f 48/31/4 42/37/4 110/37/4 115/31/4
f 43/38/5 50/33/5 117/33/5 111/38/5
f 1/45/5 2/42/5 67/42/5 66/45/5
f 2/42/5 3/39/5 68/39/5 67/42/5
f 40/35/4 37/40/4 106/40/4 108/35/4
f 3/39/5 4/34/5 69/34/5 68/39/5
f 38/41/5 43/38/5 111/38/5 107/41/5
f 4/34/5 5/26/5 70/26/5 69/34/5
f 59/16/3 60/15/3 125/15/3 124/16/3
f 5/26/5 6/28/5 71/28/5 70/26/5
f 37/40/4 29/43/4 99/43/4 106/40/4
f 60/15/3 61/18/3 126/18/3 125/15/3
f 7/11/4 8/9/4 73/9/4 72/11/4
f 35/44/5 38/41/5 107/41/5 105/44/5
