# Blender 5.0.0
# www.blender.org
mtllib H.mtl
o Plane.007
v 0.777777 -1.000000 -0.000000
v 0.555555 -1.000000 -0.000000
v 0.333333 -1.000000 0.000000
v -0.333334 -1.000000 0.000000
v -0.555556 -1.000000 0.000000
v -0.777778 -1.000000 0.000000
v -0.777777 1.000000 0.000000
v -0.555555 1.000000 0.000000
v -0.333333 1.000000 -0.000000
v 0.333334 1.000000 -0.000000
v 0.555556 1.000000 -0.000000
v 0.777778 1.000000 -0.000000
v 0.777778 -0.777778 -0.000000
v 0.777778 -0.555556 -0.000000
v 0.777778 -0.333334 -0.000000
v 0.777778 -0.111111 -0.000000
v 0.777778 0.111111 -0.000000
v 0.777778 0.333333 -0.000000
v 0.777778 0.555555 -0.000000
v 0.777778 0.777778 -0.000000
v 0.555555 -0.777778 -0.000000
v 0.555555 -0.555556 -0.000000
v 0.555555 -0.333334 -0.000000
v 0.555556 -0.111111 -0.000000
v 0.555556 0.111111 -0.000000
v 0.555556 0.333333 -0.000000
v 0.555556 0.555555 -0.000000
v 0.555556 0.777778 -0.000000
v 0.333333 -0.777778 0.000000
v 0.333333 -0.555556 -0.000000
v 0.333333 -0.333333 -0.000000
v 0.333333 -0.111111 -0.000000
v 0.333333 0.111111 -0.000000
v 0.333333 0.333333 -0.000000
v 0.333334 0.555555 -0.000000
v 0.333334 0.777778 -0.000000
v 0.111111 -0.111111 -0.000000
v 0.111111 0.111111 -0.000000
v -0.111111 -0.111111 0.000000
v -0.111111 0.111111 0.000000
v -0.333334 -0.777778 0.000000
v -0.333334 -0.555555 0.000000
v -0.333333 -0.333333 0.000000
v -0.333333 -0.111111 0.000000
v -0.333333 0.111111 0.000000
v -0.333333 0.333333 0.000000
v -0.333333 0.555556 0.000000
v -0.333333 0.777778 -0.000000
v -0.555556 -0.777778 0.000000
v -0.555556 -0.555555 0.000000
v -0.555556 -0.333333 0.000000
v -0.555556 -0.111111 0.000000
v -0.555556 0.111111 0.000000
v -0.555555 0.333334 0.000000
v -0.555555 0.555556 0.000000
v -0.555555 0.777778 0.000000
v -0.777778 -0.777778 0.000000
v -0.777778 -0.555555 0.000000
v -0.777778 -0.333333 0.000000
v -0.777778 -0.111111 0.000000
v -0.777778 0.111111 0.000000
v -0.777778 0.333334 0.000000
v -0.777778 0.555556 0.000000
v -0.777778 0.777778 0.000000
v 0.777777 -1.000000 -0.000000
v 0.555555 -1.000000 -0.000000
v 0.333333 -1.000000 0.000000
v -0.333334 -1.000000 0.000000
v -0.555556 -1.000000 0.000000
v -0.777778 -1.000000 0.000000
v -0.777777 1.000000 0.000000
v -0.555555 1.000000 0.000000
v -0.333333 1.000000 -0.000000
v 0.333334 1.000000 -0.000000
v 0.555556 1.000000 -0.000000
v 0.777778 1.000000 -0.000000
v 0.777778 0.777778 -0.000000
v 0.333334 0.777778 -0.000000
v -0.333333 0.777778 -0.000000
v -0.777778 0.777778 0.000000
v 0.777778 -0.777778 -0.000000
v 0.777778 -0.555556 -0.000000
v 0.777778 -0.333334 -0.000000
v 0.777778 -0.111111 -0.000000
v 0.777778 0.111111 -0.000000
v 0.777778 0.333333 -0.000000
v 0.777778 0.555555 -0.000000
v 0.333333 -0.777778 0.000000
v 0.333333 -0.555556 -0.000000
v 0.333333 -0.333333 -0.000000
v 0.333333 -0.111111 -0.000000
v 0.333333 0.111111 -0.000000
v 0.333333 0.333333 -0.000000
v 0.333334 0.555555 -0.000000
v 0.111111 -0.111111 -0.000000
v 0.111111 0.111111 -0.000000
v -0.111111 -0.111111 0.000000
v -0.111111 0.111111 0.000000
v -0.333334 -0.777778 0.000000
v -0.333334 -0.555555 0.000000
v -0.333333 -0.333333 0.000000
v -0.333333 -0.111111 0.000000
v -0.333333 0.111111 0.000000
v -0.333333 0.333333 0.000000
v -0.333333 0.555556 0.000000
v -0.777778 -0.777778 0.000000
v -0.777778 -0.555555 0.000000
v -0.777778 -0.333333 0.000000
v -0.777778 -0.111111 0.000000
v -0.777778 0.111111 0.000000
v -0.777778 0.333334 0.000000
v -0.777778 0.555556 0.000000
v 0.777777 -1.000000 -0.504286
v 0.555555 -1.000000 -0.504286
v 0.333333 -1.000000 -0.504286
v -0.333334 -1.000000 -0.504286
v -0.555556 -1.000000 -0.504285
v -0.777778 -1.000000 -0.504285
v -0.777778 1.000000 -0.504286
v -0.555555 1.000000 -0.504286
v -0.333333 1.000000 -0.504286
v 0.333334 1.000000 -0.504286
v 0.555556 1.000000 -0.504286
v 0.777778 1.000000 -0.504286
v 0.777778 0.777778 -0.504286
v 0.555556 0.777778 -0.504286
v 0.333334 0.777778 -0.504286
v -0.333333 0.777778 -0.504286
v -0.555555 0.777778 -0.504286
v -0.777778 0.777778 -0.504286
v 0.777777 -0.777778 -0.504286
v 0.777778 -0.555556 -0.504286
v 0.777778 -0.333334 -0.504286
v 0.777778 -0.111111 -0.504286
v 0.777778 0.111111 -0.504286
v 0.777778 0.333333 -0.504286
v 0.777778 0.555555 -0.504286
v 0.555555 -0.777778 -0.504286
v 0.555555 -0.555556 -0.504286
v 0.555555 -0.333334 -0.504286
v 0.555555 -0.111111 -0.504286
v 0.555556 0.111111 -0.504286
v 0.555556 0.333333 -0.504286
v 0.555556 0.555555 -0.504286
v 0.333333 -0.777778 -0.504286
v 0.333333 -0.555556 -0.504286
v 0.333333 -0.333333 -0.504286
v 0.333333 -0.111111 -0.504286
v 0.333333 0.111111 -0.504286
v 0.333333 0.333333 -0.504286
v 0.333333 0.555555 -0.504286
v 0.111111 -0.111111 -0.504286
v 0.111111 0.111111 -0.504286
v -0.111111 -0.111111 -0.504286
v -0.111111 0.111111 -0.504286
v -0.333334 -0.777778 -0.504286
v -0.333334 -0.555555 -0.504286
v -0.333333 -0.333333 -0.504286
v -0.333333 -0.111111 -0.504286
v -0.333333 0.111111 -0.504286
v -0.333333 0.333333 -0.504286
v -0.333333 0.555556 -0.504286
v -0.555556 -0.777778 -0.504286
v -0.555556 -0.555555 -0.504286
v -0.555556 -0.333333 -0.504286
v -0.555556 -0.111111 -0.504286
v -0.555556 0.111111 -0.504286
v -0.555556 0.333333 -0.504286
v -0.555555 0.555556 -0.504286
v -0.777778 -0.777778 -0.504285
v -0.777778 -0.555555 -0.504285
v -0.777778 -0.333333 -0.504286
v -0.777778 -0.111111 -0.504286
v -0.777778 0.111111 -0.504286
v -0.777778 0.333334 -0.504286
v -0.777778 0.555556 -0.504286
vn -0.0000 -0.0000 1.0000
vn 1.0000 -0.0000 -0.0000
vn -1.0000 -0.0000 -0.0000
vn -0.0000 1.0000 -0.0000
vn -0.0000 -1.0000 -0.0000
vn -0.0000 -0.0000 -1.0000
vt 0.111111 0.888889
vt 0.111111 1.000000
vt 0.222222 1.000000
vt 0.222222 0.888889
vt 0.333333 1.000000
vt 0.333333 0.888889
vt 0.666667 0.888889
vt 0.666667 1.000000
vt 0.777778 1.000000
vt 0.777778 0.888889
vt 0.888889 1.000000
vt 0.888889 0.888889
vt 0.777778 0.000000
vt 0.777778 0.111111
vt 0.888889 0.111111
vt 0.888889 0.000000
vt 0.777778 0.222222
vt 0.888889 0.222222
vt 0.777778 0.333333
vt 0.888889 0.333333
vt 0.777778 0.444444
vt 0.888889 0.444444
vt 0.777778 0.555556
vt 0.888889 0.555556
vt 0.777778 0.666667
vt 0.888889 0.666667
vt 0.777778 0.777778
vt 0.888889 0.777778
vt 0.666667 0.000000
vt 0.666667 0.111111
vt 0.666667 0.222222
vt 0.666667 0.333333
vt 0.666667 0.444444
vt 0.666667 0.555556
vt 0.666667 0.666667
vt 0.666667 0.777778
vt 0.555556 0.444444
vt 0.555556 0.555556
vt 0.444444 0.444444
vt 0.444444 0.555556
vt 0.333333 0.444444
vt 0.333333 0.555556
vt 0.222222 0.000000
vt 0.222222 0.111111
vt 0.333333 0.111111
vt 0.333333 0.000000
vt 0.222222 0.222222
vt 0.333333 0.222222
vt 0.222222 0.333333
vt 0.333333 0.333333
vt 0.222222 0.444444
vt 0.222222 0.555556
vt 0.222222 0.666667
vt 0.333333 0.666667
vt 0.222222 0.777778
vt 0.333333 0.777778
vt 0.111111 0.000000
vt 0.111111 0.111111
vt 0.111111 0.222222
vt 0.111111 0.333333
vt 0.111111 0.444444
vt 0.111111 0.555556
vt 0.111111 0.666667
vt 0.111111 0.777778
s 0
f 20/1/1 12/2/1 11/3/1 28/4/1
f 28/4/1 11/3/1 10/5/1 36/6/1
f 48/7/1 9/8/1 8/9/1 56/10/1
f 56/10/1 8/9/1 7/11/1 64/12/1
f 5/13/1 49/14/1 57/15/1 6/16/1
f 49/14/1 50/17/1 58/18/1 57/15/1
f 50/17/1 51/19/1 59/20/1 58/18/1
f 51/19/1 52/21/1 60/22/1 59/20/1
f 52/21/1 53/23/1 61/24/1 60/22/1
f 53/23/1 54/25/1 62/26/1 61/24/1
f 54/25/1 55/27/1 63/28/1 62/26/1
f 55/27/1 56/10/1 64/12/1 63/28/1
f 4/29/1 41/30/1 49/14/1 5/13/1
f 41/30/1 42/31/1 50/17/1 49/14/1
f 42/31/1 43/32/1 51/19/1 50/17/1
f 43/32/1 44/33/1 52/21/1 51/19/1
f 44/33/1 45/34/1 53/23/1 52/21/1
f 45/34/1 46/35/1 54/25/1 53/23/1
f 46/35/1 47/36/1 55/27/1 54/25/1
f 47/36/1 48/7/1 56/10/1 55/27/1
f 39/37/1 40/38/1 45/34/1 44/33/1
f 37/39/1 38/40/1 40/38/1 39/37/1
f 32/41/1 33/42/1 38/40/1 37/39/1
f 2/43/1 21/44/1 29/45/1 3/46/1
f 21/44/1 22/47/1 30/48/1 29/45/1
f 22/47/1 23/49/1 31/50/1 30/48/1
f 23/49/1 24/51/1 32/41/1 31/50/1
f 24/51/1 25/52/1 33/42/1 32/41/1
f 25/52/1 26/53/1 34/54/1 33/42/1
f 26/53/1 27/55/1 35/56/1 34/54/1
f 27/55/1 28/4/1 36/6/1 35/56/1
f 1/57/1 13/58/1 21/44/1 2/43/1
f 13/58/1 14/59/1 22/47/1 21/44/1
f 14/59/1 15/60/1 23/49/1 22/47/1
f 15/60/1 16/61/1 24/51/1 23/49/1
f 16/61/1 17/62/1 25/52/1 24/51/1
f 17/62/1 18/63/1 26/53/1 25/52/1
f 18/63/1 19/64/1 27/55/1 26/53/1
f 19/64/1 20/1/1 28/4/1 27/55/1
f 86/63/2 85/62/2 135/62/2 136/63/2
f 108/20/3 109/22/3 173/22/3 172/20/3
f 89/48/3 90/50/3 147/50/3 146/48/3
f 72/9/4 73/8/4 121/8/4 120/9/4
f 104/35/2 103/34/2 160/34/2 161/35/2
f 85/62/2 84/61/2 134/61/2 135/62/2
f 96/40/4 92/42/4 149/42/4 153/40/4
f 107/18/3 108/20/3 172/20/3 171/18/3
f 88/45/3 89/48/3 146/48/3 145/45/3
f 71/11/4 72/9/4 120/9/4 119/11/4
f 84/61/2 83/60/2 133/60/2 134/61/2
f 91/41/5 95/39/5 152/39/5 148/41/5
f 106/15/3 107/18/3 171/18/3 170/15/3
f 67/46/3 88/45/3 145/45/3 115/46/3
f 69/13/5 70/16/5 118/16/5 117/13/5
f 102/33/2 101/32/2 158/32/2 159/33/2
f 83/60/2 82/59/2 132/59/2 133/60/2
f 98/38/4 96/40/4 153/40/4 155/38/4
f 70/16/3 106/15/3 170/15/3 118/16/3
f 68/29/5 69/13/5 117/13/5 116/29/5
f 101/32/2 100/31/2 157/31/2 158/32/2
f 82/59/2 81/58/2 131/58/2 132/59/2
f 95/39/5 97/37/5 154/37/5 152/39/5
f 66/43/5 67/46/5 115/46/5 114/43/5
f 100/31/2 99/30/2 156/30/2 157/31/2
f 81/58/2 65/57/2 113/57/2 131/58/2
f 103/34/4 98/38/4 155/38/4 160/34/4
f 65/57/5 66/43/5 114/43/5 113/57/5
f 99/30/2 68/29/2 116/29/2 156/30/2
f 80/12/3 71/11/3 119/11/3 130/12/3
f 97/37/5 102/33/5 159/33/5 154/37/5
f 73/8/2 79/7/2 128/7/2 121/8/2
f 94/56/3 78/6/3 127/6/3 151/56/3
f 78/6/3 74/5/3 122/5/3 127/6/3
f 112/28/3 80/12/3 130/12/3 176/28/3
f 93/54/3 94/56/3 151/56/3 150/54/3
f 111/26/3 112/28/3 176/28/3 175/26/3
f 92/42/3 93/54/3 150/54/3 149/42/3
f 76/2/2 77/1/2 125/1/2 124/2/2
f 44/33/6 43/32/6 101/32/6 102/33/6
f 5/13/6 6/16/6 70/16/6 69/13/6
f 3/46/6 29/45/6 88/45/6 67/46/6
f 57/15/6 58/18/6 107/18/6 106/15/6
f 32/41/6 37/39/6 95/39/6 91/41/6
f 16/61/6 15/60/6 83/60/6 84/61/6
f 7/11/6 8/9/6 72/9/6 71/11/6
f 29/45/6 30/48/6 89/48/6 88/45/6
f 58/18/6 59/20/6 108/20/6 107/18/6
f 38/40/6 33/42/6 92/42/6 96/40/6
f 17/62/6 16/61/6 84/61/6 85/62/6
f 46/35/6 45/34/6 103/34/6 104/35/6
f 8/9/6 9/8/6 73/8/6 72/9/6
f 30/48/6 31/50/6 90/50/6 89/48/6
f 59/20/6 60/22/6 109/22/6 108/20/6
f 18/63/6 17/62/6 85/62/6 86/63/6
f 47/36/6 46/35/6 104/35/6 105/36/6
f 10/5/6 11/3/6 75/3/6 74/5/6
f 31/50/6 32/41/6 91/41/6 90/50/6
f 60/22/6 61/24/6 110/24/6 109/22/6
f 19/64/6 18/63/6 86/63/6 87/64/6
f 48/7/6 47/36/6 105/36/6 79/7/6
f 11/3/6 12/2/6 76/2/6 75/3/6
f 61/24/6 62/26/6 111/26/6 110/24/6
f 20/1/6 19/64/6 87/64/6 77/1/6
f 12/2/6 20/1/6 77/1/6 76/2/6
f 33/42/6 34/54/6 93/54/6 92/42/6
f 62/26/6 63/28/6 112/28/6 111/26/6
f 34/54/6 35/56/6 94/56/6 93/54/6
f 63/28/6 64/12/6 80/12/6 112/28/6
f 36/6/6 10/5/6 74/5/6 78/6/6
f 35/56/6 36/6/6 78/6/6 94/56/6
f 9/8/6 48/7/6 79/7/6 73/8/6
f 39/37/6 44/33/6 102/33/6 97/37/6
f 64/12/6 7/11/6 71/11/6 80/12/6
f 41/30/6 4/29/6 68/29/6 99/30/6
f 1/57/6 2/43/6 66/43/6 65/57/6
f 45/34/6 40/38/6 98/38/6 103/34/6
f 13/58/6 1/57/6 65/57/6 81/58/6
f 42/31/6 41/30/6 99/30/6 100/31/6
f 2/43/6 3/46/6 67/46/6 66/43/6
f 37/39/6 39/37/6 97/37/6 95/39/6
f 14/59/6 13/58/6 81/58/6 82/59/6
f 43/32/6 42/31/6 100/31/6 101/32/6
f 4/29/6 5/13/6 69/13/6 68/29/6
f 6/16/6 57/15/6 106/15/6 70/16/6
f 40/38/6 38/40/6 96/40/6 98/38/6
f 15/60/6 14/59/6 82/59/6 83/60/6
f 125/1/6 126/4/6 123/3/6 124/2/6
f 126/4/6 127/6/6 122/5/6 123/3/6
f 128/7/6 129/10/6 120/9/6 121/8/6
f 129/10/6 130/12/6 119/11/6 120/9/6
f 117/13/6 118/16/6 170/15/6 163/14/6
f 163/14/6 170/15/6 171/18/6 164/17/6
f 164/17/6 171/18/6 172/20/6 165/19/6
f 165/19/6 172/20/6 173/22/6 166/21/6
f 166/21/6 173/22/6 174/24/6 167/23/6
f 167/23/6 174/24/6 175/26/6 168/25/6
f 168/25/6 175/26/6 176/28/6 169/27/6
f 169/27/6 176/28/6 130/12/6 129/10/6
f 116/29/6 117/13/6 163/14/6 156/30/6
f 156/30/6 163/14/6 164/17/6 157/31/6
f 157/31/6 164/17/6 165/19/6 158/32/6
f 158/32/6 165/19/6 166/21/6 159/33/6
f 159/33/6 166/21/6 167/23/6 160/34/6
f 160/34/6 167/23/6 168/25/6 161/35/6
f 161/35/6 168/25/6 169/27/6 162/36/6
f 162/36/6 169/27/6 129/10/6 128/7/6
f 154/37/6 159/33/6 160/34/6 155/38/6
f 152/39/6 154/37/6 155/38/6 153/40/6
f 148/41/6 152/39/6 153/40/6 149/42/6
f 114/43/6 115/46/6 145/45/6 138/44/6
f 138/44/6 145/45/6 146/48/6 139/47/6
f 139/47/6 146/48/6 147/50/6 140/49/6
f 140/49/6 147/50/6 148/41/6 141/51/6
f 141/51/6 148/41/6 149/42/6 142/52/6
f 142/52/6 149/42/6 150/54/6 143/53/6
f 143/53/6 150/54/6 151/56/6 144/55/6
f 144/55/6 151/56/6 127/6/6 126/4/6
f 113/57/6 114/43/6 138/44/6 131/58/6
f 131/58/6 138/44/6 139/47/6 132/59/6
f 132/59/6 139/47/6 140/49/6 133/60/6
f 133/60/6 140/49/6 141/51/6 134/61/6
f 134/61/6 141/51/6 142/52/6 135/62/6
f 135/62/6 142/52/6 143/53/6 136/63/6
f 136/63/6 143/53/6 144/55/6 137/64/6
f 137/64/6 144/55/6 126/4/6 125/1/6
f 105/36/2 104/35/2 161/35/2 162/36/2
f 74/5/4 75/3/4 123/3/4 122/5/4
f 90/50/3 91/41/3 148/41/3 147/50/3
f 109/22/3 110/24/3 174/24/3 173/22/3
f 87/64/2 86/63/2 136/63/2 137/64/2
f 79/7/2 105/36/2 162/36/2 128/7/2
f 75/3/4 76/2/4 124/2/4 123/3/4
f 110/24/3 111/26/3 175/26/3 174/24/3
f 77/1/2 87/64/2 137/64/2 125/1/2
