# Blender 5.0.0
# www.blender.org
mtllib I.mtl
o Plane.008
v 0.555555 -1.000000 -0.000000
v 0.333333 -1.000000 0.000000
v 0.111111 -1.000000 0.000000
v -0.111111 -1.000000 0.000000
v -0.333334 -1.000000 0.000000
v -0.555556 -1.000000 0.000000
v -0.555555 1.000000 0.000000
v -0.333333 1.000000 -0.000000
v -0.111111 1.000000 -0.000000
v 0.111111 1.000000 -0.000000
v 0.333334 1.000000 -0.000000
v 0.555556 1.000000 -0.000000
v 0.555555 -0.777778 -0.000000
v 0.555556 0.777778 -0.000000
v 0.333333 -0.777778 0.000000
v 0.333333 -0.555556 -0.000000
v 0.333333 -0.333333 -0.000000
v 0.333333 -0.111111 -0.000000
v 0.333333 0.111111 -0.000000
v 0.333333 0.333333 -0.000000
v 0.333334 0.555555 -0.000000
v 0.333334 0.777778 -0.000000
v 0.111111 -0.777778 0.000000
v 0.111111 -0.555556 0.000000
v 0.111111 -0.333333 0.000000
v 0.111111 -0.111111 -0.000000
v 0.111111 0.111111 -0.000000
v 0.111111 0.333333 -0.000000
v 0.111111 0.555556 -0.000000
v 0.111111 0.777778 -0.000000
v -0.111111 -0.777778 0.000000
v -0.111111 -0.555556 0.000000
v -0.111111 -0.333333 0.000000
v -0.111111 -0.111111 0.000000
v -0.111111 0.111111 0.000000
v -0.111111 0.333333 -0.000000
v -0.111111 0.555556 -0.000000
v -0.111111 0.777778 -0.000000
v -0.333334 -0.777778 0.000000
v -0.333334 -0.555555 0.000000
v -0.333333 -0.333333 0.000000
v -0.333333 -0.111111 0.000000
v -0.333333 0.111111 0.000000
v -0.333333 0.333333 0.000000
v -0.333333 0.555556 0.000000
v -0.333333 0.777778 -0.000000
v -0.555556 -0.777778 0.000000
v -0.555555 0.777778 0.000000
v 0.555555 -1.000000 -0.504286
v 0.333333 -1.000000 -0.504286
v 0.111111 -1.000000 -0.504286
v -0.111112 -1.000000 -0.504286
v -0.333334 -1.000000 -0.504286
v -0.555556 -1.000000 -0.504285
v -0.555555 1.000000 -0.504286
v -0.333333 1.000000 -0.504286
v -0.111111 1.000000 -0.504286
v 0.111111 1.000000 -0.504286
v 0.333334 1.000000 -0.504286
v 0.555556 1.000000 -0.504286
v 0.555556 0.777778 -0.504286
v 0.333334 0.777778 -0.504286
v 0.111111 0.777778 -0.504286
v -0.111111 0.777778 -0.504286
v -0.333333 0.777778 -0.504286
v -0.555555 0.777778 -0.504286
v 0.555555 -0.777778 -0.504286
v 0.333333 -0.777778 -0.504286
v 0.333333 -0.555556 -0.504286
v 0.333333 -0.333333 -0.504286
v 0.333333 -0.111111 -0.504286
v 0.333333 0.111111 -0.504286
v 0.333333 0.333333 -0.504286
v 0.333333 0.555555 -0.504286
v 0.111111 -0.777778 -0.504286
v 0.111111 -0.555556 -0.504286
v 0.111111 -0.333333 -0.504286
v 0.111111 -0.111111 -0.504286
v 0.111111 0.111111 -0.504286
v 0.111111 0.333333 -0.504286
v 0.111111 0.555556 -0.504286
v -0.111111 -0.777778 -0.504286
v -0.111111 -0.555556 -0.504286
v -0.111111 -0.333333 -0.504286
v -0.111111 -0.111111 -0.504286
v -0.111111 0.111111 -0.504286
v -0.111111 0.333333 -0.504286
v -0.111111 0.555556 -0.504286
v -0.333334 -0.777778 -0.504286
v -0.333334 -0.555555 -0.504286
v -0.333333 -0.333333 -0.504286
v -0.333333 -0.111111 -0.504286
v -0.333333 0.111111 -0.504286
v -0.333333 0.333333 -0.504286
v -0.333333 0.555556 -0.504286
v -0.555556 -0.777778 -0.504286
vn -0.0000 -0.0000 1.0000
vn -0.0000 -0.0000 -1.0000
vn 1.0000 -0.0000 -0.0000
vn -1.0000 -0.0000 -0.0000
vn -0.0000 1.0000 -0.0000
vn -0.0000 -1.0000 -0.0000
vt 0.222222 0.888889
vt 0.222222 1.000000
vt 0.333333 1.000000
vt 0.333333 0.888889
vt 0.444444 1.000000
vt 0.444444 0.888889
vt 0.555556 1.000000
vt 0.555556 0.888889
vt 0.666667 1.000000
vt 0.666667 0.888889
vt 0.777778 1.000000
vt 0.777778 0.888889
vt 0.666667 0.000000
vt 0.666667 0.111111
vt 0.777778 0.111111
vt 0.777778 0.000000
vt 0.555556 0.000000
vt 0.555556 0.111111
vt 0.555556 0.222222
vt 0.666667 0.222222
vt 0.555556 0.333333
vt 0.666667 0.333333
vt 0.555556 0.444444
vt 0.666667 0.444444
vt 0.555556 0.555556
vt 0.666667 0.555556
vt 0.555556 0.666667
vt 0.666667 0.666667
vt 0.555556 0.777778
vt 0.666667 0.777778
vt 0.444444 0.000000
vt 0.444444 0.111111
vt 0.444444 0.222222
vt 0.444444 0.333333
vt 0.444444 0.444444
vt 0.444444 0.555556
vt 0.444444 0.666667
vt 0.444444 0.777778
vt 0.333333 0.000000
vt 0.333333 0.111111
vt 0.333333 0.222222
vt 0.333333 0.333333
vt 0.333333 0.444444
vt 0.333333 0.555556
vt 0.333333 0.666667
vt 0.333333 0.777778
vt 0.222222 0.000000
vt 0.222222 0.111111
s 0
f 14/1/1 12/2/1 11/3/1 22/4/1
f 22/4/1 11/3/1 10/5/1 30/6/1
f 30/6/1 10/5/1 9/7/1 38/8/1
f 38/8/1 9/7/1 8/9/1 46/10/1
f 46/10/1 8/9/1 7/11/1 48/12/1
f 5/13/1 39/14/1 47/15/1 6/16/1
f 4/17/1 31/18/1 39/14/1 5/13/1
f 31/18/1 32/19/1 40/20/1 39/14/1
f 32/19/1 33/21/1 41/22/1 40/20/1
f 33/21/1 34/23/1 42/24/1 41/22/1
f 34/23/1 35/25/1 43/26/1 42/24/1
f 35/25/1 36/27/1 44/28/1 43/26/1
f 36/27/1 37/29/1 45/30/1 44/28/1
f 37/29/1 38/8/1 46/10/1 45/30/1
f 3/31/1 23/32/1 31/18/1 4/17/1
f 23/32/1 24/33/1 32/19/1 31/18/1
f 24/33/1 25/34/1 33/21/1 32/19/1
f 25/34/1 26/35/1 34/23/1 33/21/1
f 26/35/1 27/36/1 35/25/1 34/23/1
f 27/36/1 28/37/1 36/27/1 35/25/1
f 28/37/1 29/38/1 37/29/1 36/27/1
f 29/38/1 30/6/1 38/8/1 37/29/1
f 2/39/1 15/40/1 23/32/1 3/31/1
f 15/40/1 16/41/1 24/33/1 23/32/1
f 16/41/1 17/42/1 25/34/1 24/33/1
f 17/42/1 18/43/1 26/35/1 25/34/1
f 18/43/1 19/44/1 27/36/1 26/35/1
f 19/44/1 20/45/1 28/37/1 27/36/1
f 20/45/1 21/46/1 29/38/1 28/37/1
f 21/46/1 22/4/1 30/6/1 29/38/1
f 1/47/1 13/48/1 15/40/1 2/39/1
f 61/1/2 62/4/2 59/3/2 60/2/2
f 62/4/2 63/6/2 58/5/2 59/3/2
f 63/6/2 64/8/2 57/7/2 58/5/2
f 64/8/2 65/10/2 56/9/2 57/7/2
f 65/10/2 66/12/2 55/11/2 56/9/2
f 53/13/2 54/16/2 96/15/2 89/14/2
f 52/17/2 53/13/2 89/14/2 82/18/2
f 82/18/2 89/14/2 90/20/2 83/19/2
f 83/19/2 90/20/2 91/22/2 84/21/2
f 84/21/2 91/22/2 92/24/2 85/23/2
f 85/23/2 92/24/2 93/26/2 86/25/2
f 86/25/2 93/26/2 94/28/2 87/27/2
f 87/27/2 94/28/2 95/30/2 88/29/2
f 88/29/2 95/30/2 65/10/2 64/8/2
f 51/31/2 52/17/2 82/18/2 75/32/2
f 75/32/2 82/18/2 83/19/2 76/33/2
f 76/33/2 83/19/2 84/21/2 77/34/2
f 77/34/2 84/21/2 85/23/2 78/35/2
f 78/35/2 85/23/2 86/25/2 79/36/2
f 79/36/2 86/25/2 87/27/2 80/37/2
f 80/37/2 87/27/2 88/29/2 81/38/2
f 81/38/2 88/29/2 64/8/2 63/6/2
f 50/39/2 51/31/2 75/32/2 68/40/2
f 68/40/2 75/32/2 76/33/2 69/41/2
f 69/41/2 76/33/2 77/34/2 70/42/2
f 70/42/2 77/34/2 78/35/2 71/43/2
f 71/43/2 78/35/2 79/36/2 72/44/2
f 72/44/2 79/36/2 80/37/2 73/45/2
f 73/45/2 80/37/2 81/38/2 74/46/2
f 74/46/2 81/38/2 63/6/2 62/4/2
f 49/47/2 50/39/2 68/40/2 67/48/2
f 17/42/3 16/41/3 69/41/3 70/42/3
f 43/26/4 44/28/4 94/28/4 93/26/4
f 8/9/5 9/7/5 57/7/5 56/9/5
f 18/43/3 17/42/3 70/42/3 71/43/3
f 44/28/4 45/30/4 95/30/4 94/28/4
f 9/7/5 10/5/5 58/5/5 57/7/5
f 19/44/3 18/43/3 71/43/3 72/44/3
f 45/30/4 46/10/4 65/10/4 95/30/4
f 10/5/5 11/3/5 59/3/5 58/5/5
f 20/45/3 19/44/3 72/44/3 73/45/3
f 6/16/4 47/15/4 96/15/4 54/16/4
f 15/40/5 13/48/5 67/48/5 68/40/5
f 11/3/5 12/2/5 60/2/5 59/3/5
f 21/46/3 20/45/3 73/45/3 74/46/3
f 47/15/5 39/14/5 89/14/5 96/15/5
f 14/1/6 22/4/6 62/4/6 61/1/6
f 12/2/3 14/1/3 61/1/3 60/2/3
f 22/4/3 21/46/3 74/46/3 62/4/3
f 46/10/6 48/12/6 66/12/6 65/10/6
f 1/47/6 2/39/6 50/39/6 49/47/6
f 2/39/6 3/31/6 51/31/6 50/39/6
f 48/12/4 7/11/4 55/11/4 66/12/4
f 39/14/4 40/20/4 90/20/4 89/14/4
f 3/31/6 4/17/6 52/17/6 51/31/6
f 13/48/3 1/47/3 49/47/3 67/48/3
f 40/20/4 41/22/4 91/22/4 90/20/4
f 4/17/6 5/13/6 53/13/6 52/17/6
f 41/22/4 42/24/4 92/24/4 91/22/4
f 5/13/6 6/16/6 54/16/6 53/13/6
f 16/41/3 15/40/3 68/40/3 69/41/3
f 42/24/4 43/26/4 93/26/4 92/24/4
f 7/11/5 8/9/5 56/9/5 55/11/5
