# Blender 5.0.0
# www.blender.org
mtllib J.mtl
o Plane.009
v 0.555555 -1.000000 -0.000000
v 0.333333 -1.000000 0.000000
v 0.111111 -1.000000 0.000000
v -0.111111 -1.000000 0.000000
v -0.333334 -1.000000 0.000000
v -0.555556 -1.000000 0.000000
v -0.777777 1.000000 0.000000
v -0.555555 1.000000 0.000000
v -0.333333 1.000000 -0.000000
v 0.777778 -0.777778 -0.000000
v 0.777778 -0.555556 -0.000000
v 0.777778 -0.333334 -0.000000
v 0.777778 -0.111111 -0.000000
v 0.777778 0.111111 -0.000000
v 0.555555 -0.777778 -0.000000
v 0.555555 -0.555556 -0.000000
v 0.555555 -0.333334 -0.000000
v 0.555556 -0.111111 -0.000000
v 0.555556 0.111111 -0.000000
v 0.333333 -0.777778 0.000000
v 0.333333 -0.555556 -0.000000
v 0.333333 -0.333333 -0.000000
v 0.333333 -0.111111 -0.000000
v 0.333333 0.111111 -0.000000
v 0.111111 -0.777778 0.000000
v -0.111111 -0.777778 0.000000
v -0.333334 -0.777778 0.000000
v -0.333334 -0.555555 0.000000
v -0.333333 -0.333333 0.000000
v -0.333333 -0.111111 0.000000
v -0.333333 0.111111 0.000000
v -0.333333 0.333333 0.000000
v -0.333333 0.555556 0.000000
v -0.333333 0.777778 -0.000000
v -0.555556 -0.777778 0.000000
v -0.555556 -0.555555 0.000000
v -0.555556 -0.333333 0.000000
v -0.555556 -0.111111 0.000000
v -0.555556 0.111111 0.000000
v -0.555555 0.333334 0.000000
v -0.555555 0.555556 0.000000
v -0.555555 0.777778 0.000000
v -0.777778 -0.777778 0.000000
v -0.777778 -0.555555 0.000000
v -0.777778 -0.333333 0.000000
v -0.777778 -0.111111 0.000000
v -0.777778 0.111111 0.000000
v -0.777778 0.333334 0.000000
v -0.777778 0.555556 0.000000
v -0.777778 0.777778 0.000000
v 0.555555 -1.000000 -0.504286
v 0.333333 -1.000000 -0.504286
v 0.111111 -1.000000 -0.504286
v -0.111112 -1.000000 -0.504286
v -0.333334 -1.000000 -0.504286
v -0.555556 -1.000000 -0.504285
v -0.777778 1.000000 -0.504286
v -0.555555 1.000000 -0.504286
v -0.333333 1.000000 -0.504286
v -0.333333 0.777778 -0.504286
v -0.555555 0.777778 -0.504286
v -0.777778 0.777778 -0.504286
v 0.777777 -0.777778 -0.504286
v 0.777778 -0.555556 -0.504286
v 0.777778 -0.333334 -0.504286
v 0.777778 -0.111111 -0.504286
v 0.777778 0.111111 -0.504286
v 0.555555 -0.777778 -0.504286
v 0.555555 -0.555556 -0.504286
v 0.555555 -0.333334 -0.504286
v 0.555555 -0.111111 -0.504286
v 0.555556 0.111111 -0.504286
v 0.333333 -0.777778 -0.504286
v 0.333333 -0.555556 -0.504286
v 0.333333 -0.333333 -0.504286
v 0.333333 -0.111111 -0.504286
v 0.333333 0.111111 -0.504286
v 0.111111 -0.777778 -0.504286
v -0.111111 -0.777778 -0.504286
v -0.333334 -0.777778 -0.504286
v -0.333334 -0.555555 -0.504286
v -0.333333 -0.333333 -0.504286
v -0.333333 -0.111111 -0.504286
v -0.333333 0.111111 -0.504286
v -0.333333 0.333333 -0.504286
v -0.333333 0.555556 -0.504286
v -0.555556 -0.777778 -0.504286
v -0.555556 -0.555555 -0.504286
v -0.555556 -0.333333 -0.504286
v -0.555556 -0.111111 -0.504286
v -0.555556 0.111111 -0.504286
v -0.555556 0.333333 -0.504286
v -0.555555 0.555556 -0.504286
v -0.777778 -0.777778 -0.504285
v -0.777778 -0.555555 -0.504285
v -0.777778 -0.333333 -0.504286
v -0.777778 -0.111111 -0.504286
v -0.777778 0.111111 -0.504286
v -0.777778 0.333334 -0.504286
v -0.777778 0.555556 -0.504286
vn -0.0000 -0.0000 1.0000
vn -0.0000 -0.0000 -1.0000
vn 1.0000 -0.0000 -0.0000
vn -0.0000 1.0000 -0.0000
vn -0.0000 -1.0000 -0.0000
vn -1.0000 -0.0000 -0.0000
vt 0.666667 0.888889
vt 0.666667 1.000000
vt 0.777778 1.000000
vt 0.777778 0.888889
vt 0.888889 1.000000
vt 0.888889 0.888889
vt 0.777778 0.111111
vt 0.777778 0.222222
vt 0.888889 0.222222
vt 0.888889 0.111111
vt 0.777778 0.333333
vt 0.888889 0.333333
vt 0.777778 0.444444
vt 0.888889 0.444444
vt 0.777778 0.555556
vt 0.888889 0.555556
vt 0.777778 0.666667
vt 0.888889 0.666667
vt 0.777778 0.777778
vt 0.888889 0.777778
vt 0.666667 0.000000
vt 0.666667 0.111111
vt 0.777778 0.000000
vt 0.666667 0.222222
vt 0.666667 0.333333
vt 0.666667 0.444444
vt 0.666667 0.555556
vt 0.666667 0.666667
vt 0.666667 0.777778
vt 0.555556 0.000000
vt 0.555556 0.111111
vt 0.444444 0.000000
vt 0.444444 0.111111
vt 0.333333 0.000000
vt 0.333333 0.111111
vt 0.222222 0.000000
vt 0.222222 0.111111
vt 0.222222 0.222222
vt 0.333333 0.222222
vt 0.222222 0.333333
vt 0.333333 0.333333
vt 0.222222 0.444444
vt 0.333333 0.444444
vt 0.222222 0.555556
vt 0.333333 0.555556
vt 0.111111 0.111111
vt 0.111111 0.222222
vt 0.111111 0.333333
vt 0.111111 0.444444
vt 0.111111 0.555556
s 0
f 34/1/1 9/2/1 8/3/1 42/4/1
f 42/4/1 8/3/1 7/5/1 50/6/1
f 35/7/1 36/8/1 44/9/1 43/10/1
f 36/8/1 37/11/1 45/12/1 44/9/1
f 37/11/1 38/13/1 46/14/1 45/12/1
f 38/13/1 39/15/1 47/16/1 46/14/1
f 39/15/1 40/17/1 48/18/1 47/16/1
f 40/17/1 41/19/1 49/20/1 48/18/1
f 41/19/1 42/4/1 50/6/1 49/20/1
f 5/21/1 27/22/1 35/7/1 6/23/1
f 27/22/1 28/24/1 36/8/1 35/7/1
f 28/24/1 29/25/1 37/11/1 36/8/1
f 29/25/1 30/26/1 38/13/1 37/11/1
f 30/26/1 31/27/1 39/15/1 38/13/1
f 31/27/1 32/28/1 40/17/1 39/15/1
f 32/28/1 33/29/1 41/19/1 40/17/1
f 33/29/1 34/1/1 42/4/1 41/19/1
f 4/30/1 26/31/1 27/22/1 5/21/1
f 3/32/1 25/33/1 26/31/1 4/30/1
f 2/34/1 20/35/1 25/33/1 3/32/1
f 1/36/1 15/37/1 20/35/1 2/34/1
f 15/37/1 16/38/1 21/39/1 20/35/1
f 16/38/1 17/40/1 22/41/1 21/39/1
f 17/40/1 18/42/1 23/43/1 22/41/1
f 18/42/1 19/44/1 24/45/1 23/43/1
f 10/46/1 11/47/1 16/38/1 15/37/1
f 11/47/1 12/48/1 17/40/1 16/38/1
f 12/48/1 13/49/1 18/42/1 17/40/1
f 13/49/1 14/50/1 19/44/1 18/42/1
f 60/1/2 61/4/2 58/3/2 59/2/2
f 61/4/2 62/6/2 57/5/2 58/3/2
f 87/7/2 94/10/2 95/9/2 88/8/2
f 88/8/2 95/9/2 96/12/2 89/11/2
f 89/11/2 96/12/2 97/14/2 90/13/2
f 90/13/2 97/14/2 98/16/2 91/15/2
f 91/15/2 98/16/2 99/18/2 92/17/2
f 92/17/2 99/18/2 100/20/2 93/19/2
f 93/19/2 100/20/2 62/6/2 61/4/2
f 55/21/2 56/23/2 87/7/2 80/22/2
f 80/22/2 87/7/2 88/8/2 81/24/2
f 81/24/2 88/8/2 89/11/2 82/25/2
f 82/25/2 89/11/2 90/13/2 83/26/2
f 83/26/2 90/13/2 91/15/2 84/27/2
f 84/27/2 91/15/2 92/17/2 85/28/2
f 85/28/2 92/17/2 93/19/2 86/29/2
f 86/29/2 93/19/2 61/4/2 60/1/2
f 54/30/2 55/21/2 80/22/2 79/31/2
f 53/32/2 54/30/2 79/31/2 78/33/2
f 52/34/2 53/32/2 78/33/2 73/35/2
f 51/36/2 52/34/2 73/35/2 68/37/2
f 68/37/2 73/35/2 74/39/2 69/38/2
f 69/38/2 74/39/2 75/41/2 70/40/2
f 70/40/2 75/41/2 76/43/2 71/42/2
f 71/42/2 76/43/2 77/45/2 72/44/2
f 63/46/2 68/37/2 69/38/2 64/47/2
f 64/47/2 69/38/2 70/40/2 65/48/2
f 65/48/2 70/40/2 71/42/2 66/49/2
f 66/49/2 71/42/2 72/44/2 67/50/2
f 14/50/3 13/49/3 66/49/3 67/50/3
f 25/33/4 20/35/4 73/35/4 78/33/4
f 1/36/5 2/34/5 52/34/5 51/36/5
f 28/24/3 27/22/3 80/22/3 81/24/3
f 15/37/3 1/36/3 51/36/3 68/37/3
f 2/34/5 3/32/5 53/32/5 52/34/5
f 29/25/3 28/24/3 81/24/3 82/25/3
f 43/10/6 44/9/6 95/9/6 94/10/6
f 3/32/5 4/30/5 54/30/5 53/32/5
f 30/26/3 29/25/3 82/25/3 83/26/3
f 44/9/6 45/12/6 96/12/6 95/9/6
f 4/30/5 5/21/5 55/21/5 54/30/5
f 31/27/3 30/26/3 83/26/3 84/27/3
f 45/12/6 46/14/6 97/14/6 96/12/6
f 5/21/5 6/23/5 56/23/5 55/21/5
f 32/28/3 31/27/3 84/27/3 85/28/3
f 46/14/6 47/16/6 98/16/6 97/14/6
f 24/45/4 19/44/4 72/44/4 77/45/4
f 7/5/4 8/3/4 58/3/4 57/5/4
f 33/29/3 32/28/3 85/28/3 86/29/3
f 47/16/6 48/18/6 99/18/6 98/16/6
f 10/46/5 15/37/5 68/37/5 63/46/5
f 8/3/4 9/2/4 59/2/4 58/3/4
f 34/1/3 33/29/3 86/29/3 60/1/3
f 20/35/6 21/39/6 74/39/6 73/35/6
f 48/18/6 49/20/6 100/20/6 99/18/6
f 9/2/3 34/1/3 60/1/3 59/2/3
f 6/23/6 35/7/6 87/7/6 56/23/6
f 21/39/6 22/41/6 75/41/6 74/39/6
f 49/20/6 50/6/6 62/6/6 100/20/6
f 22/41/6 23/43/6 76/43/6 75/41/6
f 35/7/5 43/10/5 94/10/5 87/7/5
f 50/6/6 7/5/6 57/5/6 62/6/6
f 23/43/6 24/45/6 77/45/6 76/43/6
f 19/44/4 14/50/4 67/50/4 72/44/4
f 11/47/3 10/46/3 63/46/3 64/47/3
f 12/48/3 11/47/3 64/47/3 65/48/3
f 27/22/4 26/31/4 79/31/4 80/22/4
f 13/49/3 12/48/3 65/48/3 66/49/3
f 26/31/4 25/33/4 78/33/4 79/31/4
