# Blender 5.0.0
# www.blender.org
mtllib K.mtl
o Plane.010
v 0.777777 -1.000000 -0.000000
v 0.555555 -1.000000 -0.000000
v 0.333333 -1.000000 0.000000
v -0.111111 -1.000000 0.000000
v -0.333334 -1.000000 0.000000
v -0.555556 -1.000000 0.000000
v -0.777778 -1.000000 0.000000
v -0.777777 1.000000 0.000000
v -0.555555 1.000000 0.000000
v -0.333333 1.000000 -0.000000
v -0.111111 1.000000 -0.000000
v 0.333334 1.000000 -0.000000
v 0.555556 1.000000 -0.000000
v 0.777778 1.000000 -0.000000
v 0.777778 -0.777778 -0.000000
v 0.777778 -0.555556 -0.000000
v 0.777778 -0.333334 -0.000000
v 0.777778 -0.111111 -0.000000
v 0.777778 0.111111 -0.000000
v 0.777778 0.333333 -0.000000
v 0.777778 0.555555 -0.000000
v 0.777778 0.777778 -0.000000
v 0.555555 -0.777778 -0.000000
v 0.555555 -0.555556 -0.000000
v 0.555555 -0.333334 -0.000000
v 0.555556 -0.111111 -0.000000
v 0.555556 0.111111 -0.000000
v 0.555556 0.333333 -0.000000
v 0.555556 0.555555 -0.000000
v 0.555556 0.777778 -0.000000
v 0.333333 -0.777778 0.000000
v 0.333333 -0.555556 -0.000000
v 0.333333 -0.333333 -0.000000
v 0.333333 -0.111111 -0.000000
v 0.333333 0.111111 -0.000000
v 0.333333 0.333333 -0.000000
v 0.333334 0.555555 -0.000000
v 0.333334 0.777778 -0.000000
v 0.111111 -0.333333 0.000000
v 0.111111 -0.111111 -0.000000
v 0.111111 0.111111 -0.000000
v 0.111111 0.333333 -0.000000
v -0.111111 -0.777778 0.000000
v -0.111111 -0.555556 0.000000
v -0.111111 -0.333333 0.000000
v -0.111111 -0.111111 0.000000
v -0.111111 0.111111 0.000000
v -0.111111 0.333333 -0.000000
v -0.111111 0.555556 -0.000000
v -0.111111 0.777778 -0.000000
v -0.333334 -0.777778 0.000000
v -0.333334 -0.555555 0.000000
v -0.333333 -0.333333 0.000000
v -0.333333 -0.111111 0.000000
v -0.333333 0.111111 0.000000
v -0.333333 0.333333 0.000000
v -0.333333 0.555556 0.000000
v -0.333333 0.777778 -0.000000
v -0.555556 -0.777778 0.000000
v -0.555556 -0.555555 0.000000
v -0.555556 -0.333333 0.000000
v -0.555556 -0.111111 0.000000
v -0.555556 0.111111 0.000000
v -0.555555 0.333334 0.000000
v -0.555555 0.555556 0.000000
v -0.555555 0.777778 0.000000
v -0.777778 -0.777778 0.000000
v -0.777778 -0.555555 0.000000
v -0.777778 -0.333333 0.000000
v -0.777778 0.333334 0.000000
v -0.777778 0.555556 0.000000
v -0.777778 0.777778 0.000000
v 0.777777 -1.000000 -0.504286
v 0.555555 -1.000000 -0.504286
v 0.333333 -1.000000 -0.504286
v -0.111112 -1.000000 -0.504286
v -0.333334 -1.000000 -0.504286
v -0.555556 -1.000000 -0.504285
v -0.777778 -1.000000 -0.504285
v -0.777778 1.000000 -0.504286
v -0.555555 1.000000 -0.504286
v -0.333333 1.000000 -0.504286
v -0.111111 1.000000 -0.504286
v 0.333334 1.000000 -0.504286
v 0.555556 1.000000 -0.504286
v 0.777778 1.000000 -0.504286
v 0.777778 0.777778 -0.504286
v 0.555556 0.777778 -0.504286
v 0.333334 0.777778 -0.504286
v -0.111111 0.777778 -0.504286
v -0.333333 0.777778 -0.504286
v -0.555555 0.777778 -0.504286
v -0.777778 0.777778 -0.504286
v 0.777777 -0.777778 -0.504286
v 0.777778 -0.555556 -0.504286
v 0.777778 -0.333334 -0.504286
v 0.777778 -0.111111 -0.504286
v 0.777778 0.111111 -0.504286
v 0.777778 0.333333 -0.504286
v 0.777778 0.555555 -0.504286
v 0.555555 -0.777778 -0.504286
v 0.555555 -0.555556 -0.504286
v 0.555555 -0.333334 -0.504286
v 0.555555 -0.111111 -0.504286
v 0.555556 0.111111 -0.504286
v 0.555556 0.333333 -0.504286
v 0.555556 0.555555 -0.504286
v 0.333333 -0.777778 -0.504286
v 0.333333 -0.555556 -0.504286
v 0.333333 -0.333333 -0.504286
v 0.333333 -0.111111 -0.504286
v 0.333333 0.111111 -0.504286
v 0.333333 0.333333 -0.504286
v 0.333333 0.555555 -0.504286
v 0.111111 -0.333333 -0.504286
v 0.111111 -0.111111 -0.504286
v 0.111111 0.111111 -0.504286
v 0.111111 0.333333 -0.504286
v -0.111111 -0.777778 -0.504286
v -0.111111 -0.555556 -0.504286
v -0.111111 -0.333333 -0.504286
v -0.111111 -0.111111 -0.504286
v -0.111111 0.111111 -0.504286
v -0.111111 0.333333 -0.504286
v -0.111111 0.555556 -0.504286
v -0.333334 -0.777778 -0.504286
v -0.333334 -0.555555 -0.504286
v -0.333333 -0.333333 -0.504286
v -0.333333 -0.111111 -0.504286
v -0.333333 0.111111 -0.504286
v -0.333333 0.333333 -0.504286
v -0.333333 0.555556 -0.504286
v -0.555556 -0.777778 -0.504286
v -0.555556 -0.555555 -0.504286
v -0.555556 -0.333333 -0.504286
v -0.555556 -0.111111 -0.504286
v -0.555556 0.111111 -0.504286
v -0.555556 0.333333 -0.504286
v -0.555555 0.555556 -0.504286
v -0.777778 -0.777778 -0.504285
v -0.777778 -0.555555 -0.504285
v -0.777778 -0.333333 -0.504286
v -0.777778 0.333334 -0.504286
v -0.777778 0.555556 -0.504286
vn -0.0000 -0.0000 1.0000
vn -0.0000 -0.0000 -1.0000
vn -1.0000 -0.0000 -0.0000
vn 1.0000 -0.0000 -0.0000
vn -0.0000 -1.0000 -0.0000
vn -0.0000 1.0000 -0.0000
vt 0.111111 0.888889
vt 0.111111 1.000000
vt 0.222222 1.000000
vt 0.222222 0.888889
vt 0.333333 1.000000
vt 0.333333 0.888889
vt 0.555556 0.888889
vt 0.555556 1.000000
vt 0.666667 1.000000
vt 0.666667 0.888889
vt 0.777778 1.000000
vt 0.777778 0.888889
vt 0.888889 1.000000
vt 0.888889 0.888889
vt 0.777778 0.000000
vt 0.777778 0.111111
vt 0.888889 0.111111
vt 0.888889 0.000000
vt 0.777778 0.222222
vt 0.888889 0.222222
vt 0.777778 0.333333
vt 0.888889 0.333333
vt 0.777778 0.666667
vt 0.777778 0.777778
vt 0.888889 0.777778
vt 0.888889 0.666667
vt 0.666667 0.000000
vt 0.666667 0.111111
vt 0.666667 0.222222
vt 0.666667 0.333333
vt 0.666667 0.444444
vt 0.777778 0.444444
vt 0.666667 0.555556
vt 0.666667 0.666667
vt 0.777778 0.555556
vt 0.666667 0.777778
vt 0.555556 0.000000
vt 0.555556 0.111111
vt 0.555556 0.222222
vt 0.555556 0.333333
vt 0.555556 0.444444
vt 0.555556 0.555556
vt 0.555556 0.666667
vt 0.555556 0.777778
vt 0.444444 0.333333
vt 0.444444 0.444444
vt 0.444444 0.555556
vt 0.444444 0.666667
vt 0.333333 0.444444
vt 0.333333 0.555556
vt 0.222222 0.000000
vt 0.222222 0.111111
vt 0.333333 0.111111
vt 0.333333 0.000000
vt 0.222222 0.222222
vt 0.333333 0.222222
vt 0.222222 0.333333
vt 0.333333 0.333333
vt 0.222222 0.444444
vt 0.222222 0.555556
vt 0.222222 0.666667
vt 0.333333 0.666667
vt 0.222222 0.777778
vt 0.333333 0.777778
vt 0.111111 0.000000
vt 0.111111 0.111111
vt 0.111111 0.222222
vt 0.111111 0.333333
vt 0.111111 0.444444
vt 0.111111 0.555556
vt 0.111111 0.666667
vt 0.111111 0.777778
s 0
f 22/1/1 14/2/1 13/3/1 30/4/1
f 30/4/1 13/3/1 12/5/1 38/6/1
f 50/7/1 11/8/1 10/9/1 58/10/1
f 58/10/1 10/9/1 9/11/1 66/12/1
f 66/12/1 9/11/1 8/13/1 72/14/1
f 6/15/1 59/16/1 67/17/1 7/18/1
f 59/16/1 60/19/1 68/20/1 67/17/1
f 60/19/1 61/21/1 69/22/1 68/20/1
f 64/23/1 65/24/1 71/25/1 70/26/1
f 65/24/1 66/12/1 72/14/1 71/25/1
f 5/27/1 51/28/1 59/16/1 6/15/1
f 51/28/1 52/29/1 60/19/1 59/16/1
f 52/29/1 53/30/1 61/21/1 60/19/1
f 53/30/1 54/31/1 62/32/1 61/21/1
f 55/33/1 56/34/1 64/23/1 63/35/1
f 56/34/1 57/36/1 65/24/1 64/23/1
f 57/36/1 58/10/1 66/12/1 65/24/1
f 4/37/1 43/38/1 51/28/1 5/27/1
f 43/38/1 44/39/1 52/29/1 51/28/1
f 44/39/1 45/40/1 53/30/1 52/29/1
f 45/40/1 46/41/1 54/31/1 53/30/1
f 47/42/1 48/43/1 56/34/1 55/33/1
f 48/43/1 49/44/1 57/36/1 56/34/1
f 49/44/1 50/7/1 58/10/1 57/36/1
f 39/45/1 40/46/1 46/41/1 45/40/1
f 40/46/1 41/47/1 47/42/1 46/41/1
f 41/47/1 42/48/1 48/43/1 47/42/1
f 34/49/1 35/50/1 41/47/1 40/46/1
f 2/51/1 23/52/1 31/53/1 3/54/1
f 23/52/1 24/55/1 32/56/1 31/53/1
f 24/55/1 25/57/1 33/58/1 32/56/1
f 25/57/1 26/59/1 34/49/1 33/58/1
f 26/59/1 27/60/1 35/50/1 34/49/1
f 27/60/1 28/61/1 36/62/1 35/50/1
f 28/61/1 29/63/1 37/64/1 36/62/1
f 29/63/1 30/4/1 38/6/1 37/64/1
f 1/65/1 15/66/1 23/52/1 2/51/1
f 15/66/1 16/67/1 24/55/1 23/52/1
f 16/67/1 17/68/1 25/57/1 24/55/1
f 17/68/1 18/69/1 26/59/1 25/57/1
f 18/69/1 19/70/1 27/60/1 26/59/1
f 19/70/1 20/71/1 28/61/1 27/60/1
f 20/71/1 21/72/1 29/63/1 28/61/1
f 21/72/1 22/1/1 30/4/1 29/63/1
f 87/1/2 88/4/2 85/3/2 86/2/2
f 88/4/2 89/6/2 84/5/2 85/3/2
f 90/7/2 91/10/2 82/9/2 83/8/2
f 91/10/2 92/12/2 81/11/2 82/9/2
f 92/12/2 93/14/2 80/13/2 81/11/2
f 78/15/2 79/18/2 140/17/2 133/16/2
f 133/16/2 140/17/2 141/20/2 134/19/2
f 134/19/2 141/20/2 142/22/2 135/21/2
f 138/23/2 143/26/2 144/25/2 139/24/2
f 139/24/2 144/25/2 93/14/2 92/12/2
f 77/27/2 78/15/2 133/16/2 126/28/2
f 126/28/2 133/16/2 134/19/2 127/29/2
f 127/29/2 134/19/2 135/21/2 128/30/2
f 128/30/2 135/21/2 136/32/2 129/31/2
f 130/33/2 137/35/2 138/23/2 131/34/2
f 131/34/2 138/23/2 139/24/2 132/36/2
f 132/36/2 139/24/2 92/12/2 91/10/2
f 76/37/2 77/27/2 126/28/2 119/38/2
f 119/38/2 126/28/2 127/29/2 120/39/2
f 120/39/2 127/29/2 128/30/2 121/40/2
f 121/40/2 128/30/2 129/31/2 122/41/2
f 123/42/2 130/33/2 131/34/2 124/43/2
f 124/43/2 131/34/2 132/36/2 125/44/2
f 125/44/2 132/36/2 91/10/2 90/7/2
f 115/45/2 121/40/2 122/41/2 116/46/2
f 116/46/2 122/41/2 123/42/2 117/47/2
f 117/47/2 123/42/2 124/43/2 118/48/2
f 111/49/2 116/46/2 117/47/2 112/50/2
f 74/51/2 75/54/2 108/53/2 101/52/2
f 101/52/2 108/53/2 109/56/2 102/55/2
f 102/55/2 109/56/2 110/58/2 103/57/2
f 103/57/2 110/58/2 111/49/2 104/59/2
f 104/59/2 111/49/2 112/50/2 105/60/2
f 105/60/2 112/50/2 113/62/2 106/61/2
f 106/61/2 113/62/2 114/64/2 107/63/2
f 107/63/2 114/64/2 89/6/2 88/4/2
f 73/65/2 74/51/2 101/52/2 94/66/2
f 94/66/2 101/52/2 102/55/2 95/67/2
f 95/67/2 102/55/2 103/57/2 96/68/2
f 96/68/2 103/57/2 104/59/2 97/69/2
f 97/69/2 104/59/2 105/60/2 98/70/2
f 98/70/2 105/60/2 106/61/2 99/71/2
f 99/71/2 106/61/2 107/63/2 100/72/2
f 100/72/2 107/63/2 88/4/2 87/1/2
f 36/62/3 37/64/3 114/64/3 113/62/3
f 11/8/4 50/7/4 90/7/4 83/8/4
f 7/18/3 67/17/3 140/17/3 79/18/3
f 37/64/3 38/6/3 89/6/3 114/64/3
f 39/45/5 45/40/5 121/40/5 115/45/5
f 67/17/3 68/20/3 141/20/3 140/17/3
f 40/46/4 39/45/4 115/45/4 116/46/4
f 68/20/3 69/22/3 142/22/3 141/20/3
f 72/14/3 8/13/3 80/13/3 93/14/3
f 70/26/3 71/25/3 144/25/3 143/26/3
f 42/48/4 41/47/4 117/47/4 118/48/4
f 15/66/4 1/65/4 73/65/4 94/66/4
f 48/43/6 42/48/6 118/48/6 124/43/6
f 71/25/3 72/14/3 93/14/3 144/25/3
f 43/38/4 4/37/4 76/37/4 119/38/4
f 16/67/4 15/66/4 94/66/4 95/67/4
f 34/49/5 40/46/5 116/46/5 111/49/5
f 44/39/4 43/38/4 119/38/4 120/39/4
f 17/68/4 16/67/4 95/67/4 96/68/4
f 41/47/6 35/50/6 112/50/6 117/47/6
f 45/40/4 44/39/4 120/39/4 121/40/4
f 18/69/4 17/68/4 96/68/4 97/69/4
f 69/22/6 61/21/6 135/21/6 142/22/6
f 19/70/4 18/69/4 97/69/4 98/70/4
f 64/23/5 70/26/5 143/26/5 138/23/5
f 46/41/3 47/42/3 123/42/3 122/41/3
f 20/71/4 19/70/4 98/70/4 99/71/4
f 21/72/4 20/71/4 99/71/4 100/72/4
f 49/44/4 48/43/4 124/43/4 125/44/4
f 22/1/4 21/72/4 100/72/4 87/1/4
f 50/7/4 49/44/4 125/44/4 90/7/4
f 1/65/5 2/51/5 74/51/5 73/65/5
f 2/51/5 3/54/5 75/54/5 74/51/5
f 62/32/6 54/31/6 129/31/6 136/32/6
f 4/37/5 5/27/5 77/27/5 76/37/5
f 55/33/5 63/35/5 137/35/5 130/33/5
f 5/27/5 6/15/5 78/15/5 77/27/5
f 6/15/5 7/18/5 79/18/5 78/15/5
f 8/13/6 9/11/6 81/11/6 80/13/6
f 9/11/6 10/9/6 82/9/6 81/11/6
f 3/54/3 31/53/3 108/53/3 75/54/3
f 10/9/6 11/8/6 83/8/6 82/9/6
f 31/53/3 32/56/3 109/56/3 108/53/3
f 12/5/6 13/3/6 85/3/6 84/5/6
f 32/56/3 33/58/3 110/58/3 109/56/3
f 13/3/6 14/2/6 86/2/6 85/3/6
f 54/31/6 46/41/6 122/41/6 129/31/6
f 61/21/3 62/32/3 136/32/3 135/21/3
f 33/58/3 34/49/3 111/49/3 110/58/3
f 14/2/4 22/1/4 87/1/4 86/2/4
f 47/42/5 55/33/5 130/33/5 123/42/5
f 63/35/3 64/23/3 138/23/3 137/35/3
f 35/50/3 36/62/3 113/62/3 112/50/3
f 38/6/3 12/5/3 84/5/3 89/6/3
