# Blender 5.0.0
# www.blender.org
mtllib L.mtl
o Plane.011
v 0.777777 -1.000000 -0.000000
v 0.555555 -1.000000 -0.000000
v 0.333333 -1.000000 0.000000
v 0.111111 -1.000000 0.000000
v -0.111111 -1.000000 0.000000
v -0.333334 -1.000000 0.000000
v -0.555556 -1.000000 0.000000
v -0.777778 -1.000000 0.000000
v 0.333334 1.000000 -0.000000
v 0.555556 1.000000 -0.000000
v 0.777778 1.000000 -0.000000
v 0.777778 -0.777778 -0.000000
v 0.777778 -0.555556 -0.000000
v 0.777778 -0.333334 -0.000000
v 0.777778 -0.111111 -0.000000
v 0.777778 0.111111 -0.000000
v 0.777778 0.333333 -0.000000
v 0.777778 0.555555 -0.000000
v 0.777778 0.777778 -0.000000
v 0.555555 -0.777778 -0.000000
v 0.555555 -0.555556 -0.000000
v 0.555555 -0.333334 -0.000000
v 0.555556 -0.111111 -0.000000
v 0.555556 0.111111 -0.000000
v 0.555556 0.333333 -0.000000
v 0.555556 0.555555 -0.000000
v 0.555556 0.777778 -0.000000
v 0.333333 -0.777778 0.000000
v 0.333333 -0.555556 -0.000000
v 0.333333 -0.333333 -0.000000
v 0.333333 -0.111111 -0.000000
v 0.333333 0.111111 -0.000000
v 0.333333 0.333333 -0.000000
v 0.333334 0.555555 -0.000000
v 0.333334 0.777778 -0.000000
v 0.111111 -0.777778 0.000000
v -0.111111 -0.777778 0.000000
v -0.333334 -0.777778 0.000000
v -0.555556 -0.777778 0.000000
v -0.777778 -0.777778 0.000000
v 0.777777 -1.000000 -0.504286
v 0.555555 -1.000000 -0.504286
v 0.333333 -1.000000 -0.504286
v 0.111111 -1.000000 -0.504286
v -0.111112 -1.000000 -0.504286
v -0.333334 -1.000000 -0.504286
v -0.555556 -1.000000 -0.504285
v -0.777778 -1.000000 -0.504285
v 0.333334 1.000000 -0.504286
v 0.555556 1.000000 -0.504286
v 0.777778 1.000000 -0.504286
v 0.777778 0.777778 -0.504286
v 0.555556 0.777778 -0.504286
v 0.333334 0.777778 -0.504286
v 0.777777 -0.777778 -0.504286
v 0.777778 -0.555556 -0.504286
v 0.777778 -0.333334 -0.504286
v 0.777778 -0.111111 -0.504286
v 0.777778 0.111111 -0.504286
v 0.777778 0.333333 -0.504286
v 0.777778 0.555555 -0.504286
v 0.555555 -0.777778 -0.504286
v 0.555555 -0.555556 -0.504286
v 0.555555 -0.333334 -0.504286
v 0.555555 -0.111111 -0.504286
v 0.555556 0.111111 -0.504286
v 0.555556 0.333333 -0.504286
v 0.555556 0.555555 -0.504286
v 0.333333 -0.777778 -0.504286
v 0.333333 -0.555556 -0.504286
v 0.333333 -0.333333 -0.504286
v 0.333333 -0.111111 -0.504286
v 0.333333 0.111111 -0.504286
v 0.333333 0.333333 -0.504286
v 0.333333 0.555555 -0.504286
v 0.111111 -0.777778 -0.504286
v -0.111111 -0.777778 -0.504286
v -0.333334 -0.777778 -0.504286
v -0.555556 -0.777778 -0.504286
v -0.777778 -0.777778 -0.504285
vn -0.0000 -0.0000 1.0000
vn -0.0000 -0.0000 -1.0000
vn -0.0000 -1.0000 -0.0000
vn -1.0000 -0.0000 -0.0000
vn 1.0000 -0.0000 -0.0000
vn -0.0000 1.0000 -0.0000
vt 0.111111 0.888889
vt 0.111111 1.000000
vt 0.222222 1.000000
vt 0.222222 0.888889
vt 0.333333 1.000000
vt 0.333333 0.888889
vt 0.777778 0.000000
vt 0.777778 0.111111
vt 0.888889 0.111111
vt 0.888889 0.000000
vt 0.666667 0.000000
vt 0.666667 0.111111
vt 0.555556 0.000000
vt 0.555556 0.111111
vt 0.444444 0.000000
vt 0.444444 0.111111
vt 0.333333 0.000000
vt 0.333333 0.111111
vt 0.222222 0.000000
vt 0.222222 0.111111
vt 0.222222 0.222222
vt 0.333333 0.222222
vt 0.222222 0.333333
vt 0.333333 0.333333
vt 0.222222 0.444444
vt 0.333333 0.444444
vt 0.222222 0.555556
vt 0.333333 0.555556
vt 0.222222 0.666667
vt 0.333333 0.666667
vt 0.222222 0.777778
vt 0.333333 0.777778
vt 0.111111 0.000000
vt 0.111111 0.111111
vt 0.111111 0.222222
vt 0.111111 0.333333
vt 0.111111 0.444444
vt 0.111111 0.555556
vt 0.111111 0.666667
vt 0.111111 0.777778
s 0
f 19/1/1 11/2/1 10/3/1 27/4/1
f 27/4/1 10/3/1 9/5/1 35/6/1
f 7/7/1 39/8/1 40/9/1 8/10/1
f 6/11/1 38/12/1 39/8/1 7/7/1
f 5/13/1 37/14/1 38/12/1 6/11/1
f 4/15/1 36/16/1 37/14/1 5/13/1
f 3/17/1 28/18/1 36/16/1 4/15/1
f 2/19/1 20/20/1 28/18/1 3/17/1
f 20/20/1 21/21/1 29/22/1 28/18/1
f 21/21/1 22/23/1 30/24/1 29/22/1
f 22/23/1 23/25/1 31/26/1 30/24/1
f 23/25/1 24/27/1 32/28/1 31/26/1
f 24/27/1 25/29/1 33/30/1 32/28/1
f 25/29/1 26/31/1 34/32/1 33/30/1
f 26/31/1 27/4/1 35/6/1 34/32/1
f 1/33/1 12/34/1 20/20/1 2/19/1
f 12/34/1 13/35/1 21/21/1 20/20/1
f 13/35/1 14/36/1 22/23/1 21/21/1
f 14/36/1 15/37/1 23/25/1 22/23/1
f 15/37/1 16/38/1 24/27/1 23/25/1
f 16/38/1 17/39/1 25/29/1 24/27/1
f 17/39/1 18/40/1 26/31/1 25/29/1
f 18/40/1 19/1/1 27/4/1 26/31/1
f 52/1/2 53/4/2 50/3/2 51/2/2
f 53/4/2 54/6/2 49/5/2 50/3/2
f 47/7/2 48/10/2 80/9/2 79/8/2
f 46/11/2 47/7/2 79/8/2 78/12/2
f 45/13/2 46/11/2 78/12/2 77/14/2
f 44/15/2 45/13/2 77/14/2 76/16/2
f 43/17/2 44/15/2 76/16/2 69/18/2
f 42/19/2 43/17/2 69/18/2 62/20/2
f 62/20/2 69/18/2 70/22/2 63/21/2
f 63/21/2 70/22/2 71/24/2 64/23/2
f 64/23/2 71/24/2 72/26/2 65/25/2
f 65/25/2 72/26/2 73/28/2 66/27/2
f 66/27/2 73/28/2 74/30/2 67/29/2
f 67/29/2 74/30/2 75/32/2 68/31/2
f 68/31/2 75/32/2 54/6/2 53/4/2
f 41/33/2 42/19/2 62/20/2 55/34/2
f 55/34/2 62/20/2 63/21/2 56/35/2
f 56/35/2 63/21/2 64/23/2 57/36/2
f 57/36/2 64/23/2 65/25/2 58/37/2
f 58/37/2 65/25/2 66/27/2 59/38/2
f 59/38/2 66/27/2 67/29/2 60/39/2
f 60/39/2 67/29/2 68/31/2 61/40/2
f 61/40/2 68/31/2 53/4/2 52/1/2
f 4/15/3 5/13/3 45/13/3 44/15/3
f 29/22/4 30/24/4 71/24/4 70/22/4
f 17/39/5 16/38/5 59/38/5 60/39/5
f 37/14/6 36/16/6 76/16/6 77/14/6
f 5/13/3 6/11/3 46/11/3 45/13/3
f 30/24/4 31/26/4 72/26/4 71/24/4
f 18/40/5 17/39/5 60/39/5 61/40/5
f 36/16/6 28/18/6 69/18/6 76/16/6
f 6/11/3 7/7/3 47/7/3 46/11/3
f 31/26/4 32/28/4 73/28/4 72/26/4
f 19/1/5 18/40/5 61/40/5 52/1/5
f 7/7/3 8/10/3 48/10/3 47/7/3
f 32/28/4 33/30/4 74/30/4 73/28/4
f 9/5/6 10/3/6 50/3/6 49/5/6
f 33/30/4 34/32/4 75/32/4 74/30/4
f 10/3/6 11/2/6 51/2/6 50/3/6
f 34/32/4 35/6/4 54/6/4 75/32/4
f 11/2/5 19/1/5 52/1/5 51/2/5
f 35/6/4 9/5/4 49/5/4 54/6/4
f 12/34/5 1/33/5 41/33/5 55/34/5
f 13/35/5 12/34/5 55/34/5 56/35/5
f 8/10/4 40/9/4 80/9/4 48/10/4
f 1/33/3 2/19/3 42/19/3 41/33/3
f 14/36/5 13/35/5 56/35/5 57/36/5
f 40/9/6 39/8/6 79/8/6 80/9/6
f 2/19/3 3/17/3 43/17/3 42/19/3
f 15/37/5 14/36/5 57/36/5 58/37/5
f 39/8/6 38/12/6 78/12/6 79/8/6
f 3/17/3 4/15/3 44/15/3 43/17/3
f 28/18/4 29/22/4 70/22/4 69/18/4
f 16/38/5 15/37/5 58/37/5 59/38/5
f 38/12/6 37/14/6 77/14/6 78/12/6
