# Blender 5.0.0
# www.blender.org
mtllib M.mtl
o Plane.012
v 1.000000 -1.000000 -0.000000
v 1.000000 1.000000 -0.000000
v 0.777777 -1.000000 -0.000000
v 0.555555 -1.000000 -0.000000
v -0.555556 -1.000000 0.000000
v -0.777778 -1.000000 0.000000
v -0.777777 1.000000 0.000000
v -0.555555 1.000000 0.000000
v 0.555556 1.000000 -0.000000
v 0.777778 1.000000 -0.000000
v 1.000000 0.777777 -0.000000
v 1.000000 0.555555 -0.000000
v 1.000000 0.333333 -0.000000
v 1.000000 0.111111 -0.000000
v 1.000000 -0.111111 -0.000000
v 1.000000 -0.333334 -0.000000
v 1.000000 -0.555556 -0.000000
v 1.000000 -0.777778 -0.000000
v 0.777778 -0.777778 -0.000000
v 0.777778 -0.555556 -0.000000
v 0.777778 -0.333334 -0.000000
v 0.777778 -0.111111 -0.000000
v 0.777778 0.111111 -0.000000
v 0.777778 0.333333 -0.000000
v 0.777778 0.555555 -0.000000
v 0.777778 0.777778 -0.000000
v 0.555555 -0.777778 -0.000000
v 0.555555 -0.555556 -0.000000
v 0.555555 -0.333334 -0.000000
v 0.555556 -0.111111 -0.000000
v 0.555556 0.111111 -0.000000
v 0.555556 0.333333 -0.000000
v 0.555556 0.555555 -0.000000
v 0.555556 0.777778 -0.000000
v 0.333333 -0.111111 -0.000000
v 0.333333 0.111111 -0.000000
v 0.333333 0.333333 -0.000000
v 0.333334 0.555555 -0.000000
v 0.333334 0.777778 -0.000000
v 0.111111 -0.111111 -0.000000
v 0.111111 0.111111 -0.000000
v 0.111111 0.333333 -0.000000
v 0.111111 0.555556 -0.000000
v -0.111111 -0.111111 0.000000
v -0.111111 0.111111 0.000000
v -0.111111 0.333333 -0.000000
v -0.111111 0.555556 -0.000000
v -0.333333 -0.111111 0.000000
v -0.333333 0.111111 0.000000
v -0.333333 0.333333 0.000000
v -0.333333 0.555556 0.000000
v -0.333333 0.777778 -0.000000
v -0.555556 -0.777778 0.000000
v -0.555556 -0.555555 0.000000
v -0.555556 -0.333333 0.000000
v -0.555556 -0.111111 0.000000
v -0.555556 0.111111 0.000000
v -0.555555 0.333334 0.000000
v -0.555555 0.555556 0.000000
v -0.555555 0.777778 0.000000
v -0.777778 -0.777778 0.000000
v -0.777778 -0.555555 0.000000
v -0.777778 -0.333333 0.000000
v -0.777778 -0.111111 0.000000
v -0.777778 0.111111 0.000000
v -0.777778 0.333334 0.000000
v -0.777778 0.555556 0.000000
v -0.777778 0.777778 0.000000
v 1.000000 -0.777778 -0.504286
v 1.000000 -1.000000 -0.504286
v 0.777778 1.000000 -0.504286
v 1.000000 1.000000 -0.504286
v 0.777777 -1.000000 -0.504286
v 0.555555 -1.000000 -0.504286
v -0.555556 -1.000000 -0.504285
v -0.777778 -1.000000 -0.504285
v -0.777778 1.000000 -0.504286
v -0.555555 1.000000 -0.504286
v 0.555556 1.000000 -0.504286
v 0.777778 0.777778 -0.504286
v 0.555556 0.777778 -0.504286
v -0.555555 0.777778 -0.504286
v -0.777778 0.777778 -0.504285
v 1.000000 0.777777 -0.504286
v 1.000000 0.555555 -0.504286
v 1.000000 0.333333 -0.504286
v 1.000000 0.111111 -0.504286
v 1.000000 -0.111111 -0.504286
v 1.000000 -0.333334 -0.504286
v 1.000000 -0.555556 -0.504286
v 0.777777 -0.777778 -0.504286
v 0.777778 -0.555556 -0.504286
v 0.777778 -0.333334 -0.504286
v 0.777778 -0.111111 -0.504286
v 0.777778 0.111111 -0.504286
v 0.777778 0.333333 -0.504286
v 0.777778 0.555555 -0.504286
v 0.555555 -0.777778 -0.504286
v 0.555555 -0.555556 -0.504286
v 0.555555 -0.333334 -0.504286
v 0.555555 -0.111111 -0.504286
v 0.555556 0.111111 -0.504286
v 0.555556 0.333333 -0.504286
v 0.555556 0.555555 -0.504286
v 0.333333 -0.111111 -0.504286
v 0.333333 0.111111 -0.504286
v 0.333333 0.333333 -0.504286
v 0.333333 0.555555 -0.504286
v 0.333334 0.777778 -0.504286
v 0.111111 -0.111111 -0.504286
v 0.111111 0.111111 -0.504286
v 0.111111 0.333333 -0.504286
v 0.111111 0.555556 -0.504286
v -0.111111 -0.111111 -0.504286
v -0.111111 0.111111 -0.504286
v -0.111111 0.333333 -0.504286
v -0.111111 0.555556 -0.504286
v -0.333333 -0.111111 -0.504285
v -0.333333 0.111111 -0.504286
v -0.333333 0.333333 -0.504286
v -0.333333 0.555556 -0.504286
v -0.333333 0.777778 -0.504286
v -0.555556 -0.777778 -0.504285
v -0.555556 -0.555555 -0.504285
v -0.555556 -0.333333 -0.504285
v -0.555556 -0.111111 -0.504285
v -0.555556 0.111111 -0.504285
v -0.555556 0.333333 -0.504285
v -0.555555 0.555556 -0.504286
v -0.777778 -0.777778 -0.504285
v -0.777778 -0.555555 -0.504285
v -0.777778 -0.333333 -0.504285
v -0.777778 -0.111111 -0.504285
v -0.777778 0.111111 -0.504285
v -0.777778 0.333334 -0.504285
v -0.777778 0.555556 -0.504285
vn -0.0000 -0.0000 1.0000
vn -0.0000 -0.0000 -1.0000
vn -0.0000 1.0000 -0.0000
vn 1.0000 -0.0000 -0.0000
vn -1.0000 -0.0000 -0.0000
vn -0.0000 -1.0000 -0.0000
vt 0.000000 0.888889
vt 0.000000 1.000000
vt 0.111111 1.000000
vt 0.111111 0.888889
vt 0.222222 1.000000
vt 0.222222 0.888889
vt 0.777778 0.888889
vt 0.777778 1.000000
vt 0.888889 1.000000
vt 0.888889 0.888889
vt 0.777778 0.000000
vt 0.777778 0.111111
vt 0.888889 0.111111
vt 0.888889 0.000000
vt 0.777778 0.222222
vt 0.888889 0.222222
vt 0.777778 0.333333
vt 0.888889 0.333333
vt 0.777778 0.444444
vt 0.888889 0.444444
vt 0.777778 0.555556
vt 0.888889 0.555556
vt 0.777778 0.666667
vt 0.888889 0.666667
vt 0.777778 0.777778
vt 0.888889 0.777778
vt 0.666667 0.555556
vt 0.666667 0.666667
vt 0.666667 0.777778
vt 0.666667 0.888889
vt 0.555556 0.444444
vt 0.555556 0.555556
vt 0.666667 0.444444
vt 0.555556 0.666667
vt 0.555556 0.777778
vt 0.444444 0.444444
vt 0.444444 0.555556
vt 0.444444 0.666667
vt 0.333333 0.444444
vt 0.333333 0.555556
vt 0.333333 0.666667
vt 0.333333 0.777778
vt 0.444444 0.777778
vt 0.222222 0.555556
vt 0.222222 0.666667
vt 0.222222 0.777778
vt 0.333333 0.888889
vt 0.111111 0.000000
vt 0.111111 0.111111
vt 0.222222 0.111111
vt 0.222222 0.000000
vt 0.111111 0.222222
vt 0.222222 0.222222
vt 0.111111 0.333333
vt 0.222222 0.333333
vt 0.111111 0.444444
vt 0.222222 0.444444
vt 0.111111 0.555556
vt 0.111111 0.666667
vt 0.111111 0.777778
vt 0.000000 0.000000
vt 0.000000 0.111111
vt 0.000000 0.222222
vt 0.000000 0.333333
vt 0.000000 0.444444
vt 0.000000 0.555556
vt 0.000000 0.666667
vt 0.000000 0.777778
s 0
f 11/1/1 2/2/1 10/3/1 26/4/1
f 26/4/1 10/3/1 9/5/1 34/6/1
f 60/7/1 8/8/1 7/9/1 68/10/1
f 5/11/1 53/12/1 61/13/1 6/14/1
f 53/12/1 54/15/1 62/16/1 61/13/1
f 54/15/1 55/17/1 63/18/1 62/16/1
f 55/17/1 56/19/1 64/20/1 63/18/1
f 56/19/1 57/21/1 65/22/1 64/20/1
f 57/21/1 58/23/1 66/24/1 65/22/1
f 58/23/1 59/25/1 67/26/1 66/24/1
f 59/25/1 60/7/1 68/10/1 67/26/1
f 49/27/1 50/28/1 58/23/1 57/21/1
f 50/28/1 51/29/1 59/25/1 58/23/1
f 51/29/1 52/30/1 60/7/1 59/25/1
f 44/31/1 45/32/1 49/27/1 48/33/1
f 45/32/1 46/34/1 50/28/1 49/27/1
f 46/34/1 47/35/1 51/29/1 50/28/1
f 40/36/1 41/37/1 45/32/1 44/31/1
f 41/37/1 42/38/1 46/34/1 45/32/1
f 35/39/1 36/40/1 41/37/1 40/36/1
f 36/40/1 37/41/1 42/38/1 41/37/1
f 37/41/1 38/42/1 43/43/1 42/38/1
f 31/44/1 32/45/1 37/41/1 36/40/1
f 32/45/1 33/46/1 38/42/1 37/41/1
f 33/46/1 34/6/1 39/47/1 38/42/1
f 3/48/1 19/49/1 27/50/1 4/51/1
f 19/49/1 20/52/1 28/53/1 27/50/1
f 20/52/1 21/54/1 29/55/1 28/53/1
f 21/54/1 22/56/1 30/57/1 29/55/1
f 22/56/1 23/58/1 31/44/1 30/57/1
f 23/58/1 24/59/1 32/45/1 31/44/1
f 24/59/1 25/60/1 33/46/1 32/45/1
f 25/60/1 26/4/1 34/6/1 33/46/1
f 1/61/1 18/62/1 19/49/1 3/48/1
f 18/62/1 17/63/1 20/52/1 19/49/1
f 17/63/1 16/64/1 21/54/1 20/52/1
f 16/64/1 15/65/1 22/56/1 21/54/1
f 15/65/1 14/66/1 23/58/1 22/56/1
f 14/66/1 13/67/1 24/59/1 23/58/1
f 13/67/1 12/68/1 25/60/1 24/59/1
f 12/68/1 11/1/1 26/4/1 25/60/1
f 84/1/2 80/4/2 71/3/2 72/2/2
f 80/4/2 81/6/2 79/5/2 71/3/2
f 82/7/2 83/10/2 77/9/2 78/8/2
f 75/11/2 76/14/2 130/13/2 123/12/2
f 123/12/2 130/13/2 131/16/2 124/15/2
f 124/15/2 131/16/2 132/18/2 125/17/2
f 125/17/2 132/18/2 133/20/2 126/19/2
f 126/19/2 133/20/2 134/22/2 127/21/2
f 127/21/2 134/22/2 135/24/2 128/23/2
f 128/23/2 135/24/2 136/26/2 129/25/2
f 129/25/2 136/26/2 83/10/2 82/7/2
f 119/27/2 127/21/2 128/23/2 120/28/2
f 120/28/2 128/23/2 129/25/2 121/29/2
f 121/29/2 129/25/2 82/7/2 122/30/2
f 114/31/2 118/33/2 119/27/2 115/32/2
f 115/32/2 119/27/2 120/28/2 116/34/2
f 116/34/2 120/28/2 121/29/2 117/35/2
f 110/36/2 114/31/2 115/32/2 111/37/2
f 111/37/2 115/32/2 116/34/2 112/38/2
f 105/39/2 110/36/2 111/37/2 106/40/2
f 106/40/2 111/37/2 112/38/2 107/41/2
f 107/41/2 112/38/2 113/43/2 108/42/2
f 102/44/2 106/40/2 107/41/2 103/45/2
f 103/45/2 107/41/2 108/42/2 104/46/2
f 104/46/2 108/42/2 109/47/2 81/6/2
f 73/48/2 74/51/2 98/50/2 91/49/2
f 91/49/2 98/50/2 99/53/2 92/52/2
f 92/52/2 99/53/2 100/55/2 93/54/2
f 93/54/2 100/55/2 101/57/2 94/56/2
f 94/56/2 101/57/2 102/44/2 95/58/2
f 95/58/2 102/44/2 103/45/2 96/59/2
f 96/59/2 103/45/2 104/46/2 97/60/2
f 97/60/2 104/46/2 81/6/2 80/4/2
f 70/61/2 73/48/2 91/49/2 69/62/2
f 69/62/2 91/49/2 92/52/2 90/63/2
f 90/63/2 92/52/2 93/54/2 89/64/2
f 89/64/2 93/54/2 94/56/2 88/65/2
f 88/65/2 94/56/2 95/58/2 87/66/2
f 87/66/2 95/58/2 96/59/2 86/67/2
f 86/67/2 96/59/2 97/60/2 85/68/2
f 85/68/2 97/60/2 80/4/2 84/1/2
f 39/47/3 34/6/3 81/6/3 109/47/3
f 12/68/4 13/67/4 86/67/4 85/68/4
f 13/67/4 14/66/4 87/66/4 86/67/4
f 42/38/5 43/43/5 113/43/5 112/38/5
f 14/66/4 15/65/4 88/65/4 87/66/4
f 15/65/4 16/64/4 89/64/4 88/65/4
f 16/64/4 17/63/4 90/63/4 89/64/4
f 47/35/4 46/34/4 116/34/4 117/35/4
f 17/63/4 18/62/4 69/62/4 90/63/4
f 48/33/5 49/27/5 119/27/5 118/33/5
f 49/27/6 57/21/6 127/21/6 119/27/6
f 52/30/4 51/29/4 121/29/4 122/30/4
f 53/12/4 5/11/4 75/11/4 123/12/4
f 60/7/3 52/30/3 122/30/3 82/7/3
f 54/15/4 53/12/4 123/12/4 124/15/4
f 44/31/6 48/33/6 118/33/6 114/31/6
f 55/17/4 54/15/4 124/15/4 125/17/4
f 56/19/4 55/17/4 125/17/4 126/19/4
f 18/62/4 1/61/4 70/61/4 69/62/4
f 57/21/4 56/19/4 126/19/4 127/21/4
f 4/51/5 27/50/5 98/50/5 74/51/5
f 10/3/3 2/2/3 72/2/3 71/3/3
f 51/29/3 47/35/3 117/35/3 121/29/3
f 27/50/5 28/53/5 99/53/5 98/50/5
f 1/61/6 3/48/6 73/48/6 70/61/6
f 40/36/6 44/31/6 114/31/6 110/36/6
f 28/53/5 29/55/5 100/55/5 99/53/5
f 3/48/6 4/51/6 74/51/6 73/48/6
f 29/55/5 30/57/5 101/57/5 100/55/5
f 5/11/6 6/14/6 76/14/6 75/11/6
f 46/34/3 42/38/3 112/38/3 116/34/3
f 6/14/5 61/13/5 130/13/5 76/14/5
f 30/57/5 31/44/5 102/44/5 101/57/5
f 7/9/3 8/8/3 78/8/3 77/9/3
f 35/39/6 40/36/6 110/36/6 105/39/6
f 61/13/5 62/16/5 131/16/5 130/13/5
f 9/5/3 10/3/3 71/3/3 79/5/3
f 62/16/5 63/18/5 132/18/5 131/16/5
f 63/18/5 64/20/5 133/20/5 132/18/5
f 34/6/5 9/5/5 79/5/5 81/6/5
f 43/43/3 38/42/3 108/42/3 113/43/3
f 64/20/5 65/22/5 134/22/5 133/20/5
f 36/40/4 35/39/4 105/39/4 106/40/4
f 8/8/4 60/7/4 82/7/4 78/8/4
f 31/44/6 36/40/6 106/40/6 102/44/6
f 65/22/5 66/24/5 135/24/5 134/22/5
f 68/10/5 7/9/5 77/9/5 83/10/5
f 66/24/5 67/26/5 136/26/5 135/24/5
f 2/2/4 11/1/4 84/1/4 72/2/4
f 67/26/5 68/10/5 83/10/5 136/26/5
f 38/42/5 39/47/5 109/47/5 108/42/5
f 11/1/4 12/68/4 85/68/4 84/1/4
