# Blender 5.0.0
# www.blender.org
mtllib N.mtl
o Plane.013
v 1.000000 -1.000000 -0.000000
v 1.000000 1.000000 -0.000000
v 0.777777 -1.000000 -0.000000
v 0.555555 -1.000000 -0.000000
v -0.333334 -1.000000 0.000000
v -0.555556 -1.000000 0.000000
v -0.555555 1.000000 0.000000
v -0.333333 1.000000 -0.000000
v 0.555556 1.000000 -0.000000
v 0.777778 1.000000 -0.000000
v 1.000000 0.777777 -0.000000
v 1.000000 0.555555 -0.000000
v 1.000000 0.333333 -0.000000
v 1.000000 0.111111 -0.000000
v 1.000000 -0.111111 -0.000000
v 1.000000 -0.333334 -0.000000
v 1.000000 -0.555556 -0.000000
v 1.000000 -0.777778 -0.000000
v 0.777778 -0.777778 -0.000000
v 0.777778 -0.555556 -0.000000
v 0.777778 -0.333334 -0.000000
v 0.777778 -0.111111 -0.000000
v 0.777778 0.111111 -0.000000
v 0.777778 0.333333 -0.000000
v 0.777778 0.555555 -0.000000
v 0.777778 0.777778 -0.000000
v 0.555555 -0.777778 -0.000000
v 0.555555 -0.555556 -0.000000
v 0.555555 -0.333334 -0.000000
v 0.555556 -0.111111 -0.000000
v 0.555556 0.111111 -0.000000
v 0.555556 0.333333 -0.000000
v 0.555556 0.555555 -0.000000
v 0.555556 0.777778 -0.000000
v 0.333333 -0.111111 -0.000000
v 0.333333 0.111111 -0.000000
v 0.333333 0.333333 -0.000000
v 0.333334 0.555555 -0.000000
v 0.333334 0.777778 -0.000000
v 0.111111 -0.555556 0.000000
v 0.111111 -0.333333 0.000000
v 0.111111 -0.111111 -0.000000
v 0.111111 0.111111 -0.000000
v 0.111111 0.333333 -0.000000
v 0.111111 0.555556 -0.000000
v -0.111111 -0.777778 0.000000
v -0.111111 -0.555556 0.000000
v -0.111111 -0.333333 0.000000
v -0.111111 -0.111111 0.000000
v -0.111111 0.111111 0.000000
v -0.333334 -0.777778 0.000000
v -0.333334 -0.555555 0.000000
v -0.333333 -0.333333 0.000000
v -0.333333 -0.111111 0.000000
v -0.333333 0.111111 0.000000
v -0.333333 0.333333 0.000000
v -0.333333 0.555556 0.000000
v -0.333333 0.777778 -0.000000
v -0.555556 -0.777778 0.000000
v -0.555556 -0.555555 0.000000
v -0.555556 -0.333333 0.000000
v -0.555556 -0.111111 0.000000
v -0.555556 0.111111 0.000000
v -0.555555 0.333334 0.000000
v -0.555555 0.555556 0.000000
v -0.555555 0.777778 0.000000
v 1.000000 -0.777778 -0.504286
v 1.000000 -1.000000 -0.504286
v 0.777778 1.000000 -0.504286
v 1.000000 1.000000 -0.504286
v 0.777777 -1.000000 -0.504286
v 0.555555 -1.000000 -0.504286
v -0.333334 -1.000000 -0.504286
v -0.555556 -1.000000 -0.504285
v -0.555555 1.000000 -0.504286
v -0.333333 1.000000 -0.504286
v 0.555556 1.000000 -0.504286
v 0.777778 0.777778 -0.504286
v 0.555556 0.777778 -0.504286
v -0.333333 0.777778 -0.504286
v -0.555555 0.777778 -0.504286
v 1.000000 0.777777 -0.504286
v 1.000000 0.555555 -0.504286
v 1.000000 0.333333 -0.504286
v 1.000000 0.111111 -0.504286
v 1.000000 -0.111111 -0.504286
v 1.000000 -0.333334 -0.504286
v 1.000000 -0.555556 -0.504286
v 0.777777 -0.777778 -0.504286
v 0.777778 -0.555556 -0.504286
v 0.777778 -0.333334 -0.504286
v 0.777778 -0.111111 -0.504286
v 0.777778 0.111111 -0.504286
v 0.777778 0.333333 -0.504286
v 0.777778 0.555555 -0.504286
v 0.555555 -0.777778 -0.504286
v 0.555555 -0.555556 -0.504286
v 0.555555 -0.333334 -0.504286
v 0.555555 -0.111111 -0.504286
v 0.555556 0.111111 -0.504286
v 0.555556 0.333333 -0.504286
v 0.555556 0.555555 -0.504286
v 0.333333 -0.111111 -0.504286
v 0.333333 0.111111 -0.504286
v 0.333333 0.333333 -0.504286
v 0.333333 0.555555 -0.504286
v 0.333334 0.777778 -0.504286
v 0.111111 -0.555556 -0.504286
v 0.111111 -0.333333 -0.504286
v 0.111111 -0.111111 -0.504286
v 0.111111 0.111111 -0.504286
v 0.111111 0.333333 -0.504286
v 0.111111 0.555556 -0.504286
v -0.111111 -0.777778 -0.504286
v -0.111111 -0.555556 -0.504286
v -0.111111 -0.333333 -0.504286
v -0.111111 -0.111111 -0.504286
v -0.111111 0.111111 -0.504286
v -0.333334 -0.777778 -0.504286
v -0.333334 -0.555555 -0.504286
v -0.333333 -0.333333 -0.504286
v -0.333333 -0.111111 -0.504286
v -0.333333 0.111111 -0.504286
v -0.333333 0.333333 -0.504286
v -0.333333 0.555556 -0.504286
v -0.555556 -0.777778 -0.504286
v -0.555556 -0.555555 -0.504286
v -0.555556 -0.333333 -0.504286
v -0.555556 -0.111111 -0.504286
v -0.555556 0.111111 -0.504286
v -0.555556 0.333333 -0.504286
v -0.555555 0.555556 -0.504286
vn -0.0000 -0.0000 1.0000
vn -0.0000 -0.0000 -1.0000
vn -1.0000 -0.0000 -0.0000
vn 1.0000 -0.0000 -0.0000
vn -0.0000 -1.0000 -0.0000
vn -0.0000 1.0000 -0.0000
vt 0.000000 0.888889
vt 0.000000 1.000000
vt 0.111111 1.000000
vt 0.111111 0.888889
vt 0.222222 1.000000
vt 0.222222 0.888889
vt 0.666667 0.888889
vt 0.666667 1.000000
vt 0.777778 1.000000
vt 0.777778 0.888889
vt 0.666667 0.000000
vt 0.666667 0.111111
vt 0.777778 0.111111
vt 0.777778 0.000000
vt 0.666667 0.222222
vt 0.777778 0.222222
vt 0.666667 0.333333
vt 0.777778 0.333333
vt 0.666667 0.444444
vt 0.777778 0.444444
vt 0.666667 0.555556
vt 0.777778 0.555556
vt 0.666667 0.666667
vt 0.777778 0.666667
vt 0.666667 0.777778
vt 0.777778 0.777778
vt 0.555556 0.111111
vt 0.555556 0.222222
vt 0.555556 0.333333
vt 0.444444 0.222222
vt 0.444444 0.333333
vt 0.444444 0.444444
vt 0.555556 0.444444
vt 0.444444 0.555556
vt 0.555556 0.555556
vt 0.333333 0.444444
vt 0.333333 0.555556
vt 0.333333 0.666667
vt 0.444444 0.666667
vt 0.333333 0.777778
vt 0.444444 0.777778
vt 0.222222 0.666667
vt 0.222222 0.777778
vt 0.333333 0.888889
vt 0.111111 0.000000
vt 0.111111 0.111111
vt 0.222222 0.111111
vt 0.222222 0.000000
vt 0.111111 0.222222
vt 0.222222 0.222222
vt 0.111111 0.333333
vt 0.222222 0.333333
vt 0.111111 0.444444
vt 0.222222 0.444444
vt 0.111111 0.555556
vt 0.222222 0.555556
vt 0.111111 0.666667
vt 0.111111 0.777778
vt 0.000000 0.000000
vt 0.000000 0.111111
vt 0.000000 0.222222
vt 0.000000 0.333333
vt 0.000000 0.444444
vt 0.000000 0.555556
vt 0.000000 0.666667
vt 0.000000 0.777778
s 0
f 11/1/1 2/2/1 10/3/1 26/4/1
f 26/4/1 10/3/1 9/5/1 34/6/1
f 58/7/1 8/8/1 7/9/1 66/10/1
f 5/11/1 51/12/1 59/13/1 6/14/1
f 51/12/1 52/15/1 60/16/1 59/13/1
f 52/15/1 53/17/1 61/18/1 60/16/1
f 53/17/1 54/19/1 62/20/1 61/18/1
f 54/19/1 55/21/1 63/22/1 62/20/1
f 55/21/1 56/23/1 64/24/1 63/22/1
f 56/23/1 57/25/1 65/26/1 64/24/1
f 57/25/1 58/7/1 66/10/1 65/26/1
f 46/27/1 47/28/1 52/15/1 51/12/1
f 47/28/1 48/29/1 53/17/1 52/15/1
f 40/30/1 41/31/1 48/29/1 47/28/1
f 41/31/1 42/32/1 49/33/1 48/29/1
f 42/32/1 43/34/1 50/35/1 49/33/1
f 35/36/1 36/37/1 43/34/1 42/32/1
f 36/37/1 37/38/1 44/39/1 43/34/1
f 37/38/1 38/40/1 45/41/1 44/39/1
f 32/42/1 33/43/1 38/40/1 37/38/1
f 33/43/1 34/6/1 39/44/1 38/40/1
f 3/45/1 19/46/1 27/47/1 4/48/1
f 19/46/1 20/49/1 28/50/1 27/47/1
f 20/49/1 21/51/1 29/52/1 28/50/1
f 21/51/1 22/53/1 30/54/1 29/52/1
f 22/53/1 23/55/1 31/56/1 30/54/1
f 23/55/1 24/57/1 32/42/1 31/56/1
f 24/57/1 25/58/1 33/43/1 32/42/1
f 25/58/1 26/4/1 34/6/1 33/43/1
f 1/59/1 18/60/1 19/46/1 3/45/1
f 18/60/1 17/61/1 20/49/1 19/46/1
f 17/61/1 16/62/1 21/51/1 20/49/1
f 16/62/1 15/63/1 22/53/1 21/51/1
f 15/63/1 14/64/1 23/55/1 22/53/1
f 14/64/1 13/65/1 24/57/1 23/55/1
f 13/65/1 12/66/1 25/58/1 24/57/1
f 12/66/1 11/1/1 26/4/1 25/58/1
f 82/1/2 78/4/2 69/3/2 70/2/2
f 78/4/2 79/6/2 77/5/2 69/3/2
f 80/7/2 81/10/2 75/9/2 76/8/2
f 73/11/2 74/14/2 126/13/2 119/12/2
f 119/12/2 126/13/2 127/16/2 120/15/2
f 120/15/2 127/16/2 128/18/2 121/17/2
f 121/17/2 128/18/2 129/20/2 122/19/2
f 122/19/2 129/20/2 130/22/2 123/21/2
f 123/21/2 130/22/2 131/24/2 124/23/2
f 124/23/2 131/24/2 132/26/2 125/25/2
f 125/25/2 132/26/2 81/10/2 80/7/2
f 114/27/2 119/12/2 120/15/2 115/28/2
f 115/28/2 120/15/2 121/17/2 116/29/2
f 108/30/2 115/28/2 116/29/2 109/31/2
f 109/31/2 116/29/2 117/33/2 110/32/2
f 110/32/2 117/33/2 118/35/2 111/34/2
f 103/36/2 110/32/2 111/34/2 104/37/2
f 104/37/2 111/34/2 112/39/2 105/38/2
f 105/38/2 112/39/2 113/41/2 106/40/2
f 101/42/2 105/38/2 106/40/2 102/43/2
f 102/43/2 106/40/2 107/44/2 79/6/2
f 71/45/2 72/48/2 96/47/2 89/46/2
f 89/46/2 96/47/2 97/50/2 90/49/2
f 90/49/2 97/50/2 98/52/2 91/51/2
f 91/51/2 98/52/2 99/54/2 92/53/2
f 92/53/2 99/54/2 100/56/2 93/55/2
f 93/55/2 100/56/2 101/42/2 94/57/2
f 94/57/2 101/42/2 102/43/2 95/58/2
f 95/58/2 102/43/2 79/6/2 78/4/2
f 68/59/2 71/45/2 89/46/2 67/60/2
f 67/60/2 89/46/2 90/49/2 88/61/2
f 88/61/2 90/49/2 91/51/2 87/62/2
f 87/62/2 91/51/2 92/53/2 86/63/2
f 86/63/2 92/53/2 93/55/2 85/64/2
f 85/64/2 93/55/2 94/57/2 84/65/2
f 84/65/2 94/57/2 95/58/2 83/66/2
f 83/66/2 95/58/2 78/4/2 82/1/2
f 44/39/3 45/41/3 113/41/3 112/39/3
f 16/62/4 17/61/4 88/61/4 87/62/4
f 47/28/4 46/27/4 114/27/4 115/28/4
f 17/61/4 18/60/4 67/60/4 88/61/4
f 46/27/5 51/12/5 119/12/5 114/27/5
f 48/29/3 49/33/3 117/33/3 116/29/3
f 49/33/3 50/35/3 118/35/3 117/33/3
f 53/17/6 48/29/6 116/29/6 121/17/6
f 51/12/4 5/11/4 73/11/4 119/12/4
f 40/30/5 47/28/5 115/28/5 108/30/5
f 54/19/4 53/17/4 121/17/4 122/19/4
f 50/35/6 43/34/6 111/34/6 118/35/6
f 55/21/4 54/19/4 122/19/4 123/21/4
f 18/60/4 1/59/4 68/59/4 67/60/4
f 35/36/5 42/32/5 110/32/5 103/36/5
f 56/23/4 55/21/4 123/21/4 124/23/4
f 4/48/3 27/47/3 96/47/3 72/48/3
f 10/3/6 2/2/6 70/2/6 69/3/6
f 57/25/4 56/23/4 124/23/4 125/25/4
f 27/47/3 28/50/3 97/50/3 96/47/3
f 1/59/5 3/45/5 71/45/5 68/59/5
f 58/7/4 57/25/4 125/25/4 80/7/4
f 28/50/3 29/52/3 98/52/3 97/50/3
f 3/45/5 4/48/5 72/48/5 71/45/5
f 45/41/6 38/40/6 106/40/6 113/41/6
f 6/14/3 59/13/3 126/13/3 74/14/3
f 29/52/3 30/54/3 99/54/3 98/52/3
f 5/11/5 6/14/5 74/14/5 73/11/5
f 32/42/5 37/38/5 105/38/5 101/42/5
f 59/13/3 60/16/3 127/16/3 126/13/3
f 30/54/3 31/56/3 100/56/3 99/54/3
f 7/9/6 8/8/6 76/8/6 75/9/6
f 60/16/3 61/18/3 128/18/3 127/16/3
f 31/56/3 32/42/3 101/42/3 100/56/3
f 9/5/6 10/3/6 69/3/6 77/5/6
f 39/44/6 34/6/6 79/6/6 107/44/6
f 61/18/3 62/20/3 129/20/3 128/18/3
f 62/20/3 63/22/3 130/22/3 129/20/3
f 34/6/3 9/5/3 77/5/3 79/6/3
f 63/22/3 64/24/3 131/24/3 130/22/3
f 36/37/4 35/36/4 103/36/4 104/37/4
f 8/8/4 58/7/4 80/7/4 76/8/4
f 64/24/3 65/26/3 132/26/3 131/24/3
f 37/38/4 36/37/4 104/37/4 105/38/4
f 66/10/3 7/9/3 75/9/3 81/10/3
f 65/26/3 66/10/3 81/10/3 132/26/3
f 2/2/4 11/1/4 82/1/4 70/2/4
f 38/40/3 39/44/3 107/44/3 106/40/3
f 11/1/4 12/66/4 83/66/4 82/1/4
f 41/31/4 40/30/4 108/30/4 109/31/4
f 12/66/4 13/65/4 84/65/4 83/66/4
f 42/32/4 41/31/4 109/31/4 110/32/4
f 13/65/4 14/64/4 85/64/4 84/65/4
f 14/64/4 15/63/4 86/63/4 85/64/4
f 43/34/3 44/39/3 112/39/3 111/34/3
f 15/63/4 16/62/4 87/62/4 86/63/4
