# Blender 5.0.0
# www.blender.org
mtllib O.mtl
o Plane
v -0.555556 1.000000 -0.000000
v -0.333333 1.000000 -0.000000
v -0.111111 1.000000 -0.000000
v 0.111111 1.000000 -0.000000
v 0.333333 1.000000 -0.000000
v 0.555556 1.000000 -0.000000
v 0.555556 -1.000000 0.000000
v 0.333333 -1.000000 0.000000
v 0.111111 -1.000000 0.000000
v -0.111111 -1.000000 0.000000
v -0.333333 -1.000000 0.000000
v -0.555556 -1.000000 0.000000
v -0.777778 0.777778 -0.000000
v -0.777778 0.555556 -0.000000
v -0.777778 0.333333 -0.000000
v -0.777778 0.111111 -0.000000
v -0.777778 -0.111111 0.000000
v -0.777778 -0.333333 0.000000
v -0.777778 -0.555556 0.000000
v -0.777778 -0.777778 0.000000
v -0.555556 0.777778 -0.000000
v -0.555556 0.555556 -0.000000
v -0.555556 0.333333 -0.000000
v -0.555556 0.111111 -0.000000
v -0.555556 -0.111111 0.000000
v -0.555556 -0.333333 0.000000
v -0.555556 -0.555556 0.000000
v -0.555556 -0.777778 0.000000
v -0.333333 0.777778 -0.000000
v -0.333333 0.555556 -0.000000
v -0.333333 0.333333 -0.000000
v -0.333333 0.111111 -0.000000
v -0.333333 -0.111111 0.000000
v -0.333333 -0.333333 0.000000
v -0.333333 -0.555556 0.000000
v -0.333333 -0.777778 0.000000
v -0.111111 0.777778 -0.000000
v -0.111111 -0.777778 0.000000
v 0.111111 0.777778 -0.000000
v 0.111111 -0.777778 0.000000
v 0.333333 0.777778 -0.000000
v 0.333333 0.555556 -0.000000
v 0.333333 0.333333 -0.000000
v 0.333333 0.111111 -0.000000
v 0.333333 -0.111111 0.000000
v 0.333333 -0.333333 0.000000
v 0.333333 -0.555556 0.000000
v 0.333333 -0.777778 0.000000
v 0.555556 0.777778 -0.000000
v 0.555556 0.555556 -0.000000
v 0.555556 0.333333 -0.000000
v 0.555556 0.111111 -0.000000
v 0.555556 -0.111111 0.000000
v 0.555556 -0.333333 0.000000
v 0.555556 -0.555556 0.000000
v 0.555556 -0.777778 0.000000
v 0.777778 0.777778 -0.000000
v 0.777778 0.555556 -0.000000
v 0.777778 0.333333 -0.000000
v 0.777778 0.111111 -0.000000
v 0.777778 -0.111111 0.000000
v 0.777778 -0.333333 0.000000
v 0.777778 -0.555556 0.000000
v 0.777778 -0.777778 0.000000
v -0.555556 1.000000 -0.500000
v -0.333333 1.000000 -0.500000
v -0.111111 1.000000 -0.500000
v 0.111111 1.000000 -0.500000
v 0.333333 1.000000 -0.500000
v 0.555556 1.000000 -0.500000
v 0.555556 -1.000000 -0.500000
v 0.333333 -1.000000 -0.500000
v 0.111111 -1.000000 -0.500000
v -0.111111 -1.000000 -0.500000
v -0.333333 -1.000000 -0.500000
v -0.555556 -1.000000 -0.500000
v -0.555556 -0.777778 -0.500000
v -0.333333 -0.777778 -0.500000
v -0.111111 -0.777778 -0.500000
v 0.111111 -0.777778 -0.500000
v 0.333333 -0.777778 -0.500000
v 0.555556 -0.777778 -0.500000
v -0.777778 0.777778 -0.500000
v -0.777778 0.555556 -0.500000
v -0.777778 0.333333 -0.500000
v -0.777778 0.111111 -0.500000
v -0.777778 -0.111111 -0.500000
v -0.777778 -0.333333 -0.500000
v -0.777778 -0.555556 -0.500000
v -0.777778 -0.777778 -0.500000
v -0.555556 0.777778 -0.500000
v -0.555556 0.555556 -0.500000
v -0.555556 0.333333 -0.500000
v -0.555556 0.111111 -0.500000
v -0.555556 -0.111111 -0.500000
v -0.555556 -0.333333 -0.500000
v -0.555556 -0.555556 -0.500000
v -0.333333 0.777778 -0.500000
v -0.333333 0.555556 -0.500000
v -0.333333 0.333333 -0.500000
v -0.333333 0.111111 -0.500000
v -0.333333 -0.111111 -0.500000
v -0.333333 -0.333333 -0.500000
v -0.333333 -0.555556 -0.500000
v -0.111111 0.777778 -0.500000
v 0.111111 0.777778 -0.500000
v 0.333333 0.777778 -0.500000
v 0.333333 0.555556 -0.500000
v 0.333333 0.333333 -0.500000
v 0.333333 0.111111 -0.500000
v 0.333333 -0.111111 -0.500000
v 0.333333 -0.333333 -0.500000
v 0.333333 -0.555556 -0.500000
v 0.555556 0.777778 -0.500000
v 0.555556 0.555556 -0.500000
v 0.555556 0.333333 -0.500000
v 0.555556 0.111111 -0.500000
v 0.555556 -0.111111 -0.500000
v 0.555556 -0.333333 -0.500000
v 0.555556 -0.555556 -0.500000
v 0.777778 0.777778 -0.500000
v 0.777778 0.555556 -0.500000
v 0.777778 0.333333 -0.500000
v 0.777778 0.111111 -0.500000
v 0.777778 -0.111111 -0.500000
v 0.777778 -0.333333 -0.500000
v 0.777778 -0.555556 -0.500000
v 0.777778 -0.777778 -0.500000
vn -0.0000 -0.0000 1.0000
vn -0.0000 -0.0000 -1.0000
vn 1.0000 -0.0000 -0.0000
vn -0.0000 1.0000 -0.0000
vn -1.0000 -0.0000 -0.0000
vn -0.0000 -1.0000 -0.0000
vt 0.222222 0.888889
vt 0.222222 1.000000
vt 0.333333 1.000000
vt 0.333333 0.888889
vt 0.444444 1.000000
vt 0.444444 0.888889
vt 0.555556 1.000000
vt 0.555556 0.888889
vt 0.666667 1.000000
vt 0.666667 0.888889
vt 0.777778 1.000000
vt 0.777778 0.888889
vt 0.777778 0.111111
vt 0.777778 0.222222
vt 0.888889 0.222222
vt 0.888889 0.111111
vt 0.777778 0.333333
vt 0.888889 0.333333
vt 0.777778 0.444444
vt 0.888889 0.444444
vt 0.777778 0.555556
vt 0.888889 0.555556
vt 0.777778 0.666667
vt 0.888889 0.666667
vt 0.777778 0.777778
vt 0.888889 0.777778
vt 0.888889 0.888889
vt 0.666667 0.000000
vt 0.666667 0.111111
vt 0.777778 0.000000
vt 0.666667 0.222222
vt 0.666667 0.333333
vt 0.666667 0.444444
vt 0.666667 0.555556
vt 0.666667 0.666667
vt 0.666667 0.777778
vt 0.555556 0.000000
vt 0.555556 0.111111
vt 0.444444 0.000000
vt 0.444444 0.111111
vt 0.333333 0.000000
vt 0.333333 0.111111
vt 0.222222 0.000000
vt 0.222222 0.111111
vt 0.222222 0.222222
vt 0.333333 0.222222
vt 0.222222 0.333333
vt 0.333333 0.333333
vt 0.222222 0.444444
vt 0.333333 0.444444
vt 0.222222 0.555556
vt 0.333333 0.555556
vt 0.222222 0.666667
vt 0.333333 0.666667
vt 0.222222 0.777778
vt 0.333333 0.777778
vt 0.111111 0.111111
vt 0.111111 0.222222
vt 0.111111 0.333333
vt 0.111111 0.444444
vt 0.111111 0.555556
vt 0.111111 0.666667
vt 0.111111 0.777778
vt 0.111111 0.888889
s 0
f 28/1/1 12/2/1 11/3/1 36/4/1
f 36/4/1 11/3/1 10/5/1 38/6/1
f 38/6/1 10/5/1 9/7/1 40/8/1
f 40/8/1 9/7/1 8/9/1 48/10/1
f 48/10/1 8/9/1 7/11/1 56/12/1
f 49/13/1 50/14/1 58/15/1 57/16/1
f 50/14/1 51/17/1 59/18/1 58/15/1
f 51/17/1 52/19/1 60/20/1 59/18/1
f 52/19/1 53/21/1 61/22/1 60/20/1
f 53/21/1 54/23/1 62/24/1 61/22/1
f 54/23/1 55/25/1 63/26/1 62/24/1
f 55/25/1 56/12/1 64/27/1 63/26/1
f 5/28/1 41/29/1 49/13/1 6/30/1
f 41/29/1 42/31/1 50/14/1 49/13/1
f 42/31/1 43/32/1 51/17/1 50/14/1
f 43/32/1 44/33/1 52/19/1 51/17/1
f 44/33/1 45/34/1 53/21/1 52/19/1
f 45/34/1 46/35/1 54/23/1 53/21/1
f 46/35/1 47/36/1 55/25/1 54/23/1
f 47/36/1 48/10/1 56/12/1 55/25/1
f 4/37/1 39/38/1 41/29/1 5/28/1
f 3/39/1 37/40/1 39/38/1 4/37/1
f 2/41/1 29/42/1 37/40/1 3/39/1
f 1/43/1 21/44/1 29/42/1 2/41/1
f 21/44/1 22/45/1 30/46/1 29/42/1
f 22/45/1 23/47/1 31/48/1 30/46/1
f 23/47/1 24/49/1 32/50/1 31/48/1
f 24/49/1 25/51/1 33/52/1 32/50/1
f 25/51/1 26/53/1 34/54/1 33/52/1
f 26/53/1 27/55/1 35/56/1 34/54/1
f 27/55/1 28/1/1 36/4/1 35/56/1
f 13/57/1 14/58/1 22/45/1 21/44/1
f 14/58/1 15/59/1 23/47/1 22/45/1
f 15/59/1 16/60/1 24/49/1 23/47/1
f 16/60/1 17/61/1 25/51/1 24/49/1
f 17/61/1 18/62/1 26/53/1 25/51/1
f 18/62/1 19/63/1 27/55/1 26/53/1
f 19/63/1 20/64/1 28/1/1 27/55/1
f 77/1/2 78/4/2 75/3/2 76/2/2
f 78/4/2 79/6/2 74/5/2 75/3/2
f 79/6/2 80/8/2 73/7/2 74/5/2
f 80/8/2 81/10/2 72/9/2 73/7/2
f 81/10/2 82/12/2 71/11/2 72/9/2
f 114/13/2 121/16/2 122/15/2 115/14/2
f 115/14/2 122/15/2 123/18/2 116/17/2
f 116/17/2 123/18/2 124/20/2 117/19/2
f 117/19/2 124/20/2 125/22/2 118/21/2
f 118/21/2 125/22/2 126/24/2 119/23/2
f 119/23/2 126/24/2 127/26/2 120/25/2
f 120/25/2 127/26/2 128/27/2 82/12/2
f 69/28/2 70/30/2 114/13/2 107/29/2
f 107/29/2 114/13/2 115/14/2 108/31/2
f 108/31/2 115/14/2 116/17/2 109/32/2
f 109/32/2 116/17/2 117/19/2 110/33/2
f 110/33/2 117/19/2 118/21/2 111/34/2
f 111/34/2 118/21/2 119/23/2 112/35/2
f 112/35/2 119/23/2 120/25/2 113/36/2
f 113/36/2 120/25/2 82/12/2 81/10/2
f 68/37/2 69/28/2 107/29/2 106/38/2
f 67/39/2 68/37/2 106/38/2 105/40/2
f 66/41/2 67/39/2 105/40/2 98/42/2
f 65/43/2 66/41/2 98/42/2 91/44/2
f 91/44/2 98/42/2 99/46/2 92/45/2
f 92/45/2 99/46/2 100/48/2 93/47/2
f 93/47/2 100/48/2 101/50/2 94/49/2
f 94/49/2 101/50/2 102/52/2 95/51/2
f 95/51/2 102/52/2 103/54/2 96/53/2
f 96/53/2 103/54/2 104/56/2 97/55/2
f 97/55/2 104/56/2 78/4/2 77/1/2
f 83/57/2 91/44/2 92/45/2 84/58/2
f 84/58/2 92/45/2 93/47/2 85/59/2
f 85/59/2 93/47/2 94/49/2 86/60/2
f 86/60/2 94/49/2 95/51/2 87/61/2
f 87/61/2 95/51/2 96/53/2 88/62/2
f 88/62/2 96/53/2 97/55/2 89/63/2
f 89/63/2 97/55/2 77/1/2 90/64/2
f 56/12/3 7/11/3 71/11/3 82/12/3
f 13/57/4 21/44/4 91/44/4 83/57/4
f 42/31/5 41/29/5 107/29/5 108/31/5
f 14/58/5 13/57/5 83/57/5 84/58/5
f 43/32/5 42/31/5 108/31/5 109/32/5
f 15/59/5 14/58/5 84/58/5 85/59/5
f 44/33/5 43/32/5 109/32/5 110/33/5
f 16/60/5 15/59/5 85/59/5 86/60/5
f 64/27/6 56/12/6 82/12/6 128/27/6
f 45/34/5 44/33/5 110/33/5 111/34/5
f 17/61/5 16/60/5 86/60/5 87/61/5
f 46/35/5 45/34/5 111/34/5 112/35/5
f 18/62/5 17/61/5 87/61/5 88/62/5
f 47/36/5 46/35/5 112/35/5 113/36/5
f 19/63/5 18/62/5 88/62/5 89/63/5
f 48/10/5 47/36/5 113/36/5 81/10/5
f 20/64/5 19/63/5 89/63/5 90/64/5
f 28/1/6 20/64/6 90/64/6 77/1/6
f 6/30/3 49/13/3 114/13/3 70/30/3
f 21/44/5 1/43/5 65/43/5 91/44/5
f 1/43/4 2/41/4 66/41/4 65/43/4
f 2/41/4 3/39/4 67/39/4 66/41/4
f 41/29/6 39/38/6 106/38/6 107/29/6
f 3/39/4 4/37/4 68/37/4 67/39/4
f 40/8/4 48/10/4 81/10/4 80/8/4
f 4/37/4 5/28/4 69/28/4 68/37/4
f 39/38/6 37/40/6 105/40/6 106/38/6
f 5/28/4 6/30/4 70/30/4 69/28/4
f 38/6/4 40/8/4 80/8/4 79/6/4
f 57/16/3 58/15/3 122/15/3 121/16/3
f 7/11/6 8/9/6 72/9/6 71/11/6
f 37/40/6 29/42/6 98/42/6 105/40/6
f 58/15/3 59/18/3 123/18/3 122/15/3
f 29/42/3 30/46/3 99/46/3 98/42/3
f 8/9/6 9/7/6 73/7/6 72/9/6
f 36/4/4 38/6/4 79/6/4 78/4/4
f 59/18/3 60/20/3 124/20/3 123/18/3
f 30/46/3 31/48/3 100/48/3 99/46/3
f 9/7/6 10/5/6 74/5/6 73/7/6
f 60/20/3 61/22/3 125/22/3 124/20/3
f 31/48/3 32/50/3 101/50/3 100/48/3
f 10/5/6 11/3/6 75/3/6 74/5/6
f 61/22/3 62/24/3 126/24/3 125/22/3
f 32/50/3 33/52/3 102/52/3 101/50/3
f 11/3/6 12/2/6 76/2/6 75/3/6
f 62/24/3 63/26/3 127/26/3 126/24/3
f 33/52/3 34/54/3 103/54/3 102/52/3
f 12/2/5 28/1/5 77/1/5 76/2/5
f 63/26/3 64/27/3 128/27/3 127/26/3
f 34/54/3 35/56/3 104/56/3 103/54/3
f 49/13/4 57/16/4 121/16/4 114/13/4
f 35/56/3 36/4/3 78/4/3 104/56/3
