# Blender 5.0.0
# www.blender.org
mtllib P.mtl
o Plane.015
v 0.777777 -1.000000 -0.000000
v 0.555555 -1.000000 -0.000000
v 0.333333 -1.000000 0.000000
v -0.333333 1.000000 -0.000000
v -0.111111 1.000000 -0.000000
v 0.111111 1.000000 -0.000000
v 0.333334 1.000000 -0.000000
v 0.555556 1.000000 -0.000000
v 0.777778 1.000000 -0.000000
v 0.777778 -0.777778 -0.000000
v 0.777778 -0.555556 -0.000000
v 0.777778 -0.333334 -0.000000
v 0.777778 -0.111111 -0.000000
v 0.777778 0.111111 -0.000000
v 0.777778 0.333333 -0.000000
v 0.777778 0.555555 -0.000000
v 0.777778 0.777778 -0.000000
v 0.555555 -0.777778 -0.000000
v 0.555555 -0.555556 -0.000000
v 0.555555 -0.333334 -0.000000
v 0.555556 -0.111111 -0.000000
v 0.555556 0.111111 -0.000000
v 0.555556 0.333333 -0.000000
v 0.555556 0.555555 -0.000000
v 0.555556 0.777778 -0.000000
v 0.333333 -0.777778 0.000000
v 0.333333 -0.555556 -0.000000
v 0.333333 -0.333333 -0.000000
v 0.333333 -0.111111 -0.000000
v 0.333333 0.111111 -0.000000
v 0.333333 0.333333 -0.000000
v 0.333334 0.555555 -0.000000
v 0.333334 0.777778 -0.000000
v 0.111111 0.111111 -0.000000
v 0.111111 0.333333 -0.000000
v 0.111111 0.777778 -0.000000
v -0.111111 0.111111 0.000000
v -0.111111 0.333333 -0.000000
v -0.111111 0.777778 -0.000000
v -0.333333 0.111111 0.000000
v -0.333333 0.333333 0.000000
v -0.333333 0.555556 0.000000
v -0.333333 0.777778 -0.000000
v -0.555555 0.333334 0.000000
v -0.555555 0.555556 0.000000
v -0.555555 0.777778 0.000000
v -0.777778 0.333334 0.000000
v -0.777778 0.555556 0.000000
v -0.777778 0.777778 0.000000
v 0.777777 -1.000000 -0.504286
v 0.555555 -1.000000 -0.504286
v 0.333333 -1.000000 -0.504286
v -0.333333 1.000000 -0.504286
v -0.111111 1.000000 -0.504286
v 0.111111 1.000000 -0.504286
v 0.333334 1.000000 -0.504286
v 0.555556 1.000000 -0.504286
v 0.777778 1.000000 -0.504286
v 0.777778 0.777778 -0.504286
v 0.555556 0.777778 -0.504286
v 0.333334 0.777778 -0.504286
v 0.111111 0.777778 -0.504286
v -0.111111 0.777778 -0.504286
v -0.333333 0.777778 -0.504286
v 0.777777 -0.777778 -0.504286
v 0.777778 -0.555556 -0.504286
v 0.777778 -0.333334 -0.504286
v 0.777778 -0.111111 -0.504286
v 0.777778 0.111111 -0.504286
v 0.777778 0.333333 -0.504286
v 0.777778 0.555555 -0.504286
v 0.555555 -0.777778 -0.504286
v 0.555555 -0.555556 -0.504286
v 0.555555 -0.333334 -0.504286
v 0.555555 -0.111111 -0.504286
v 0.555556 0.111111 -0.504286
v 0.555556 0.333333 -0.504286
v 0.555556 0.555555 -0.504286
v 0.333333 -0.777778 -0.504286
v 0.333333 -0.555556 -0.504286
v 0.333333 -0.333333 -0.504286
v 0.333333 -0.111111 -0.504286
v 0.333333 0.111111 -0.504286
v 0.333333 0.333333 -0.504286
v 0.333333 0.555555 -0.504286
v 0.111111 0.111111 -0.504286
v 0.111111 0.333333 -0.504286
v -0.111111 0.111111 -0.504286
v -0.111111 0.333333 -0.504286
v -0.333333 0.111111 -0.504286
v -0.333333 0.333333 -0.504286
v -0.333333 0.555556 -0.504286
v -0.555556 0.333333 -0.504286
v -0.555555 0.555556 -0.504286
v -0.555555 0.777778 -0.504286
v -0.777778 0.333334 -0.504286
v -0.777778 0.555556 -0.504286
v -0.777778 0.777778 -0.504286
vn -0.0000 -0.0000 1.0000
vn -0.0000 -0.0000 -1.0000
vn -0.0000 -1.0000 -0.0000
vn 1.0000 -0.0000 -0.0000
vn -0.0000 1.0000 -0.0000
vn -1.0000 -0.0000 -0.0000
vt 0.111111 0.888889
vt 0.111111 1.000000
vt 0.222222 1.000000
vt 0.222222 0.888889
vt 0.333333 1.000000
vt 0.333333 0.888889
vt 0.444444 1.000000
vt 0.444444 0.888889
vt 0.555556 1.000000
vt 0.555556 0.888889
vt 0.666667 1.000000
vt 0.666667 0.888889
vt 0.777778 0.666667
vt 0.777778 0.777778
vt 0.888889 0.777778
vt 0.888889 0.666667
vt 0.777778 0.888889
vt 0.888889 0.888889
vt 0.666667 0.666667
vt 0.666667 0.777778
vt 0.555556 0.555556
vt 0.555556 0.666667
vt 0.666667 0.555556
vt 0.444444 0.555556
vt 0.444444 0.666667
vt 0.333333 0.555556
vt 0.333333 0.666667
vt 0.222222 0.000000
vt 0.222222 0.111111
vt 0.333333 0.111111
vt 0.333333 0.000000
vt 0.222222 0.222222
vt 0.333333 0.222222
vt 0.222222 0.333333
vt 0.333333 0.333333
vt 0.222222 0.444444
vt 0.333333 0.444444
vt 0.222222 0.555556
vt 0.222222 0.666667
vt 0.222222 0.777778
vt 0.333333 0.777778
vt 0.111111 0.000000
vt 0.111111 0.111111
vt 0.111111 0.222222
vt 0.111111 0.333333
vt 0.111111 0.444444
vt 0.111111 0.555556
vt 0.111111 0.666667
vt 0.111111 0.777778
s 0
f 17/1/1 9/2/1 8/3/1 25/4/1
f 25/4/1 8/3/1 7/5/1 33/6/1
f 33/6/1 7/5/1 6/7/1 36/8/1
f 36/8/1 6/7/1 5/9/1 39/10/1
f 39/10/1 5/9/1 4/11/1 43/12/1
f 44/13/1 45/14/1 48/15/1 47/16/1
f 45/14/1 46/17/1 49/18/1 48/15/1
f 41/19/1 42/20/1 45/14/1 44/13/1
f 42/20/1 43/12/1 46/17/1 45/14/1
f 37/21/1 38/22/1 41/19/1 40/23/1
f 34/24/1 35/25/1 38/22/1 37/21/1
f 30/26/1 31/27/1 35/25/1 34/24/1
f 2/28/1 18/29/1 26/30/1 3/31/1
f 18/29/1 19/32/1 27/33/1 26/30/1
f 19/32/1 20/34/1 28/35/1 27/33/1
f 20/34/1 21/36/1 29/37/1 28/35/1
f 21/36/1 22/38/1 30/26/1 29/37/1
f 22/38/1 23/39/1 31/27/1 30/26/1
f 23/39/1 24/40/1 32/41/1 31/27/1
f 24/40/1 25/4/1 33/6/1 32/41/1
f 1/42/1 10/43/1 18/29/1 2/28/1
f 10/43/1 11/44/1 19/32/1 18/29/1
f 11/44/1 12/45/1 20/34/1 19/32/1
f 12/45/1 13/46/1 21/36/1 20/34/1
f 13/46/1 14/47/1 22/38/1 21/36/1
f 14/47/1 15/48/1 23/39/1 22/38/1
f 15/48/1 16/49/1 24/40/1 23/39/1
f 16/49/1 17/1/1 25/4/1 24/40/1
f 59/1/2 60/4/2 57/3/2 58/2/2
f 60/4/2 61/6/2 56/5/2 57/3/2
f 61/6/2 62/8/2 55/7/2 56/5/2
f 62/8/2 63/10/2 54/9/2 55/7/2
f 63/10/2 64/12/2 53/11/2 54/9/2
f 93/13/2 96/16/2 97/15/2 94/14/2
f 94/14/2 97/15/2 98/18/2 95/17/2
f 91/19/2 93/13/2 94/14/2 92/20/2
f 92/20/2 94/14/2 95/17/2 64/12/2
f 88/21/2 90/23/2 91/19/2 89/22/2
f 86/24/2 88/21/2 89/22/2 87/25/2
f 83/26/2 86/24/2 87/25/2 84/27/2
f 51/28/2 52/31/2 79/30/2 72/29/2
f 72/29/2 79/30/2 80/33/2 73/32/2
f 73/32/2 80/33/2 81/35/2 74/34/2
f 74/34/2 81/35/2 82/37/2 75/36/2
f 75/36/2 82/37/2 83/26/2 76/38/2
f 76/38/2 83/26/2 84/27/2 77/39/2
f 77/39/2 84/27/2 85/41/2 78/40/2
f 78/40/2 85/41/2 61/6/2 60/4/2
f 50/42/2 51/28/2 72/29/2 65/43/2
f 65/43/2 72/29/2 73/32/2 66/44/2
f 66/44/2 73/32/2 74/34/2 67/45/2
f 67/45/2 74/34/2 75/36/2 68/46/2
f 68/46/2 75/36/2 76/38/2 69/47/2
f 69/47/2 76/38/2 77/39/2 70/48/2
f 70/48/2 77/39/2 78/40/2 71/49/2
f 71/49/2 78/40/2 60/4/2 59/1/2
f 33/6/3 36/8/3 62/8/3 61/6/3
f 17/1/4 16/49/4 71/49/4 59/1/4
f 9/2/4 17/1/4 59/1/4 58/2/4
f 49/18/5 46/17/5 95/17/5 98/18/5
f 31/27/6 32/41/6 85/41/6 84/27/6
f 41/19/3 44/13/3 93/13/3 91/19/3
f 32/41/6 33/6/6 61/6/6 85/41/6
f 46/17/5 43/12/5 64/12/5 95/17/5
f 37/21/3 40/23/3 90/23/3 88/21/3
f 43/12/6 4/11/6 53/11/6 64/12/6
f 40/23/6 41/19/6 91/19/6 90/23/6
f 41/19/5 38/22/5 89/22/5 91/19/5
f 10/43/4 1/42/4 50/42/4 65/43/4
f 42/20/4 41/19/4 91/19/4 92/20/4
f 1/42/3 2/28/3 51/28/3 50/42/3
f 39/10/3 43/12/3 64/12/3 63/10/3
f 11/44/4 10/43/4 65/43/4 66/44/4
f 43/12/4 42/20/4 92/20/4 64/12/4
f 2/28/3 3/31/3 52/31/3 51/28/3
f 34/24/3 37/21/3 88/21/3 86/24/3
f 12/45/4 11/44/4 66/44/4 67/45/4
f 4/11/5 5/9/5 54/9/5 53/11/5
f 3/31/6 26/30/6 79/30/6 52/31/6
f 38/22/5 35/25/5 87/25/5 89/22/5
f 13/46/4 12/45/4 67/45/4 68/46/4
f 5/9/5 6/7/5 55/7/5 54/9/5
f 26/30/6 27/33/6 80/33/6 79/30/6
f 36/8/3 39/10/3 63/10/3 62/8/3
f 14/47/4 13/46/4 68/46/4 69/47/4
f 47/16/6 48/15/6 97/15/6 96/16/6
f 6/7/5 7/5/5 56/5/5 55/7/5
f 27/33/6 28/35/6 81/35/6 80/33/6
f 30/26/3 34/24/3 86/24/3 83/26/3
f 15/48/4 14/47/4 69/47/4 70/48/4
f 48/15/6 49/18/6 98/18/6 97/15/6
f 7/5/5 8/3/5 57/3/5 56/5/5
f 28/35/6 29/37/6 82/37/6 81/35/6
f 35/25/5 31/27/5 84/27/5 87/25/5
f 16/49/4 15/48/4 70/48/4 71/49/4
f 44/13/3 47/16/3 96/16/3 93/13/3
f 8/3/5 9/2/5 58/2/5 57/3/5
f 29/37/6 30/26/6 83/26/6 82/37/6
