# Blender 5.0.0
# www.blender.org
mtllib Q.mtl
o Plane.025
v -1.000000 -1.000000 0.000000
v -0.555556 1.000000 -0.000000
v -0.333333 1.000000 -0.000000
v -0.111111 1.000000 -0.000000
v 0.111111 1.000000 -0.000000
v 0.333333 1.000000 -0.000000
v 0.555556 1.000000 -0.000000
v 0.555556 -1.000000 0.000000
v 0.333333 -1.000000 0.000000
v 0.111111 -1.000000 0.000000
v -0.111111 -1.000000 0.000000
v -0.333333 -1.000000 0.000000
v -0.555556 -1.000000 0.000000
v -0.777778 -1.000000 0.000000
v -1.000000 -0.777778 0.000000
v -1.000000 -0.555556 0.000000
v -0.777778 0.777778 -0.000000
v -0.777778 0.555556 -0.000000
v -0.777778 0.333333 -0.000000
v -0.777778 0.111111 -0.000000
v -0.777778 -0.111111 0.000000
v -0.777778 -0.333333 0.000000
v -0.777778 -0.555556 0.000000
v -0.777778 -0.777778 0.000000
v -0.555556 0.777778 -0.000000
v -0.555556 0.555556 -0.000000
v -0.555556 0.333333 -0.000000
v -0.555556 0.111111 -0.000000
v -0.555556 -0.111111 0.000000
v -0.555556 -0.333333 0.000000
v -0.555556 -0.555556 0.000000
v -0.555556 -0.777778 0.000000
v -0.333333 0.777778 -0.000000
v -0.333333 0.555556 -0.000000
v -0.333333 0.333333 -0.000000
v -0.333333 0.111111 -0.000000
v -0.333333 -0.111111 0.000000
v -0.333333 -0.333333 0.000000
v -0.333333 -0.555556 0.000000
v -0.333333 -0.777778 0.000000
v -0.111111 0.777778 -0.000000
v -0.111111 -0.333333 0.000000
v -0.111111 -0.555556 0.000000
v -0.111111 -0.777778 0.000000
v 0.111111 0.777778 -0.000000
v 0.111111 -0.555556 0.000000
v 0.111111 -0.777778 0.000000
v 0.333333 0.777778 -0.000000
v 0.333333 0.555556 -0.000000
v 0.333333 0.333333 -0.000000
v 0.333333 0.111111 -0.000000
v 0.333333 -0.111111 0.000000
v 0.333333 -0.333333 0.000000
v 0.333333 -0.555556 0.000000
v 0.333333 -0.777778 0.000000
v 0.555556 0.777778 -0.000000
v 0.555556 0.555556 -0.000000
v 0.555556 0.333333 -0.000000
v 0.555556 0.111111 -0.000000
v 0.555556 -0.111111 0.000000
v 0.555556 -0.333333 0.000000
v 0.555556 -0.555556 0.000000
v 0.555556 -0.777778 0.000000
v 0.777778 0.777778 -0.000000
v 0.777778 0.555556 -0.000000
v 0.777778 0.333333 -0.000000
v 0.777778 0.111111 -0.000000
v 0.777778 -0.111111 0.000000
v 0.777778 -0.333333 0.000000
v 0.777778 -0.555556 0.000000
v 0.777778 -0.777778 0.000000
v -0.777778 -1.000000 -0.500000
v -1.000000 -1.000000 -0.500000
v -0.555556 1.000000 -0.500000
v -0.333333 1.000000 -0.500000
v -0.111111 1.000000 -0.500000
v 0.111111 1.000000 -0.500000
v 0.333333 1.000000 -0.500000
v 0.555556 1.000000 -0.500000
v 0.555556 -1.000000 -0.500000
v 0.333333 -1.000000 -0.500000
v 0.111111 -1.000000 -0.500000
v -0.111111 -1.000000 -0.500000
v -0.333333 -1.000000 -0.500000
v -0.555556 -1.000000 -0.500000
v -0.777778 -0.777778 -0.500000
v -0.555556 -0.777778 -0.500000
v -0.333333 -0.777778 -0.500000
v -0.111111 -0.777778 -0.500000
v 0.111111 -0.777778 -0.500000
v 0.333333 -0.777778 -0.500000
v 0.555556 -0.777778 -0.500000
v -1.000000 -0.777778 -0.500000
v -1.000000 -0.555556 -0.500000
v -0.777778 0.777778 -0.500000
v -0.777778 0.555556 -0.500000
v -0.777778 0.333333 -0.500000
v -0.777778 0.111111 -0.500000
v -0.777778 -0.111111 -0.500000
v -0.777778 -0.333333 -0.500000
v -0.777778 -0.555556 -0.500000
v -0.555556 0.777778 -0.500000
v -0.555556 0.555556 -0.500000
v -0.555556 0.333333 -0.500000
v -0.555556 0.111111 -0.500000
v -0.555556 -0.111111 -0.500000
v -0.555556 -0.333333 -0.500000
v -0.555556 -0.555556 -0.500000
v -0.333333 0.777778 -0.500000
v -0.333333 0.555556 -0.500000
v -0.333333 0.333333 -0.500000
v -0.333333 0.111111 -0.500000
v -0.333333 -0.111111 -0.500000
v -0.333333 -0.333333 -0.500000
v -0.333333 -0.555556 -0.500000
v -0.111111 0.777778 -0.500000
v -0.111111 -0.333333 -0.500000
v -0.111111 -0.555556 -0.500000
v 0.111111 0.777778 -0.500000
v 0.111111 -0.555556 -0.500000
v 0.333333 0.777778 -0.500000
v 0.333333 0.555556 -0.500000
v 0.333333 0.333333 -0.500000
v 0.333333 0.111111 -0.500000
v 0.333333 -0.111111 -0.500000
v 0.333333 -0.333333 -0.500000
v 0.333333 -0.555556 -0.500000
v 0.555556 0.777778 -0.500000
v 0.555556 0.555556 -0.500000
v 0.555556 0.333333 -0.500000
v 0.555556 0.111111 -0.500000
v 0.555556 -0.111111 -0.500000
v 0.555556 -0.333333 -0.500000
v 0.555556 -0.555556 -0.500000
v 0.777778 0.777778 -0.500000
v 0.777778 0.555556 -0.500000
v 0.777778 0.333333 -0.500000
v 0.777778 0.111111 -0.500000
v 0.777778 -0.111111 -0.500000
v 0.777778 -0.333333 -0.500000
v 0.777778 -0.555556 -0.500000
v 0.777778 -0.777778 -0.500000
vn -0.0000 -0.0000 1.0000
vn -0.0000 -0.0000 -1.0000
vn -0.0000 -1.0000 -0.0000
vn -0.0000 1.0000 -0.0000
vn 1.0000 -0.0000 -0.0000
vn -1.0000 -0.0000 -0.0000
vt 0.000000 0.888889
vt 0.000000 1.000000
vt 0.111111 1.000000
vt 0.111111 0.888889
vt 0.222222 1.000000
vt 0.222222 0.888889
vt 0.333333 0.888889
vt 0.333333 1.000000
vt 0.444444 1.000000
vt 0.444444 0.888889
vt 0.555556 1.000000
vt 0.555556 0.888889
vt 0.666667 1.000000
vt 0.666667 0.888889
vt 0.777778 1.000000
vt 0.777778 0.888889
vt 0.777778 0.111111
vt 0.777778 0.222222
vt 0.888889 0.222222
vt 0.888889 0.111111
vt 0.777778 0.333333
vt 0.888889 0.333333
vt 0.777778 0.444444
vt 0.888889 0.444444
vt 0.777778 0.555556
vt 0.888889 0.555556
vt 0.777778 0.666667
vt 0.888889 0.666667
vt 0.777778 0.777778
vt 0.888889 0.777778
vt 0.888889 0.888889
vt 0.666667 0.000000
vt 0.666667 0.111111
vt 0.777778 0.000000
vt 0.666667 0.222222
vt 0.666667 0.333333
vt 0.666667 0.444444
vt 0.666667 0.555556
vt 0.666667 0.666667
vt 0.666667 0.777778
vt 0.555556 0.000000
vt 0.555556 0.111111
vt 0.555556 0.777778
vt 0.444444 0.000000
vt 0.444444 0.111111
vt 0.444444 0.777778
vt 0.333333 0.000000
vt 0.333333 0.111111
vt 0.333333 0.666667
vt 0.333333 0.777778
vt 0.444444 0.666667
vt 0.222222 0.000000
vt 0.222222 0.111111
vt 0.222222 0.222222
vt 0.333333 0.222222
vt 0.222222 0.333333
vt 0.333333 0.333333
vt 0.222222 0.444444
vt 0.333333 0.444444
vt 0.222222 0.555556
vt 0.333333 0.555556
vt 0.222222 0.666667
vt 0.222222 0.777778
vt 0.111111 0.111111
vt 0.111111 0.222222
vt 0.111111 0.333333
vt 0.111111 0.444444
vt 0.111111 0.555556
vt 0.111111 0.666667
vt 0.111111 0.777778
vt 0.000000 0.777778
s 0
f 15/1/1 1/2/1 14/3/1 24/4/1
f 24/4/1 14/3/1 13/5/1 32/6/1
f 40/7/1 12/8/1 11/9/1 44/10/1
f 44/10/1 11/9/1 10/11/1 47/12/1
f 47/12/1 10/11/1 9/13/1 55/14/1
f 55/14/1 9/13/1 8/15/1 63/16/1
f 56/17/1 57/18/1 65/19/1 64/20/1
f 57/18/1 58/21/1 66/22/1 65/19/1
f 58/21/1 59/23/1 67/24/1 66/22/1
f 59/23/1 60/25/1 68/26/1 67/24/1
f 60/25/1 61/27/1 69/28/1 68/26/1
f 61/27/1 62/29/1 70/30/1 69/28/1
f 62/29/1 63/16/1 71/31/1 70/30/1
f 6/32/1 48/33/1 56/17/1 7/34/1
f 48/33/1 49/35/1 57/18/1 56/17/1
f 49/35/1 50/36/1 58/21/1 57/18/1
f 50/36/1 51/37/1 59/23/1 58/21/1
f 51/37/1 52/38/1 60/25/1 59/23/1
f 52/38/1 53/39/1 61/27/1 60/25/1
f 53/39/1 54/40/1 62/29/1 61/27/1
f 54/40/1 55/14/1 63/16/1 62/29/1
f 5/41/1 45/42/1 48/33/1 6/32/1
f 46/43/1 47/12/1 55/14/1 54/40/1
f 4/44/1 41/45/1 45/42/1 5/41/1
f 43/46/1 44/10/1 47/12/1 46/43/1
f 3/47/1 33/48/1 41/45/1 4/44/1
f 38/49/1 39/50/1 43/46/1 42/51/1
f 39/50/1 40/7/1 44/10/1 43/46/1
f 2/52/1 25/53/1 33/48/1 3/47/1
f 25/53/1 26/54/1 34/55/1 33/48/1
f 26/54/1 27/56/1 35/57/1 34/55/1
f 27/56/1 28/58/1 36/59/1 35/57/1
f 28/58/1 29/60/1 37/61/1 36/59/1
f 29/60/1 30/62/1 38/49/1 37/61/1
f 30/62/1 31/63/1 39/50/1 38/49/1
f 31/63/1 32/6/1 40/7/1 39/50/1
f 17/64/1 18/65/1 26/54/1 25/53/1
f 18/65/1 19/66/1 27/56/1 26/54/1
f 19/66/1 20/67/1 28/58/1 27/56/1
f 20/67/1 21/68/1 29/60/1 28/58/1
f 21/68/1 22/69/1 30/62/1 29/60/1
f 22/69/1 23/70/1 31/63/1 30/62/1
f 23/70/1 24/4/1 32/6/1 31/63/1
f 16/71/1 15/1/1 24/4/1 23/70/1
f 93/1/2 86/4/2 72/3/2 73/2/2
f 86/4/2 87/6/2 85/5/2 72/3/2
f 88/7/2 89/10/2 83/9/2 84/8/2
f 89/10/2 90/12/2 82/11/2 83/9/2
f 90/12/2 91/14/2 81/13/2 82/11/2
f 91/14/2 92/16/2 80/15/2 81/13/2
f 128/17/2 135/20/2 136/19/2 129/18/2
f 129/18/2 136/19/2 137/22/2 130/21/2
f 130/21/2 137/22/2 138/24/2 131/23/2
f 131/23/2 138/24/2 139/26/2 132/25/2
f 132/25/2 139/26/2 140/28/2 133/27/2
f 133/27/2 140/28/2 141/30/2 134/29/2
f 134/29/2 141/30/2 142/31/2 92/16/2
f 78/32/2 79/34/2 128/17/2 121/33/2
f 121/33/2 128/17/2 129/18/2 122/35/2
f 122/35/2 129/18/2 130/21/2 123/36/2
f 123/36/2 130/21/2 131/23/2 124/37/2
f 124/37/2 131/23/2 132/25/2 125/38/2
f 125/38/2 132/25/2 133/27/2 126/39/2
f 126/39/2 133/27/2 134/29/2 127/40/2
f 127/40/2 134/29/2 92/16/2 91/14/2
f 77/41/2 78/32/2 121/33/2 119/42/2
f 120/43/2 127/40/2 91/14/2 90/12/2
f 76/44/2 77/41/2 119/42/2 116/45/2
f 118/46/2 120/43/2 90/12/2 89/10/2
f 75/47/2 76/44/2 116/45/2 109/48/2
f 114/49/2 117/51/2 118/46/2 115/50/2
f 115/50/2 118/46/2 89/10/2 88/7/2
f 74/52/2 75/47/2 109/48/2 102/53/2
f 102/53/2 109/48/2 110/55/2 103/54/2
f 103/54/2 110/55/2 111/57/2 104/56/2
f 104/56/2 111/57/2 112/59/2 105/58/2
f 105/58/2 112/59/2 113/61/2 106/60/2
f 106/60/2 113/61/2 114/49/2 107/62/2
f 107/62/2 114/49/2 115/50/2 108/63/2
f 108/63/2 115/50/2 88/7/2 87/6/2
f 95/64/2 102/53/2 103/54/2 96/65/2
f 96/65/2 103/54/2 104/56/2 97/66/2
f 97/66/2 104/56/2 105/58/2 98/67/2
f 98/67/2 105/58/2 106/60/2 99/68/2
f 99/68/2 106/60/2 107/62/2 100/69/2
f 100/69/2 107/62/2 108/63/2 101/70/2
f 101/70/2 108/63/2 87/6/2 86/4/2
f 94/71/2 101/70/2 86/4/2 93/1/2
f 8/15/3 9/13/3 81/13/3 80/15/3
f 9/13/3 10/11/3 82/11/3 81/13/3
f 10/11/3 11/9/3 83/9/3 82/11/3
f 16/71/4 23/70/4 101/70/4 94/71/4
f 48/33/3 45/42/3 119/42/3 121/33/3
f 11/9/3 12/8/3 84/8/3 83/9/3
f 46/43/4 54/40/4 127/40/4 120/43/4
f 33/48/5 34/55/5 110/55/5 109/48/5
f 13/5/3 14/3/3 72/3/3 85/5/3
f 34/55/5 35/57/5 111/57/5 110/55/5
f 45/42/3 41/45/3 116/45/3 119/42/3
f 64/20/5 65/19/5 136/19/5 135/20/5
f 35/57/5 36/59/5 112/59/5 111/57/5
f 32/6/5 13/5/5 85/5/5 87/6/5
f 43/46/4 46/43/4 120/43/4 118/46/4
f 65/19/5 66/22/5 137/22/5 136/19/5
f 36/59/5 37/61/5 113/61/5 112/59/5
f 12/8/6 40/7/6 88/7/6 84/8/6
f 66/22/5 67/24/5 138/24/5 137/22/5
f 37/61/5 38/49/5 114/49/5 113/61/5
f 41/45/3 33/48/3 109/48/3 116/45/3
f 67/24/5 68/26/5 139/26/5 138/24/5
f 38/49/4 42/51/4 117/51/4 114/49/4
f 68/26/5 69/28/5 140/28/5 139/26/5
f 69/28/5 70/30/5 141/30/5 140/28/5
f 63/16/5 8/15/5 80/15/5 92/16/5
f 70/30/5 71/31/5 142/31/5 141/30/5
f 42/51/5 43/46/5 118/46/5 117/51/5
f 1/2/6 15/1/6 93/1/6 73/2/6
f 56/17/4 64/20/4 135/20/4 128/17/4
f 15/1/6 16/71/6 94/71/6 93/1/6
f 18/65/6 17/64/6 95/64/6 96/65/6
f 19/66/6 18/65/6 96/65/6 97/66/6
f 20/67/6 19/66/6 97/66/6 98/67/6
f 49/35/6 48/33/6 121/33/6 122/35/6
f 21/68/6 20/67/6 98/67/6 99/68/6
f 50/36/6 49/35/6 122/35/6 123/36/6
f 22/69/6 21/68/6 99/68/6 100/69/6
f 51/37/6 50/36/6 123/36/6 124/37/6
f 23/70/6 22/69/6 100/69/6 101/70/6
f 40/7/3 32/6/3 87/6/3 88/7/3
f 71/31/3 63/16/3 92/16/3 142/31/3
f 52/38/6 51/37/6 124/37/6 125/38/6
f 14/3/3 1/2/3 73/2/3 72/3/3
f 17/64/4 25/53/4 102/53/4 95/64/4
f 53/39/6 52/38/6 125/38/6 126/39/6
f 25/53/6 2/52/6 74/52/6 102/53/6
f 2/52/4 3/47/4 75/47/4 74/52/4
f 54/40/6 53/39/6 126/39/6 127/40/6
f 3/47/4 4/44/4 76/44/4 75/47/4
f 4/44/4 5/41/4 77/41/4 76/44/4
f 7/34/5 56/17/5 128/17/5 79/34/5
f 5/41/4 6/32/4 78/32/4 77/41/4
f 6/32/4 7/34/4 79/34/4 78/32/4
