# Blender 5.0.0
# www.blender.org
mtllib R.mtl
o Plane.016
v 0.777777 -1.000000 -0.000000
v 0.555555 -1.000000 -0.000000
v 0.333333 -1.000000 0.000000
v -0.111111 -1.000000 0.000000
v -0.333334 -1.000000 0.000000
v -0.555556 -1.000000 0.000000
v -0.333333 1.000000 -0.000000
v -0.111111 1.000000 -0.000000
v 0.111111 1.000000 -0.000000
v 0.333334 1.000000 -0.000000
v 0.555556 1.000000 -0.000000
v 0.777778 1.000000 -0.000000
v 0.777778 -0.777778 -0.000000
v 0.777778 -0.555556 -0.000000
v 0.777778 -0.333334 -0.000000
v 0.777778 -0.111111 -0.000000
v 0.777778 0.111111 -0.000000
v 0.777778 0.333333 -0.000000
v 0.777778 0.555555 -0.000000
v 0.777778 0.777778 -0.000000
v 0.555555 -0.777778 -0.000000
v 0.555555 -0.555556 -0.000000
v 0.555555 -0.333334 -0.000000
v 0.555556 -0.111111 -0.000000
v 0.555556 0.111111 -0.000000
v 0.555556 0.333333 -0.000000
v 0.555556 0.555555 -0.000000
v 0.555556 0.777778 -0.000000
v 0.333333 -0.777778 0.000000
v 0.333333 -0.555556 -0.000000
v 0.333333 -0.333333 -0.000000
v 0.333333 -0.111111 -0.000000
v 0.333333 0.111111 -0.000000
v 0.333333 0.333333 -0.000000
v 0.333334 0.555555 -0.000000
v 0.333334 0.777778 -0.000000
v 0.111111 -0.333333 0.000000
v 0.111111 -0.111111 -0.000000
v 0.111111 0.111111 -0.000000
v 0.111111 0.333333 -0.000000
v 0.111111 0.777778 -0.000000
v -0.111111 -0.777778 0.000000
v -0.111111 -0.555556 0.000000
v -0.111111 -0.333333 0.000000
v -0.111111 -0.111111 0.000000
v -0.111111 0.111111 0.000000
v -0.111111 0.333333 -0.000000
v -0.111111 0.555556 -0.000000
v -0.111111 0.777778 -0.000000
v -0.333334 -0.777778 0.000000
v -0.333334 -0.555555 0.000000
v -0.333333 -0.333333 0.000000
v -0.333333 -0.111111 0.000000
v -0.333333 0.111111 0.000000
v -0.333333 0.333333 0.000000
v -0.333333 0.555556 0.000000
v -0.333333 0.777778 -0.000000
v -0.555556 -0.777778 0.000000
v -0.555556 -0.555555 0.000000
v -0.555556 -0.333333 0.000000
v -0.555555 0.333334 0.000000
v -0.555555 0.555556 0.000000
v -0.555555 0.777778 0.000000
v 0.777777 -1.000000 -0.000000
v 0.555555 -1.000000 -0.000000
v 0.333333 -1.000000 0.000000
v -0.111111 -1.000000 0.000000
v -0.333334 -1.000000 0.000000
v -0.555556 -1.000000 0.000000
v -0.333333 1.000000 -0.000000
v -0.111111 1.000000 -0.000000
v 0.111111 1.000000 -0.000000
v 0.333334 1.000000 -0.000000
v 0.555556 1.000000 -0.000000
v 0.777778 1.000000 -0.000000
v 0.777778 0.777778 -0.000000
v 0.333334 0.777778 -0.000000
v 0.111111 0.777778 -0.000000
v -0.111111 0.777778 -0.000000
v -0.333333 0.777778 -0.000000
v 0.777778 -0.777778 -0.000000
v 0.777778 -0.555556 -0.000000
v 0.777778 -0.333334 -0.000000
v 0.777778 -0.111111 -0.000000
v 0.777778 0.111111 -0.000000
v 0.777778 0.333333 -0.000000
v 0.777778 0.555555 -0.000000
v 0.333333 -0.777778 0.000000
v 0.333333 -0.555556 -0.000000
v 0.333333 -0.333333 -0.000000
v 0.333333 -0.111111 -0.000000
v 0.333333 0.111111 -0.000000
v 0.333333 0.333333 -0.000000
v 0.333334 0.555555 -0.000000
v 0.111111 -0.333333 0.000000
v 0.111111 -0.111111 -0.000000
v 0.111111 0.111111 -0.000000
v 0.111111 0.333333 -0.000000
v -0.111111 -0.777778 0.000000
v -0.111111 -0.555556 0.000000
v -0.111111 -0.333333 0.000000
v -0.111111 -0.111111 0.000000
v -0.111111 0.111111 0.000000
v -0.111111 0.333333 -0.000000
v -0.111111 0.555556 -0.000000
v -0.333333 -0.333333 0.000000
v -0.333333 -0.111111 0.000000
v -0.333333 0.111111 0.000000
v -0.333333 0.333333 0.000000
v -0.555556 -0.777778 0.000000
v -0.555556 -0.555555 0.000000
v -0.555556 -0.333333 0.000000
v -0.555555 0.333334 0.000000
v -0.555555 0.555556 0.000000
v -0.555555 0.777778 0.000000
v 0.777777 -1.000000 -0.504286
v 0.555555 -1.000000 -0.504286
v 0.333333 -1.000000 -0.504286
v -0.111112 -1.000000 -0.504286
v -0.333334 -1.000000 -0.504286
v -0.555556 -1.000000 -0.504285
v -0.333333 1.000000 -0.504286
v -0.111111 1.000000 -0.504286
v 0.111111 1.000000 -0.504286
v 0.333334 1.000000 -0.504286
v 0.555556 1.000000 -0.504286
v 0.777778 1.000000 -0.504286
v 0.777778 0.777778 -0.504286
v 0.555556 0.777778 -0.504286
v 0.333334 0.777778 -0.504286
v 0.111111 0.777778 -0.504286
v -0.111111 0.777778 -0.504286
v -0.333333 0.777778 -0.504286
v 0.777777 -0.777778 -0.504286
v 0.777778 -0.555556 -0.504286
v 0.777778 -0.333334 -0.504286
v 0.777778 -0.111111 -0.504286
v 0.777778 0.111111 -0.504286
v 0.777778 0.333333 -0.504286
v 0.777778 0.555555 -0.504286
v 0.555555 -0.777778 -0.504286
v 0.555555 -0.555556 -0.504286
v 0.555555 -0.333334 -0.504286
v 0.555555 -0.111111 -0.504286
v 0.555556 0.111111 -0.504286
v 0.555556 0.333333 -0.504286
v 0.555556 0.555555 -0.504286
v 0.333333 -0.777778 -0.504286
v 0.333333 -0.555556 -0.504286
v 0.333333 -0.333333 -0.504286
v 0.333333 -0.111111 -0.504286
v 0.333333 0.111111 -0.504286
v 0.333333 0.333333 -0.504286
v 0.333333 0.555555 -0.504286
v 0.111111 -0.333333 -0.504286
v 0.111111 -0.111111 -0.504286
v 0.111111 0.111111 -0.504286
v 0.111111 0.333333 -0.504286
v -0.111111 -0.777778 -0.504286
v -0.111111 -0.555556 -0.504286
v -0.111111 -0.333333 -0.504286
v -0.111111 -0.111111 -0.504286
v -0.111111 0.111111 -0.504286
v -0.111111 0.333333 -0.504286
v -0.111111 0.555556 -0.504286
v -0.333334 -0.777778 -0.504286
v -0.333334 -0.555555 -0.504286
v -0.333333 -0.333333 -0.504286
v -0.333333 -0.111111 -0.504286
v -0.333333 0.111111 -0.504286
v -0.333333 0.333333 -0.504286
v -0.333333 0.555556 -0.504286
v -0.555556 -0.777778 -0.504286
v -0.555556 -0.555555 -0.504286
v -0.555556 -0.333333 -0.504286
v -0.555556 0.333333 -0.504286
v -0.555555 0.555556 -0.504286
v -0.555555 0.777778 -0.504286
vn -0.0000 -0.0000 1.0000
vn 1.0000 -0.0000 -0.0000
vn -0.0000 -1.0000 -0.0000
vn -0.0000 1.0000 -0.0000
vn -1.0000 -0.0000 -0.0000
vn -0.0000 -0.0000 -1.0000
vt 0.111111 0.888889
vt 0.111111 1.000000
vt 0.222222 1.000000
vt 0.222222 0.888889
vt 0.333333 1.000000
vt 0.333333 0.888889
vt 0.444444 1.000000
vt 0.444444 0.888889
vt 0.555556 1.000000
vt 0.555556 0.888889
vt 0.666667 1.000000
vt 0.666667 0.888889
vt 0.666667 0.000000
vt 0.666667 0.111111
vt 0.777778 0.111111
vt 0.777778 0.000000
vt 0.666667 0.222222
vt 0.777778 0.222222
vt 0.666667 0.333333
vt 0.777778 0.333333
vt 0.666667 0.666667
vt 0.666667 0.777778
vt 0.777778 0.777778
vt 0.777778 0.666667
vt 0.777778 0.888889
vt 0.555556 0.000000
vt 0.555556 0.111111
vt 0.555556 0.222222
vt 0.555556 0.333333
vt 0.555556 0.444444
vt 0.666667 0.444444
vt 0.555556 0.555556
vt 0.555556 0.666667
vt 0.666667 0.555556
vt 0.555556 0.777778
vt 0.444444 0.333333
vt 0.444444 0.444444
vt 0.444444 0.555556
vt 0.444444 0.666667
vt 0.333333 0.333333
vt 0.333333 0.444444
vt 0.333333 0.555556
vt 0.333333 0.666667
vt 0.222222 0.000000
vt 0.222222 0.111111
vt 0.333333 0.111111
vt 0.333333 0.000000
vt 0.222222 0.222222
vt 0.333333 0.222222
vt 0.222222 0.333333
vt 0.222222 0.444444
vt 0.222222 0.555556
vt 0.222222 0.666667
vt 0.222222 0.777778
vt 0.333333 0.777778
vt 0.111111 0.000000
vt 0.111111 0.111111
vt 0.111111 0.222222
vt 0.111111 0.333333
vt 0.111111 0.444444
vt 0.111111 0.555556
vt 0.111111 0.666667
vt 0.111111 0.777778
s 0
f 20/1/1 12/2/1 11/3/1 28/4/1
f 28/4/1 11/3/1 10/5/1 36/6/1
f 36/6/1 10/5/1 9/7/1 41/8/1
f 41/8/1 9/7/1 8/9/1 49/10/1
f 49/10/1 8/9/1 7/11/1 57/12/1
f 5/13/1 50/14/1 58/15/1 6/16/1
f 50/14/1 51/17/1 59/18/1 58/15/1
f 51/17/1 52/19/1 60/20/1 59/18/1
f 55/21/1 56/22/1 62/23/1 61/24/1
f 56/22/1 57/12/1 63/25/1 62/23/1
f 4/26/1 42/27/1 50/14/1 5/13/1
f 42/27/1 43/28/1 51/17/1 50/14/1
f 43/28/1 44/29/1 52/19/1 51/17/1
f 44/29/1 45/30/1 53/31/1 52/19/1
f 46/32/1 47/33/1 55/21/1 54/34/1
f 47/33/1 48/35/1 56/22/1 55/21/1
f 48/35/1 49/10/1 57/12/1 56/22/1
f 37/36/1 38/37/1 45/30/1 44/29/1
f 39/38/1 40/39/1 47/33/1 46/32/1
f 31/40/1 32/41/1 38/37/1 37/36/1
f 33/42/1 34/43/1 40/39/1 39/38/1
f 2/44/1 21/45/1 29/46/1 3/47/1
f 21/45/1 22/48/1 30/49/1 29/46/1
f 22/48/1 23/50/1 31/40/1 30/49/1
f 23/50/1 24/51/1 32/41/1 31/40/1
f 24/51/1 25/52/1 33/42/1 32/41/1
f 25/52/1 26/53/1 34/43/1 33/42/1
f 26/53/1 27/54/1 35/55/1 34/43/1
f 27/54/1 28/4/1 36/6/1 35/55/1
f 1/56/1 13/57/1 21/45/1 2/44/1
f 13/57/1 14/58/1 22/48/1 21/45/1
f 14/58/1 15/59/1 23/50/1 22/48/1
f 15/59/1 16/60/1 24/51/1 23/50/1
f 16/60/1 17/61/1 25/52/1 24/51/1
f 17/61/1 18/62/1 26/53/1 25/52/1
f 18/62/1 19/63/1 27/54/1 26/53/1
f 19/63/1 20/1/1 28/4/1 27/54/1
f 85/61/2 84/60/2 137/60/2 138/61/2
f 84/60/2 83/59/2 136/59/2 137/60/2
f 103/32/3 108/34/3 170/34/3 163/32/3
f 83/59/2 82/58/2 135/58/2 136/59/2
f 101/29/2 100/28/2 160/28/2 161/29/2
f 107/31/4 102/30/4 162/30/4 169/31/4
f 82/58/2 81/57/2 134/57/2 135/58/2
f 100/28/2 99/27/2 159/27/2 160/28/2
f 81/57/2 64/56/2 116/56/2 134/57/2
f 99/27/2 67/26/2 119/26/2 159/27/2
f 80/12/5 70/11/5 122/11/5 133/12/5
f 115/25/4 80/12/4 133/12/4 178/25/4
f 94/55/5 77/6/5 130/6/5 154/55/5
f 93/43/5 94/55/5 154/55/5 153/43/5
f 109/21/3 113/24/3 176/24/3 171/21/3
f 112/20/4 106/19/4 168/19/4 175/20/4
f 75/2/2 76/1/2 128/1/2 127/2/2
f 91/41/5 92/42/5 152/42/5 151/41/5
f 74/3/4 75/2/4 127/2/4 126/3/4
f 73/5/4 74/3/4 126/3/4 125/5/4
f 89/49/5 90/40/5 150/40/5 149/49/5
f 114/23/5 115/25/5 178/25/5 177/23/5
f 72/7/4 73/5/4 125/5/4 124/7/4
f 88/46/5 89/49/5 149/49/5 148/46/5
f 113/24/5 114/23/5 177/23/5 176/24/5
f 71/9/4 72/7/4 124/7/4 123/9/4
f 66/47/5 88/46/5 148/46/5 118/47/5
f 111/18/5 112/20/5 175/20/5 174/18/5
f 77/6/3 78/8/3 131/8/3 130/6/3
f 70/11/4 71/9/4 123/9/4 122/11/4
f 110/15/5 111/18/5 174/18/5 173/15/5
f 98/39/4 93/43/4 153/43/4 158/39/4
f 68/13/3 69/16/3 121/16/3 120/13/3
f 69/16/5 110/15/5 173/15/5 121/16/5
f 92/42/3 97/38/3 157/38/3 152/42/3
f 67/26/3 68/13/3 120/13/3 119/26/3
f 96/37/4 91/41/4 151/41/4 156/37/4
f 7/11/6 8/9/6 71/9/6 70/11/6
f 36/6/6 41/8/6 78/8/6 77/6/6
f 59/18/6 60/20/6 112/20/6 111/18/6
f 3/47/6 29/46/6 88/46/6 66/47/6
f 8/9/6 9/7/6 72/7/6 71/9/6
f 61/24/6 62/23/6 114/23/6 113/24/6
f 29/46/6 30/49/6 89/49/6 88/46/6
f 9/7/6 10/5/6 73/5/6 72/7/6
f 62/23/6 63/25/6 115/25/6 114/23/6
f 30/49/6 31/40/6 90/40/6 89/49/6
f 10/5/6 11/3/6 74/3/6 73/5/6
f 11/3/6 12/2/6 75/2/6 74/3/6
f 32/41/6 33/42/6 92/42/6 91/41/6
f 12/2/6 20/1/6 76/1/6 75/2/6
f 60/20/6 52/19/6 106/19/6 112/20/6
f 55/21/6 61/24/6 113/24/6 109/21/6
f 34/43/6 35/55/6 94/55/6 93/43/6
f 35/55/6 36/6/6 77/6/6 94/55/6
f 63/25/6 57/12/6 80/12/6 115/25/6
f 57/12/6 7/11/6 70/11/6 80/12/6
f 42/27/6 4/26/6 67/26/6 99/27/6
f 13/57/6 1/56/6 64/56/6 81/57/6
f 43/28/6 42/27/6 99/27/6 100/28/6
f 14/58/6 13/57/6 81/57/6 82/58/6
f 53/31/6 45/30/6 102/30/6 107/31/6
f 44/29/6 43/28/6 100/28/6 101/29/6
f 15/59/6 14/58/6 82/58/6 83/59/6
f 46/32/6 54/34/6 108/34/6 103/32/6
f 16/60/6 15/59/6 83/59/6 84/60/6
f 17/61/6 16/60/6 84/60/6 85/61/6
f 48/35/6 47/33/6 104/33/6 105/35/6
f 18/62/6 17/61/6 85/61/6 86/62/6
f 49/10/6 48/35/6 105/35/6 79/10/6
f 19/63/6 18/62/6 86/62/6 87/63/6
f 37/36/6 44/29/6 101/29/6 95/36/6
f 20/1/6 19/63/6 87/63/6 76/1/6
f 45/30/6 38/37/6 96/37/6 102/30/6
f 39/38/6 46/32/6 103/32/6 97/38/6
f 47/33/6 40/39/6 98/39/6 104/33/6
f 52/19/6 53/31/6 107/31/6 106/19/6
f 41/8/6 49/10/6 79/10/6 78/8/6
f 54/34/6 55/21/6 109/21/6 108/34/6
f 1/56/6 2/44/6 65/44/6 64/56/6
f 31/40/6 37/36/6 95/36/6 90/40/6
f 2/44/6 3/47/6 66/47/6 65/44/6
f 38/37/6 32/41/6 91/41/6 96/37/6
f 4/26/6 5/13/6 68/13/6 67/26/6
f 33/42/6 39/38/6 97/38/6 92/42/6
f 6/16/6 58/15/6 110/15/6 69/16/6
f 5/13/6 6/16/6 69/16/6 68/13/6
f 40/39/6 34/43/6 93/43/6 98/39/6
f 58/15/6 59/18/6 111/18/6 110/15/6
f 128/1/6 129/4/6 126/3/6 127/2/6
f 129/4/6 130/6/6 125/5/6 126/3/6
f 130/6/6 131/8/6 124/7/6 125/5/6
f 131/8/6 132/10/6 123/9/6 124/7/6
f 132/10/6 133/12/6 122/11/6 123/9/6
f 120/13/6 121/16/6 173/15/6 166/14/6
f 166/14/6 173/15/6 174/18/6 167/17/6
f 167/17/6 174/18/6 175/20/6 168/19/6
f 171/21/6 176/24/6 177/23/6 172/22/6
f 172/22/6 177/23/6 178/25/6 133/12/6
f 119/26/6 120/13/6 166/14/6 159/27/6
f 159/27/6 166/14/6 167/17/6 160/28/6
f 160/28/6 167/17/6 168/19/6 161/29/6
f 161/29/6 168/19/6 169/31/6 162/30/6
f 163/32/6 170/34/6 171/21/6 164/33/6
f 164/33/6 171/21/6 172/22/6 165/35/6
f 165/35/6 172/22/6 133/12/6 132/10/6
f 155/36/6 161/29/6 162/30/6 156/37/6
f 157/38/6 163/32/6 164/33/6 158/39/6
f 150/40/6 155/36/6 156/37/6 151/41/6
f 152/42/6 157/38/6 158/39/6 153/43/6
f 117/44/6 118/47/6 148/46/6 141/45/6
f 141/45/6 148/46/6 149/49/6 142/48/6
f 142/48/6 149/49/6 150/40/6 143/50/6
f 143/50/6 150/40/6 151/41/6 144/51/6
f 144/51/6 151/41/6 152/42/6 145/52/6
f 145/52/6 152/42/6 153/43/6 146/53/6
f 146/53/6 153/43/6 154/55/6 147/54/6
f 147/54/6 154/55/6 130/6/6 129/4/6
f 116/56/6 117/44/6 141/45/6 134/57/6
f 134/57/6 141/45/6 142/48/6 135/58/6
f 135/58/6 142/48/6 143/50/6 136/59/6
f 136/59/6 143/50/6 144/51/6 137/60/6
f 137/60/6 144/51/6 145/52/6 138/61/6
f 138/61/6 145/52/6 146/53/6 139/62/6
f 139/62/6 146/53/6 147/54/6 140/63/6
f 140/63/6 147/54/6 129/4/6 128/1/6
f 105/35/2 104/33/2 164/33/2 165/35/2
f 86/62/2 85/61/2 138/61/2 139/62/2
f 79/10/2 105/35/2 165/35/2 132/10/2
f 87/63/2 86/62/2 139/62/2 140/63/2
f 95/36/3 101/29/3 161/29/3 155/36/3
f 76/1/2 87/63/2 140/63/2 128/1/2
f 102/30/4 96/37/4 156/37/4 162/30/4
f 97/38/3 103/32/3 163/32/3 157/38/3
f 104/33/4 98/39/4 158/39/4 164/33/4
f 106/19/5 107/31/5 169/31/5 168/19/5
f 78/8/3 79/10/3 132/10/3 131/8/3
f 108/34/5 109/21/5 171/21/5 170/34/5
f 64/56/3 65/44/3 117/44/3 116/56/3
f 90/40/3 95/36/3 155/36/3 150/40/3
f 65/44/3 66/47/3 118/47/3 117/44/3
