# Blender 5.0.0
# www.blender.org
mtllib S.mtl
o Plane.017
v 0.777777 -1.000000 -0.000000
v 0.555555 -1.000000 -0.000000
v 0.333333 -1.000000 0.000000
v 0.111111 -1.000000 0.000000
v -0.111111 -1.000000 0.000000
v -0.333334 -1.000000 0.000000
v -0.555556 -1.000000 0.000000
v -0.777778 -1.000000 0.000000
v -0.555555 1.000000 0.000000
v -0.333333 1.000000 -0.000000
v -0.111111 1.000000 -0.000000
v 0.111111 1.000000 -0.000000
v 0.333334 1.000000 -0.000000
v 0.555556 1.000000 -0.000000
v 0.777778 -0.777778 -0.000000
v 0.777778 -0.555556 -0.000000
v 0.777778 -0.111111 -0.000000
v 0.777778 0.111111 -0.000000
v 0.777778 0.333333 -0.000000
v 0.777778 0.555555 -0.000000
v 0.777778 0.777778 -0.000000
v 0.555555 -0.777778 -0.000000
v 0.555555 -0.555556 -0.000000
v 0.555555 -0.333334 -0.000000
v 0.555556 -0.111111 -0.000000
v 0.555556 0.111111 -0.000000
v 0.555556 0.333333 -0.000000
v 0.555556 0.555555 -0.000000
v 0.555556 0.777778 -0.000000
v 0.333333 -0.777778 0.000000
v 0.333333 -0.555556 -0.000000
v 0.333333 -0.333333 -0.000000
v 0.333333 -0.111111 -0.000000
v 0.333333 0.111111 -0.000000
v 0.333333 0.333333 -0.000000
v 0.333334 0.555555 -0.000000
v 0.333334 0.777778 -0.000000
v 0.111111 -0.777778 0.000000
v 0.111111 -0.333333 0.000000
v 0.111111 -0.111111 -0.000000
v 0.111111 0.111111 -0.000000
v 0.111111 0.777778 -0.000000
v -0.111111 -0.777778 0.000000
v -0.111111 -0.333333 0.000000
v -0.111111 -0.111111 0.000000
v -0.111111 0.111111 0.000000
v -0.111111 0.777778 -0.000000
v -0.333334 -0.777778 0.000000
v -0.333334 -0.555555 0.000000
v -0.333333 -0.333333 0.000000
v -0.333333 -0.111111 0.000000
v -0.333333 0.111111 0.000000
v -0.333333 0.333333 0.000000
v -0.333333 0.555556 0.000000
v -0.333333 0.777778 -0.000000
v -0.555556 -0.777778 0.000000
v -0.555556 -0.555555 0.000000
v -0.555556 -0.333333 0.000000
v -0.555556 -0.111111 0.000000
v -0.555556 0.111111 0.000000
v -0.555555 0.333334 0.000000
v -0.555555 0.555556 0.000000
v -0.555555 0.777778 0.000000
v -0.777778 -0.777778 0.000000
v -0.777778 -0.555555 0.000000
v -0.777778 -0.333333 0.000000
v -0.777778 -0.111111 0.000000
v -0.777778 0.333334 0.000000
v -0.777778 0.555556 0.000000
v -0.777778 0.777778 0.000000
v 0.777777 -1.000000 -0.000000
v 0.555555 -1.000000 -0.000000
v 0.333333 -1.000000 0.000000
v 0.111111 -1.000000 0.000000
v -0.111111 -1.000000 0.000000
v -0.333334 -1.000000 0.000000
v -0.555556 -1.000000 0.000000
v -0.777778 -1.000000 0.000000
v -0.555555 1.000000 0.000000
v -0.333333 1.000000 -0.000000
v -0.111111 1.000000 -0.000000
v 0.111111 1.000000 -0.000000
v 0.333334 1.000000 -0.000000
v 0.555556 1.000000 -0.000000
v 0.555556 0.777778 -0.000000
v 0.333334 0.777778 -0.000000
v 0.111111 0.777778 -0.000000
v -0.111111 0.777778 -0.000000
v -0.333333 0.777778 -0.000000
v -0.555555 0.777778 0.000000
v 0.777778 -0.777778 -0.000000
v 0.777778 -0.555556 -0.000000
v 0.777778 -0.111111 -0.000000
v 0.777778 0.111111 -0.000000
v 0.777778 0.333333 -0.000000
v 0.777778 0.555555 -0.000000
v 0.777778 0.777778 -0.000000
v 0.555555 -0.555556 -0.000000
v 0.555555 -0.333334 -0.000000
v 0.555556 -0.111111 -0.000000
v 0.333333 -0.777778 0.000000
v 0.333333 -0.555556 -0.000000
v 0.333333 -0.333333 -0.000000
v 0.333333 0.111111 -0.000000
v 0.333333 0.333333 -0.000000
v 0.333334 0.555555 -0.000000
v 0.111111 -0.777778 0.000000
v 0.111111 -0.333333 0.000000
v 0.111111 0.111111 -0.000000
v -0.111111 -0.777778 0.000000
v -0.111111 -0.333333 0.000000
v -0.111111 0.111111 0.000000
v -0.333334 -0.777778 0.000000
v -0.333334 -0.555555 0.000000
v -0.333333 -0.333333 0.000000
v -0.333333 0.111111 0.000000
v -0.333333 0.333333 0.000000
v -0.333333 0.555556 0.000000
v -0.555556 -0.111111 0.000000
v -0.555556 0.111111 0.000000
v -0.555555 0.333334 0.000000
v -0.777778 -0.777778 0.000000
v -0.777778 -0.555555 0.000000
v -0.777778 -0.333333 0.000000
v -0.777778 -0.111111 0.000000
v -0.777778 0.333334 0.000000
v -0.777778 0.555556 0.000000
v -0.777778 0.777778 0.000000
v 0.777777 -1.000000 -0.504286
v 0.555555 -1.000000 -0.504286
v 0.333333 -1.000000 -0.504286
v 0.111111 -1.000000 -0.504286
v -0.111112 -1.000000 -0.504286
v -0.333334 -1.000000 -0.504286
v -0.555556 -1.000000 -0.504285
v -0.777778 -1.000000 -0.504285
v -0.555555 1.000000 -0.504286
v -0.333333 1.000000 -0.504286
v -0.111111 1.000000 -0.504286
v 0.111111 1.000000 -0.504286
v 0.333334 1.000000 -0.504286
v 0.555556 1.000000 -0.504286
v 0.555556 0.777778 -0.504286
v 0.333334 0.777778 -0.504286
v 0.111111 0.777778 -0.504286
v -0.111111 0.777778 -0.504286
v -0.333333 0.777778 -0.504286
v -0.555555 0.777778 -0.504286
v 0.777777 -0.777778 -0.504286
v 0.777778 -0.555556 -0.504286
v 0.777778 -0.111111 -0.504286
v 0.777778 0.111111 -0.504286
v 0.777778 0.333333 -0.504286
v 0.777778 0.555555 -0.504286
v 0.777778 0.777778 -0.504286
v 0.555555 -0.777778 -0.504286
v 0.555555 -0.555556 -0.504286
v 0.555555 -0.333334 -0.504286
v 0.555555 -0.111111 -0.504286
v 0.555556 0.111111 -0.504286
v 0.555556 0.333333 -0.504286
v 0.555556 0.555555 -0.504286
v 0.333333 -0.777778 -0.504286
v 0.333333 -0.555556 -0.504286
v 0.333333 -0.333333 -0.504286
v 0.333333 -0.111111 -0.504286
v 0.333333 0.111111 -0.504286
v 0.333333 0.333333 -0.504286
v 0.333333 0.555555 -0.504286
v 0.111111 -0.777778 -0.504286
v 0.111111 -0.333333 -0.504286
v 0.111111 -0.111111 -0.504286
v 0.111111 0.111111 -0.504286
v -0.111111 -0.777778 -0.504286
v -0.111111 -0.333333 -0.504286
v -0.111111 -0.111111 -0.504286
v -0.111111 0.111111 -0.504286
v -0.333334 -0.777778 -0.504286
v -0.333334 -0.555555 -0.504286
v -0.333333 -0.333333 -0.504286
v -0.333333 -0.111111 -0.504286
v -0.333333 0.111111 -0.504286
v -0.333333 0.333333 -0.504286
v -0.333333 0.555556 -0.504286
v -0.555556 -0.777778 -0.504286
v -0.555556 -0.555555 -0.504286
v -0.555556 -0.333333 -0.504286
v -0.555556 -0.111111 -0.504286
v -0.555556 0.111111 -0.504286
v -0.555556 0.333333 -0.504286
v -0.555555 0.555556 -0.504286
v -0.777778 -0.777778 -0.504285
v -0.777778 -0.555555 -0.504285
v -0.777778 -0.333333 -0.504286
v -0.777778 -0.111111 -0.504286
v -0.777778 0.333334 -0.504286
v -0.777778 0.555556 -0.504286
v -0.777778 0.777778 -0.504286
vn -0.0000 -0.0000 1.0000
vn -0.0000 1.0000 -0.0000
vn -0.0000 -1.0000 -0.0000
vn -1.0000 -0.0000 -0.0000
vn 1.0000 -0.0000 -0.0000
vn -0.0000 -0.0000 -1.0000
vt 0.222222 0.888889
vt 0.222222 1.000000
vt 0.333333 1.000000
vt 0.333333 0.888889
vt 0.444444 1.000000
vt 0.444444 0.888889
vt 0.555556 1.000000
vt 0.555556 0.888889
vt 0.666667 1.000000
vt 0.666667 0.888889
vt 0.777778 1.000000
vt 0.777778 0.888889
vt 0.777778 0.000000
vt 0.777778 0.111111
vt 0.888889 0.111111
vt 0.888889 0.000000
vt 0.777778 0.222222
vt 0.888889 0.222222
vt 0.777778 0.333333
vt 0.888889 0.333333
vt 0.777778 0.444444
vt 0.888889 0.444444
vt 0.777778 0.666667
vt 0.777778 0.777778
vt 0.888889 0.777778
vt 0.888889 0.666667
vt 0.888889 0.888889
vt 0.666667 0.000000
vt 0.666667 0.111111
vt 0.666667 0.222222
vt 0.666667 0.333333
vt 0.666667 0.444444
vt 0.666667 0.555556
vt 0.777778 0.555556
vt 0.666667 0.666667
vt 0.666667 0.777778
vt 0.555556 0.000000
vt 0.555556 0.111111
vt 0.555556 0.333333
vt 0.555556 0.444444
vt 0.555556 0.555556
vt 0.444444 0.000000
vt 0.444444 0.111111
vt 0.444444 0.333333
vt 0.444444 0.444444
vt 0.444444 0.555556
vt 0.333333 0.000000
vt 0.333333 0.111111
vt 0.333333 0.333333
vt 0.333333 0.444444
vt 0.333333 0.555556
vt 0.222222 0.000000
vt 0.222222 0.111111
vt 0.222222 0.222222
vt 0.333333 0.222222
vt 0.222222 0.333333
vt 0.222222 0.444444
vt 0.222222 0.555556
vt 0.222222 0.666667
vt 0.333333 0.666667
vt 0.222222 0.777778
vt 0.333333 0.777778
vt 0.111111 0.000000
vt 0.111111 0.111111
vt 0.111111 0.222222
vt 0.111111 0.444444
vt 0.111111 0.555556
vt 0.111111 0.666667
vt 0.111111 0.777778
vt 0.111111 0.888889
s 0
f 29/1/1 14/2/1 13/3/1 37/4/1
f 37/4/1 13/3/1 12/5/1 42/6/1
f 42/6/1 12/5/1 11/7/1 47/8/1
f 47/8/1 11/7/1 10/9/1 55/10/1
f 55/10/1 10/9/1 9/11/1 63/12/1
f 7/13/1 56/14/1 64/15/1 8/16/1
f 56/14/1 57/17/1 65/18/1 64/15/1
f 57/17/1 58/19/1 66/20/1 65/18/1
f 58/19/1 59/21/1 67/22/1 66/20/1
f 61/23/1 62/24/1 69/25/1 68/26/1
f 62/24/1 63/12/1 70/27/1 69/25/1
f 6/28/1 48/29/1 56/14/1 7/13/1
f 48/29/1 49/30/1 57/17/1 56/14/1
f 49/30/1 50/31/1 58/19/1 57/17/1
f 50/31/1 51/32/1 59/21/1 58/19/1
f 51/32/1 52/33/1 60/34/1 59/21/1
f 53/35/1 54/36/1 62/24/1 61/23/1
f 54/36/1 55/10/1 63/12/1 62/24/1
f 5/37/1 43/38/1 48/29/1 6/28/1
f 44/39/1 45/40/1 51/32/1 50/31/1
f 45/40/1 46/41/1 52/33/1 51/32/1
f 4/42/1 38/43/1 43/38/1 5/37/1
f 39/44/1 40/45/1 45/40/1 44/39/1
f 40/45/1 41/46/1 46/41/1 45/40/1
f 3/47/1 30/48/1 38/43/1 4/42/1
f 32/49/1 33/50/1 40/45/1 39/44/1
f 33/50/1 34/51/1 41/46/1 40/45/1
f 2/52/1 22/53/1 30/48/1 3/47/1
f 22/53/1 23/54/1 31/55/1 30/48/1
f 24/56/1 25/57/1 33/50/1 32/49/1
f 25/57/1 26/58/1 34/51/1 33/50/1
f 26/58/1 27/59/1 35/60/1 34/51/1
f 27/59/1 28/61/1 36/62/1 35/60/1
f 28/61/1 29/1/1 37/4/1 36/62/1
f 1/63/1 15/64/1 22/53/1 2/52/1
f 15/64/1 16/65/1 23/54/1 22/53/1
f 17/66/1 18/67/1 26/58/1 25/57/1
f 18/67/1 19/68/1 27/59/1 26/58/1
f 19/68/1 20/69/1 28/61/1 27/59/1
f 20/69/1 21/70/1 29/1/1 28/61/1
f 110/38/2 107/43/2 170/43/2 174/38/2
f 76/28/3 77/13/3 135/13/3 134/28/3
f 88/8/3 89/10/3 147/10/3 146/8/3
f 75/37/3 76/28/3 134/28/3 133/37/3
f 116/33/2 112/41/2 177/41/2 182/33/2
f 85/1/2 97/70/2 155/70/2 143/1/2
f 74/42/3 75/37/3 133/37/3 132/42/3
f 119/21/4 120/34/4 189/34/4 188/21/4
f 73/47/3 74/42/3 132/42/3 131/47/3
f 111/39/3 115/31/3 180/31/3 175/39/3
f 72/52/3 73/47/3 131/47/3 130/52/3
f 113/29/2 110/38/2 174/38/2 178/29/2
f 71/63/3 72/52/3 130/52/3 129/63/3
f 100/57/5 99/56/5 158/56/5 159/57/5
f 93/66/3 100/57/3 159/57/3 151/66/3
f 98/54/2 92/65/2 150/65/2 157/54/2
f 89/10/5 118/36/5 184/36/5 147/10/5
f 117/35/3 121/23/3 190/23/3 183/35/3
f 97/70/5 96/69/5 154/69/5 155/70/5
f 118/36/5 117/35/5 183/35/5 184/36/5
f 120/34/2 116/33/2 182/33/2 189/34/2
f 96/69/5 95/68/5 153/68/5 154/69/5
f 95/68/5 94/67/5 152/67/5 153/68/5
f 94/67/5 93/66/5 151/66/5 152/67/5
f 115/31/5 114/30/5 179/30/5 180/31/5
f 92/65/5 91/64/5 149/64/5 150/65/5
f 114/30/5 113/29/5 178/29/5 179/30/5
f 91/64/5 71/63/5 129/63/5 149/64/5
f 128/27/2 90/12/2 148/12/2 198/27/2
f 99/56/3 103/49/3 165/49/3 158/56/3
f 90/12/4 79/11/4 137/11/4 148/12/4
f 102/55/2 98/54/2 157/54/2 164/55/2
f 121/23/3 126/26/3 196/26/3 190/23/3
f 125/22/2 119/21/2 188/21/2 195/22/2
f 86/4/3 87/6/3 145/6/3 144/4/3
f 109/46/2 104/51/2 167/51/2 173/46/2
f 84/2/5 85/1/5 143/1/5 142/2/5
f 103/49/3 108/44/3 171/44/3 165/49/3
f 83/3/2 84/2/2 142/2/2 141/3/2
f 106/62/4 86/4/4 144/4/4 169/62/4
f 49/30/6 48/29/6 113/29/6 114/30/6
f 16/65/6 15/64/6 91/64/6 92/65/6
f 50/31/6 49/30/6 114/30/6 115/31/6
f 18/67/6 17/66/6 93/66/6 94/67/6
f 19/68/6 18/67/6 94/67/6 95/68/6
f 20/69/6 19/68/6 95/68/6 96/69/6
f 60/34/6 52/33/6 116/33/6 120/34/6
f 54/36/6 53/35/6 117/35/6 118/36/6
f 21/70/6 20/69/6 96/69/6 97/70/6
f 53/35/6 61/23/6 121/23/6 117/35/6
f 55/10/6 54/36/6 118/36/6 89/10/6
f 23/54/6 16/65/6 92/65/6 98/54/6
f 17/66/6 25/57/6 100/57/6 93/66/6
f 25/57/6 24/56/6 99/56/6 100/57/6
f 1/63/6 2/52/6 72/52/6 71/63/6
f 48/29/6 43/38/6 110/38/6 113/29/6
f 2/52/6 3/47/6 73/47/6 72/52/6
f 44/39/6 50/31/6 115/31/6 111/39/6
f 3/47/6 4/42/6 74/42/6 73/47/6
f 59/21/6 60/34/6 120/34/6 119/21/6
f 4/42/6 5/37/6 75/37/6 74/42/6
f 29/1/6 21/70/6 97/70/6 85/1/6
f 52/33/6 46/41/6 112/41/6 116/33/6
f 5/37/6 6/28/6 76/28/6 75/37/6
f 47/8/6 55/10/6 89/10/6 88/8/6
f 6/28/6 7/13/6 77/13/6 76/28/6
f 43/38/6 38/43/6 107/43/6 110/38/6
f 8/16/6 64/15/6 122/15/6 78/16/6
f 30/48/6 31/55/6 102/55/6 101/48/6
f 7/13/6 8/16/6 78/16/6 77/13/6
f 39/44/6 44/39/6 111/39/6 108/44/6
f 64/15/6 65/18/6 123/18/6 122/15/6
f 9/11/6 10/9/6 80/9/6 79/11/6
f 65/18/6 66/20/6 124/20/6 123/18/6
f 10/9/6 11/7/6 81/7/6 80/9/6
f 46/41/6 41/46/6 109/46/6 112/41/6
f 66/20/6 67/22/6 125/22/6 124/20/6
f 34/51/6 35/60/6 105/60/6 104/51/6
f 11/7/6 12/5/6 82/5/6 81/7/6
f 42/6/6 47/8/6 88/8/6 87/6/6
f 68/26/6 69/25/6 127/25/6 126/26/6
f 35/60/6 36/62/6 106/62/6 105/60/6
f 12/5/6 13/3/6 83/3/6 82/5/6
f 38/43/6 30/48/6 101/48/6 107/43/6
f 69/25/6 70/27/6 128/27/6 127/25/6
f 36/62/6 37/4/6 86/4/6 106/62/6
f 13/3/6 14/2/6 84/2/6 83/3/6
f 32/49/6 39/44/6 108/44/6 103/49/6
f 14/2/6 29/1/6 85/1/6 84/2/6
f 41/46/6 34/51/6 104/51/6 109/46/6
f 37/4/6 42/6/6 87/6/6 86/4/6
f 67/22/6 59/21/6 119/21/6 125/22/6
f 61/23/6 68/26/6 126/26/6 121/23/6
f 31/55/6 23/54/6 98/54/6 102/55/6
f 63/12/6 9/11/6 79/11/6 90/12/6
f 24/56/6 32/49/6 103/49/6 99/56/6
f 70/27/6 63/12/6 90/12/6 128/27/6
f 15/64/6 1/63/6 71/63/6 91/64/6
f 143/1/6 144/4/6 141/3/6 142/2/6
f 144/4/6 145/6/6 140/5/6 141/3/6
f 145/6/6 146/8/6 139/7/6 140/5/6
f 146/8/6 147/10/6 138/9/6 139/7/6
f 147/10/6 148/12/6 137/11/6 138/9/6
f 135/13/6 136/16/6 192/15/6 185/14/6
f 185/14/6 192/15/6 193/18/6 186/17/6
f 186/17/6 193/18/6 194/20/6 187/19/6
f 187/19/6 194/20/6 195/22/6 188/21/6
f 190/23/6 196/26/6 197/25/6 191/24/6
f 191/24/6 197/25/6 198/27/6 148/12/6
f 134/28/6 135/13/6 185/14/6 178/29/6
f 178/29/6 185/14/6 186/17/6 179/30/6
f 179/30/6 186/17/6 187/19/6 180/31/6
f 180/31/6 187/19/6 188/21/6 181/32/6
f 181/32/6 188/21/6 189/34/6 182/33/6
f 183/35/6 190/23/6 191/24/6 184/36/6
f 184/36/6 191/24/6 148/12/6 147/10/6
f 133/37/6 134/28/6 178/29/6 174/38/6
f 175/39/6 180/31/6 181/32/6 176/40/6
f 176/40/6 181/32/6 182/33/6 177/41/6
f 132/42/6 133/37/6 174/38/6 170/43/6
f 171/44/6 175/39/6 176/40/6 172/45/6
f 172/45/6 176/40/6 177/41/6 173/46/6
f 131/47/6 132/42/6 170/43/6 163/48/6
f 165/49/6 171/44/6 172/45/6 166/50/6
f 166/50/6 172/45/6 173/46/6 167/51/6
f 130/52/6 131/47/6 163/48/6 156/53/6
f 156/53/6 163/48/6 164/55/6 157/54/6
f 158/56/6 165/49/6 166/50/6 159/57/6
f 159/57/6 166/50/6 167/51/6 160/58/6
f 160/58/6 167/51/6 168/60/6 161/59/6
f 161/59/6 168/60/6 169/62/6 162/61/6
f 162/61/6 169/62/6 144/4/6 143/1/6
f 129/63/6 130/52/6 156/53/6 149/64/6
f 149/64/6 156/53/6 157/54/6 150/65/6
f 151/66/6 159/57/6 160/58/6 152/67/6
f 152/67/6 160/58/6 161/59/6 153/68/6
f 153/68/6 161/59/6 162/61/6 154/69/6
f 154/69/6 162/61/6 143/1/6 155/70/6
f 78/16/4 122/15/4 192/15/4 136/16/4
f 101/48/4 102/55/4 164/55/4 163/48/4
f 77/13/3 78/16/3 136/16/3 135/13/3
f 108/44/3 111/39/3 175/39/3 171/44/3
f 122/15/4 123/18/4 193/18/4 192/15/4
f 79/11/2 80/9/2 138/9/2 137/11/2
f 123/18/4 124/20/4 194/20/4 193/18/4
f 80/9/2 81/7/2 139/7/2 138/9/2
f 112/41/2 109/46/2 173/46/2 177/41/2
f 124/20/4 125/22/4 195/22/4 194/20/4
f 104/51/4 105/60/4 168/60/4 167/51/4
f 81/7/2 82/5/2 140/5/2 139/7/2
f 87/6/3 88/8/3 146/8/3 145/6/3
f 126/26/4 127/25/4 197/25/4 196/26/4
f 105/60/4 106/62/4 169/62/4 168/60/4
f 82/5/2 83/3/2 141/3/2 140/5/2
f 107/43/2 101/48/2 163/48/2 170/43/2
f 127/25/4 128/27/4 198/27/4 197/25/4
