# Blender 5.0.0
# www.blender.org
mtllib slash.mtl
o Plane
v -0.000008 -1.000000 -0.555556
v -0.000008 -1.000000 -0.333333
v -0.000008 -1.000000 -0.111111
v 0.000008 1.000000 0.555556
v 0.000008 1.000000 0.333333
v 0.000008 1.000000 0.111111
v 0.000006 0.777778 0.555556
v 0.000004 0.555556 0.555556
v 0.000004 0.555556 0.333333
v 0.000003 0.333333 0.333333
v 0.000001 0.111111 0.333333
v 0.000006 0.777778 0.111111
v 0.000004 0.555556 0.111111
v 0.000001 0.111111 0.111111
v -0.000001 -0.111111 0.111111
v -0.000003 -0.333333 0.111111
v -0.000004 -0.555556 0.111111
v 0.000004 0.555556 -0.111111
v 0.000003 0.333333 -0.111111
v 0.000001 0.111111 -0.111111
v -0.000001 -0.111111 -0.111111
v -0.000004 -0.555556 -0.111111
v -0.000006 -0.777778 -0.111111
v -0.000001 -0.111111 -0.333333
v -0.000003 -0.333333 -0.333333
v -0.000004 -0.555556 -0.333333
v -0.000004 -0.555556 -0.555556
v -0.000006 -0.777778 -0.555556
v -0.500008 -0.999996 -0.555556
v -0.500008 -0.999996 -0.333333
v -0.500008 -0.999996 -0.111111
v -0.499992 1.000004 0.555556
v -0.499992 1.000004 0.333333
v -0.499992 1.000004 0.111111
v -0.500006 -0.777774 -0.111111
v -0.500006 -0.777774 -0.333333
v -0.500006 -0.777774 -0.555556
v -0.499994 0.777782 0.555556
v -0.499996 0.555560 0.555556
v -0.499994 0.777782 0.333333
v -0.499996 0.555560 0.333333
v -0.499997 0.333337 0.333333
v -0.499999 0.111115 0.333333
v -0.499994 0.777782 0.111111
v -0.499996 0.555560 0.111111
v -0.499997 0.333337 0.111111
v -0.499999 0.111115 0.111111
v -0.500001 -0.111107 0.111111
v -0.500003 -0.333329 0.111111
v -0.500004 -0.555552 0.111111
v -0.499996 0.555560 -0.111111
v -0.499997 0.333337 -0.111111
v -0.499999 0.111115 -0.111111
v -0.500001 -0.111107 -0.111111
v -0.500003 -0.333329 -0.111111
v -0.500004 -0.555552 -0.111111
v -0.500001 -0.111107 -0.333333
v -0.500003 -0.333329 -0.333333
v -0.500004 -0.555552 -0.333333
v -0.500004 -0.555552 -0.555556
vn -0.0000 -0.0000 1.0000
vn -0.0000 -0.0000 -1.0000
vn -0.0000 -1.0000 -0.0000
vn -0.0000 1.0000 -0.0000
vn -1.0000 -0.0000 -0.0000
vn 1.0000 -0.0000 -0.0000
vt 0.555556 0.333333
vt 0.666667 0.333333
vt 0.444444 0.666667
vt 0.333333 0.666667
vt 0.777778 0.333333
vt 0.000000 0.000000
vt 0.222222 0.444444
vt 0.333333 0.444444
vt 0.777778 0.222222
vt 0.444444 0.555556
vt 0.444444 0.444444
vt 0.222222 0.777778
vt 0.111111 0.777778
vt 0.555556 0.444444
vt 0.777778 0.444444
vt 0.777778 0.555556
vt 0.111111 0.555556
vt 0.222222 0.555556
vt 0.888889 0.444444
vt 1.000000 0.444444
vt 0.888889 0.222222
vt 1.000000 0.222222
vt 1.000000 0.333333
vt 0.888889 0.333333
vt 0.000000 0.666667
vt 0.111111 0.666667
vt 0.000000 0.777778
vt 0.222222 0.666667
vt 0.000000 0.555556
vt 0.333333 0.555556
vt 0.555556 0.555556
vt 0.666667 0.444444
vt 0.666667 0.555556
s 0
f 11/1/1 10/2/1 42/2/1 43/1/1
f 24/3/2 25/4/2 58/4/2 57/3/2
f 10/2/1 9/5/1 41/5/1 42/2/1
f 2/6/3 3/6/3 31/6/3 30/6/3
f 17/7/1 16/8/1 49/8/1 50/7/1
f 9/5/3 8/9/3 39/9/3 41/5/3
f 21/10/4 24/3/4 57/3/4 54/10/4
f 1/6/3 2/6/3 30/6/3 29/6/3
f 16/8/1 15/11/1 48/11/1 49/8/1
f 27/12/2 28/13/2 37/13/2 60/12/2
f 15/11/1 14/14/1 47/14/1 48/11/1
f 13/15/4 18/16/4 51/16/4 45/15/4
f 23/17/1 22/18/1 56/18/1 35/17/1
f 12/19/2 13/15/2 45/15/2 44/19/2
f 5/6/4 6/6/4 34/6/4 33/6/4
f 6/20/2 12/19/2 44/19/2 34/20/2
f 4/6/4 5/6/4 33/6/4 32/6/4
f 38/21/5 32/22/5 33/23/5 40/24/5
f 40/24/5 33/23/5 34/20/5 44/19/5
f 30/25/5 36/26/5 37/13/5 29/27/5
f 36/26/5 59/28/5 60/12/5 37/13/5
f 31/29/5 35/17/5 36/26/5 30/25/5
f 35/17/5 56/18/5 59/28/5 36/26/5
f 56/18/5 55/30/5 58/4/5 59/28/5
f 55/30/5 54/10/5 57/3/5 58/4/5
f 50/7/5 49/8/5 55/30/5 56/18/5
f 49/8/5 48/11/5 54/10/5 55/30/5
f 48/11/5 47/14/5 53/31/5 54/10/5
f 47/14/5 46/32/5 52/33/5 53/31/5
f 46/32/5 45/15/5 51/16/5 52/33/5
f 43/1/5 42/2/5 46/32/5 47/14/5
f 42/2/5 41/5/5 45/15/5 46/32/5
f 41/5/5 40/24/5 44/19/5 45/15/5
f 39/9/5 38/21/5 40/24/5 41/5/5
f 25/4/2 26/28/2 59/28/2 58/4/2
f 26/28/4 27/12/4 60/12/4 59/28/4
f 14/14/3 11/1/3 43/1/3 47/14/3
f 3/29/1 23/17/1 35/17/1 31/29/1
f 18/16/2 19/33/2 52/33/2 51/16/2
f 7/21/1 4/22/1 32/22/1 38/21/1
f 19/33/2 20/31/2 53/31/2 52/33/2
f 22/18/3 17/7/3 50/7/3 56/18/3
f 28/13/2 1/27/2 29/27/2 37/13/2
f 8/9/1 7/21/1 38/21/1 39/9/1
f 20/31/2 21/10/2 54/10/2 53/31/2
f 1/27/6 28/13/6 27/12/6 26/28/6 25/4/6 24/3/6 21/10/6 20/31/6 19/33/6 18/16/6 13/15/6 12/19/6 6/20/6 5/6/6 4/6/6 7/21/6 8/9/6 9/5/6 10/2/6 11/1/6 14/14/6 15/11/6 16/8/6 17/7/6 22/18/6 23/17/6 3/29/6 2/6/6
