# Blender 5.0.0
# www.blender.org
mtllib T.mtl
o Plane.018
v 0.333333 -1.000000 0.000000
v 0.111111 -1.000000 0.000000
v -0.111111 -1.000000 0.000000
v -0.333334 -1.000000 0.000000
v -0.777777 1.000000 0.000000
v -0.555555 1.000000 0.000000
v -0.333333 1.000000 -0.000000
v -0.111111 1.000000 -0.000000
v 0.111111 1.000000 -0.000000
v 0.333334 1.000000 -0.000000
v 0.555556 1.000000 -0.000000
v 0.777778 1.000000 -0.000000
v 0.777778 0.555555 -0.000000
v 0.777778 0.777778 -0.000000
v 0.555556 0.555555 -0.000000
v 0.555556 0.777778 -0.000000
v 0.333333 -0.777778 0.000000
v 0.333333 -0.555556 -0.000000
v 0.333333 -0.333333 -0.000000
v 0.333333 -0.111111 -0.000000
v 0.333333 0.111111 -0.000000
v 0.333333 0.333333 -0.000000
v 0.333334 0.555555 -0.000000
v 0.333334 0.777778 -0.000000
v 0.111111 -0.777778 0.000000
v 0.111111 -0.555556 0.000000
v 0.111111 -0.333333 0.000000
v 0.111111 -0.111111 -0.000000
v 0.111111 0.111111 -0.000000
v 0.111111 0.333333 -0.000000
v 0.111111 0.555556 -0.000000
v 0.111111 0.777778 -0.000000
v -0.111111 -0.777778 0.000000
v -0.111111 -0.555556 0.000000
v -0.111111 -0.333333 0.000000
v -0.111111 -0.111111 0.000000
v -0.111111 0.111111 0.000000
v -0.111111 0.333333 -0.000000
v -0.111111 0.555556 -0.000000
v -0.111111 0.777778 -0.000000
v -0.333334 -0.777778 0.000000
v -0.333334 -0.555555 0.000000
v -0.333333 -0.333333 0.000000
v -0.333333 -0.111111 0.000000
v -0.333333 0.111111 0.000000
v -0.333333 0.333333 0.000000
v -0.333333 0.555556 0.000000
v -0.333333 0.777778 -0.000000
v -0.555555 0.555556 0.000000
v -0.555555 0.777778 0.000000
v -0.777778 0.555556 0.000000
v -0.777778 0.777778 0.000000
v 0.333333 -1.000000 0.000000
v 0.111111 -1.000000 0.000000
v -0.111111 -1.000000 0.000000
v -0.333334 -1.000000 0.000000
v -0.777777 1.000000 0.000000
v -0.555555 1.000000 0.000000
v -0.333333 1.000000 -0.000000
v -0.111111 1.000000 -0.000000
v 0.111111 1.000000 -0.000000
v 0.333334 1.000000 -0.000000
v 0.555556 1.000000 -0.000000
v 0.777778 1.000000 -0.000000
v 0.777778 0.777778 -0.000000
v -0.777778 0.777778 0.000000
v 0.777778 0.555555 -0.000000
v 0.555556 0.555555 -0.000000
v 0.333333 -0.777778 0.000000
v 0.333333 -0.555556 -0.000000
v 0.333333 -0.333333 -0.000000
v 0.333333 -0.111111 -0.000000
v 0.333333 0.111111 -0.000000
v 0.333333 0.333333 -0.000000
v 0.333334 0.555555 -0.000000
v -0.333334 -0.777778 0.000000
v -0.333334 -0.555555 0.000000
v -0.333333 -0.333333 0.000000
v -0.333333 -0.111111 0.000000
v -0.333333 0.111111 0.000000
v -0.333333 0.333333 0.000000
v -0.333333 0.555556 0.000000
v -0.555555 0.555556 0.000000
v -0.777778 0.555556 0.000000
v 0.333333 -1.000000 -0.504286
v 0.111111 -1.000000 -0.504286
v -0.111112 -1.000000 -0.504286
v -0.333334 -1.000000 -0.504286
v -0.777778 1.000000 -0.504286
v -0.555555 1.000000 -0.504286
v -0.333333 1.000000 -0.504286
v -0.111111 1.000000 -0.504286
v 0.111111 1.000000 -0.504286
v 0.333334 1.000000 -0.504286
v 0.555556 1.000000 -0.504286
v 0.777778 1.000000 -0.504286
v 0.777778 0.777778 -0.504286
v 0.555556 0.777778 -0.504286
v 0.333334 0.777778 -0.504286
v 0.111111 0.777778 -0.504286
v -0.111111 0.777778 -0.504286
v -0.333333 0.777778 -0.504286
v -0.555555 0.777778 -0.504286
v -0.777778 0.777778 -0.504286
v 0.777778 0.555555 -0.504286
v 0.555556 0.555555 -0.504286
v 0.333333 -0.777778 -0.504286
v 0.333333 -0.555556 -0.504286
v 0.333333 -0.333333 -0.504286
v 0.333333 -0.111111 -0.504286
v 0.333333 0.111111 -0.504286
v 0.333333 0.333333 -0.504286
v 0.333333 0.555555 -0.504286
v 0.111111 -0.777778 -0.504286
v 0.111111 -0.555556 -0.504286
v 0.111111 -0.333333 -0.504286
v 0.111111 -0.111111 -0.504286
v 0.111111 0.111111 -0.504286
v 0.111111 0.333333 -0.504286
v 0.111111 0.555556 -0.504286
v -0.111111 -0.777778 -0.504286
v -0.111111 -0.555556 -0.504286
v -0.111111 -0.333333 -0.504286
v -0.111111 -0.111111 -0.504286
v -0.111111 0.111111 -0.504286
v -0.111111 0.333333 -0.504286
v -0.111111 0.555556 -0.504286
v -0.333334 -0.777778 -0.504286
v -0.333334 -0.555555 -0.504286
v -0.333333 -0.333333 -0.504286
v -0.333333 -0.111111 -0.504286
v -0.333333 0.111111 -0.504286
v -0.333333 0.333333 -0.504286
v -0.333333 0.555556 -0.504286
v -0.555555 0.555556 -0.504286
v -0.777778 0.555556 -0.504286
vn -0.0000 -0.0000 1.0000
vn -0.0000 1.0000 -0.0000
vn -1.0000 -0.0000 -0.0000
vn 1.0000 -0.0000 -0.0000
vn -0.0000 -1.0000 -0.0000
vn -0.0000 -0.0000 -1.0000
vt 0.111111 0.888889
vt 0.111111 1.000000
vt 0.222222 1.000000
vt 0.222222 0.888889
vt 0.333333 1.000000
vt 0.333333 0.888889
vt 0.444444 1.000000
vt 0.444444 0.888889
vt 0.555556 1.000000
vt 0.555556 0.888889
vt 0.666667 1.000000
vt 0.666667 0.888889
vt 0.777778 1.000000
vt 0.777778 0.888889
vt 0.888889 1.000000
vt 0.888889 0.888889
vt 0.777778 0.777778
vt 0.888889 0.777778
vt 0.666667 0.777778
vt 0.555556 0.000000
vt 0.555556 0.111111
vt 0.666667 0.111111
vt 0.666667 0.000000
vt 0.555556 0.222222
vt 0.666667 0.222222
vt 0.555556 0.333333
vt 0.666667 0.333333
vt 0.555556 0.444444
vt 0.666667 0.444444
vt 0.555556 0.555556
vt 0.666667 0.555556
vt 0.555556 0.666667
vt 0.666667 0.666667
vt 0.555556 0.777778
vt 0.444444 0.000000
vt 0.444444 0.111111
vt 0.444444 0.222222
vt 0.444444 0.333333
vt 0.444444 0.444444
vt 0.444444 0.555556
vt 0.444444 0.666667
vt 0.444444 0.777778
vt 0.333333 0.000000
vt 0.333333 0.111111
vt 0.333333 0.222222
vt 0.333333 0.333333
vt 0.333333 0.444444
vt 0.333333 0.555556
vt 0.333333 0.666667
vt 0.333333 0.777778
vt 0.222222 0.777778
vt 0.111111 0.777778
s 0
f 14/1/1 12/2/1 11/3/1 16/4/1
f 16/4/1 11/3/1 10/5/1 24/6/1
f 24/6/1 10/5/1 9/7/1 32/8/1
f 32/8/1 9/7/1 8/9/1 40/10/1
f 40/10/1 8/9/1 7/11/1 48/12/1
f 48/12/1 7/11/1 6/13/1 50/14/1
f 50/14/1 6/13/1 5/15/1 52/16/1
f 49/17/1 50/14/1 52/16/1 51/18/1
f 47/19/1 48/12/1 50/14/1 49/17/1
f 3/20/1 33/21/1 41/22/1 4/23/1
f 33/21/1 34/24/1 42/25/1 41/22/1
f 34/24/1 35/26/1 43/27/1 42/25/1
f 35/26/1 36/28/1 44/29/1 43/27/1
f 36/28/1 37/30/1 45/31/1 44/29/1
f 37/30/1 38/32/1 46/33/1 45/31/1
f 38/32/1 39/34/1 47/19/1 46/33/1
f 39/34/1 40/10/1 48/12/1 47/19/1
f 2/35/1 25/36/1 33/21/1 3/20/1
f 25/36/1 26/37/1 34/24/1 33/21/1
f 26/37/1 27/38/1 35/26/1 34/24/1
f 27/38/1 28/39/1 36/28/1 35/26/1
f 28/39/1 29/40/1 37/30/1 36/28/1
f 29/40/1 30/41/1 38/32/1 37/30/1
f 30/41/1 31/42/1 39/34/1 38/32/1
f 31/42/1 32/8/1 40/10/1 39/34/1
f 1/43/1 17/44/1 25/36/1 2/35/1
f 17/44/1 18/45/1 26/37/1 25/36/1
f 18/45/1 19/46/1 27/38/1 26/37/1
f 19/46/1 20/47/1 28/39/1 27/38/1
f 20/47/1 21/48/1 29/40/1 28/39/1
f 21/48/1 22/49/1 30/41/1 29/40/1
f 22/49/1 23/50/1 31/42/1 30/41/1
f 23/50/1 24/6/1 32/8/1 31/42/1
f 15/51/1 16/4/1 24/6/1 23/50/1
f 13/52/1 14/1/1 16/4/1 15/51/1
f 59/11/2 60/9/2 92/9/2 91/11/2
f 76/22/3 77/25/3 129/25/3 128/22/3
f 65/1/4 67/52/4 105/52/4 97/1/4
f 58/13/2 59/11/2 91/11/2 90/13/2
f 56/23/3 76/22/3 128/22/3 88/23/3
f 66/16/3 57/15/3 89/15/3 104/16/3
f 67/52/5 68/51/5 106/51/5 105/52/5
f 57/15/2 58/13/2 90/13/2 89/15/2
f 82/19/5 83/17/5 135/17/5 134/19/5
f 55/20/5 56/23/5 88/23/5 87/20/5
f 68/51/5 75/50/5 113/50/5 106/51/5
f 54/35/5 55/20/5 87/20/5 86/35/5
f 83/17/5 84/18/5 136/18/5 135/17/5
f 53/43/5 54/35/5 86/35/5 85/43/5
f 84/18/3 66/16/3 104/16/3 136/18/3
f 75/50/4 74/49/4 112/49/4 113/50/4
f 74/49/4 73/48/4 111/48/4 112/49/4
f 73/48/4 72/47/4 110/47/4 111/48/4
f 64/2/4 65/1/4 97/1/4 96/2/4
f 81/33/3 82/19/3 134/19/3 133/33/3
f 72/47/4 71/46/4 109/46/4 110/47/4
f 63/3/2 64/2/2 96/2/2 95/3/2
f 80/31/3 81/33/3 133/33/3 132/31/3
f 71/46/4 70/45/4 108/45/4 109/46/4
f 62/5/2 63/3/2 95/3/2 94/5/2
f 79/29/3 80/31/3 132/31/3 131/29/3
f 70/45/4 69/44/4 107/44/4 108/45/4
f 61/7/2 62/5/2 94/5/2 93/7/2
f 78/27/3 79/29/3 131/29/3 130/27/3
f 69/44/4 53/43/4 85/43/4 107/44/4
f 60/9/2 61/7/2 93/7/2 92/9/2
f 77/25/3 78/27/3 130/27/3 129/25/3
f 43/27/6 44/29/6 79/29/6 78/27/6
f 9/7/6 10/5/6 62/5/6 61/7/6
f 18/45/6 17/44/6 69/44/6 70/45/6
f 44/29/6 45/31/6 80/31/6 79/29/6
f 10/5/6 11/3/6 63/3/6 62/5/6
f 19/46/6 18/45/6 70/45/6 71/46/6
f 45/31/6 46/33/6 81/33/6 80/31/6
f 11/3/6 12/2/6 64/2/6 63/3/6
f 20/47/6 19/46/6 71/46/6 72/47/6
f 46/33/6 47/19/6 82/19/6 81/33/6
f 12/2/6 14/1/6 65/1/6 64/2/6
f 21/48/6 20/47/6 72/47/6 73/48/6
f 22/49/6 21/48/6 73/48/6 74/49/6
f 23/50/6 22/49/6 74/49/6 75/50/6
f 51/18/6 52/16/6 66/16/6 84/18/6
f 1/43/6 2/35/6 54/35/6 53/43/6
f 49/17/6 51/18/6 84/18/6 83/17/6
f 2/35/6 3/20/6 55/20/6 54/35/6
f 15/51/6 23/50/6 75/50/6 68/51/6
f 3/20/6 4/23/6 56/23/6 55/20/6
f 47/19/6 49/17/6 83/17/6 82/19/6
f 5/15/6 6/13/6 58/13/6 57/15/6
f 13/52/6 15/51/6 68/51/6 67/52/6
f 52/16/6 5/15/6 57/15/6 66/16/6
f 4/23/6 41/22/6 76/22/6 56/23/6
f 6/13/6 7/11/6 59/11/6 58/13/6
f 14/1/6 13/52/6 67/52/6 65/1/6
f 41/22/6 42/25/6 77/25/6 76/22/6
f 7/11/6 8/9/6 60/9/6 59/11/6
f 42/25/6 43/27/6 78/27/6 77/25/6
f 8/9/6 9/7/6 61/7/6 60/9/6
f 17/44/6 1/43/6 53/43/6 69/44/6
f 97/1/6 98/4/6 95/3/6 96/2/6
f 98/4/6 99/6/6 94/5/6 95/3/6
f 99/6/6 100/8/6 93/7/6 94/5/6
f 100/8/6 101/10/6 92/9/6 93/7/6
f 101/10/6 102/12/6 91/11/6 92/9/6
f 102/12/6 103/14/6 90/13/6 91/11/6
f 103/14/6 104/16/6 89/15/6 90/13/6
f 135/17/6 136/18/6 104/16/6 103/14/6
f 134/19/6 135/17/6 103/14/6 102/12/6
f 87/20/6 88/23/6 128/22/6 121/21/6
f 121/21/6 128/22/6 129/25/6 122/24/6
f 122/24/6 129/25/6 130/27/6 123/26/6
f 123/26/6 130/27/6 131/29/6 124/28/6
f 124/28/6 131/29/6 132/31/6 125/30/6
f 125/30/6 132/31/6 133/33/6 126/32/6
f 126/32/6 133/33/6 134/19/6 127/34/6
f 127/34/6 134/19/6 102/12/6 101/10/6
f 86/35/6 87/20/6 121/21/6 114/36/6
f 114/36/6 121/21/6 122/24/6 115/37/6
f 115/37/6 122/24/6 123/26/6 116/38/6
f 116/38/6 123/26/6 124/28/6 117/39/6
f 117/39/6 124/28/6 125/30/6 118/40/6
f 118/40/6 125/30/6 126/32/6 119/41/6
f 119/41/6 126/32/6 127/34/6 120/42/6
f 120/42/6 127/34/6 101/10/6 100/8/6
f 85/43/6 86/35/6 114/36/6 107/44/6
f 107/44/6 114/36/6 115/37/6 108/45/6
f 108/45/6 115/37/6 116/38/6 109/46/6
f 109/46/6 116/38/6 117/39/6 110/47/6
f 110/47/6 117/39/6 118/40/6 111/48/6
f 111/48/6 118/40/6 119/41/6 112/49/6
f 112/49/6 119/41/6 120/42/6 113/50/6
f 113/50/6 120/42/6 100/8/6 99/6/6
f 106/51/6 113/50/6 99/6/6 98/4/6
f 105/52/6 106/51/6 98/4/6 97/1/6
