# Blender 5.0.0
# www.blender.org
mtllib U.mtl
o Plane.019
v 0.777777 -1.000000 -0.000000
v 0.555555 -1.000000 -0.000000
v 0.333333 -1.000000 0.000000
v 0.111111 -1.000000 0.000000
v -0.111111 -1.000000 0.000000
v -0.333334 -1.000000 0.000000
v -0.555556 -1.000000 0.000000
v -0.777778 -1.000000 0.000000
v -0.777777 1.000000 0.000000
v -0.555555 1.000000 0.000000
v -0.333333 1.000000 -0.000000
v 0.333334 1.000000 -0.000000
v 0.555556 1.000000 -0.000000
v 0.777778 1.000000 -0.000000
v 0.777778 -0.777778 -0.000000
v 0.777778 -0.555556 -0.000000
v 0.777778 -0.333334 -0.000000
v 0.777778 -0.111111 -0.000000
v 0.777778 0.111111 -0.000000
v 0.777778 0.333333 -0.000000
v 0.777778 0.555555 -0.000000
v 0.777778 0.777778 -0.000000
v 0.555555 -0.777778 -0.000000
v 0.555555 -0.555556 -0.000000
v 0.555555 -0.333334 -0.000000
v 0.555556 -0.111111 -0.000000
v 0.555556 0.111111 -0.000000
v 0.555556 0.333333 -0.000000
v 0.555556 0.555555 -0.000000
v 0.555556 0.777778 -0.000000
v 0.333333 -0.777778 0.000000
v 0.333333 -0.555556 -0.000000
v 0.333333 -0.333333 -0.000000
v 0.333333 -0.111111 -0.000000
v 0.333333 0.111111 -0.000000
v 0.333333 0.333333 -0.000000
v 0.333334 0.555555 -0.000000
v 0.333334 0.777778 -0.000000
v 0.111111 -0.777778 0.000000
v -0.111111 -0.777778 0.000000
v -0.333334 -0.777778 0.000000
v -0.333334 -0.555555 0.000000
v -0.333333 -0.333333 0.000000
v -0.333333 -0.111111 0.000000
v -0.333333 0.111111 0.000000
v -0.333333 0.333333 0.000000
v -0.333333 0.555556 0.000000
v -0.333333 0.777778 -0.000000
v -0.555556 -0.777778 0.000000
v -0.555556 -0.555555 0.000000
v -0.555556 -0.333333 0.000000
v -0.555556 -0.111111 0.000000
v -0.555556 0.111111 0.000000
v -0.555555 0.333334 0.000000
v -0.555555 0.555556 0.000000
v -0.555555 0.777778 0.000000
v -0.777778 -0.777778 0.000000
v -0.777778 -0.555555 0.000000
v -0.777778 -0.333333 0.000000
v -0.777778 -0.111111 0.000000
v -0.777778 0.111111 0.000000
v -0.777778 0.333334 0.000000
v -0.777778 0.555556 0.000000
v -0.777778 0.777778 0.000000
v 0.777777 -1.000000 -0.504286
v 0.555555 -1.000000 -0.504286
v 0.333333 -1.000000 -0.504286
v 0.111111 -1.000000 -0.504286
v -0.111112 -1.000000 -0.504286
v -0.333334 -1.000000 -0.504286
v -0.555556 -1.000000 -0.504285
v -0.777778 -1.000000 -0.504285
v -0.777778 1.000000 -0.504286
v -0.555555 1.000000 -0.504286
v -0.333333 1.000000 -0.504286
v 0.333334 1.000000 -0.504286
v 0.555556 1.000000 -0.504286
v 0.777778 1.000000 -0.504286
v 0.777778 0.777778 -0.504286
v 0.555556 0.777778 -0.504286
v 0.333334 0.777778 -0.504286
v -0.333333 0.777778 -0.504286
v -0.555555 0.777778 -0.504286
v -0.777778 0.777778 -0.504286
v 0.777777 -0.777778 -0.504286
v 0.777778 -0.555556 -0.504286
v 0.777778 -0.333334 -0.504286
v 0.777778 -0.111111 -0.504286
v 0.777778 0.111111 -0.504286
v 0.777778 0.333333 -0.504286
v 0.777778 0.555555 -0.504286
v 0.555555 -0.777778 -0.504286
v 0.555555 -0.555556 -0.504286
v 0.555555 -0.333334 -0.504286
v 0.555555 -0.111111 -0.504286
v 0.555556 0.111111 -0.504286
v 0.555556 0.333333 -0.504286
v 0.555556 0.555555 -0.504286
v 0.333333 -0.777778 -0.504286
v 0.333333 -0.555556 -0.504286
v 0.333333 -0.333333 -0.504286
v 0.333333 -0.111111 -0.504286
v 0.333333 0.111111 -0.504286
v 0.333333 0.333333 -0.504286
v 0.333333 0.555555 -0.504286
v 0.111111 -0.777778 -0.504286
v -0.111111 -0.777778 -0.504286
v -0.333334 -0.777778 -0.504286
v -0.333334 -0.555555 -0.504286
v -0.333333 -0.333333 -0.504286
v -0.333333 -0.111111 -0.504286
v -0.333333 0.111111 -0.504286
v -0.333333 0.333333 -0.504286
v -0.333333 0.555556 -0.504286
v -0.555556 -0.777778 -0.504286
v -0.555556 -0.555555 -0.504286
v -0.555556 -0.333333 -0.504286
v -0.555556 -0.111111 -0.504286
v -0.555556 0.111111 -0.504286
v -0.555556 0.333333 -0.504286
v -0.555555 0.555556 -0.504286
v -0.777778 -0.777778 -0.504285
v -0.777778 -0.555555 -0.504285
v -0.777778 -0.333333 -0.504286
v -0.777778 -0.111111 -0.504286
v -0.777778 0.111111 -0.504286
v -0.777778 0.333334 -0.504286
v -0.777778 0.555556 -0.504286
vn -0.0000 -0.0000 1.0000
vn -0.0000 -0.0000 -1.0000
vn 1.0000 -0.0000 -0.0000
vn -0.0000 1.0000 -0.0000
vn -1.0000 -0.0000 -0.0000
vn -0.0000 -1.0000 -0.0000
vt 0.111111 0.888889
vt 0.111111 1.000000
vt 0.222222 1.000000
vt 0.222222 0.888889
vt 0.333333 1.000000
vt 0.333333 0.888889
vt 0.666667 0.888889
vt 0.666667 1.000000
vt 0.777778 1.000000
vt 0.777778 0.888889
vt 0.888889 1.000000
vt 0.888889 0.888889
vt 0.777778 0.000000
vt 0.777778 0.111111
vt 0.888889 0.111111
vt 0.888889 0.000000
vt 0.777778 0.222222
vt 0.888889 0.222222
vt 0.777778 0.333333
vt 0.888889 0.333333
vt 0.777778 0.444444
vt 0.888889 0.444444
vt 0.777778 0.555556
vt 0.888889 0.555556
vt 0.777778 0.666667
vt 0.888889 0.666667
vt 0.777778 0.777778
vt 0.888889 0.777778
vt 0.666667 0.000000
vt 0.666667 0.111111
vt 0.666667 0.222222
vt 0.666667 0.333333
vt 0.666667 0.444444
vt 0.666667 0.555556
vt 0.666667 0.666667
vt 0.666667 0.777778
vt 0.555556 0.000000
vt 0.555556 0.111111
vt 0.444444 0.000000
vt 0.444444 0.111111
vt 0.333333 0.000000
vt 0.333333 0.111111
vt 0.222222 0.000000
vt 0.222222 0.111111
vt 0.222222 0.222222
vt 0.333333 0.222222
vt 0.222222 0.333333
vt 0.333333 0.333333
vt 0.222222 0.444444
vt 0.333333 0.444444
vt 0.222222 0.555556
vt 0.333333 0.555556
vt 0.222222 0.666667
vt 0.333333 0.666667
vt 0.222222 0.777778
vt 0.333333 0.777778
vt 0.111111 0.000000
vt 0.111111 0.111111
vt 0.111111 0.222222
vt 0.111111 0.333333
vt 0.111111 0.444444
vt 0.111111 0.555556
vt 0.111111 0.666667
vt 0.111111 0.777778
s 0
f 22/1/1 14/2/1 13/3/1 30/4/1
f 30/4/1 13/3/1 12/5/1 38/6/1
f 48/7/1 11/8/1 10/9/1 56/10/1
f 56/10/1 10/9/1 9/11/1 64/12/1
f 7/13/1 49/14/1 57/15/1 8/16/1
f 49/14/1 50/17/1 58/18/1 57/15/1
f 50/17/1 51/19/1 59/20/1 58/18/1
f 51/19/1 52/21/1 60/22/1 59/20/1
f 52/21/1 53/23/1 61/24/1 60/22/1
f 53/23/1 54/25/1 62/26/1 61/24/1
f 54/25/1 55/27/1 63/28/1 62/26/1
f 55/27/1 56/10/1 64/12/1 63/28/1
f 6/29/1 41/30/1 49/14/1 7/13/1
f 41/30/1 42/31/1 50/17/1 49/14/1
f 42/31/1 43/32/1 51/19/1 50/17/1
f 43/32/1 44/33/1 52/21/1 51/19/1
f 44/33/1 45/34/1 53/23/1 52/21/1
f 45/34/1 46/35/1 54/25/1 53/23/1
f 46/35/1 47/36/1 55/27/1 54/25/1
f 47/36/1 48/7/1 56/10/1 55/27/1
f 5/37/1 40/38/1 41/30/1 6/29/1
f 4/39/1 39/40/1 40/38/1 5/37/1
f 3/41/1 31/42/1 39/40/1 4/39/1
f 2/43/1 23/44/1 31/42/1 3/41/1
f 23/44/1 24/45/1 32/46/1 31/42/1
f 24/45/1 25/47/1 33/48/1 32/46/1
f 25/47/1 26/49/1 34/50/1 33/48/1
f 26/49/1 27/51/1 35/52/1 34/50/1
f 27/51/1 28/53/1 36/54/1 35/52/1
f 28/53/1 29/55/1 37/56/1 36/54/1
f 29/55/1 30/4/1 38/6/1 37/56/1
f 1/57/1 15/58/1 23/44/1 2/43/1
f 15/58/1 16/59/1 24/45/1 23/44/1
f 16/59/1 17/60/1 25/47/1 24/45/1
f 17/60/1 18/61/1 26/49/1 25/47/1
f 18/61/1 19/62/1 27/51/1 26/49/1
f 19/62/1 20/63/1 28/53/1 27/51/1
f 20/63/1 21/64/1 29/55/1 28/53/1
f 21/64/1 22/1/1 30/4/1 29/55/1
f 79/1/2 80/4/2 77/3/2 78/2/2
f 80/4/2 81/6/2 76/5/2 77/3/2
f 82/7/2 83/10/2 74/9/2 75/8/2
f 83/10/2 84/12/2 73/11/2 74/9/2
f 71/13/2 72/16/2 122/15/2 115/14/2
f 115/14/2 122/15/2 123/18/2 116/17/2
f 116/17/2 123/18/2 124/20/2 117/19/2
f 117/19/2 124/20/2 125/22/2 118/21/2
f 118/21/2 125/22/2 126/24/2 119/23/2
f 119/23/2 126/24/2 127/26/2 120/25/2
f 120/25/2 127/26/2 128/28/2 121/27/2
f 121/27/2 128/28/2 84/12/2 83/10/2
f 70/29/2 71/13/2 115/14/2 108/30/2
f 108/30/2 115/14/2 116/17/2 109/31/2
f 109/31/2 116/17/2 117/19/2 110/32/2
f 110/32/2 117/19/2 118/21/2 111/33/2
f 111/33/2 118/21/2 119/23/2 112/34/2
f 112/34/2 119/23/2 120/25/2 113/35/2
f 113/35/2 120/25/2 121/27/2 114/36/2
f 114/36/2 121/27/2 83/10/2 82/7/2
f 69/37/2 70/29/2 108/30/2 107/38/2
f 68/39/2 69/37/2 107/38/2 106/40/2
f 67/41/2 68/39/2 106/40/2 99/42/2
f 66/43/2 67/41/2 99/42/2 92/44/2
f 92/44/2 99/42/2 100/46/2 93/45/2
f 93/45/2 100/46/2 101/48/2 94/47/2
f 94/47/2 101/48/2 102/50/2 95/49/2
f 95/49/2 102/50/2 103/52/2 96/51/2
f 96/51/2 103/52/2 104/54/2 97/53/2
f 97/53/2 104/54/2 105/56/2 98/55/2
f 98/55/2 105/56/2 81/6/2 80/4/2
f 65/57/2 66/43/2 92/44/2 85/58/2
f 85/58/2 92/44/2 93/45/2 86/59/2
f 86/59/2 93/45/2 94/47/2 87/60/2
f 87/60/2 94/47/2 95/49/2 88/61/2
f 88/61/2 95/49/2 96/51/2 89/62/2
f 89/62/2 96/51/2 97/53/2 90/63/2
f 90/63/2 97/53/2 98/55/2 91/64/2
f 91/64/2 98/55/2 80/4/2 79/1/2
f 48/7/3 47/36/3 114/36/3 82/7/3
f 13/3/4 14/2/4 78/2/4 77/3/4
f 34/50/5 35/52/5 103/52/5 102/50/5
f 61/24/5 62/26/5 127/26/5 126/24/5
f 22/1/3 21/64/3 91/64/3 79/1/3
f 14/2/3 22/1/3 79/1/3 78/2/3
f 35/52/5 36/54/5 104/54/5 103/52/5
f 62/26/5 63/28/5 128/28/5 127/26/5
f 36/54/5 37/56/5 105/56/5 104/54/5
f 63/28/5 64/12/5 84/12/5 128/28/5
f 38/6/5 12/5/5 76/5/5 81/6/5
f 37/56/5 38/6/5 81/6/5 105/56/5
f 1/57/6 2/43/6 66/43/6 65/57/6
f 11/8/3 48/7/3 82/7/3 75/8/3
f 2/43/6 3/41/6 67/41/6 66/43/6
f 3/41/6 4/39/6 68/39/6 67/41/6
f 41/30/4 40/38/4 107/38/4 108/30/4
f 64/12/5 9/11/5 73/11/5 84/12/5
f 4/39/6 5/37/6 69/37/6 68/39/6
f 40/38/4 39/40/4 106/40/4 107/38/4
f 15/58/3 1/57/3 65/57/3 85/58/3
f 42/31/3 41/30/3 108/30/3 109/31/3
f 5/37/6 6/29/6 70/29/6 69/37/6
f 39/40/4 31/42/4 99/42/4 106/40/4
f 16/59/3 15/58/3 85/58/3 86/59/3
f 43/32/3 42/31/3 109/31/3 110/32/3
f 6/29/6 7/13/6 71/13/6 70/29/6
f 8/16/5 57/15/5 122/15/5 72/16/5
f 17/60/3 16/59/3 86/59/3 87/60/3
f 44/33/3 43/32/3 110/32/3 111/33/3
f 7/13/6 8/16/6 72/16/6 71/13/6
f 57/15/5 58/18/5 123/18/5 122/15/5
f 18/61/3 17/60/3 87/60/3 88/61/3
f 45/34/3 44/33/3 111/33/3 112/34/3
f 9/11/4 10/9/4 74/9/4 73/11/4
f 31/42/5 32/46/5 100/46/5 99/42/5
f 58/18/5 59/20/5 124/20/5 123/18/5
f 19/62/3 18/61/3 88/61/3 89/62/3
f 46/35/3 45/34/3 112/34/3 113/35/3
f 10/9/4 11/8/4 75/8/4 74/9/4
f 32/46/5 33/48/5 101/48/5 100/46/5
f 59/20/5 60/22/5 125/22/5 124/20/5
f 20/63/3 19/62/3 89/62/3 90/63/3
f 47/36/3 46/35/3 113/35/3 114/36/3
f 12/5/4 13/3/4 77/3/4 76/5/4
f 33/48/5 34/50/5 102/50/5 101/48/5
f 60/22/5 61/24/5 126/24/5 125/22/5
f 21/64/3 20/63/3 90/63/3 91/64/3
