# Blender 5.0.0
# www.blender.org
mtllib V.mtl
o Plane.020
v 0.333333 -1.000000 0.000000
v 0.111111 -1.000000 0.000000
v -0.111111 -1.000000 0.000000
v -0.777777 1.000000 0.000000
v -0.555555 1.000000 0.000000
v -0.333333 1.000000 -0.000000
v 0.333334 1.000000 -0.000000
v 0.555556 1.000000 -0.000000
v 0.777778 1.000000 -0.000000
v 0.777778 -0.111111 -0.000000
v 0.777778 0.111111 -0.000000
v 0.777778 0.333333 -0.000000
v 0.777778 0.555555 -0.000000
v 0.777778 0.777778 -0.000000
v 0.555555 -0.555556 -0.000000
v 0.555555 -0.333334 -0.000000
v 0.555556 -0.111111 -0.000000
v 0.555556 0.111111 -0.000000
v 0.555556 0.333333 -0.000000
v 0.555556 0.555555 -0.000000
v 0.555556 0.777778 -0.000000
v 0.333333 -0.777778 0.000000
v 0.333333 -0.555556 -0.000000
v 0.333333 -0.333333 -0.000000
v 0.333333 -0.111111 -0.000000
v 0.333333 0.111111 -0.000000
v 0.333333 0.333333 -0.000000
v 0.333334 0.555555 -0.000000
v 0.333334 0.777778 -0.000000
v 0.111111 -0.777778 0.000000
v 0.111111 -0.555556 0.000000
v 0.111111 -0.333333 0.000000
v 0.111111 -0.111111 -0.000000
v 0.111111 0.111111 -0.000000
v -0.111111 -0.777778 0.000000
v -0.111111 -0.555556 0.000000
v -0.111111 -0.333333 0.000000
v -0.111111 -0.111111 0.000000
v -0.111111 0.111111 0.000000
v -0.111111 0.333333 -0.000000
v -0.111111 0.555556 -0.000000
v -0.333334 -0.777778 0.000000
v -0.333334 -0.555555 0.000000
v -0.333333 -0.333333 0.000000
v -0.333333 -0.111111 0.000000
v -0.333333 0.111111 0.000000
v -0.333333 0.333333 0.000000
v -0.333333 0.555556 0.000000
v -0.333333 0.777778 -0.000000
v -0.555556 -0.111111 0.000000
v -0.555556 0.111111 0.000000
v -0.555555 0.333334 0.000000
v -0.555555 0.555556 0.000000
v -0.555555 0.777778 0.000000
v -0.777778 0.555556 0.000000
v -0.777778 0.777778 0.000000
v 0.333333 -1.000000 -0.504286
v 0.111111 -1.000000 -0.504286
v -0.111112 -1.000000 -0.504286
v -0.777778 1.000000 -0.504286
v -0.555555 1.000000 -0.504286
v -0.333333 1.000000 -0.504286
v 0.333334 1.000000 -0.504286
v 0.555556 1.000000 -0.504286
v 0.777778 1.000000 -0.504286
v 0.777778 0.777778 -0.504286
v 0.555556 0.777778 -0.504286
v 0.333334 0.777778 -0.504286
v -0.333333 0.777778 -0.504286
v -0.555555 0.777778 -0.504286
v -0.777778 0.777778 -0.504286
v 0.777778 -0.111111 -0.504286
v 0.777778 0.111111 -0.504286
v 0.777778 0.333333 -0.504286
v 0.777778 0.555555 -0.504286
v 0.555555 -0.555556 -0.504286
v 0.555555 -0.333334 -0.504286
v 0.555555 -0.111111 -0.504286
v 0.555556 0.111111 -0.504286
v 0.555556 0.333333 -0.504286
v 0.555556 0.555555 -0.504286
v 0.333333 -0.777778 -0.504286
v 0.333333 -0.555556 -0.504286
v 0.333333 -0.333333 -0.504286
v 0.333333 -0.111111 -0.504286
v 0.333333 0.111111 -0.504286
v 0.333333 0.333333 -0.504286
v 0.333333 0.555555 -0.504286
v 0.111111 -0.777778 -0.504286
v 0.111111 -0.555556 -0.504286
v 0.111111 -0.333333 -0.504286
v 0.111111 -0.111111 -0.504286
v 0.111111 0.111111 -0.504286
v -0.111111 -0.777778 -0.504286
v -0.111111 -0.555556 -0.504286
v -0.111111 -0.333333 -0.504286
v -0.111111 -0.111111 -0.504286
v -0.111111 0.111111 -0.504286
v -0.111111 0.333333 -0.504286
v -0.111111 0.555556 -0.504286
v -0.333334 -0.777778 -0.504286
v -0.333334 -0.555555 -0.504286
v -0.333333 -0.333333 -0.504286
v -0.333333 -0.111111 -0.504286
v -0.333333 0.111111 -0.504286
v -0.333333 0.333333 -0.504286
v -0.333333 0.555556 -0.504286
v -0.555556 -0.111111 -0.504286
v -0.555556 0.111111 -0.504286
v -0.555556 0.333333 -0.504286
v -0.555555 0.555556 -0.504286
v -0.777778 0.555556 -0.504286
vn -0.0000 -0.0000 1.0000
vn -0.0000 -0.0000 -1.0000
vn -0.0000 -1.0000 -0.0000
vn 1.0000 -0.0000 -0.0000
vn -1.0000 -0.0000 -0.0000
vn -0.0000 1.0000 -0.0000
vt 0.111111 0.888889
vt 0.111111 1.000000
vt 0.222222 1.000000
vt 0.222222 0.888889
vt 0.333333 1.000000
vt 0.333333 0.888889
vt 0.666667 0.888889
vt 0.666667 1.000000
vt 0.777778 1.000000
vt 0.777778 0.888889
vt 0.888889 1.000000
vt 0.888889 0.888889
vt 0.777778 0.777778
vt 0.888889 0.777778
vt 0.666667 0.444444
vt 0.666667 0.555556
vt 0.777778 0.555556
vt 0.777778 0.444444
vt 0.666667 0.666667
vt 0.777778 0.666667
vt 0.666667 0.777778
vt 0.555556 0.111111
vt 0.555556 0.222222
vt 0.666667 0.222222
vt 0.666667 0.111111
vt 0.555556 0.333333
vt 0.666667 0.333333
vt 0.555556 0.444444
vt 0.555556 0.555556
vt 0.555556 0.666667
vt 0.555556 0.777778
vt 0.444444 0.000000
vt 0.444444 0.111111
vt 0.555556 0.000000
vt 0.444444 0.222222
vt 0.444444 0.333333
vt 0.333333 0.000000
vt 0.333333 0.111111
vt 0.333333 0.222222
vt 0.333333 0.333333
vt 0.333333 0.444444
vt 0.444444 0.444444
vt 0.333333 0.555556
vt 0.444444 0.555556
vt 0.222222 0.222222
vt 0.222222 0.333333
vt 0.222222 0.444444
vt 0.222222 0.555556
vt 0.222222 0.666667
vt 0.333333 0.666667
vt 0.222222 0.777778
vt 0.333333 0.777778
vt 0.111111 0.444444
vt 0.111111 0.555556
vt 0.111111 0.666667
vt 0.111111 0.777778
s 0
f 14/1/1 9/2/1 8/3/1 21/4/1
f 21/4/1 8/3/1 7/5/1 29/6/1
f 49/7/1 6/8/1 5/9/1 54/10/1
f 54/10/1 5/9/1 4/11/1 56/12/1
f 53/13/1 54/10/1 56/12/1 55/14/1
f 45/15/1 46/16/1 51/17/1 50/18/1
f 46/16/1 47/19/1 52/20/1 51/17/1
f 47/19/1 48/21/1 53/13/1 52/20/1
f 48/21/1 49/7/1 54/10/1 53/13/1
f 35/22/1 36/23/1 43/24/1 42/25/1
f 36/23/1 37/26/1 44/27/1 43/24/1
f 37/26/1 38/28/1 45/15/1 44/27/1
f 38/28/1 39/29/1 46/16/1 45/15/1
f 39/29/1 40/30/1 47/19/1 46/16/1
f 40/30/1 41/31/1 48/21/1 47/19/1
f 2/32/1 30/33/1 35/22/1 3/34/1
f 30/33/1 31/35/1 36/23/1 35/22/1
f 31/35/1 32/36/1 37/26/1 36/23/1
f 1/37/1 22/38/1 30/33/1 2/32/1
f 22/38/1 23/39/1 31/35/1 30/33/1
f 23/39/1 24/40/1 32/36/1 31/35/1
f 24/40/1 25/41/1 33/42/1 32/36/1
f 25/41/1 26/43/1 34/44/1 33/42/1
f 15/45/1 16/46/1 24/40/1 23/39/1
f 16/46/1 17/47/1 25/41/1 24/40/1
f 17/47/1 18/48/1 26/43/1 25/41/1
f 18/48/1 19/49/1 27/50/1 26/43/1
f 19/49/1 20/51/1 28/52/1 27/50/1
f 20/51/1 21/4/1 29/6/1 28/52/1
f 10/53/1 11/54/1 18/48/1 17/47/1
f 11/54/1 12/55/1 19/49/1 18/48/1
f 12/55/1 13/56/1 20/51/1 19/49/1
f 13/56/1 14/1/1 21/4/1 20/51/1
f 66/1/2 67/4/2 64/3/2 65/2/2
f 67/4/2 68/6/2 63/5/2 64/3/2
f 69/7/2 70/10/2 61/9/2 62/8/2
f 70/10/2 71/12/2 60/11/2 61/9/2
f 111/13/2 112/14/2 71/12/2 70/10/2
f 104/15/2 108/18/2 109/17/2 105/16/2
f 105/16/2 109/17/2 110/20/2 106/19/2
f 106/19/2 110/20/2 111/13/2 107/21/2
f 107/21/2 111/13/2 70/10/2 69/7/2
f 94/22/2 101/25/2 102/24/2 95/23/2
f 95/23/2 102/24/2 103/27/2 96/26/2
f 96/26/2 103/27/2 104/15/2 97/28/2
f 97/28/2 104/15/2 105/16/2 98/29/2
f 98/29/2 105/16/2 106/19/2 99/30/2
f 99/30/2 106/19/2 107/21/2 100/31/2
f 58/32/2 59/34/2 94/22/2 89/33/2
f 89/33/2 94/22/2 95/23/2 90/35/2
f 90/35/2 95/23/2 96/26/2 91/36/2
f 57/37/2 58/32/2 89/33/2 82/38/2
f 82/38/2 89/33/2 90/35/2 83/39/2
f 83/39/2 90/35/2 91/36/2 84/40/2
f 84/40/2 91/36/2 92/42/2 85/41/2
f 85/41/2 92/42/2 93/44/2 86/43/2
f 76/45/2 83/39/2 84/40/2 77/46/2
f 77/46/2 84/40/2 85/41/2 78/47/2
f 78/47/2 85/41/2 86/43/2 79/48/2
f 79/48/2 86/43/2 87/50/2 80/49/2
f 80/49/2 87/50/2 88/52/2 81/51/2
f 81/51/2 88/52/2 68/6/2 67/4/2
f 72/53/2 78/47/2 79/48/2 73/54/2
f 73/54/2 79/48/2 80/49/2 74/55/2
f 74/55/2 80/49/2 81/51/2 75/56/2
f 75/56/2 81/51/2 67/4/2 66/1/2
f 53/13/3 55/14/3 112/14/3 111/13/3
f 13/56/4 12/55/4 74/55/4 75/56/4
f 41/31/4 40/30/4 99/30/4 100/31/4
f 2/32/3 3/34/3 59/34/3 58/32/3
f 27/50/5 28/52/5 88/52/5 87/50/5
f 14/1/4 13/56/4 75/56/4 66/1/4
f 42/25/5 43/24/5 102/24/5 101/25/5
f 4/11/6 5/9/6 61/9/6 60/11/6
f 28/52/5 29/6/5 68/6/5 88/52/5
f 45/15/3 50/18/3 108/18/3 104/15/3
f 10/53/3 17/47/3 78/47/3 72/53/3
f 16/46/4 15/45/4 76/45/4 77/46/4
f 43/24/5 44/27/5 103/27/5 102/24/5
f 37/26/6 32/36/6 91/36/6 96/26/6
f 5/9/6 6/8/6 62/8/6 61/9/6
f 17/47/4 16/46/4 77/46/4 78/47/4
f 44/27/5 45/15/5 104/15/5 103/27/5
f 7/5/6 8/3/6 64/3/6 63/5/6
f 8/3/6 9/2/6 65/2/6 64/3/6
f 9/2/4 14/1/4 66/1/4 65/2/4
f 32/36/5 33/42/5 92/42/5 91/36/5
f 33/42/5 34/44/5 93/44/5 92/42/5
f 35/22/3 42/25/3 101/25/3 94/22/3
f 49/7/4 48/21/4 107/21/4 69/7/4
f 34/44/6 26/43/6 86/43/6 93/44/6
f 29/6/5 7/5/5 63/5/5 68/6/5
f 3/34/5 35/22/5 94/22/5 59/34/5
f 22/38/4 1/37/4 57/37/4 82/38/4
f 50/18/5 51/17/5 109/17/5 108/18/5
f 15/45/3 23/39/3 83/39/3 76/45/3
f 6/8/4 49/7/4 69/7/4 62/8/4
f 23/39/4 22/38/4 82/38/4 83/39/4
f 51/17/5 52/20/5 110/20/5 109/17/5
f 52/20/5 53/13/5 111/13/5 110/20/5
f 56/12/5 4/11/5 60/11/5 71/12/5
f 38/28/4 37/26/4 96/26/4 97/28/4
f 11/54/4 10/53/4 72/53/4 73/54/4
f 39/29/4 38/28/4 97/28/4 98/29/4
f 55/14/5 56/12/5 71/12/5 112/14/5
f 12/55/4 11/54/4 73/54/4 74/55/4
f 40/30/4 39/29/4 98/29/4 99/30/4
f 48/21/6 41/31/6 100/31/6 107/21/6
f 1/37/3 2/32/3 58/32/3 57/37/3
f 26/43/5 27/50/5 87/50/5 86/43/5
