# Blender 5.0.0
# www.blender.org
mtllib W.mtl
o Plane.021
v 1.000000 -1.000000 -0.000000
v 1.000000 1.000000 -0.000000
v 0.777777 -1.000000 -0.000000
v 0.555555 -1.000000 -0.000000
v -0.555556 -1.000000 0.000000
v -0.777778 -1.000000 0.000000
v -0.777777 1.000000 0.000000
v -0.555555 1.000000 0.000000
v 0.555556 1.000000 -0.000000
v 0.777778 1.000000 -0.000000
v 1.000000 0.777777 -0.000000
v 1.000000 0.555555 -0.000000
v 1.000000 0.333333 -0.000000
v 1.000000 0.111111 -0.000000
v 1.000000 -0.111111 -0.000000
v 1.000000 -0.333334 -0.000000
v 1.000000 -0.555556 -0.000000
v 1.000000 -0.777778 -0.000000
v 0.777778 -0.777778 -0.000000
v 0.777778 -0.555556 -0.000000
v 0.777778 -0.333334 -0.000000
v 0.777778 -0.111111 -0.000000
v 0.777778 0.111111 -0.000000
v 0.777778 0.333333 -0.000000
v 0.777778 0.555555 -0.000000
v 0.777778 0.777778 -0.000000
v 0.555555 -0.777778 -0.000000
v 0.555555 -0.555556 -0.000000
v 0.555555 -0.333334 -0.000000
v 0.555556 -0.111111 -0.000000
v 0.555556 0.111111 -0.000000
v 0.555556 0.333333 -0.000000
v 0.555556 0.555555 -0.000000
v 0.555556 0.777778 -0.000000
v 0.333333 -0.333333 -0.000000
v 0.333333 -0.111111 -0.000000
v 0.333333 0.111111 -0.000000
v 0.333333 0.333333 -0.000000
v 0.333334 0.555555 -0.000000
v 0.111111 -0.111111 -0.000000
v 0.111111 0.111111 -0.000000
v 0.111111 0.333333 -0.000000
v 0.111111 0.555556 -0.000000
v 0.111111 0.777778 -0.000000
v -0.111111 -0.111111 0.000000
v -0.111111 0.111111 0.000000
v -0.111111 0.333333 -0.000000
v -0.111111 0.555556 -0.000000
v -0.111111 0.777778 -0.000000
v -0.333333 -0.333333 0.000000
v -0.333333 -0.111111 0.000000
v -0.333333 0.111111 0.000000
v -0.333333 0.333333 0.000000
v -0.333333 0.555556 0.000000
v -0.555556 -0.777778 0.000000
v -0.555556 -0.555555 0.000000
v -0.555556 -0.333333 0.000000
v -0.555556 -0.111111 0.000000
v -0.555556 0.111111 0.000000
v -0.555555 0.333334 0.000000
v -0.555555 0.555556 0.000000
v -0.555555 0.777778 0.000000
v -0.777778 -0.777778 0.000000
v -0.777778 -0.555555 0.000000
v -0.777778 -0.333333 0.000000
v -0.777778 -0.111111 0.000000
v -0.777778 0.111111 0.000000
v -0.777778 0.333334 0.000000
v -0.777778 0.555556 0.000000
v -0.777778 0.777778 0.000000
v 1.000000 -0.777778 -0.504286
v 1.000000 -1.000000 -0.504286
v 0.777778 1.000000 -0.504286
v 1.000000 1.000000 -0.504286
v 0.777777 -1.000000 -0.504286
v 0.555555 -1.000000 -0.504286
v -0.555556 -1.000000 -0.504285
v -0.777778 -1.000000 -0.504285
v -0.777778 1.000000 -0.504286
v -0.555555 1.000000 -0.504286
v 0.555556 1.000000 -0.504286
v 0.777778 0.777778 -0.504286
v 0.555556 0.777778 -0.504286
v -0.555555 0.777778 -0.504286
v -0.777778 0.777778 -0.504286
v 1.000000 0.777777 -0.504286
v 1.000000 0.555555 -0.504286
v 1.000000 0.333333 -0.504286
v 1.000000 0.111111 -0.504286
v 1.000000 -0.111111 -0.504286
v 1.000000 -0.333334 -0.504286
v 1.000000 -0.555556 -0.504286
v 0.777777 -0.777778 -0.504286
v 0.777778 -0.555556 -0.504286
v 0.777778 -0.333334 -0.504286
v 0.777778 -0.111111 -0.504286
v 0.777778 0.111111 -0.504286
v 0.777778 0.333333 -0.504286
v 0.777778 0.555555 -0.504286
v 0.555555 -0.777778 -0.504286
v 0.555555 -0.555556 -0.504286
v 0.555555 -0.333334 -0.504286
v 0.555555 -0.111111 -0.504286
v 0.555556 0.111111 -0.504286
v 0.555556 0.333333 -0.504286
v 0.555556 0.555555 -0.504286
v 0.333333 -0.333333 -0.504286
v 0.333333 -0.111111 -0.504286
v 0.333333 0.111111 -0.504286
v 0.333333 0.333333 -0.504286
v 0.333333 0.555555 -0.504286
v 0.111111 -0.111111 -0.504286
v 0.111111 0.111111 -0.504286
v 0.111111 0.333333 -0.504286
v 0.111111 0.555556 -0.504286
v 0.111111 0.777778 -0.504286
v -0.111111 -0.111111 -0.504286
v -0.111111 0.111111 -0.504286
v -0.111111 0.333333 -0.504286
v -0.111111 0.555556 -0.504286
v -0.111111 0.777778 -0.504286
v -0.333333 -0.333333 -0.504286
v -0.333333 -0.111111 -0.504286
v -0.333333 0.111111 -0.504286
v -0.333333 0.333333 -0.504286
v -0.333333 0.555556 -0.504286
v -0.555556 -0.777778 -0.504286
v -0.555556 -0.555555 -0.504286
v -0.555556 -0.333333 -0.504286
v -0.555556 -0.111111 -0.504286
v -0.555556 0.111111 -0.504286
v -0.555556 0.333333 -0.504286
v -0.555555 0.555556 -0.504286
v -0.777778 -0.777778 -0.504285
v -0.777778 -0.555555 -0.504285
v -0.777778 -0.333333 -0.504286
v -0.777778 -0.111111 -0.504286
v -0.777778 0.111111 -0.504286
v -0.777778 0.333334 -0.504286
v -0.777778 0.555556 -0.504286
vn -0.0000 -0.0000 1.0000
vn -0.0000 -0.0000 -1.0000
vn -1.0000 -0.0000 -0.0000
vn 1.0000 -0.0000 -0.0000
vn -0.0000 1.0000 -0.0000
vn -0.0000 -1.0000 -0.0000
vt 0.000000 0.888889
vt 0.000000 1.000000
vt 0.111111 1.000000
vt 0.111111 0.888889
vt 0.222222 1.000000
vt 0.222222 0.888889
vt 0.777778 0.888889
vt 0.777778 1.000000
vt 0.888889 1.000000
vt 0.888889 0.888889
vt 0.777778 0.000000
vt 0.777778 0.111111
vt 0.888889 0.111111
vt 0.888889 0.000000
vt 0.777778 0.222222
vt 0.888889 0.222222
vt 0.777778 0.333333
vt 0.888889 0.333333
vt 0.777778 0.444444
vt 0.888889 0.444444
vt 0.777778 0.555556
vt 0.888889 0.555556
vt 0.777778 0.666667
vt 0.888889 0.666667
vt 0.777778 0.777778
vt 0.888889 0.777778
vt 0.666667 0.333333
vt 0.666667 0.444444
vt 0.666667 0.555556
vt 0.666667 0.666667
vt 0.555556 0.444444
vt 0.555556 0.555556
vt 0.555556 0.666667
vt 0.555556 0.777778
vt 0.666667 0.777778
vt 0.444444 0.666667
vt 0.444444 0.777778
vt 0.444444 0.888889
vt 0.555556 0.888889
vt 0.333333 0.444444
vt 0.333333 0.555556
vt 0.444444 0.555556
vt 0.444444 0.444444
vt 0.333333 0.666667
vt 0.333333 0.777778
vt 0.222222 0.333333
vt 0.222222 0.444444
vt 0.333333 0.333333
vt 0.222222 0.555556
vt 0.222222 0.666667
vt 0.111111 0.000000
vt 0.111111 0.111111
vt 0.222222 0.111111
vt 0.222222 0.000000
vt 0.111111 0.222222
vt 0.222222 0.222222
vt 0.111111 0.333333
vt 0.111111 0.444444
vt 0.111111 0.555556
vt 0.111111 0.666667
vt 0.111111 0.777778
vt 0.222222 0.777778
vt 0.000000 0.000000
vt 0.000000 0.111111
vt 0.000000 0.222222
vt 0.000000 0.333333
vt 0.000000 0.444444
vt 0.000000 0.555556
vt 0.000000 0.666667
vt 0.000000 0.777778
s 0
f 11/1/1 2/2/1 10/3/1 26/4/1
f 26/4/1 10/3/1 9/5/1 34/6/1
f 62/7/1 8/8/1 7/9/1 70/10/1
f 5/11/1 55/12/1 63/13/1 6/14/1
f 55/12/1 56/15/1 64/16/1 63/13/1
f 56/15/1 57/17/1 65/18/1 64/16/1
f 57/17/1 58/19/1 66/20/1 65/18/1
f 58/19/1 59/21/1 67/22/1 66/20/1
f 59/21/1 60/23/1 68/24/1 67/22/1
f 60/23/1 61/25/1 69/26/1 68/24/1
f 61/25/1 62/7/1 70/10/1 69/26/1
f 50/27/1 51/28/1 58/19/1 57/17/1
f 51/28/1 52/29/1 59/21/1 58/19/1
f 52/29/1 53/30/1 60/23/1 59/21/1
f 45/31/1 46/32/1 52/29/1 51/28/1
f 46/32/1 47/33/1 53/30/1 52/29/1
f 47/33/1 48/34/1 54/35/1 53/30/1
f 42/36/1 43/37/1 48/34/1 47/33/1
f 43/37/1 44/38/1 49/39/1 48/34/1
f 36/40/1 37/41/1 41/42/1 40/43/1
f 37/41/1 38/44/1 42/36/1 41/42/1
f 38/44/1 39/45/1 43/37/1 42/36/1
f 29/46/1 30/47/1 36/40/1 35/48/1
f 30/47/1 31/49/1 37/41/1 36/40/1
f 31/49/1 32/50/1 38/44/1 37/41/1
f 3/51/1 19/52/1 27/53/1 4/54/1
f 19/52/1 20/55/1 28/56/1 27/53/1
f 20/55/1 21/57/1 29/46/1 28/56/1
f 21/57/1 22/58/1 30/47/1 29/46/1
f 22/58/1 23/59/1 31/49/1 30/47/1
f 23/59/1 24/60/1 32/50/1 31/49/1
f 24/60/1 25/61/1 33/62/1 32/50/1
f 25/61/1 26/4/1 34/6/1 33/62/1
f 1/63/1 18/64/1 19/52/1 3/51/1
f 18/64/1 17/65/1 20/55/1 19/52/1
f 17/65/1 16/66/1 21/57/1 20/55/1
f 16/66/1 15/67/1 22/58/1 21/57/1
f 15/67/1 14/68/1 23/59/1 22/58/1
f 14/68/1 13/69/1 24/60/1 23/59/1
f 13/69/1 12/70/1 25/61/1 24/60/1
f 12/70/1 11/1/1 26/4/1 25/61/1
f 86/1/2 82/4/2 73/3/2 74/2/2
f 82/4/2 83/6/2 81/5/2 73/3/2
f 84/7/2 85/10/2 79/9/2 80/8/2
f 77/11/2 78/14/2 134/13/2 127/12/2
f 127/12/2 134/13/2 135/16/2 128/15/2
f 128/15/2 135/16/2 136/18/2 129/17/2
f 129/17/2 136/18/2 137/20/2 130/19/2
f 130/19/2 137/20/2 138/22/2 131/21/2
f 131/21/2 138/22/2 139/24/2 132/23/2
f 132/23/2 139/24/2 140/26/2 133/25/2
f 133/25/2 140/26/2 85/10/2 84/7/2
f 122/27/2 129/17/2 130/19/2 123/28/2
f 123/28/2 130/19/2 131/21/2 124/29/2
f 124/29/2 131/21/2 132/23/2 125/30/2
f 117/31/2 123/28/2 124/29/2 118/32/2
f 118/32/2 124/29/2 125/30/2 119/33/2
f 119/33/2 125/30/2 126/35/2 120/34/2
f 114/36/2 119/33/2 120/34/2 115/37/2
f 115/37/2 120/34/2 121/39/2 116/38/2
f 108/40/2 112/43/2 113/42/2 109/41/2
f 109/41/2 113/42/2 114/36/2 110/44/2
f 110/44/2 114/36/2 115/37/2 111/45/2
f 102/46/2 107/48/2 108/40/2 103/47/2
f 103/47/2 108/40/2 109/41/2 104/49/2
f 104/49/2 109/41/2 110/44/2 105/50/2
f 75/51/2 76/54/2 100/53/2 93/52/2
f 93/52/2 100/53/2 101/56/2 94/55/2
f 94/55/2 101/56/2 102/46/2 95/57/2
f 95/57/2 102/46/2 103/47/2 96/58/2
f 96/58/2 103/47/2 104/49/2 97/59/2
f 97/59/2 104/49/2 105/50/2 98/60/2
f 98/60/2 105/50/2 106/62/2 99/61/2
f 99/61/2 106/62/2 83/6/2 82/4/2
f 72/63/2 75/51/2 93/52/2 71/64/2
f 71/64/2 93/52/2 94/55/2 92/65/2
f 92/65/2 94/55/2 95/57/2 91/66/2
f 91/66/2 95/57/2 96/58/2 90/67/2
f 90/67/2 96/58/2 97/59/2 89/68/2
f 89/68/2 97/59/2 98/60/2 88/69/2
f 88/69/2 98/60/2 99/61/2 87/70/2
f 87/70/2 99/61/2 82/4/2 86/1/2
f 53/30/3 54/35/3 126/35/3 125/30/3
f 55/12/4 5/11/4 77/11/4 127/12/4
f 60/23/5 53/30/5 125/30/5 132/23/5
f 56/15/4 55/12/4 127/12/4 128/15/4
f 18/64/4 1/63/4 72/63/4 71/64/4
f 45/31/6 51/28/6 123/28/6 117/31/6
f 57/17/4 56/15/4 128/15/4 129/17/4
f 4/54/3 27/53/3 100/53/3 76/54/3
f 10/3/5 2/2/5 74/2/5 73/3/5
f 27/53/3 28/56/3 101/56/3 100/53/3
f 1/63/6 3/51/6 75/51/6 72/63/6
f 28/56/3 29/46/3 102/46/3 101/56/3
f 3/51/6 4/54/6 76/54/6 75/51/6
f 54/35/5 48/34/5 120/34/5 126/35/5
f 5/11/6 6/14/6 78/14/6 77/11/6
f 42/36/6 47/33/6 119/33/6 114/36/6
f 61/25/4 60/23/4 132/23/4 133/25/4
f 7/9/5 8/8/5 80/8/5 79/9/5
f 62/7/4 61/25/4 133/25/4 84/7/4
f 9/5/5 10/3/5 73/3/5 81/5/5
f 49/39/5 44/38/5 116/38/5 121/39/5
f 6/14/3 63/13/3 134/13/3 78/14/3
f 32/50/3 33/62/3 106/62/3 105/50/3
f 36/40/6 40/43/6 112/43/6 108/40/6
f 63/13/3 64/16/3 135/16/3 134/13/3
f 33/62/3 34/6/3 83/6/3 106/62/3
f 34/6/3 9/5/3 81/5/3 83/6/3
f 64/16/3 65/18/3 136/18/3 135/16/3
f 35/48/3 36/40/3 108/40/3 107/48/3
f 8/8/4 62/7/4 84/7/4 80/8/4
f 65/18/3 66/20/3 137/20/3 136/18/3
f 70/10/3 7/9/3 79/9/3 85/10/3
f 43/37/5 39/45/5 111/45/5 115/37/5
f 66/20/3 67/22/3 138/22/3 137/20/3
f 2/2/4 11/1/4 86/1/4 74/2/4
f 29/46/6 35/48/6 107/48/6 102/46/6
f 67/22/3 68/24/3 139/24/3 138/22/3
f 39/45/4 38/44/4 110/44/4 111/45/4
f 11/1/4 12/70/4 87/70/4 86/1/4
f 68/24/3 69/26/3 140/26/3 139/24/3
f 40/43/3 41/42/3 113/42/3 112/43/3
f 12/70/4 13/69/4 88/69/4 87/70/4
f 69/26/3 70/10/3 85/10/3 140/26/3
f 41/42/3 42/36/3 114/36/3 113/42/3
f 13/69/4 14/68/4 89/68/4 88/69/4
f 38/44/5 32/50/5 105/50/5 110/44/5
f 14/68/4 15/67/4 90/67/4 89/68/4
f 44/38/4 43/37/4 115/37/4 116/38/4
f 15/67/4 16/66/4 91/66/4 90/67/4
f 46/32/4 45/31/4 117/31/4 118/32/4
f 16/66/4 17/65/4 92/65/4 91/66/4
f 47/33/4 46/32/4 118/32/4 119/33/4
f 17/65/4 18/64/4 71/64/4 92/65/4
f 48/34/3 49/39/3 121/39/3 120/34/3
f 51/28/4 50/27/4 122/27/4 123/28/4
f 50/27/6 57/17/6 129/17/6 122/27/6
