# Blender 5.0.0
# www.blender.org
mtllib X.mtl
o Plane.022
v 0.777777 -1.000000 -0.000000
v 0.555555 -1.000000 -0.000000
v 0.333333 -1.000000 0.000000
v -0.333334 -1.000000 0.000000
v -0.555556 -1.000000 0.000000
v -0.777778 -1.000000 0.000000
v -0.777777 1.000000 0.000000
v -0.555555 1.000000 0.000000
v 0.555556 1.000000 -0.000000
v 0.777778 1.000000 -0.000000
v 0.777778 -0.777778 -0.000000
v 0.777778 -0.555556 -0.000000
v 0.777778 0.333333 -0.000000
v 0.777778 0.555555 -0.000000
v 0.777778 0.777778 -0.000000
v 0.555555 -0.777778 -0.000000
v 0.555555 -0.555556 -0.000000
v 0.555555 -0.333334 -0.000000
v 0.555556 0.111111 -0.000000
v 0.555556 0.333333 -0.000000
v 0.555556 0.555555 -0.000000
v 0.555556 0.777778 -0.000000
v 0.333333 -0.777778 0.000000
v 0.333333 -0.555556 -0.000000
v 0.333333 -0.333333 -0.000000
v 0.333333 -0.111111 -0.000000
v 0.333333 0.111111 -0.000000
v 0.333333 0.333333 -0.000000
v 0.333334 0.555555 -0.000000
v 0.333334 0.777778 -0.000000
v 0.111111 -0.777778 0.000000
v 0.111111 -0.555556 0.000000
v 0.111111 -0.333333 0.000000
v 0.111111 -0.111111 -0.000000
v 0.111111 0.111111 -0.000000
v 0.111111 0.333333 -0.000000
v 0.111111 0.555556 -0.000000
v -0.111111 -0.777778 0.000000
v -0.111111 -0.555556 0.000000
v -0.111111 -0.333333 0.000000
v -0.111111 -0.111111 0.000000
v -0.111111 0.111111 0.000000
v -0.111111 0.333333 -0.000000
v -0.111111 0.555556 -0.000000
v -0.333334 -0.777778 0.000000
v -0.333334 -0.555555 0.000000
v -0.333333 -0.333333 0.000000
v -0.333333 -0.111111 0.000000
v -0.333333 0.111111 0.000000
v -0.333333 0.333333 0.000000
v -0.333333 0.555556 0.000000
v -0.333333 0.777778 -0.000000
v -0.555556 -0.777778 0.000000
v -0.555556 -0.555555 0.000000
v -0.555556 -0.333333 0.000000
v -0.555556 0.111111 0.000000
v -0.555555 0.333334 0.000000
v -0.555555 0.555556 0.000000
v -0.555555 0.777778 0.000000
v -0.777778 -0.777778 0.000000
v -0.777778 -0.555555 0.000000
v -0.777778 0.333334 0.000000
v -0.777778 0.555556 0.000000
v -0.777778 0.777778 0.000000
v 0.777777 -1.000000 -0.504286
v 0.555555 -1.000000 -0.504286
v 0.333333 -1.000000 -0.504286
v -0.333334 -1.000000 -0.504286
v -0.555556 -1.000000 -0.504285
v -0.777778 -1.000000 -0.504285
v -0.777778 1.000000 -0.504286
v -0.555555 1.000000 -0.504286
v 0.555556 1.000000 -0.504286
v 0.777778 1.000000 -0.504286
v 0.777778 0.777778 -0.504286
v 0.555556 0.777778 -0.504286
v -0.555555 0.777778 -0.504286
v -0.777778 0.777778 -0.504286
v 0.777777 -0.777778 -0.504286
v 0.777778 -0.555556 -0.504286
v 0.777778 0.333333 -0.504286
v 0.777778 0.555555 -0.504286
v 0.555555 -0.777778 -0.504286
v 0.555555 -0.555556 -0.504286
v 0.555555 -0.333334 -0.504286
v 0.555556 0.111111 -0.504286
v 0.555556 0.333333 -0.504286
v 0.555556 0.555555 -0.504286
v 0.333333 -0.777778 -0.504286
v 0.333333 -0.555556 -0.504286
v 0.333333 -0.333333 -0.504286
v 0.333333 -0.111111 -0.504286
v 0.333333 0.111111 -0.504286
v 0.333333 0.333333 -0.504286
v 0.333333 0.555555 -0.504286
v 0.333334 0.777778 -0.504286
v 0.111111 -0.777778 -0.504286
v 0.111111 -0.555556 -0.504286
v 0.111111 -0.333333 -0.504286
v 0.111111 -0.111111 -0.504286
v 0.111111 0.111111 -0.504286
v 0.111111 0.333333 -0.504286
v 0.111111 0.555556 -0.504286
v -0.111111 -0.777778 -0.504286
v -0.111111 -0.555556 -0.504286
v -0.111111 -0.333333 -0.504286
v -0.111111 -0.111111 -0.504286
v -0.111111 0.111111 -0.504286
v -0.111111 0.333333 -0.504286
v -0.111111 0.555556 -0.504286
v -0.333334 -0.777778 -0.504286
v -0.333334 -0.555555 -0.504286
v -0.333333 -0.333333 -0.504286
v -0.333333 -0.111111 -0.504286
v -0.333333 0.111111 -0.504286
v -0.333333 0.333333 -0.504286
v -0.333333 0.555556 -0.504286
v -0.333333 0.777778 -0.504286
v -0.555556 -0.777778 -0.504286
v -0.555556 -0.555555 -0.504286
v -0.555556 -0.333333 -0.504286
v -0.555556 0.111111 -0.504286
v -0.555556 0.333333 -0.504286
v -0.555555 0.555556 -0.504286
v -0.777778 -0.777778 -0.504285
v -0.777778 -0.555555 -0.504285
v -0.777778 0.333334 -0.504286
v -0.777778 0.555556 -0.504286
vn -0.0000 -0.0000 1.0000
vn -0.0000 -0.0000 -1.0000
vn -1.0000 -0.0000 -0.0000
vn 1.0000 -0.0000 -0.0000
vn -0.0000 -1.0000 -0.0000
vn -0.0000 1.0000 -0.0000
vt 0.111111 0.888889
vt 0.111111 1.000000
vt 0.222222 1.000000
vt 0.222222 0.888889
vt 0.777778 0.888889
vt 0.777778 1.000000
vt 0.888889 1.000000
vt 0.888889 0.888889
vt 0.777778 0.000000
vt 0.777778 0.111111
vt 0.888889 0.111111
vt 0.888889 0.000000
vt 0.777778 0.222222
vt 0.888889 0.222222
vt 0.777778 0.666667
vt 0.777778 0.777778
vt 0.888889 0.777778
vt 0.888889 0.666667
vt 0.666667 0.000000
vt 0.666667 0.111111
vt 0.666667 0.222222
vt 0.666667 0.333333
vt 0.777778 0.333333
vt 0.666667 0.555556
vt 0.666667 0.666667
vt 0.777778 0.555556
vt 0.666667 0.777778
vt 0.666667 0.888889
vt 0.555556 0.111111
vt 0.555556 0.222222
vt 0.555556 0.333333
vt 0.555556 0.444444
vt 0.666667 0.444444
vt 0.555556 0.555556
vt 0.555556 0.666667
vt 0.555556 0.777778
vt 0.444444 0.222222
vt 0.444444 0.333333
vt 0.444444 0.444444
vt 0.444444 0.555556
vt 0.333333 0.111111
vt 0.333333 0.222222
vt 0.444444 0.111111
vt 0.333333 0.333333
vt 0.333333 0.444444
vt 0.333333 0.555556
vt 0.333333 0.666667
vt 0.444444 0.666667
vt 0.333333 0.777778
vt 0.444444 0.777778
vt 0.222222 0.000000
vt 0.222222 0.111111
vt 0.333333 0.000000
vt 0.222222 0.222222
vt 0.222222 0.333333
vt 0.222222 0.555556
vt 0.222222 0.666667
vt 0.222222 0.777778
vt 0.333333 0.888889
vt 0.111111 0.000000
vt 0.111111 0.111111
vt 0.111111 0.222222
vt 0.111111 0.666667
vt 0.111111 0.777778
s 0
f 15/1/1 10/2/1 9/3/1 22/4/1
f 59/5/1 8/6/1 7/7/1 64/8/1
f 5/9/1 53/10/1 60/11/1 6/12/1
f 53/10/1 54/13/1 61/14/1 60/11/1
f 57/15/1 58/16/1 63/17/1 62/18/1
f 58/16/1 59/5/1 64/8/1 63/17/1
f 4/19/1 45/20/1 53/10/1 5/9/1
f 45/20/1 46/21/1 54/13/1 53/10/1
f 46/21/1 47/22/1 55/23/1 54/13/1
f 49/24/1 50/25/1 57/15/1 56/26/1
f 50/25/1 51/27/1 58/16/1 57/15/1
f 51/27/1 52/28/1 59/5/1 58/16/1
f 38/29/1 39/30/1 46/21/1 45/20/1
f 39/30/1 40/31/1 47/22/1 46/21/1
f 40/31/1 41/32/1 48/33/1 47/22/1
f 41/32/1 42/34/1 49/24/1 48/33/1
f 42/34/1 43/35/1 50/25/1 49/24/1
f 43/35/1 44/36/1 51/27/1 50/25/1
f 32/37/1 33/38/1 40/31/1 39/30/1
f 33/38/1 34/39/1 41/32/1 40/31/1
f 34/39/1 35/40/1 42/34/1 41/32/1
f 23/41/1 24/42/1 32/37/1 31/43/1
f 24/42/1 25/44/1 33/38/1 32/37/1
f 25/44/1 26/45/1 34/39/1 33/38/1
f 26/45/1 27/46/1 35/40/1 34/39/1
f 27/46/1 28/47/1 36/48/1 35/40/1
f 28/47/1 29/49/1 37/50/1 36/48/1
f 2/51/1 16/52/1 23/41/1 3/53/1
f 16/52/1 17/54/1 24/42/1 23/41/1
f 17/54/1 18/55/1 25/44/1 24/42/1
f 19/56/1 20/57/1 28/47/1 27/46/1
f 20/57/1 21/58/1 29/49/1 28/47/1
f 21/58/1 22/4/1 30/59/1 29/49/1
f 1/60/1 11/61/1 16/52/1 2/51/1
f 11/61/1 12/62/1 17/54/1 16/52/1
f 13/63/1 14/64/1 21/58/1 20/57/1
f 14/64/1 15/1/1 22/4/1 21/58/1
f 75/1/2 76/4/2 73/3/2 74/2/2
f 77/5/2 78/8/2 71/7/2 72/6/2
f 69/9/2 70/12/2 125/11/2 119/10/2
f 119/10/2 125/11/2 126/14/2 120/13/2
f 123/15/2 127/18/2 128/17/2 124/16/2
f 124/16/2 128/17/2 78/8/2 77/5/2
f 68/19/2 69/9/2 119/10/2 111/20/2
f 111/20/2 119/10/2 120/13/2 112/21/2
f 112/21/2 120/13/2 121/23/2 113/22/2
f 115/24/2 122/26/2 123/15/2 116/25/2
f 116/25/2 123/15/2 124/16/2 117/27/2
f 117/27/2 124/16/2 77/5/2 118/28/2
f 104/29/2 111/20/2 112/21/2 105/30/2
f 105/30/2 112/21/2 113/22/2 106/31/2
f 106/31/2 113/22/2 114/33/2 107/32/2
f 107/32/2 114/33/2 115/24/2 108/34/2
f 108/34/2 115/24/2 116/25/2 109/35/2
f 109/35/2 116/25/2 117/27/2 110/36/2
f 98/37/2 105/30/2 106/31/2 99/38/2
f 99/38/2 106/31/2 107/32/2 100/39/2
f 100/39/2 107/32/2 108/34/2 101/40/2
f 89/41/2 97/43/2 98/37/2 90/42/2
f 90/42/2 98/37/2 99/38/2 91/44/2
f 91/44/2 99/38/2 100/39/2 92/45/2
f 92/45/2 100/39/2 101/40/2 93/46/2
f 93/46/2 101/40/2 102/48/2 94/47/2
f 94/47/2 102/48/2 103/50/2 95/49/2
f 66/51/2 67/53/2 89/41/2 83/52/2
f 83/52/2 89/41/2 90/42/2 84/54/2
f 84/54/2 90/42/2 91/44/2 85/55/2
f 86/56/2 93/46/2 94/47/2 87/57/2
f 87/57/2 94/47/2 95/49/2 88/58/2
f 88/58/2 95/49/2 96/59/2 76/4/2
f 65/60/2 66/51/2 83/52/2 79/61/2
f 79/61/2 83/52/2 84/54/2 80/62/2
f 81/63/2 87/57/2 88/58/2 82/64/2
f 82/64/2 88/58/2 76/4/2 75/1/2
f 54/13/3 55/23/3 121/23/3 120/13/3
f 27/46/4 26/45/4 92/45/4 93/46/4
f 32/37/5 39/30/5 105/30/5 98/37/5
f 56/26/3 57/15/3 123/15/3 122/26/3
f 1/60/5 2/51/5 66/51/5 65/60/5
f 29/49/3 30/59/3 96/59/3 95/49/3
f 2/51/5 3/53/5 67/53/5 66/51/5
f 42/34/6 35/40/6 101/40/6 108/34/6
f 6/12/3 60/11/3 125/11/3 70/12/3
f 31/43/3 32/37/3 98/37/3 97/43/3
f 4/19/5 5/9/5 69/9/5 68/19/5
f 23/41/5 31/43/5 97/43/5 89/41/5
f 60/11/3 61/14/3 126/14/3 125/11/3
f 5/9/5 6/12/5 70/12/5 69/9/5
f 62/18/3 63/17/3 128/17/3 127/18/3
f 7/7/6 8/6/6 72/6/6 71/7/6
f 63/17/3 64/8/3 78/8/3 128/17/3
f 9/3/6 10/2/6 74/2/6 73/3/6
f 35/40/3 36/48/3 102/48/3 101/40/3
f 10/2/4 15/1/4 75/1/4 74/2/4
f 61/14/6 54/13/6 120/13/6 126/14/6
f 36/48/3 37/50/3 103/50/3 102/48/3
f 22/4/3 9/3/3 73/3/3 76/4/3
f 57/15/5 62/18/5 127/18/5 123/15/5
f 39/30/4 38/29/4 104/29/4 105/30/4
f 8/6/4 59/5/4 77/5/4 72/6/4
f 37/50/6 29/49/6 95/49/6 103/50/6
f 64/8/3 7/7/3 71/7/3 78/8/3
f 11/61/4 1/60/4 65/60/4 79/61/4
f 12/62/4 11/61/4 79/61/4 80/62/4
f 25/44/6 18/55/6 85/55/6 91/44/6
f 43/35/4 42/34/4 108/34/4 109/35/4
f 14/64/4 13/63/4 81/63/4 82/64/4
f 19/56/5 27/46/5 93/46/5 86/56/5
f 55/23/6 47/22/6 113/22/6 121/23/6
f 44/36/4 43/35/4 109/35/4 110/36/4
f 15/1/4 14/64/4 82/64/4 75/1/4
f 49/24/5 56/26/5 122/26/5 115/24/5
f 45/20/4 4/19/4 68/19/4 111/20/4
f 30/59/6 22/4/6 76/4/6 96/59/6
f 18/55/4 17/54/4 84/54/4 85/55/4
f 59/5/6 52/28/6 118/28/6 77/5/6
f 47/22/3 48/33/3 114/33/3 113/22/3
f 20/57/4 19/56/4 86/56/4 87/57/4
f 17/54/6 12/62/6 80/62/6 84/54/6
f 38/29/5 45/20/5 111/20/5 104/29/5
f 48/33/3 49/24/3 115/24/3 114/33/3
f 13/63/5 20/57/5 87/57/5 81/63/5
f 3/53/3 23/41/3 89/41/3 67/53/3
f 52/28/4 51/27/4 117/27/4 118/28/4
f 26/45/4 25/44/4 91/44/4 92/45/4
f 51/27/6 44/36/6 110/36/6 117/27/6
