# Blender 5.0.0
# www.blender.org
mtllib Y.mtl
o Plane.024
v 0.333333 -1.000000 0.000000
v 0.111111 -1.000000 0.000000
v -0.111111 -1.000000 0.000000
v -0.333334 -1.000000 0.000000
v -0.777777 1.000000 0.000000
v -0.555555 1.000000 0.000000
v -0.333333 1.000000 -0.000000
v 0.333334 1.000000 -0.000000
v 0.555556 1.000000 -0.000000
v 0.777778 1.000000 -0.000000
v 0.777778 0.333333 -0.000000
v 0.777778 0.555555 -0.000000
v 0.777778 0.777778 -0.000000
v 0.555556 -0.111111 -0.000000
v 0.555556 0.111111 -0.000000
v 0.555556 0.333333 -0.000000
v 0.555556 0.555555 -0.000000
v 0.555556 0.777778 -0.000000
v 0.333333 -0.777778 0.000000
v 0.333333 -0.555556 -0.000000
v 0.333333 -0.333333 -0.000000
v 0.333333 -0.111111 -0.000000
v 0.333333 0.111111 -0.000000
v 0.333333 0.333333 -0.000000
v 0.333334 0.555555 -0.000000
v 0.333334 0.777778 -0.000000
v 0.111111 -0.777778 0.000000
v 0.111111 -0.555556 0.000000
v 0.111111 -0.333333 0.000000
v 0.111111 -0.111111 -0.000000
v 0.111111 0.111111 -0.000000
v 0.111111 0.333333 -0.000000
v 0.111111 0.555556 -0.000000
v -0.111111 -0.777778 0.000000
v -0.111111 -0.555556 0.000000
v -0.111111 -0.333333 0.000000
v -0.111111 -0.111111 0.000000
v -0.111111 0.111111 0.000000
v -0.111111 0.333333 -0.000000
v -0.111111 0.555556 -0.000000
v -0.333334 -0.777778 0.000000
v -0.333334 -0.555555 0.000000
v -0.333333 -0.333333 0.000000
v -0.333333 -0.111111 0.000000
v -0.333333 0.111111 0.000000
v -0.333333 0.333333 0.000000
v -0.333333 0.555556 0.000000
v -0.333333 0.777778 -0.000000
v -0.555556 -0.111111 0.000000
v -0.555556 0.111111 0.000000
v -0.555555 0.333334 0.000000
v -0.555555 0.555556 0.000000
v -0.555555 0.777778 0.000000
v -0.777778 0.333334 0.000000
v -0.777778 0.555556 0.000000
v -0.777778 0.777778 0.000000
v 0.333333 -1.000000 -0.504286
v 0.111111 -1.000000 -0.504286
v -0.111112 -1.000000 -0.504286
v -0.333334 -1.000000 -0.504286
v -0.777778 1.000000 -0.504286
v -0.555555 1.000000 -0.504286
v -0.333333 1.000000 -0.504286
v 0.333334 1.000000 -0.504286
v 0.555556 1.000000 -0.504286
v 0.777778 1.000000 -0.504286
v 0.777778 0.777778 -0.504286
v 0.555556 0.777778 -0.504286
v 0.333334 0.777778 -0.504286
v -0.333333 0.777778 -0.504286
v -0.555555 0.777778 -0.504286
v -0.777778 0.777778 -0.504286
v 0.777778 0.333333 -0.504286
v 0.777778 0.555555 -0.504286
v 0.555555 -0.111111 -0.504286
v 0.555556 0.111111 -0.504286
v 0.555556 0.333333 -0.504286
v 0.555556 0.555555 -0.504286
v 0.333333 -0.777778 -0.504286
v 0.333333 -0.555556 -0.504286
v 0.333333 -0.333333 -0.504286
v 0.333333 -0.111111 -0.504286
v 0.333333 0.111111 -0.504286
v 0.333333 0.333333 -0.504286
v 0.333333 0.555555 -0.504286
v 0.111111 -0.777778 -0.504286
v 0.111111 -0.555556 -0.504286
v 0.111111 -0.333333 -0.504286
v 0.111111 -0.111111 -0.504286
v 0.111111 0.111111 -0.504286
v 0.111111 0.333333 -0.504286
v 0.111111 0.555556 -0.504286
v -0.111111 -0.777778 -0.504286
v -0.111111 -0.555556 -0.504286
v -0.111111 -0.333333 -0.504286
v -0.111111 -0.111111 -0.504286
v -0.111111 0.111111 -0.504286
v -0.111111 0.333333 -0.504286
v -0.111111 0.555556 -0.504286
v -0.333334 -0.777778 -0.504286
v -0.333334 -0.555555 -0.504286
v -0.333333 -0.333333 -0.504286
v -0.333333 -0.111111 -0.504286
v -0.333333 0.111111 -0.504286
v -0.333333 0.333333 -0.504286
v -0.333333 0.555556 -0.504286
v -0.555556 -0.111111 -0.504286
v -0.555556 0.111111 -0.504286
v -0.555556 0.333333 -0.504286
v -0.555555 0.555556 -0.504286
v -0.777778 0.333334 -0.504286
v -0.777778 0.555556 -0.504286
vn -0.0000 -0.0000 1.0000
vn -0.0000 -0.0000 -1.0000
vn -1.0000 -0.0000 -0.0000
vn 1.0000 -0.0000 -0.0000
vn -0.0000 -1.0000 -0.0000
vn -0.0000 1.0000 -0.0000
vt 0.111111 0.888889
vt 0.111111 1.000000
vt 0.222222 1.000000
vt 0.222222 0.888889
vt 0.333333 1.000000
vt 0.333333 0.888889
vt 0.666667 0.888889
vt 0.666667 1.000000
vt 0.777778 1.000000
vt 0.777778 0.888889
vt 0.888889 1.000000
vt 0.888889 0.888889
vt 0.777778 0.666667
vt 0.777778 0.777778
vt 0.888889 0.777778
vt 0.888889 0.666667
vt 0.666667 0.444444
vt 0.666667 0.555556
vt 0.777778 0.555556
vt 0.777778 0.444444
vt 0.666667 0.666667
vt 0.666667 0.777778
vt 0.555556 0.000000
vt 0.555556 0.111111
vt 0.666667 0.111111
vt 0.666667 0.000000
vt 0.555556 0.222222
vt 0.666667 0.222222
vt 0.555556 0.333333
vt 0.666667 0.333333
vt 0.555556 0.444444
vt 0.555556 0.555556
vt 0.555556 0.666667
vt 0.555556 0.777778
vt 0.444444 0.000000
vt 0.444444 0.111111
vt 0.444444 0.222222
vt 0.444444 0.333333
vt 0.444444 0.444444
vt 0.444444 0.555556
vt 0.333333 0.000000
vt 0.333333 0.111111
vt 0.333333 0.222222
vt 0.333333 0.333333
vt 0.333333 0.444444
vt 0.333333 0.555556
vt 0.333333 0.666667
vt 0.444444 0.666667
vt 0.333333 0.777778
vt 0.444444 0.777778
vt 0.222222 0.444444
vt 0.222222 0.555556
vt 0.222222 0.666667
vt 0.222222 0.777778
vt 0.111111 0.666667
vt 0.111111 0.777778
s 0
f 13/1/1 10/2/1 9/3/1 18/4/1
f 18/4/1 9/3/1 8/5/1 26/6/1
f 48/7/1 7/8/1 6/9/1 53/10/1
f 53/10/1 6/9/1 5/11/1 56/12/1
f 51/13/1 52/14/1 55/15/1 54/16/1
f 52/14/1 53/10/1 56/12/1 55/15/1
f 44/17/1 45/18/1 50/19/1 49/20/1
f 45/18/1 46/21/1 51/13/1 50/19/1
f 46/21/1 47/22/1 52/14/1 51/13/1
f 47/22/1 48/7/1 53/10/1 52/14/1
f 3/23/1 34/24/1 41/25/1 4/26/1
f 34/24/1 35/27/1 42/28/1 41/25/1
f 35/27/1 36/29/1 43/30/1 42/28/1
f 36/29/1 37/31/1 44/17/1 43/30/1
f 37/31/1 38/32/1 45/18/1 44/17/1
f 38/32/1 39/33/1 46/21/1 45/18/1
f 39/33/1 40/34/1 47/22/1 46/21/1
f 2/35/1 27/36/1 34/24/1 3/23/1
f 27/36/1 28/37/1 35/27/1 34/24/1
f 28/37/1 29/38/1 36/29/1 35/27/1
f 29/38/1 30/39/1 37/31/1 36/29/1
f 30/39/1 31/40/1 38/32/1 37/31/1
f 1/41/1 19/42/1 27/36/1 2/35/1
f 19/42/1 20/43/1 28/37/1 27/36/1
f 20/43/1 21/44/1 29/38/1 28/37/1
f 21/44/1 22/45/1 30/39/1 29/38/1
f 22/45/1 23/46/1 31/40/1 30/39/1
f 23/46/1 24/47/1 32/48/1 31/40/1
f 24/47/1 25/49/1 33/50/1 32/48/1
f 14/51/1 15/52/1 23/46/1 22/45/1
f 15/52/1 16/53/1 24/47/1 23/46/1
f 16/53/1 17/54/1 25/49/1 24/47/1
f 17/54/1 18/4/1 26/6/1 25/49/1
f 11/55/1 12/56/1 17/54/1 16/53/1
f 12/56/1 13/1/1 18/4/1 17/54/1
f 67/1/2 68/4/2 65/3/2 66/2/2
f 68/4/2 69/6/2 64/5/2 65/3/2
f 70/7/2 71/10/2 62/9/2 63/8/2
f 71/10/2 72/12/2 61/11/2 62/9/2
f 109/13/2 111/16/2 112/15/2 110/14/2
f 110/14/2 112/15/2 72/12/2 71/10/2
f 103/17/2 107/20/2 108/19/2 104/18/2
f 104/18/2 108/19/2 109/13/2 105/21/2
f 105/21/2 109/13/2 110/14/2 106/22/2
f 106/22/2 110/14/2 71/10/2 70/7/2
f 59/23/2 60/26/2 100/25/2 93/24/2
f 93/24/2 100/25/2 101/28/2 94/27/2
f 94/27/2 101/28/2 102/30/2 95/29/2
f 95/29/2 102/30/2 103/17/2 96/31/2
f 96/31/2 103/17/2 104/18/2 97/32/2
f 97/32/2 104/18/2 105/21/2 98/33/2
f 98/33/2 105/21/2 106/22/2 99/34/2
f 58/35/2 59/23/2 93/24/2 86/36/2
f 86/36/2 93/24/2 94/27/2 87/37/2
f 87/37/2 94/27/2 95/29/2 88/38/2
f 88/38/2 95/29/2 96/31/2 89/39/2
f 89/39/2 96/31/2 97/32/2 90/40/2
f 57/41/2 58/35/2 86/36/2 79/42/2
f 79/42/2 86/36/2 87/37/2 80/43/2
f 80/43/2 87/37/2 88/38/2 81/44/2
f 81/44/2 88/38/2 89/39/2 82/45/2
f 82/45/2 89/39/2 90/40/2 83/46/2
f 83/46/2 90/40/2 91/48/2 84/47/2
f 84/47/2 91/48/2 92/50/2 85/49/2
f 75/51/2 82/45/2 83/46/2 76/52/2
f 76/52/2 83/46/2 84/47/2 77/53/2
f 77/53/2 84/47/2 85/49/2 78/54/2
f 78/54/2 85/49/2 69/6/2 68/4/2
f 73/55/2 77/53/2 78/54/2 74/56/2
f 74/56/2 78/54/2 68/4/2 67/1/2
f 56/12/3 5/11/3 61/11/3 72/12/3
f 39/33/4 38/32/4 97/32/4 98/33/4
f 25/49/3 26/6/3 69/6/3 85/49/3
f 54/16/3 55/15/3 112/15/3 111/16/3
f 12/56/4 11/55/4 73/55/4 74/56/4
f 40/34/4 39/33/4 98/33/4 99/34/4
f 1/41/5 2/35/5 58/35/5 57/41/5
f 55/15/3 56/12/3 72/12/3 112/15/3
f 33/50/6 25/49/6 85/49/6 92/50/6
f 13/1/4 12/56/4 74/56/4 67/1/4
f 4/26/3 41/25/3 100/25/3 60/26/3
f 2/35/5 3/23/5 59/23/5 58/35/5
f 51/13/5 54/16/5 111/16/5 109/13/5
f 14/51/5 22/45/5 82/45/5 75/51/5
f 15/52/4 14/51/4 75/51/4 76/52/4
f 41/25/3 42/28/3 101/28/3 100/25/3
f 47/22/6 40/34/6 99/34/6 106/22/6
f 3/23/5 4/26/5 60/26/5 59/23/5
f 16/53/4 15/52/4 76/52/4 77/53/4
f 42/28/3 43/30/3 102/30/3 101/28/3
f 5/11/6 6/9/6 62/9/6 61/11/6
f 43/30/3 44/17/3 103/17/3 102/30/3
f 6/9/6 7/8/6 63/8/6 62/9/6
f 44/17/5 49/20/5 107/20/5 103/17/5
f 8/5/6 9/3/6 65/3/6 64/5/6
f 31/40/3 32/48/3 91/48/3 90/40/3
f 19/42/4 1/41/4 57/41/4 79/42/4
f 9/3/6 10/2/6 66/2/6 65/3/6
f 32/48/3 33/50/3 92/50/3 91/48/3
f 11/55/5 16/53/5 77/53/5 73/55/5
f 20/43/4 19/42/4 79/42/4 80/43/4
f 38/32/6 31/40/6 90/40/6 97/32/6
f 10/2/4 13/1/4 67/1/4 66/2/4
f 21/44/4 20/43/4 80/43/4 81/44/4
f 48/7/4 47/22/4 106/22/4 70/7/4
f 22/45/4 21/44/4 81/44/4 82/45/4
f 49/20/3 50/19/3 108/19/3 107/20/3
f 26/6/3 8/5/3 64/5/3 69/6/3
f 50/19/3 51/13/3 109/13/3 108/19/3
f 7/8/4 48/7/4 70/7/4 63/8/4
