# Blender 5.0.0
# www.blender.org
mtllib Z.mtl
o Plane.023
v 0.777777 -1.000000 -0.000000
v 0.555555 -1.000000 -0.000000
v 0.333333 -1.000000 0.000000
v 0.111111 -1.000000 0.000000
v -0.111111 -1.000000 0.000000
v -0.333334 -1.000000 0.000000
v -0.555556 -1.000000 0.000000
v -0.777778 -1.000000 0.000000
v -0.777777 1.000000 0.000000
v -0.555555 1.000000 0.000000
v -0.333333 1.000000 -0.000000
v -0.111111 1.000000 -0.000000
v 0.111111 1.000000 -0.000000
v 0.333334 1.000000 -0.000000
v 0.555556 1.000000 -0.000000
v 0.777778 1.000000 -0.000000
v 0.777778 -0.777778 -0.000000
v 0.777778 -0.555556 -0.000000
v 0.777778 0.555555 -0.000000
v 0.777778 0.777778 -0.000000
v 0.555555 -0.777778 -0.000000
v 0.555555 -0.555556 -0.000000
v 0.555555 -0.333334 -0.000000
v 0.555556 0.555555 -0.000000
v 0.555556 0.777778 -0.000000
v 0.333333 -0.777778 0.000000
v 0.333333 -0.555556 -0.000000
v 0.333333 -0.333333 -0.000000
v 0.333333 -0.111111 -0.000000
v 0.333334 0.555555 -0.000000
v 0.333334 0.777778 -0.000000
v 0.111111 -0.777778 0.000000
v 0.111111 -0.555556 0.000000
v 0.111111 -0.333333 0.000000
v 0.111111 -0.111111 -0.000000
v 0.111111 0.555556 -0.000000
v 0.111111 0.777778 -0.000000
v -0.111111 -0.777778 0.000000
v -0.111111 -0.555556 0.000000
v -0.111111 -0.333333 0.000000
v -0.111111 -0.111111 0.000000
v -0.111111 0.111111 0.000000
v -0.111111 0.555556 -0.000000
v -0.111111 0.777778 -0.000000
v -0.333334 -0.777778 0.000000
v -0.333334 -0.555555 0.000000
v -0.333333 -0.333333 0.000000
v -0.333333 -0.111111 0.000000
v -0.333333 0.111111 0.000000
v -0.333333 0.333333 0.000000
v -0.333333 0.555556 0.000000
v -0.333333 0.777778 -0.000000
v -0.555556 -0.777778 0.000000
v -0.555556 -0.555555 0.000000
v -0.555556 -0.111111 0.000000
v -0.555556 0.111111 0.000000
v -0.555555 0.333334 0.000000
v -0.555555 0.555556 0.000000
v -0.555555 0.777778 0.000000
v -0.777778 -0.777778 0.000000
v -0.777778 -0.555555 0.000000
v -0.777778 0.111111 0.000000
v -0.777778 0.333334 0.000000
v -0.777778 0.555556 0.000000
v -0.777778 0.777778 0.000000
v 0.777777 -1.000000 -0.504286
v 0.555555 -1.000000 -0.504286
v 0.333333 -1.000000 -0.504286
v 0.111111 -1.000000 -0.504286
v -0.111112 -1.000000 -0.504286
v -0.333334 -1.000000 -0.504286
v -0.555556 -1.000000 -0.504285
v -0.777778 -1.000000 -0.504285
v -0.777778 1.000000 -0.504286
v -0.555555 1.000000 -0.504286
v -0.333333 1.000000 -0.504286
v -0.111111 1.000000 -0.504286
v 0.111111 1.000000 -0.504286
v 0.333334 1.000000 -0.504286
v 0.555556 1.000000 -0.504286
v 0.777778 1.000000 -0.504286
v 0.777778 0.777778 -0.504286
v 0.555556 0.777778 -0.504286
v 0.333334 0.777778 -0.504286
v 0.111111 0.777778 -0.504286
v -0.111111 0.777778 -0.504286
v -0.333333 0.777778 -0.504286
v -0.555555 0.777778 -0.504286
v -0.777778 0.777778 -0.504286
v 0.777777 -0.777778 -0.504286
v 0.777778 -0.555556 -0.504286
v 0.777778 0.555555 -0.504286
v 0.555555 -0.777778 -0.504286
v 0.555555 -0.555556 -0.504286
v 0.555555 -0.333334 -0.504286
v 0.555556 0.555555 -0.504286
v 0.333333 -0.777778 -0.504286
v 0.333333 -0.555556 -0.504286
v 0.333333 -0.333333 -0.504286
v 0.333333 -0.111111 -0.504286
v 0.333333 0.555555 -0.504286
v 0.111111 -0.777778 -0.504286
v 0.111111 -0.555556 -0.504286
v 0.111111 -0.333333 -0.504286
v 0.111111 -0.111111 -0.504286
v 0.111111 0.555556 -0.504286
v -0.111111 -0.777778 -0.504286
v -0.111111 -0.555556 -0.504286
v -0.111111 -0.333333 -0.504286
v -0.111111 -0.111111 -0.504286
v -0.111111 0.111111 -0.504286
v -0.111111 0.555556 -0.504286
v -0.333334 -0.777778 -0.504286
v -0.333334 -0.555555 -0.504286
v -0.333333 -0.333333 -0.504286
v -0.333333 -0.111111 -0.504286
v -0.333333 0.111111 -0.504286
v -0.333333 0.333333 -0.504286
v -0.333333 0.555556 -0.504286
v -0.555556 -0.777778 -0.504286
v -0.555556 -0.555555 -0.504286
v -0.555556 -0.111111 -0.504286
v -0.555556 0.111111 -0.504286
v -0.555556 0.333333 -0.504286
v -0.555555 0.555556 -0.504286
v -0.777778 -0.777778 -0.504285
v -0.777778 -0.555555 -0.504285
v -0.777778 0.111111 -0.504286
v -0.777778 0.333334 -0.504286
v -0.777778 0.555556 -0.504286
vn -0.0000 -0.0000 1.0000
vn -0.0000 -0.0000 -1.0000
vn 1.0000 -0.0000 -0.0000
vn -0.0000 -1.0000 -0.0000
vn -0.0000 1.0000 -0.0000
vn -1.0000 -0.0000 -0.0000
vt 0.111111 0.888889
vt 0.111111 1.000000
vt 0.222222 1.000000
vt 0.222222 0.888889
vt 0.333333 1.000000
vt 0.333333 0.888889
vt 0.444444 1.000000
vt 0.444444 0.888889
vt 0.555556 1.000000
vt 0.555556 0.888889
vt 0.666667 1.000000
vt 0.666667 0.888889
vt 0.777778 1.000000
vt 0.777778 0.888889
vt 0.888889 1.000000
vt 0.888889 0.888889
vt 0.777778 0.000000
vt 0.777778 0.111111
vt 0.888889 0.111111
vt 0.888889 0.000000
vt 0.777778 0.222222
vt 0.888889 0.222222
vt 0.777778 0.555556
vt 0.777778 0.666667
vt 0.888889 0.666667
vt 0.888889 0.555556
vt 0.777778 0.777778
vt 0.888889 0.777778
vt 0.666667 0.000000
vt 0.666667 0.111111
vt 0.666667 0.222222
vt 0.666667 0.444444
vt 0.666667 0.555556
vt 0.777778 0.444444
vt 0.666667 0.666667
vt 0.666667 0.777778
vt 0.555556 0.000000
vt 0.555556 0.111111
vt 0.555556 0.222222
vt 0.555556 0.333333
vt 0.555556 0.444444
vt 0.666667 0.333333
vt 0.555556 0.555556
vt 0.555556 0.777778
vt 0.444444 0.000000
vt 0.444444 0.111111
vt 0.444444 0.222222
vt 0.444444 0.333333
vt 0.444444 0.444444
vt 0.444444 0.777778
vt 0.333333 0.000000
vt 0.333333 0.111111
vt 0.333333 0.222222
vt 0.333333 0.333333
vt 0.333333 0.444444
vt 0.333333 0.777778
vt 0.222222 0.000000
vt 0.222222 0.111111
vt 0.222222 0.222222
vt 0.222222 0.333333
vt 0.222222 0.777778
vt 0.111111 0.000000
vt 0.111111 0.111111
vt 0.111111 0.222222
vt 0.111111 0.777778
s 0
f 20/1/1 16/2/1 15/3/1 25/4/1
f 25/4/1 15/3/1 14/5/1 31/6/1
f 31/6/1 14/5/1 13/7/1 37/8/1
f 37/8/1 13/7/1 12/9/1 44/10/1
f 44/10/1 12/9/1 11/11/1 52/12/1
f 52/12/1 11/11/1 10/13/1 59/14/1
f 59/14/1 10/13/1 9/15/1 65/16/1
f 7/17/1 53/18/1 60/19/1 8/20/1
f 53/18/1 54/21/1 61/22/1 60/19/1
f 56/23/1 57/24/1 63/25/1 62/26/1
f 57/24/1 58/27/1 64/28/1 63/25/1
f 58/27/1 59/14/1 65/16/1 64/28/1
f 6/29/1 45/30/1 53/18/1 7/17/1
f 45/30/1 46/31/1 54/21/1 53/18/1
f 48/32/1 49/33/1 56/23/1 55/34/1
f 49/33/1 50/35/1 57/24/1 56/23/1
f 51/36/1 52/12/1 59/14/1 58/27/1
f 5/37/1 38/38/1 45/30/1 6/29/1
f 38/38/1 39/39/1 46/31/1 45/30/1
f 40/40/1 41/41/1 48/32/1 47/42/1
f 41/41/1 42/43/1 49/33/1 48/32/1
f 43/44/1 44/10/1 52/12/1 51/36/1
f 4/45/1 32/46/1 38/38/1 5/37/1
f 32/46/1 33/47/1 39/39/1 38/38/1
f 33/47/1 34/48/1 40/40/1 39/39/1
f 34/48/1 35/49/1 41/41/1 40/40/1
f 36/50/1 37/8/1 44/10/1 43/44/1
f 3/51/1 26/52/1 32/46/1 4/45/1
f 26/52/1 27/53/1 33/47/1 32/46/1
f 27/53/1 28/54/1 34/48/1 33/47/1
f 28/54/1 29/55/1 35/49/1 34/48/1
f 30/56/1 31/6/1 37/8/1 36/50/1
f 2/57/1 21/58/1 26/52/1 3/51/1
f 21/58/1 22/59/1 27/53/1 26/52/1
f 22/59/1 23/60/1 28/54/1 27/53/1
f 24/61/1 25/4/1 31/6/1 30/56/1
f 1/62/1 17/63/1 21/58/1 2/57/1
f 17/63/1 18/64/1 22/59/1 21/58/1
f 19/65/1 20/1/1 25/4/1 24/61/1
f 82/1/2 83/4/2 80/3/2 81/2/2
f 83/4/2 84/6/2 79/5/2 80/3/2
f 84/6/2 85/8/2 78/7/2 79/5/2
f 85/8/2 86/10/2 77/9/2 78/7/2
f 86/10/2 87/12/2 76/11/2 77/9/2
f 87/12/2 88/14/2 75/13/2 76/11/2
f 88/14/2 89/16/2 74/15/2 75/13/2
f 72/17/2 73/20/2 126/19/2 120/18/2
f 120/18/2 126/19/2 127/22/2 121/21/2
f 123/23/2 128/26/2 129/25/2 124/24/2
f 124/24/2 129/25/2 130/28/2 125/27/2
f 125/27/2 130/28/2 89/16/2 88/14/2
f 71/29/2 72/17/2 120/18/2 113/30/2
f 113/30/2 120/18/2 121/21/2 114/31/2
f 116/32/2 122/34/2 123/23/2 117/33/2
f 117/33/2 123/23/2 124/24/2 118/35/2
f 119/36/2 125/27/2 88/14/2 87/12/2
f 70/37/2 71/29/2 113/30/2 107/38/2
f 107/38/2 113/30/2 114/31/2 108/39/2
f 109/40/2 115/42/2 116/32/2 110/41/2
f 110/41/2 116/32/2 117/33/2 111/43/2
f 112/44/2 119/36/2 87/12/2 86/10/2
f 69/45/2 70/37/2 107/38/2 102/46/2
f 102/46/2 107/38/2 108/39/2 103/47/2
f 103/47/2 108/39/2 109/40/2 104/48/2
f 104/48/2 109/40/2 110/41/2 105/49/2
f 106/50/2 112/44/2 86/10/2 85/8/2
f 68/51/2 69/45/2 102/46/2 97/52/2
f 97/52/2 102/46/2 103/47/2 98/53/2
f 98/53/2 103/47/2 104/48/2 99/54/2
f 99/54/2 104/48/2 105/49/2 100/55/2
f 101/56/2 106/50/2 85/8/2 84/6/2
f 67/57/2 68/51/2 97/52/2 93/58/2
f 93/58/2 97/52/2 98/53/2 94/59/2
f 94/59/2 98/53/2 99/54/2 95/60/2
f 96/61/2 101/56/2 84/6/2 83/4/2
f 66/62/2 67/57/2 93/58/2 90/63/2
f 90/63/2 93/58/2 94/59/2 91/64/2
f 92/65/2 96/61/2 83/4/2 82/1/2
f 18/64/3 17/63/3 90/63/3 91/64/3
f 40/40/4 47/42/4 115/42/4 109/40/4
f 12/9/5 13/7/5 78/7/5 77/9/5
f 56/23/4 62/26/4 128/26/4 123/23/4
f 35/49/5 29/55/5 100/55/5 105/49/5
f 20/1/3 19/65/3 92/65/3 82/1/3
f 13/7/5 14/5/5 79/5/5 78/7/5
f 30/56/4 36/50/4 106/50/4 101/56/4
f 49/33/5 42/43/5 111/43/5 117/33/5
f 14/5/5 15/3/5 80/3/5 79/5/5
f 55/34/6 56/23/6 123/23/6 122/34/6
f 43/44/4 51/36/4 119/36/4 112/44/4
f 15/3/5 16/2/5 81/2/5 80/3/5
f 1/62/4 2/57/4 67/57/4 66/62/4
f 23/60/3 22/59/3 94/59/3 95/60/3
f 16/2/3 20/1/3 82/1/3 81/2/3
f 39/39/6 40/40/6 109/40/6 108/39/6
f 2/57/4 3/51/4 68/51/4 67/57/4
f 58/27/3 57/24/3 124/24/3 125/27/3
f 54/21/5 46/31/5 114/31/5 121/21/5
f 3/51/4 4/45/4 69/45/4 68/51/4
f 28/54/5 23/60/5 95/60/5 99/54/5
f 42/43/3 41/41/3 110/41/3 111/43/3
f 48/32/4 55/34/4 122/34/4 116/32/4
f 4/45/4 5/37/4 70/37/4 69/45/4
f 24/61/4 30/56/4 101/56/4 96/61/4
f 8/20/6 60/19/6 126/19/6 73/20/6
f 5/37/4 6/29/4 71/29/4 70/37/4
f 60/19/6 61/22/6 127/22/6 126/19/6
f 41/41/5 35/49/5 105/49/5 110/41/5
f 57/24/5 50/35/5 118/35/5 124/24/5
f 6/29/4 7/17/4 72/17/4 71/29/4
f 29/55/3 28/54/3 99/54/3 100/55/3
f 62/26/6 63/25/6 129/25/6 128/26/6
f 36/50/4 43/44/4 112/44/4 106/50/4
f 51/36/4 58/27/4 125/27/4 119/36/4
f 7/17/4 8/20/4 73/20/4 72/17/4
f 22/59/5 18/64/5 91/64/5 94/59/5
f 63/25/6 64/28/6 130/28/6 129/25/6
f 47/42/6 48/32/6 116/32/6 115/42/6
f 9/15/5 10/13/5 75/13/5 74/15/5
f 19/65/4 24/61/4 96/61/4 92/65/4
f 64/28/6 65/16/6 89/16/6 130/28/6
f 65/16/6 9/15/6 74/15/6 89/16/6
f 10/13/5 11/11/5 76/11/5 75/13/5
f 17/63/3 1/62/3 66/62/3 90/63/3
f 50/35/3 49/33/3 117/33/3 118/35/3
f 46/31/5 39/39/5 108/39/5 114/31/5
f 11/11/5 12/9/5 77/9/5 76/11/5
f 61/22/5 54/21/5 121/21/5 127/22/5
